<svg xmlns="http://www.w3.org/2000/svg" xmlns:xlink="http://www.w3.org/1999/xlink" width="1200" zoomAndPan="magnify" viewBox="0 0 900 359.999987" height="480" preserveAspectRatio="xMidYMid meet" version="1.0"><defs><g/><clipPath id="edcf5c130b"><path d="M 14.25 0 L 885.75 0 C 889.53125 0 893.152344 1.5 895.828125 4.171875 C 898.5 6.847656 900 10.46875 900 14.25 L 900 345.75 C 900 349.53125 898.5 353.152344 895.828125 355.828125 C 893.152344 358.5 889.53125 360 885.75 360 L 14.25 360 C 10.46875 360 6.847656 358.5 4.171875 355.828125 C 1.5 353.152344 0 349.53125 0 345.75 L 0 14.25 C 0 10.46875 1.5 6.847656 4.171875 4.171875 C 6.847656 1.5 10.46875 0 14.25 0 Z M 14.25 0 " clip-rule="nonzero"/></clipPath><clipPath id="4234ebb7cd"><path d="M 1.800781 1.800781 L 898.199219 1.800781 L 898.199219 358.199219 L 1.800781 358.199219 Z M 1.800781 1.800781 " clip-rule="nonzero"/></clipPath><clipPath id="0ee58f4d24"><path d="M 16.050781 1.800781 L 883.949219 1.800781 C 887.730469 1.800781 891.355469 3.300781 894.027344 5.972656 C 896.699219 8.644531 898.199219 12.269531 898.199219 16.050781 L 898.199219 343.949219 C 898.199219 347.730469 896.699219 351.355469 894.027344 354.027344 C 891.355469 356.699219 887.730469 358.199219 883.949219 358.199219 L 16.050781 358.199219 C 12.269531 358.199219 8.644531 356.699219 5.972656 354.027344 C 3.300781 351.355469 1.800781 347.730469 1.800781 343.949219 L 1.800781 16.050781 C 1.800781 12.269531 3.300781 8.644531 5.972656 5.972656 C 8.644531 3.300781 12.269531 1.800781 16.050781 1.800781 Z M 16.050781 1.800781 " clip-rule="nonzero"/></clipPath><clipPath id="1416a6f812"><path d="M 602 53 L 863 53 L 863 327.601562 L 602 327.601562 Z M 602 53 " clip-rule="nonzero"/></clipPath><clipPath id="6a945ede71"><path d="M 504 93 L 863 93 L 863 327.601562 L 504 327.601562 Z M 504 93 " clip-rule="nonzero"/></clipPath></defs><g clip-path="url(#edcf5c130b)"><rect x="-90" width="1080" fill="#004aad" y="-35.999999" height="431.999984" fill-opacity="1"/></g><g clip-path="url(#4234ebb7cd)"><g clip-path="url(#0ee58f4d24)"><path fill="#ffffff" d="M 1.800781 1.800781 L 898.199219 1.800781 L 898.199219 358.199219 L 1.800781 358.199219 Z M 1.800781 1.800781 " fill-opacity="1" fill-rule="nonzero"/></g></g><g clip-path="url(#1416a6f812)"><path fill="#ffffff" d="M 842.011719 185.320312 C 848.316406 183.378906 854.296875 179.007812 858.179688 171.480469 C 858.339844 171.238281 858.421875 170.914062 858.582031 170.671875 C 861.492188 164.601562 862.058594 154.5625 860.121094 142.421875 C 858.015625 129.070312 853.085938 114.339844 845.890625 99.6875 C 854.542969 96.9375 859.3125 90.136719 859.3125 80.585938 C 859.3125 60.109375 847.425781 54.929688 840.3125 53.632812 C 829.074219 51.609375 816.542969 58.894531 812.503906 69.5 C 809.914062 69.011719 807.246094 68.769531 804.660156 68.769531 C 803.851562 68.769531 803.042969 68.769531 802.074219 68.851562 C 795.6875 68.042969 789.945312 68.203125 785.015625 69.335938 C 762.621094 71.925781 763.429688 100.335938 763.429688 100.660156 C 763.429688 100.742188 763.429688 100.742188 763.429688 100.820312 C 763.347656 101.144531 763.1875 101.386719 763.105469 101.710938 C 762.054688 104.542969 760.921875 107.539062 759.550781 110.292969 C 758.175781 113.203125 756.800781 115.390625 755.265625 117.25 C 754.777344 117.820312 754.214844 118.386719 753.648438 118.953125 C 752.03125 120.652344 750.332031 122.351562 750.496094 124.457031 C 750.574219 125.832031 751.382812 127.046875 752.917969 128.339844 L 753.082031 128.503906 C 753.40625 128.746094 753.648438 128.988281 753.726562 129.230469 C 753.808594 129.394531 753.726562 129.714844 753.648438 129.960938 L 753.648438 130.121094 C 752.355469 136.917969 750.007812 149.464844 756.800781 154.5625 C 759.628906 157.316406 765.371094 158.933594 773.777344 159.339844 C 773.453125 161.6875 773.132812 164.113281 772.808594 166.382812 C 772.484375 168.808594 771.59375 176.578125 771.351562 181.839844 C 769.332031 182.8125 768.117188 183.378906 768.039062 183.460938 C 768.039062 183.460938 767.957031 183.539062 767.957031 183.539062 C 767.957031 183.539062 767.875 183.539062 767.875 183.621094 C 767.796875 183.703125 767.796875 183.703125 767.796875 183.78125 C 767.796875 183.78125 767.796875 183.78125 767.796875 183.863281 L 766.257812 187.507812 C 765.207031 189.285156 763.589844 191.875 761.246094 195.921875 C 750.332031 214.378906 739.660156 232.265625 733.03125 243.351562 C 732.628906 244.082031 732.222656 244.730469 731.820312 245.375 C 731.738281 245.296875 731.578125 245.296875 731.414062 245.296875 C 731.414062 245.296875 731.414062 245.296875 731.335938 245.296875 L 722.601562 211.140625 C 722.84375 211.058594 723.007812 210.734375 722.925781 210.410156 C 722.84375 210.085938 722.601562 209.925781 722.28125 210.007812 L 721.792969 208.0625 L 719.773438 200.050781 L 717.023438 200.78125 L 715.164062 192.605469 C 715.164062 192.441406 715.003906 192.28125 714.921875 192.199219 C 714.761719 192.121094 714.597656 192.121094 714.4375 192.121094 L 711.609375 192.847656 L 708.777344 181.597656 C 707.566406 176.902344 705.949219 172.371094 703.847656 168.242188 C 702.230469 165.085938 700.128906 162.253906 698.105469 159.582031 C 697.460938 158.773438 696.894531 157.882812 696.246094 157.074219 C 694.953125 155.292969 693.660156 153.429688 692.042969 151.894531 C 689.941406 149.871094 686.386719 148.089844 683.152344 147.035156 L 684.039062 141.453125 L 692.527344 140.398438 L 692.527344 140.238281 L 699.402344 142.746094 L 699.402344 143.878906 C 699.402344 143.960938 699.402344 144.042969 699.480469 144.125 C 699.5625 144.203125 699.644531 144.203125 699.722656 144.203125 L 704.574219 144.367188 C 704.738281 144.367188 704.898438 144.203125 704.898438 144.042969 L 706.03125 107.945312 C 706.03125 107.78125 705.867188 107.621094 705.707031 107.621094 L 700.855469 107.457031 C 700.773438 107.457031 700.695312 107.457031 700.613281 107.539062 C 700.53125 107.621094 700.53125 107.703125 700.53125 107.78125 L 700.53125 108.835938 L 693.578125 110.777344 L 616.132812 95.074219 L 616.210938 91.835938 L 604.085938 91.433594 L 602.0625 155.375 L 614.191406 155.777344 L 614.351562 150.273438 L 665.851562 143.878906 L 665.285156 147.441406 C 664.234375 147.441406 661.726562 147.359375 659.382812 147.605469 C 657.28125 147.765625 655.421875 149.0625 654.371094 150.921875 C 653.398438 152.785156 653.398438 154.96875 654.453125 156.832031 L 654.53125 156.992188 C 654.9375 157.722656 655.746094 158.449219 656.957031 159.015625 C 654.9375 159.664062 653.398438 161.445312 653.078125 163.710938 C 653.078125 163.710938 653.078125 163.792969 653.078125 163.871094 C 652.753906 166.703125 653.722656 168.40625 656.390625 169.539062 C 654.855469 170.429688 653.886719 171.640625 653.5625 173.097656 C 652.914062 176.011719 654.9375 179.25 656.066406 180.871094 C 655.582031 181.355469 655.261719 181.839844 655.015625 182.40625 C 653.5625 186.210938 657.765625 193.089844 657.925781 193.414062 C 658.007812 193.578125 658.171875 193.65625 658.332031 193.65625 L 658.007812 195.84375 C 657.28125 200.859375 661.082031 205.3125 666.09375 205.472656 C 670.296875 205.636719 673.933594 202.640625 674.664062 198.515625 L 675.550781 193.089844 L 676.925781 201.914062 L 673.855469 202.722656 C 673.53125 202.804688 673.367188 203.128906 673.449219 203.449219 L 675.390625 212.109375 L 671.023438 213.246094 L 672.316406 221.175781 L 672.804688 223.683594 C 672.558594 223.847656 672.398438 224.089844 672.480469 224.414062 C 672.558594 224.65625 672.804688 224.820312 673.046875 224.898438 L 679.109375 255.089844 L 692.449219 326.558594 L 858.746094 327.449219 L 862.464844 255.089844 C 862.464844 255.089844 862.464844 255.007812 862.464844 254.765625 C 862.625 250.070312 863.917969 204.585938 842.011719 185.320312 Z M 842.011719 185.320312 " fill-opacity="1" fill-rule="nonzero"/></g><path fill="#ffffff" d="M 584.199219 133.519531 C 584.199219 132.710938 584.199219 131.820312 584.117188 131.011719 C 584.117188 130.847656 584.117188 130.769531 584.117188 130.6875 C 584.035156 130.039062 584.035156 129.394531 583.953125 128.746094 C 583.953125 128.503906 583.875 128.339844 583.875 128.097656 C 583.792969 127.449219 583.710938 126.800781 583.550781 126.15625 C 583.550781 125.992188 583.46875 125.832031 583.46875 125.75 C 583.308594 124.941406 583.148438 124.132812 582.902344 123.402344 C 582.902344 123.320312 582.824219 123.242188 582.824219 123.160156 C 582.660156 122.511719 582.417969 121.867188 582.257812 121.136719 C 582.175781 120.976562 582.09375 120.730469 582.09375 120.570312 C 581.933594 120.003906 581.691406 119.4375 581.449219 118.871094 C 581.367188 118.707031 581.289062 118.546875 581.207031 118.386719 C 580.640625 116.929688 579.914062 115.550781 579.183594 114.175781 C 579.105469 114.015625 578.941406 113.851562 578.863281 113.609375 C 578.539062 113.125 578.296875 112.636719 577.972656 112.152344 C 577.890625 111.992188 577.730469 111.75 577.648438 111.585938 C 577.324219 111.019531 576.921875 110.453125 576.515625 109.96875 C 576.4375 109.886719 576.4375 109.804688 576.355469 109.726562 C 575.871094 109.078125 575.464844 108.511719 574.902344 107.945312 C 574.738281 107.78125 574.65625 107.621094 574.496094 107.539062 C 574.09375 107.132812 573.769531 106.648438 573.363281 106.246094 C 573.203125 106.082031 573.042969 105.921875 572.878906 105.757812 C 572.476562 105.355469 572.070312 104.949219 571.667969 104.542969 C 571.503906 104.382812 571.425781 104.300781 571.261719 104.140625 C 570.695312 103.65625 570.128906 103.167969 569.566406 102.683594 C 569.484375 102.601562 569.320312 102.519531 569.242188 102.441406 C 568.757812 102.035156 568.269531 101.710938 567.785156 101.308594 C 567.625 101.144531 567.382812 100.984375 567.21875 100.902344 C 566.734375 100.578125 566.332031 100.253906 565.847656 100.011719 C 565.683594 99.851562 565.441406 99.769531 565.28125 99.605469 C 564.632812 99.203125 563.988281 98.796875 563.339844 98.472656 C 562.691406 98.152344 562.046875 97.828125 561.398438 97.503906 C 561.15625 97.421875 560.996094 97.339844 560.753906 97.261719 C 560.269531 97.015625 559.78125 96.855469 559.296875 96.613281 C 559.054688 96.53125 558.8125 96.449219 558.570312 96.371094 C 558.085938 96.207031 557.601562 95.964844 557.035156 95.804688 C 556.792969 95.722656 556.628906 95.640625 556.386719 95.558594 C 555.660156 95.316406 554.933594 95.15625 554.203125 94.914062 C 553.476562 94.75 552.75 94.589844 552.023438 94.425781 C 551.777344 94.347656 551.535156 94.347656 551.292969 94.265625 C 550.726562 94.183594 550.242188 94.105469 549.675781 94.023438 C 549.433594 94.023438 549.109375 93.941406 548.867188 93.941406 C 548.300781 93.859375 547.816406 93.859375 547.25 93.78125 C 547.007812 93.78125 546.765625 93.699219 546.523438 93.699219 C 545.714844 93.617188 544.988281 93.617188 544.179688 93.617188 C 543.53125 93.617188 542.804688 93.617188 542.160156 93.699219 C 541.914062 93.699219 541.753906 93.699219 541.511719 93.78125 C 541.109375 93.78125 540.621094 93.859375 540.21875 93.859375 C 539.976562 93.859375 539.734375 93.941406 539.410156 93.941406 C 539.003906 94.023438 538.601562 94.023438 538.277344 94.105469 C 538.035156 94.183594 537.710938 94.183594 537.46875 94.265625 C 537.066406 94.347656 536.742188 94.425781 536.335938 94.425781 C 536.015625 94.507812 535.773438 94.589844 535.527344 94.589844 C 535.207031 94.671875 534.800781 94.75 534.476562 94.832031 C 534.15625 94.914062 533.914062 94.992188 533.589844 95.074219 C 533.265625 95.15625 532.941406 95.238281 532.617188 95.398438 C 532.296875 95.480469 532.054688 95.558594 531.730469 95.640625 C 531.40625 95.722656 531.082031 95.882812 530.757812 95.964844 C 530.4375 96.046875 530.195312 96.207031 529.949219 96.289062 C 529.628906 96.371094 529.304688 96.53125 528.980469 96.695312 C 528.738281 96.773438 528.414062 96.9375 528.171875 97.015625 C 527.847656 97.179688 527.605469 97.261719 527.28125 97.421875 C 527.039062 97.582031 526.71875 97.664062 526.476562 97.828125 C 526.152344 97.988281 525.910156 98.152344 525.585938 98.230469 C 525.34375 98.394531 525.019531 98.554688 524.777344 98.636719 C 524.535156 98.796875 524.210938 98.960938 523.96875 99.121094 C 523.726562 99.285156 523.402344 99.445312 523.160156 99.605469 C 522.917969 99.769531 522.59375 99.929688 522.351562 100.09375 C 522.109375 100.253906 521.785156 100.417969 521.542969 100.578125 C 521.300781 100.742188 521.058594 100.902344 520.816406 101.144531 C 520.574219 101.308594 520.332031 101.550781 520.007812 101.710938 C 519.765625 101.875 519.523438 102.117188 519.28125 102.277344 C 519.035156 102.519531 518.792969 102.683594 518.550781 102.925781 C 518.308594 103.085938 518.148438 103.332031 517.90625 103.492188 C 517.664062 103.734375 517.421875 103.898438 517.175781 104.140625 C 517.015625 104.300781 516.773438 104.542969 516.613281 104.707031 C 516.371094 104.949219 516.125 105.191406 515.804688 105.433594 C 515.640625 105.597656 515.480469 105.757812 515.398438 105.921875 C 514.347656 106.972656 513.378906 108.105469 512.488281 109.320312 C 512.40625 109.402344 512.328125 109.5625 512.246094 109.644531 C 512.003906 109.96875 511.761719 110.292969 511.519531 110.613281 C 511.355469 110.777344 511.277344 110.9375 511.113281 111.101562 C 510.871094 111.425781 510.710938 111.75 510.46875 112.070312 C 510.304688 112.234375 510.226562 112.476562 510.0625 112.636719 C 509.902344 112.960938 509.660156 113.285156 509.496094 113.609375 C 509.417969 113.851562 509.253906 114.015625 509.175781 114.257812 C 509.011719 114.582031 508.851562 114.90625 508.609375 115.226562 C 508.527344 115.472656 508.367188 115.632812 508.285156 115.875 C 508.121094 116.199219 507.960938 116.523438 507.800781 116.929688 C 507.71875 117.171875 507.558594 117.414062 507.476562 117.574219 C 507.316406 117.898438 507.152344 118.304688 507.070312 118.628906 C 506.992188 118.871094 506.910156 119.113281 506.828125 119.355469 C 506.667969 119.679688 506.585938 120.085938 506.425781 120.410156 C 506.34375 120.652344 506.261719 120.894531 506.183594 121.136719 C 506.101562 121.460938 505.941406 121.867188 505.859375 122.1875 C 505.777344 122.433594 505.699219 122.675781 505.617188 122.917969 C 505.535156 123.320312 505.457031 123.644531 505.292969 124.050781 C 505.210938 124.292969 505.210938 124.535156 505.132812 124.777344 C 505.050781 125.183594 504.96875 125.507812 504.890625 125.914062 C 504.808594 126.15625 504.808594 126.398438 504.726562 126.722656 C 504.648438 127.125 504.566406 127.449219 504.566406 127.855469 C 504.566406 128.097656 504.484375 128.339844 504.484375 128.664062 C 504.402344 129.070312 504.402344 129.472656 504.324219 129.796875 C 504.324219 129.878906 504.324219 129.960938 504.324219 130.039062 C 504.242188 131.171875 504.160156 132.386719 504.160156 133.601562 C 504.160156 155.777344 522.109375 173.746094 544.261719 173.746094 C 566.410156 173.746094 584.199219 155.617188 584.199219 133.519531 Z M 544.097656 151.730469 C 534.074219 151.730469 525.910156 143.558594 525.910156 133.519531 C 525.910156 132.953125 525.910156 132.386719 525.988281 131.820312 C 526.070312 131.335938 526.070312 130.769531 526.230469 130.28125 C 526.230469 130.203125 526.230469 130.121094 526.230469 130.121094 C 526.3125 129.636719 526.476562 129.148438 526.554688 128.664062 C 526.554688 128.582031 526.554688 128.503906 526.636719 128.503906 C 526.796875 128.015625 526.960938 127.53125 527.121094 127.046875 C 527.121094 126.964844 527.203125 126.964844 527.203125 126.882812 C 527.363281 126.398438 527.605469 125.914062 527.847656 125.507812 C 527.847656 125.425781 527.929688 125.425781 527.929688 125.347656 C 528.171875 124.859375 528.414062 124.457031 528.65625 123.96875 C 528.65625 123.96875 528.738281 123.890625 528.738281 123.890625 C 528.980469 123.402344 529.304688 123 529.628906 122.59375 C 530.273438 121.703125 531.003906 120.976562 531.808594 120.246094 C 531.808594 120.246094 531.890625 120.164062 531.890625 120.164062 C 532.296875 119.84375 532.617188 119.519531 533.023438 119.195312 C 533.105469 119.195312 533.105469 119.113281 533.183594 119.113281 C 533.589844 118.789062 533.992188 118.546875 534.398438 118.304688 C 534.476562 118.304688 534.476562 118.222656 534.558594 118.222656 C 534.964844 117.980469 535.367188 117.738281 535.851562 117.496094 C 535.933594 117.496094 536.015625 117.414062 536.015625 117.414062 C 536.417969 117.171875 536.902344 117.007812 537.308594 116.847656 C 537.390625 116.847656 537.46875 116.765625 537.550781 116.765625 C 538.035156 116.605469 538.441406 116.441406 538.925781 116.28125 C 539.003906 116.28125 539.085938 116.28125 539.167969 116.199219 C 539.652344 116.039062 540.136719 115.957031 540.621094 115.875 C 540.703125 115.875 540.703125 115.875 540.785156 115.875 C 541.269531 115.796875 541.835938 115.714844 542.320312 115.632812 C 542.320312 115.632812 542.402344 115.632812 542.402344 115.632812 C 542.96875 115.550781 543.53125 115.550781 544.097656 115.550781 C 544.421875 115.550781 544.828125 115.550781 545.148438 115.550781 C 545.230469 115.550781 545.390625 115.550781 545.472656 115.550781 C 545.714844 115.550781 545.957031 115.632812 546.199219 115.632812 C 546.363281 115.632812 546.441406 115.632812 546.605469 115.714844 C 546.847656 115.714844 547.089844 115.796875 547.332031 115.796875 C 547.414062 115.796875 547.574219 115.796875 547.65625 115.875 C 548.300781 116.039062 549.03125 116.199219 549.675781 116.363281 C 549.757812 116.363281 549.839844 116.441406 550 116.441406 C 550.242188 116.523438 550.484375 116.605469 550.648438 116.683594 C 550.726562 116.765625 550.890625 116.765625 550.96875 116.847656 C 551.214844 116.929688 551.457031 117.007812 551.617188 117.171875 C 551.699219 117.25 551.777344 117.25 551.859375 117.332031 C 552.183594 117.496094 552.507812 117.65625 552.75 117.820312 C 553.074219 117.980469 553.316406 118.140625 553.636719 118.304688 C 553.71875 118.386719 553.800781 118.386719 553.882812 118.464844 C 554.125 118.628906 554.285156 118.707031 554.445312 118.871094 C 554.527344 118.953125 554.609375 119.03125 554.6875 119.03125 C 554.933594 119.195312 555.09375 119.355469 555.335938 119.519531 C 555.417969 119.597656 555.417969 119.597656 555.496094 119.679688 C 555.742188 119.921875 555.984375 120.085938 556.304688 120.328125 C 556.386719 120.410156 556.46875 120.488281 556.46875 120.488281 C 556.628906 120.652344 556.871094 120.8125 557.035156 121.054688 C 557.113281 121.136719 557.195312 121.21875 557.277344 121.296875 C 557.4375 121.460938 557.601562 121.703125 557.761719 121.867188 C 557.84375 121.945312 557.84375 122.027344 557.921875 122.027344 C 558.164062 122.269531 558.328125 122.59375 558.570312 122.835938 C 558.570312 122.835938 558.652344 122.917969 558.652344 122.917969 C 558.8125 123.160156 558.972656 123.402344 559.136719 123.644531 C 559.214844 123.726562 559.214844 123.808594 559.296875 123.890625 C 559.460938 124.132812 559.539062 124.375 559.703125 124.535156 C 559.78125 124.617188 559.78125 124.699219 559.863281 124.777344 C 560.1875 125.425781 560.511719 125.992188 560.753906 126.722656 C 560.753906 126.800781 560.832031 126.882812 560.832031 126.964844 C 560.914062 127.207031 560.996094 127.449219 561.15625 127.773438 C 561.15625 127.855469 561.238281 127.9375 561.238281 128.015625 C 561.320312 128.339844 561.398438 128.582031 561.480469 128.90625 C 561.480469 128.988281 561.480469 128.988281 561.480469 129.070312 C 561.5625 129.394531 561.640625 129.796875 561.722656 130.121094 C 561.722656 130.203125 561.722656 130.28125 561.722656 130.28125 C 561.804688 130.605469 561.804688 130.847656 561.882812 131.171875 C 561.882812 131.253906 561.882812 131.335938 561.882812 131.496094 C 561.882812 131.820312 561.964844 132.0625 561.964844 132.386719 C 561.964844 132.792969 562.046875 133.277344 562.046875 133.683594 C 562.289062 143.558594 554.125 151.730469 544.097656 151.730469 Z M 544.097656 151.730469 " fill-opacity="1" fill-rule="nonzero"/><path fill="#ffffff" d="M 576.355469 85.28125 C 588.726562 89.488281 602.226562 82.933594 606.429688 70.550781 C 610.632812 58.167969 604.085938 44.652344 591.714844 40.441406 C 579.347656 36.234375 565.847656 42.789062 561.640625 55.171875 C 557.355469 67.554688 563.988281 80.992188 576.355469 85.28125 Z M 576.355469 85.28125 " fill-opacity="1" fill-rule="nonzero"/><path fill="#ffffff" d="M 623.8125 181.839844 C 626.398438 179.25 626.398438 175.042969 623.8125 172.453125 C 621.222656 169.863281 617.019531 169.863281 614.433594 172.453125 C 612.898438 173.988281 612.25 176.175781 612.574219 178.199219 L 568.757812 194.144531 L 567.625 193.980469 C 567.300781 193.898438 566.976562 194.144531 566.898438 194.46875 C 566.816406 194.789062 567.058594 195.113281 567.382812 195.195312 L 567.707031 195.277344 L 578.375 224.414062 L 629.957031 205.71875 L 621.871094 183.296875 C 622.519531 182.894531 623.164062 182.488281 623.8125 181.839844 Z M 623.8125 181.839844 " fill-opacity="1" fill-rule="nonzero"/><path fill="#ffffff" d="M 675.226562 95.480469 C 689.941406 93.050781 699.886719 79.128906 697.460938 64.398438 C 695.035156 49.667969 681.210938 39.714844 666.496094 42.140625 C 651.785156 44.570312 641.839844 58.492188 644.265625 73.222656 C 646.609375 87.953125 660.515625 97.90625 675.226562 95.480469 Z M 675.226562 95.480469 " fill-opacity="1" fill-rule="nonzero"/><path fill="#ffffff" d="M 714.519531 192.847656 L 711.125 193.738281 L 708.132812 181.921875 C 707 177.308594 705.382812 172.9375 703.199219 168.648438 C 701.664062 165.570312 699.644531 162.820312 697.542969 160.066406 C 695.601562 157.558594 693.902344 154.644531 691.558594 152.378906 C 687.679688 148.738281 679.027344 145.902344 676.28125 146.792969 C 674.90625 147.28125 671.429688 149.382812 668.035156 151.570312 C 665.609375 150.839844 665.367188 150.4375 665.367188 150.4375 L 665.769531 147.925781 C 665.769531 147.925781 662.453125 147.765625 659.382812 148.089844 C 655.339844 148.414062 652.996094 152.863281 654.9375 156.425781 C 654.9375 156.507812 655.015625 156.585938 655.015625 156.585938 C 655.664062 157.722656 657.28125 158.609375 659.382812 159.339844 C 659.300781 159.339844 659.222656 159.339844 659.140625 159.339844 C 656.472656 159.097656 654.046875 161.039062 653.644531 163.710938 C 653.644531 163.710938 653.644531 163.792969 653.644531 163.792969 C 653.238281 166.867188 654.53125 168.324219 658.25 169.296875 C 657.765625 169.375 657.28125 169.539062 656.875 169.78125 C 651.296875 172.777344 655.503906 179.007812 656.875 180.789062 C 656.3125 181.273438 655.824219 181.757812 655.582031 182.40625 C 654.207031 185.96875 658.414062 192.847656 658.414062 192.847656 L 659.140625 188.882812 C 660.757812 185.5625 672.882812 184.1875 673.367188 181.273438 C 673.613281 179.898438 673.289062 179.089844 672.722656 178.523438 C 674.90625 178.277344 676.765625 177.875 678.058594 177.144531 L 675.714844 191.308594 C 675.792969 191.308594 675.792969 191.308594 675.875 191.308594 L 677.492188 201.992188 L 673.933594 202.882812 L 677.894531 220.773438 L 680.320312 220.285156 L 680.726562 222.957031 L 716.945312 216.5625 L 715.894531 212.515625 L 718.722656 211.867188 Z M 678.625 156.910156 C 678.140625 156.910156 677.734375 156.992188 677.167969 157.074219 C 677.734375 156.992188 678.140625 156.910156 678.625 156.910156 Z M 673.125 161.445312 C 675.632812 161.445312 677.652344 161.121094 678.300781 160.632812 C 679.351562 159.746094 679.511719 158.367188 678.785156 156.992188 C 679.835938 156.910156 680.726562 156.910156 681.535156 157.074219 L 679.675781 168.160156 L 680.078125 165.570312 C 679.433594 164.519531 678.140625 163.46875 676.523438 162.578125 C 675.714844 162.089844 674.5 161.769531 673.125 161.445312 Z M 677.167969 170.914062 C 677.007812 170.832031 676.84375 170.832031 676.683594 170.753906 C 677.410156 170.589844 678.058594 170.347656 678.542969 170.105469 C 678.867188 169.941406 679.109375 169.699219 679.351562 169.539062 L 678.703125 173.261719 L 678.945312 171.722656 C 678.542969 171.480469 677.894531 171.238281 677.167969 170.914062 Z M 660.109375 81.964844 C 658.980469 75.003906 663.667969 68.445312 670.621094 67.3125 C 677.574219 66.179688 684.121094 70.875 685.253906 77.835938 Z M 663.828125 61.484375 C 663.34375 58.328125 665.445312 55.335938 668.597656 54.847656 C 671.753906 54.363281 674.742188 56.46875 675.226562 59.625 C 675.714844 62.78125 673.613281 65.773438 670.457031 66.261719 C 667.304688 66.746094 664.3125 64.640625 663.828125 61.484375 Z M 578.214844 71.277344 L 569.484375 57.277344 L 585.328125 52.746094 L 583.390625 57.679688 L 600.125 63.832031 L 597.214844 72.492188 L 581.773438 66.828125 L 580.15625 66.261719 Z M 812.664062 160.796875 L 820.425781 172.613281 L 773.859375 199.160156 L 768.28125 184.1875 C 768.28125 184.1875 769.65625 183.539062 771.917969 182.40625 C 772.160156 177.46875 772.96875 169.941406 773.375 166.625 C 773.695312 164.113281 774.101562 161.445312 774.425781 158.933594 C 766.988281 158.609375 760.359375 157.316406 757.203125 154.242188 C 750.574219 149.304688 753 136.839844 754.292969 130.121094 C 754.375 129.796875 754.457031 129.394531 754.292969 129.070312 C 754.132812 128.582031 753.648438 128.257812 753.242188 127.9375 C 748.148438 123.808594 753 120.894531 755.585938 117.65625 C 757.367188 115.472656 758.742188 113.042969 759.953125 110.535156 C 762.296875 105.597656 763.914062 100.335938 766.097656 95.398438 C 769.410156 87.710938 772.566406 83.339844 775.152344 80.75 C 775.070312 82.207031 775.3125 83.664062 775.796875 85.121094 C 780.003906 96.855469 789.058594 116.523438 803.042969 120.894531 C 803.285156 120.410156 803.527344 120.003906 803.691406 119.597656 C 803.691406 119.519531 803.769531 119.4375 803.769531 119.355469 C 804.011719 118.953125 804.257812 118.546875 804.5 118.140625 C 805.308594 116.683594 806.519531 115.550781 807.894531 114.742188 C 808.539062 114.339844 809.269531 114.015625 810.078125 113.773438 C 811.046875 113.449219 812.179688 113.285156 813.230469 113.367188 C 814.039062 113.367188 814.847656 113.527344 815.65625 113.773438 C 815.898438 113.851562 816.140625 113.933594 816.464844 114.015625 C 816.542969 114.015625 816.625 114.09375 816.707031 114.09375 C 816.949219 114.175781 817.191406 114.339844 817.351562 114.417969 C 817.433594 114.5 817.515625 114.5 817.675781 114.582031 C 817.835938 114.660156 817.917969 114.742188 818.082031 114.824219 C 818.324219 114.984375 818.644531 115.226562 818.890625 115.472656 C 819.050781 115.632812 819.210938 115.796875 819.375 115.875 C 819.375 115.875 819.375 115.957031 819.453125 115.957031 C 820.019531 116.523438 820.503906 117.25 820.910156 118.0625 C 821.152344 118.546875 821.394531 119.113281 821.558594 119.679688 C 823.738281 126.480469 820.503906 131.417969 815.976562 133.925781 C 815.65625 134.085938 815.332031 134.25 815.007812 134.410156 C 815.007812 134.410156 814.925781 134.410156 814.925781 134.492188 C 814.605469 134.652344 814.28125 134.816406 813.875 134.894531 C 812.746094 135.300781 811.613281 135.542969 810.5625 135.707031 C 810.5625 135.707031 810.480469 135.707031 810.480469 135.707031 C 810.15625 135.707031 809.753906 135.785156 809.429688 135.785156 C 809.429688 135.785156 809.347656 135.785156 809.347656 135.785156 C 808.621094 135.785156 807.894531 135.785156 807.167969 135.707031 C 807.085938 136.675781 807.085938 137.808594 807.003906 139.1875 C 807.003906 139.1875 807.003906 139.265625 807.003906 139.265625 C 807.003906 139.511719 807.003906 139.832031 806.921875 140.15625 C 806.921875 140.238281 806.921875 140.320312 806.921875 140.398438 C 806.921875 140.644531 806.921875 140.886719 806.84375 141.128906 C 806.84375 141.289062 806.84375 141.453125 806.84375 141.613281 C 806.84375 141.855469 806.84375 142.101562 806.84375 142.34375 C 806.84375 142.503906 806.84375 142.667969 806.84375 142.828125 C 806.84375 143.070312 806.84375 143.3125 806.761719 143.636719 C 806.761719 143.800781 806.761719 144.042969 806.761719 144.203125 C 806.761719 144.367188 806.761719 144.609375 806.761719 144.851562 C 806.761719 145.175781 806.761719 145.417969 806.679688 145.742188 C 806.679688 145.902344 806.679688 146.066406 806.679688 146.148438 C 806.679688 146.46875 806.679688 146.714844 806.601562 147.039062 C 806.601562 147.199219 806.601562 147.441406 806.601562 147.605469 C 806.601562 147.925781 806.601562 148.25 806.519531 148.574219 C 806.519531 148.738281 806.519531 148.898438 806.519531 148.980469 C 806.519531 149.382812 806.4375 149.789062 806.4375 150.195312 C 806.4375 150.273438 806.4375 150.355469 806.4375 150.4375 C 806.4375 150.839844 806.359375 151.164062 806.359375 151.570312 C 806.359375 151.730469 806.359375 151.894531 806.359375 152.054688 C 806.359375 152.378906 806.277344 152.785156 806.277344 153.109375 C 806.277344 153.269531 806.277344 153.429688 806.277344 153.511719 C 806.277344 153.917969 806.195312 154.402344 806.195312 154.808594 C 806.195312 154.886719 806.195312 154.96875 806.195312 155.050781 C 806.195312 155.535156 806.117188 156.019531 806.117188 156.585938 C 805.953125 159.5 806.195312 162.253906 806.761719 164.84375 C 809.511719 163.0625 811.773438 161.6875 812.664062 160.796875 Z M 619.445312 175.445312 C 619.6875 175.6875 619.769531 176.011719 619.527344 176.335938 L 600.609375 200.132812 C 600.527344 200.292969 600.285156 200.375 600.125 200.375 C 600.125 200.375 600.042969 200.375 600.042969 200.375 L 567.382812 195.277344 C 567.058594 195.195312 566.816406 194.953125 566.898438 194.546875 C 566.976562 194.222656 567.21875 193.980469 567.625 194.0625 L 599.882812 199.082031 L 618.554688 175.609375 C 618.800781 175.285156 619.203125 175.203125 619.445312 175.445312 Z M 619.445312 175.445312 " fill-opacity="1" fill-rule="nonzero"/><g clip-path="url(#6a945ede71)"><path fill="#ffb15f" d="M 706.03125 107.945312 L 704.898438 144.042969 C 704.898438 144.203125 704.738281 144.367188 704.574219 144.367188 L 699.722656 144.203125 C 699.644531 144.203125 699.5625 144.203125 699.480469 144.125 C 699.402344 144.042969 699.402344 143.960938 699.402344 143.878906 L 700.53125 107.78125 C 700.53125 107.703125 700.53125 107.621094 700.613281 107.539062 C 700.695312 107.457031 700.773438 107.457031 700.855469 107.457031 L 705.707031 107.621094 C 705.867188 107.621094 706.03125 107.703125 706.03125 107.945312 Z M 841.523438 184.917969 C 840.394531 183.945312 839.179688 183.054688 837.96875 182.246094 C 833.601562 179.414062 828.429688 177.550781 822.363281 176.984375 C 819.453125 176.742188 816.625 176.578125 813.796875 176.578125 C 813.796875 176.578125 813.714844 176.578125 813.714844 176.578125 L 773.859375 199.242188 L 768.28125 184.269531 C 768.28125 184.1875 768.847656 183.136719 761.246094 196.085938 C 750.332031 214.539062 739.660156 232.425781 733.03125 243.515625 C 732.464844 244.40625 731.980469 245.214844 731.496094 246.023438 L 721.792969 208.226562 L 719.773438 200.214844 L 716.460938 201.105469 L 713.304688 201.914062 L 679.027344 210.898438 L 676.035156 211.707031 L 671.105469 213 L 672.398438 220.933594 L 679.191406 254.765625 L 692.527344 326.234375 L 858.824219 327.125 L 862.542969 254.765625 C 862.542969 254.765625 862.542969 254.683594 862.542969 254.441406 C 862.707031 250.070312 864 203.9375 841.523438 184.917969 Z M 544.097656 93.375 C 566.25 93.375 584.199219 111.34375 584.199219 133.519531 C 584.199219 155.699219 566.25 173.585938 544.097656 173.585938 C 521.949219 173.585938 504 155.617188 504 133.519531 C 504 111.425781 521.949219 93.375 544.097656 93.375 Z M 544.097656 115.226562 C 534.074219 115.226562 525.910156 123.402344 525.910156 133.441406 C 525.910156 143.476562 534.074219 151.652344 544.097656 151.652344 C 554.125 151.652344 562.289062 143.476562 562.289062 133.441406 C 562.289062 123.402344 554.125 115.226562 544.097656 115.226562 Z M 621.789062 183.214844 C 619.527344 184.1875 616.859375 183.863281 614.835938 182.164062 L 600.691406 199.96875 C 600.609375 200.132812 600.367188 200.214844 600.203125 200.214844 C 600.203125 200.214844 600.125 200.214844 600.125 200.214844 L 567.785156 195.277344 L 578.375 224.414062 L 629.957031 205.71875 Z M 612.574219 178.277344 L 568.757812 194.222656 L 599.960938 199.082031 L 614.027344 181.4375 C 613.222656 180.464844 612.734375 179.414062 612.574219 178.277344 Z M 612.574219 178.277344 " fill-opacity="1" fill-rule="nonzero"/></g><path fill="#9c6afd" d="M 591.714844 40.359375 C 579.347656 36.152344 565.847656 42.707031 561.640625 55.089844 C 557.4375 67.476562 563.988281 80.992188 576.355469 85.199219 C 588.726562 89.410156 602.226562 82.851562 606.429688 70.46875 C 610.714844 58.085938 604.085938 44.570312 591.714844 40.359375 Z M 597.214844 72.492188 L 581.773438 66.828125 L 580.15625 66.261719 L 578.214844 71.277344 L 569.484375 57.277344 L 585.328125 52.746094 L 583.390625 57.679688 L 600.125 63.832031 Z M 693.5 110.695312 L 692.527344 140.398438 L 614.273438 150.195312 L 615.96875 94.992188 Z M 584.117188 131.011719 L 562.289062 132.386719 C 561.882812 125.914062 558.164062 120.410156 552.75 117.496094 L 563.179688 98.230469 C 574.980469 104.625 583.226562 116.765625 584.117188 131.011719 Z M 584.117188 131.011719 " fill-opacity="1" fill-rule="nonzero"/><path fill="#418aff" d="M 697.542969 64.398438 C 695.117188 49.667969 681.210938 39.714844 666.496094 42.140625 C 651.785156 44.570312 641.839844 58.492188 644.265625 73.222656 C 646.691406 87.953125 660.59375 97.90625 675.308594 95.480469 C 690.023438 93.050781 699.964844 79.128906 697.542969 64.398438 Z M 668.597656 54.847656 C 671.753906 54.363281 674.742188 56.46875 675.226562 59.625 C 675.714844 62.78125 673.613281 65.773438 670.457031 66.261719 C 667.304688 66.746094 664.3125 64.640625 663.828125 61.484375 C 663.34375 58.328125 665.445312 55.335938 668.597656 54.847656 Z M 660.109375 81.964844 C 658.980469 75.003906 663.667969 68.445312 670.621094 67.3125 C 677.574219 66.179688 684.121094 70.875 685.253906 77.835938 Z M 614.109375 155.617188 L 601.984375 155.210938 L 604.003906 91.269531 L 616.132812 91.675781 Z M 699.402344 142.746094 L 692.527344 140.238281 L 693.417969 110.695312 L 700.371094 108.753906 Z M 544.097656 93.375 C 550.96875 93.375 557.519531 95.15625 563.179688 98.230469 L 552.75 117.414062 C 550.164062 116.039062 547.25 115.226562 544.097656 115.226562 C 534.558594 115.226562 526.796875 122.511719 525.988281 131.820312 L 504.242188 129.878906 C 505.941406 109.480469 523.160156 93.375 544.097656 93.375 Z M 623.8125 172.53125 C 626.398438 175.121094 626.398438 179.332031 623.8125 181.921875 C 621.222656 184.511719 617.019531 184.511719 614.433594 181.921875 C 611.847656 179.332031 611.847656 175.121094 614.433594 172.53125 C 617.019531 169.941406 621.144531 169.941406 623.8125 172.53125 Z M 623.8125 172.53125 " fill-opacity="1" fill-rule="nonzero"/><path fill="#343434" d="M 675.550781 192.847656 L 676.925781 201.671875 L 673.855469 202.480469 C 673.53125 202.5625 673.367188 202.882812 673.367188 203.207031 L 675.308594 211.867188 L 675.875 211.707031 L 676.441406 211.542969 L 674.664062 203.53125 L 714.035156 193.578125 L 715.730469 201.183594 L 716.296875 201.023438 L 716.863281 200.859375 L 715.003906 192.6875 C 715.003906 192.523438 714.84375 192.363281 714.761719 192.28125 C 714.597656 192.199219 714.4375 192.199219 714.277344 192.199219 L 711.445312 192.929688 L 708.617188 181.679688 C 707.40625 176.984375 705.789062 172.453125 703.6875 168.324219 C 702.070312 165.167969 699.964844 162.335938 697.945312 159.664062 C 697.300781 158.855469 696.734375 157.964844 696.085938 157.15625 C 694.792969 155.375 693.5 153.511719 691.882812 151.972656 C 689.78125 149.949219 686.222656 148.171875 682.988281 147.117188 L 683.878906 141.535156 L 665.609375 143.800781 L 665.042969 147.359375 C 663.992188 147.359375 661.484375 147.28125 659.140625 147.523438 C 657.039062 147.683594 655.179688 148.980469 654.128906 150.839844 C 653.15625 152.703125 653.15625 154.886719 654.207031 156.75 L 654.289062 156.910156 C 654.695312 157.640625 655.503906 158.367188 656.714844 158.933594 C 654.695312 159.582031 653.15625 161.363281 652.835938 163.628906 C 652.835938 163.628906 652.835938 163.710938 652.835938 163.792969 C 652.511719 166.625 653.480469 168.324219 656.148438 169.457031 C 654.613281 170.347656 653.644531 171.5625 653.320312 173.019531 C 652.671875 175.933594 654.695312 179.167969 655.824219 180.789062 C 655.339844 181.273438 655.015625 181.757812 654.773438 182.324219 C 653.320312 186.128906 657.523438 193.011719 657.683594 193.332031 C 657.765625 193.496094 657.925781 193.578125 658.089844 193.578125 L 657.765625 195.761719 C 657.039062 200.78125 660.839844 205.230469 665.851562 205.394531 C 670.054688 205.554688 673.691406 202.5625 674.421875 198.433594 Z M 671.347656 159.179688 C 671.429688 159.097656 671.589844 159.097656 671.671875 159.097656 C 672.074219 158.933594 672.480469 158.855469 672.804688 158.691406 C 672.882812 158.691406 672.882812 158.691406 672.964844 158.691406 C 673.933594 158.367188 674.824219 158.207031 675.632812 157.964844 C 676.523438 157.800781 677.410156 157.640625 678.300781 157.558594 C 678.703125 158.53125 678.542969 159.421875 677.816406 160.148438 C 677.492188 160.472656 676.035156 160.796875 673.125 160.878906 L 668.761719 160.230469 C 669.085938 160.148438 669.488281 159.988281 669.8125 159.824219 C 670.378906 159.582031 670.863281 159.339844 671.347656 159.179688 Z M 695.195312 157.882812 C 695.761719 158.691406 696.410156 159.582031 697.054688 160.472656 C 699.078125 163.0625 701.097656 165.816406 702.714844 168.972656 C 704.738281 173.097656 706.433594 177.46875 707.566406 182.082031 L 710.394531 193.332031 L 678.058594 201.507812 L 676.523438 191.472656 C 676.523438 191.390625 676.441406 191.308594 676.441406 191.230469 L 678.703125 177.46875 L 679.59375 172.046875 L 680 169.78125 L 680.402344 167.191406 L 681.613281 160.066406 C 682.667969 162.980469 685.089844 167.515625 690.75 169.863281 C 690.832031 169.863281 690.914062 169.941406 690.992188 169.941406 C 691.234375 169.941406 691.476562 169.78125 691.558594 169.539062 C 691.71875 169.214844 691.558594 168.890625 691.234375 168.726562 C 683.230469 165.328125 682.101562 157.074219 682.101562 156.992188 C 682.101562 156.910156 682.101562 156.910156 682.019531 156.832031 C 682.019531 156.832031 682.019531 156.75 682.019531 156.75 C 682.019531 156.667969 681.9375 156.667969 681.9375 156.667969 C 681.9375 156.667969 681.9375 156.667969 681.859375 156.585938 C 681.859375 156.585938 681.777344 156.507812 681.695312 156.507812 C 681.695312 156.507812 681.613281 156.507812 681.613281 156.507812 C 680.242188 156.265625 678.625 156.34375 676.765625 156.667969 C 676.359375 156.75 676.035156 156.75 675.632812 156.832031 C 675.632812 156.832031 675.550781 156.832031 675.550781 156.832031 C 674.175781 157.15625 672.804688 157.558594 671.265625 158.042969 C 671.1875 158.042969 671.105469 158.125 671.023438 158.125 C 670.457031 158.289062 669.972656 158.53125 669.40625 158.691406 C 667.628906 159.421875 666.09375 159.664062 664.800781 159.582031 L 662.859375 159.339844 C 661.808594 159.015625 661.082031 158.53125 660.839844 158.042969 C 660.675781 157.722656 660.675781 157.398438 661 157.15625 C 661.082031 157.074219 661.160156 157.074219 661.242188 156.992188 C 662.292969 156.265625 664.636719 154.644531 667.144531 152.945312 C 667.226562 152.945312 667.226562 152.863281 667.304688 152.863281 C 667.386719 152.785156 667.546875 152.703125 667.628906 152.621094 C 667.710938 152.539062 667.871094 152.460938 667.953125 152.378906 C 668.035156 152.378906 668.035156 152.296875 668.113281 152.296875 C 671.507812 150.03125 675.066406 147.847656 676.441406 147.441406 C 678.785156 146.632812 687.191406 149.140625 691.15625 152.863281 C 692.691406 154.320312 693.984375 156.101562 695.195312 157.882812 Z M 655.582031 156.265625 L 655.503906 156.101562 C 654.695312 154.644531 654.695312 152.863281 655.421875 151.328125 C 656.230469 149.789062 657.683594 148.816406 659.464844 148.65625 C 661.648438 148.492188 663.992188 148.492188 665.121094 148.492188 L 664.394531 153.269531 C 662.777344 154.320312 661.484375 155.292969 660.675781 155.859375 C 660.515625 155.941406 660.433594 156.019531 660.351562 156.101562 C 659.542969 156.75 659.300781 157.640625 659.785156 158.53125 C 659.867188 158.609375 659.867188 158.691406 659.949219 158.855469 L 659.542969 158.773438 C 657.523438 158.042969 656.066406 157.15625 655.582031 156.265625 Z M 654.207031 163.871094 L 653.644531 163.792969 L 654.289062 163.792969 C 654.613281 161.363281 656.714844 159.746094 659.058594 159.988281 L 662.535156 160.472656 C 663.183594 160.632812 663.910156 160.796875 664.71875 160.796875 L 673.046875 162.011719 C 674.5 162.335938 675.550781 162.738281 676.28125 163.0625 C 677.734375 163.792969 678.867188 164.679688 679.511719 165.652344 L 678.945312 169.214844 C 678.785156 169.375 678.542969 169.457031 678.382812 169.617188 C 677.976562 169.863281 677.410156 170.023438 676.765625 170.183594 L 658.492188 168.808594 C 654.9375 167.839844 653.886719 166.625 654.207031 163.871094 Z M 654.773438 173.179688 C 655.015625 171.964844 655.746094 171.074219 657.121094 170.347656 C 657.121094 170.347656 657.199219 170.347656 657.199219 170.265625 C 657.523438 170.105469 657.925781 169.941406 658.332031 169.863281 L 676.601562 171.238281 C 676.765625 171.320312 676.84375 171.320312 677.007812 171.398438 C 677.492188 171.5625 677.976562 171.804688 678.382812 172.046875 L 677.574219 176.742188 C 676.441406 177.308594 674.824219 177.710938 672.804688 177.875 C 667.386719 177.390625 659.058594 179.492188 657.199219 179.980469 C 656.230469 178.847656 654.207031 175.769531 654.773438 173.179688 Z M 656.230469 182.648438 C 656.390625 182.164062 656.714844 181.757812 657.199219 181.355469 C 658.332031 181.03125 667.0625 178.765625 672.480469 179.167969 C 672.882812 179.574219 672.964844 180.300781 672.804688 181.191406 C 672.558594 182.324219 669.164062 183.460938 666.496094 184.429688 C 662.941406 185.644531 659.542969 186.777344 658.574219 188.71875 C 658.574219 188.800781 658.492188 188.800781 658.492188 188.882812 L 658.089844 191.148438 C 656.957031 188.71875 655.339844 184.835938 656.230469 182.648438 Z M 765.9375 208.953125 C 764.320312 208.953125 763.023438 210.25 763.023438 211.867188 C 763.023438 213.488281 764.320312 214.78125 765.9375 214.78125 C 767.550781 214.78125 768.847656 213.488281 768.847656 211.867188 C 768.847656 210.25 767.550781 208.953125 765.9375 208.953125 Z M 765.9375 213.648438 C 764.964844 213.648438 764.238281 212.839844 764.238281 211.949219 C 764.238281 210.976562 765.046875 210.25 765.9375 210.25 C 766.90625 210.25 767.632812 211.058594 767.632812 211.949219 C 767.632812 212.839844 766.90625 213.648438 765.9375 213.648438 Z M 759.953125 221.582031 C 758.335938 221.582031 757.042969 222.875 757.042969 224.496094 C 757.042969 226.113281 758.335938 227.410156 759.953125 227.410156 C 761.570312 227.410156 762.863281 226.113281 762.863281 224.496094 C 762.945312 222.875 761.570312 221.582031 759.953125 221.582031 Z M 759.953125 226.277344 C 758.984375 226.277344 758.253906 225.464844 758.253906 224.574219 C 758.253906 223.605469 759.0625 222.875 759.953125 222.875 C 760.84375 222.875 761.652344 223.683594 761.652344 224.574219 C 761.730469 225.464844 760.921875 226.277344 759.953125 226.277344 Z M 754.535156 235.179688 C 752.917969 235.179688 751.625 236.472656 751.625 238.09375 C 751.625 239.710938 752.917969 241.007812 754.535156 241.007812 C 756.152344 241.007812 757.445312 239.710938 757.445312 238.09375 C 757.527344 236.472656 756.152344 235.179688 754.535156 235.179688 Z M 754.535156 239.792969 C 753.566406 239.792969 752.839844 238.984375 752.839844 238.09375 C 752.839844 237.121094 753.648438 236.394531 754.535156 236.394531 C 755.507812 236.394531 756.234375 237.203125 756.234375 238.09375 C 756.316406 239.0625 755.507812 239.792969 754.535156 239.792969 Z M 816.949219 210.332031 C 817.109375 210.65625 817.03125 210.976562 816.785156 211.140625 C 795.363281 224.65625 795.121094 317.167969 795.121094 318.140625 C 795.121094 318.464844 794.878906 318.789062 794.472656 318.789062 C 794.070312 318.789062 793.828125 318.542969 793.828125 318.140625 C 793.828125 317.898438 793.828125 294.425781 796.574219 269.496094 C 800.214844 235.90625 806.761719 215.914062 816.058594 210.085938 C 816.464844 210.007812 816.785156 210.085938 816.949219 210.332031 Z M 722.925781 210.492188 C 723.007812 210.816406 722.84375 211.140625 722.523438 211.222656 L 673.207031 224.496094 C 673.125 224.496094 673.125 224.496094 673.046875 224.496094 C 672.804688 224.496094 672.558594 224.332031 672.480469 224.007812 C 672.398438 223.683594 672.558594 223.363281 672.882812 223.28125 L 722.199219 210.007812 C 722.441406 210.007812 722.847656 210.167969 722.925781 210.492188 Z M 860.121094 142.421875 C 858.015625 129.070312 853.085938 114.339844 845.890625 99.6875 C 854.542969 96.9375 859.3125 90.136719 859.3125 80.585938 C 859.3125 60.109375 847.425781 54.929688 840.3125 53.632812 C 829.074219 51.609375 816.542969 58.894531 812.503906 69.5 C 809.914062 69.011719 807.246094 68.769531 804.660156 68.769531 C 803.851562 68.769531 803.042969 68.769531 802.074219 68.851562 C 795.6875 68.042969 789.945312 68.203125 785.015625 69.335938 C 762.621094 71.925781 763.429688 100.335938 763.429688 100.660156 C 763.429688 100.742188 763.429688 100.742188 763.429688 100.820312 C 763.347656 101.144531 763.1875 101.386719 763.105469 101.710938 C 762.054688 104.542969 760.921875 107.539062 759.550781 110.292969 C 758.175781 113.203125 756.800781 115.390625 755.265625 117.25 C 754.777344 117.820312 754.214844 118.386719 753.648438 118.953125 C 752.03125 120.652344 750.332031 122.351562 750.496094 124.457031 C 750.574219 125.832031 751.382812 127.046875 752.917969 128.339844 L 753.082031 128.503906 C 753.40625 128.746094 753.648438 128.988281 753.726562 129.230469 C 753.808594 129.394531 753.726562 129.714844 753.648438 129.960938 L 753.648438 130.121094 C 752.355469 136.917969 750.007812 149.464844 756.800781 154.5625 C 759.628906 157.316406 765.371094 158.933594 773.777344 159.339844 C 773.453125 161.6875 773.132812 164.113281 772.808594 166.382812 C 772.484375 168.808594 771.59375 176.578125 771.351562 181.839844 C 769.332031 182.8125 768.117188 183.378906 768.039062 183.460938 C 768.039062 183.460938 767.957031 183.539062 767.957031 183.539062 C 767.957031 183.539062 767.875 183.539062 767.875 183.621094 C 767.796875 183.703125 767.796875 183.703125 767.796875 183.78125 C 767.796875 183.78125 767.796875 183.78125 767.796875 183.863281 L 737.476562 256.0625 C 737.316406 256.382812 737.476562 256.707031 737.800781 256.871094 C 737.882812 256.871094 737.964844 256.949219 738.042969 256.949219 C 738.285156 256.949219 738.53125 256.789062 738.609375 256.546875 L 768.359375 185.726562 L 773.453125 199.242188 C 773.535156 199.402344 773.617188 199.566406 773.777344 199.566406 C 773.859375 199.566406 773.9375 199.566406 774.019531 199.566406 C 774.101562 199.566406 774.261719 199.566406 774.34375 199.484375 L 812.90625 177.46875 C 816.625 181.273438 821.234375 183.945312 826.003906 185.238281 C 828.429688 185.886719 831.097656 186.292969 833.765625 186.292969 C 842.980469 186.292969 852.761719 182.003906 858.261719 171.238281 C 858.421875 170.996094 858.503906 170.671875 858.664062 170.429688 C 861.492188 164.601562 862.058594 154.5625 860.121094 142.421875 Z M 773.9375 166.785156 C 774.261719 164.277344 774.667969 161.605469 774.992188 159.097656 C 774.992188 158.933594 774.992188 158.773438 774.828125 158.609375 C 774.667969 158.449219 774.585938 158.367188 774.425781 158.367188 C 765.9375 157.964844 760.277344 156.425781 757.527344 153.835938 C 751.304688 149.140625 753.566406 137 754.777344 130.527344 L 754.777344 130.363281 C 754.859375 130.039062 754.941406 129.554688 754.777344 129.070312 C 754.617188 128.421875 754.132812 128.097656 753.726562 127.773438 L 753.566406 127.613281 C 752.273438 126.558594 751.625 125.589844 751.546875 124.617188 C 751.464844 123.078125 752.839844 121.542969 754.375 120.003906 C 754.941406 119.4375 755.507812 118.789062 755.992188 118.222656 C 757.609375 116.28125 758.984375 114.015625 760.4375 111.019531 C 761.652344 108.589844 762.621094 106 763.589844 103.492188 C 763.671875 103.492188 763.753906 103.492188 763.832031 103.492188 C 770.785156 102.035156 774.261719 106.8125 774.425781 106.972656 C 774.503906 107.132812 774.746094 107.214844 774.910156 107.214844 C 774.992188 107.214844 775.152344 107.214844 775.234375 107.132812 C 775.476562 106.972656 775.554688 106.566406 775.394531 106.324219 C 775.394531 106.246094 771.515625 100.902344 764.078125 102.277344 C 764.886719 100.175781 765.691406 97.90625 766.664062 95.804688 C 769.167969 90.058594 771.835938 85.523438 774.585938 82.367188 C 774.667969 83.015625 774.746094 83.664062 774.910156 84.308594 C 774.992188 84.632812 775.070312 85.039062 775.234375 85.363281 C 779.4375 96.9375 788.570312 117.007812 802.882812 121.542969 C 803.203125 121.621094 803.449219 121.460938 803.609375 121.21875 C 803.769531 120.976562 803.851562 120.730469 804.011719 120.488281 L 804.417969 119.679688 C 804.660156 119.273438 804.902344 118.871094 805.0625 118.464844 C 805.226562 118.140625 805.46875 117.898438 805.628906 117.65625 L 805.792969 117.496094 C 805.792969 117.414062 805.871094 117.414062 805.871094 117.332031 C 806.277344 116.847656 806.679688 116.363281 807.167969 116.039062 L 807.328125 115.875 C 807.570312 115.632812 807.894531 115.472656 808.136719 115.308594 C 808.460938 115.148438 808.703125 114.984375 809.027344 114.824219 L 809.269531 114.742188 C 809.589844 114.582031 809.914062 114.5 810.15625 114.417969 C 810.398438 114.339844 810.644531 114.257812 810.886719 114.257812 C 811.613281 114.09375 812.339844 114.015625 813.066406 114.015625 C 813.390625 114.015625 813.714844 114.09375 814.039062 114.09375 C 814.117188 114.09375 814.199219 114.09375 814.28125 114.175781 C 814.28125 114.175781 814.28125 114.175781 814.363281 114.175781 C 814.683594 114.257812 815.007812 114.339844 815.25 114.417969 C 815.414062 114.5 815.574219 114.5 815.734375 114.582031 C 815.816406 114.582031 815.898438 114.660156 815.976562 114.660156 L 816.140625 114.742188 C 816.382812 114.824219 816.542969 114.90625 816.785156 115.066406 C 816.867188 115.066406 816.867188 115.148438 816.949219 115.148438 L 817.03125 115.226562 C 817.109375 115.308594 817.273438 115.390625 817.351562 115.472656 C 817.59375 115.632812 817.835938 115.875 818.160156 116.117188 C 818.242188 116.199219 818.402344 116.363281 818.484375 116.441406 C 818.484375 116.441406 818.566406 116.523438 818.566406 116.523438 C 818.808594 116.765625 819.050781 117.089844 819.292969 117.414062 C 819.535156 117.738281 819.699219 118.140625 819.941406 118.464844 C 820.019531 118.707031 820.183594 118.871094 820.261719 119.113281 C 820.34375 119.195312 820.34375 119.273438 820.425781 119.4375 C 820.503906 119.597656 820.585938 119.84375 820.667969 120.003906 C 820.75 120.328125 820.910156 120.730469 820.992188 121.054688 C 821.070312 121.378906 821.152344 121.621094 821.152344 121.945312 L 821.152344 122.109375 C 821.234375 122.433594 821.234375 122.753906 821.234375 123.078125 C 821.394531 125.425781 820.910156 127.53125 819.777344 129.394531 C 819.777344 129.472656 819.699219 129.472656 819.699219 129.554688 C 819.535156 129.714844 819.453125 129.960938 819.292969 130.121094 C 819.210938 130.203125 819.210938 130.28125 819.132812 130.363281 C 818.96875 130.527344 818.890625 130.6875 818.726562 130.847656 C 818.644531 130.929688 818.566406 131.011719 818.566406 131.09375 C 818.402344 131.253906 818.242188 131.417969 818 131.660156 C 817.917969 131.738281 817.757812 131.820312 817.675781 131.902344 C 817.59375 131.984375 817.433594 132.144531 817.351562 132.226562 C 817.273438 132.304688 817.191406 132.386719 817.03125 132.46875 C 816.867188 132.628906 816.625 132.710938 816.464844 132.871094 C 816.382812 132.953125 816.300781 132.953125 816.222656 133.035156 C 815.898438 133.195312 815.65625 133.441406 815.332031 133.601562 C 815.007812 133.761719 814.683594 133.925781 814.363281 134.085938 L 814.28125 134.167969 C 813.957031 134.328125 813.632812 134.410156 813.230469 134.574219 C 812.90625 134.734375 812.503906 134.816406 812.179688 134.894531 C 812.097656 134.894531 812.015625 134.894531 812.015625 134.976562 C 811.613281 135.058594 811.207031 135.140625 810.804688 135.21875 C 810.5625 135.300781 810.320312 135.300781 810.078125 135.300781 L 809.914062 135.300781 C 809.589844 135.300781 809.269531 135.382812 808.945312 135.382812 C 808.621094 135.382812 808.296875 135.382812 807.976562 135.382812 L 807.8125 135.382812 C 807.488281 135.382812 807.167969 135.300781 806.921875 135.300781 C 806.761719 135.300781 806.601562 135.300781 806.4375 135.464844 C 806.359375 135.542969 806.359375 135.542969 806.277344 135.625 C 806.277344 135.707031 806.195312 135.785156 806.195312 135.867188 L 805.710938 143.960938 L 804.984375 156.667969 C 804.902344 157.398438 804.902344 158.042969 804.902344 158.691406 C 804.902344 158.773438 804.902344 158.933594 804.902344 159.015625 C 804.902344 160.957031 805.144531 162.820312 805.46875 164.601562 C 796.171875 169.78125 780.082031 177.710938 772.242188 181.597656 C 772.808594 176.742188 773.535156 170.023438 773.9375 166.785156 Z M 774.183594 198.351562 L 769.007812 184.59375 C 772.726562 182.8125 794.3125 172.371094 806.035156 165.816406 C 807.167969 170.183594 809.269531 173.910156 811.9375 176.902344 Z M 766.824219 111.503906 C 767.148438 112.234375 767.066406 113.042969 766.90625 113.851562 C 766.664062 114.90625 766.015625 116.28125 764.804688 116.039062 C 762.945312 115.632812 763.429688 112.152344 764.804688 111.101562 C 765.9375 110.128906 766.582031 110.777344 766.824219 111.503906 Z M 765.9375 139.671875 C 766.097656 139.996094 765.9375 140.320312 765.613281 140.480469 C 763.753906 141.289062 761.8125 141.695312 759.953125 141.695312 C 758.984375 141.695312 758.011719 141.613281 757.042969 141.371094 C 756.71875 141.289062 756.476562 140.964844 756.558594 140.644531 C 756.636719 140.320312 756.960938 140.078125 757.285156 140.15625 C 759.953125 140.722656 762.539062 140.480469 765.128906 139.347656 C 765.449219 139.1875 765.773438 139.347656 765.9375 139.671875 Z M 732.0625 245.863281 L 746.371094 325.667969 C 746.453125 325.992188 746.210938 326.316406 745.886719 326.394531 C 745.886719 326.394531 745.804688 326.394531 745.804688 326.394531 C 745.480469 326.394531 745.238281 326.152344 745.238281 325.910156 L 730.929688 246.105469 C 730.847656 245.78125 731.09375 245.457031 731.414062 245.375 C 731.65625 245.296875 731.980469 245.457031 732.0625 245.863281 Z M 732.0625 245.863281 " fill-opacity="1" fill-rule="nonzero"/><g fill="#000000" fill-opacity="1"><g transform="translate(44.212514, 192.149987)"><g><path d="M 1.347656 0 L 3.507812 0 L 6.691406 -8.933594 L 19.828125 -8.933594 L 23.050781 0 L 25.335938 0 L 14.851562 -29.167969 L 11.832031 -29.167969 Z M 13.257812 -27.292969 L 19.175781 -10.769531 L 7.34375 -10.769531 Z M 13.257812 -27.292969 "/></g></g></g><g fill="#000000" fill-opacity="1"><g transform="translate(70.89266, 192.149987)"><g><path d="M 11.339844 0.328125 C 15.339844 0.328125 18.316406 -2.367188 19.460938 -4.9375 L 19.460938 0 L 21.621094 0 L 21.621094 -31.535156 L 19.460938 -31.535156 L 19.460938 -16.605469 C 18.234375 -19.257812 15.871094 -21.664062 11.667969 -21.664062 C 6.039062 -21.664062 1.753906 -17.257812 1.753906 -10.6875 L 1.753906 -10.363281 C 1.753906 -3.589844 5.914062 0.328125 11.339844 0.328125 Z M 11.546875 -1.507812 C 7.300781 -1.507812 4 -4.609375 4 -10.445312 L 4 -10.769531 C 4 -16.523438 7.300781 -19.828125 11.871094 -19.828125 C 16.320312 -19.828125 19.5 -16.726562 19.5 -10.851562 L 19.5 -10.527344 C 19.5 -4.652344 15.871094 -1.507812 11.546875 -1.507812 Z M 11.546875 -1.507812 "/></g></g></g><g fill="#000000" fill-opacity="1"><g transform="translate(95.859406, 192.149987)"><g><path d="M 3.34375 0 L 5.507812 0 L 5.507812 -13.015625 C 5.507812 -17.460938 8.851562 -19.785156 12.117188 -19.785156 C 15.542969 -19.785156 17.460938 -17.992188 17.460938 -13.464844 L 17.460938 0 L 19.625 0 L 19.625 -13.015625 C 19.625 -17.460938 22.96875 -19.785156 26.234375 -19.785156 C 29.660156 -19.785156 31.578125 -17.992188 31.578125 -13.464844 L 31.578125 0 L 33.738281 0 L 33.738281 -13.339844 C 33.738281 -19.417969 30.71875 -21.664062 26.601562 -21.664062 C 23.375 -21.664062 20.359375 -19.910156 19.011719 -16.890625 C 18.113281 -20.316406 15.667969 -21.664062 12.484375 -21.664062 C 9.015625 -21.664062 6.488281 -19.625 5.507812 -17.296875 L 5.507812 -21.335938 L 3.34375 -21.335938 Z M 3.34375 0 "/></g></g></g><g fill="#000000" fill-opacity="1"><g transform="translate(132.73838, 192.149987)"><g><path d="M 3.425781 0 L 5.589844 0 L 5.589844 -21.335938 L 3.425781 -21.335938 Z M 4.488281 -25.90625 C 5.34375 -25.90625 5.996094 -26.601562 5.996094 -27.457031 C 5.996094 -28.273438 5.34375 -28.964844 4.488281 -28.964844 C 3.632812 -28.964844 2.9375 -28.273438 2.9375 -27.457031 C 2.9375 -26.601562 3.632812 -25.90625 4.488281 -25.90625 Z M 4.488281 -25.90625 "/></g></g></g><g fill="#000000" fill-opacity="1"><g transform="translate(141.754145, 192.149987)"><g><path d="M 3.34375 0 L 5.507812 0 L 5.507812 -12.933594 C 5.507812 -17.421875 9.015625 -19.785156 12.566406 -19.785156 C 16.359375 -19.785156 18.480469 -17.789062 18.480469 -13.257812 L 18.480469 0 L 20.644531 0 L 20.644531 -13.136719 C 20.644531 -19.214844 17.582031 -21.664062 13.054688 -21.664062 C 9.261719 -21.664062 6.488281 -19.5 5.507812 -17.175781 L 5.507812 -21.335938 L 3.34375 -21.335938 Z M 3.34375 0 "/></g></g></g><g fill="#000000" fill-opacity="1"><g transform="translate(165.537814, 192.149987)"><g><path d="M 3.425781 0 L 5.589844 0 L 5.589844 -21.335938 L 3.425781 -21.335938 Z M 4.488281 -25.90625 C 5.34375 -25.90625 5.996094 -26.601562 5.996094 -27.457031 C 5.996094 -28.273438 5.34375 -28.964844 4.488281 -28.964844 C 3.632812 -28.964844 2.9375 -28.273438 2.9375 -27.457031 C 2.9375 -26.601562 3.632812 -25.90625 4.488281 -25.90625 Z M 4.488281 -25.90625 "/></g></g></g><g fill="#000000" fill-opacity="1"><g transform="translate(174.55358, 192.149987)"><g><path d="M 9.75 0.367188 C 14.605469 0.367188 17.257812 -2.242188 17.257812 -5.832031 C 17.257812 -9.996094 14.644531 -11.097656 10.078125 -11.914062 C 5.710938 -12.6875 4.242188 -13.585938 4.242188 -16.035156 C 4.242188 -18.316406 6.242188 -19.828125 9.21875 -19.828125 C 12.320312 -19.828125 14.074219 -18.601562 14.605469 -15.871094 L 16.6875 -15.871094 C 16.113281 -20.070312 13.097656 -21.664062 9.261719 -21.664062 C 5.671875 -21.664062 2.242188 -19.582031 2.242188 -15.953125 C 2.242188 -12.28125 4.367188 -10.933594 9.585938 -9.996094 C 13.585938 -9.261719 15.175781 -8.402344 15.175781 -5.671875 C 15.175781 -3.101562 13.339844 -1.46875 9.75 -1.46875 C 5.792969 -1.46875 4 -3.46875 3.632812 -6.363281 L 1.550781 -6.363281 C 1.835938 -2.285156 4.734375 0.367188 9.75 0.367188 Z M 9.75 0.367188 "/></g></g></g><g fill="#000000" fill-opacity="1"><g transform="translate(193.523411, 192.149987)"><g><path d="M 9.382812 0.285156 C 10.6875 0.285156 11.503906 0.0820312 12.199219 -0.164062 L 12.199219 -2 C 11.464844 -1.753906 10.605469 -1.550781 9.503906 -1.550781 C 7.546875 -1.550781 6.324219 -2.734375 6.324219 -5.304688 L 6.324219 -19.5 L 11.914062 -19.5 L 11.914062 -21.335938 L 6.324219 -21.335938 L 6.324219 -26.191406 L 4.160156 -26.191406 L 4.160156 -21.335938 L 1.019531 -21.335938 L 1.019531 -19.5 L 4.160156 -19.5 L 4.160156 -5.140625 C 4.160156 -1.714844 5.996094 0.285156 9.382812 0.285156 Z M 9.382812 0.285156 "/></g></g></g><g fill="#000000" fill-opacity="1"><g transform="translate(207.312227, 192.149987)"><g><path d="M 3.34375 0 L 5.507812 0 L 5.507812 -11.832031 C 5.507812 -17.5 8.609375 -19.417969 12.730469 -19.582031 L 12.730469 -21.621094 C 8.8125 -21.5 6.691406 -19.460938 5.507812 -16.847656 L 5.507812 -21.335938 L 3.34375 -21.335938 Z M 3.34375 0 "/></g></g></g><g fill="#000000" fill-opacity="1"><g transform="translate(221.509007, 192.149987)"><g><path d="M 9.015625 0.328125 C 12.605469 0.328125 14.890625 -1.183594 16.238281 -3.265625 L 16.238281 0 L 18.398438 0 L 18.398438 -14.117188 C 18.398438 -19.542969 15.378906 -21.664062 10.933594 -21.664062 C 6.894531 -21.664062 3.222656 -19.785156 2.734375 -15.300781 L 4.855469 -15.300781 C 5.34375 -18.441406 7.628906 -19.828125 10.851562 -19.828125 C 14.605469 -19.828125 16.238281 -18.113281 16.238281 -14.117188 L 16.238281 -12.199219 L 11.789062 -12.199219 C 6.527344 -12.199219 1.796875 -10.6875 1.796875 -5.753906 C 1.796875 -1.714844 4.8125 0.328125 9.015625 0.328125 Z M 9.179688 -1.429688 C 5.671875 -1.429688 3.957031 -3.019531 3.957031 -5.753906 C 3.957031 -9.585938 7.425781 -10.527344 11.871094 -10.527344 L 16.238281 -10.527344 L 16.238281 -6.894531 C 16.238281 -3.710938 13.097656 -1.429688 9.179688 -1.429688 Z M 9.179688 -1.429688 "/></g></g></g><g fill="#000000" fill-opacity="1"><g transform="translate(243.08974, 192.149987)"><g><path d="M 9.382812 0.285156 C 10.6875 0.285156 11.503906 0.0820312 12.199219 -0.164062 L 12.199219 -2 C 11.464844 -1.753906 10.605469 -1.550781 9.503906 -1.550781 C 7.546875 -1.550781 6.324219 -2.734375 6.324219 -5.304688 L 6.324219 -19.5 L 11.914062 -19.5 L 11.914062 -21.335938 L 6.324219 -21.335938 L 6.324219 -26.191406 L 4.160156 -26.191406 L 4.160156 -21.335938 L 1.019531 -21.335938 L 1.019531 -19.5 L 4.160156 -19.5 L 4.160156 -5.140625 C 4.160156 -1.714844 5.996094 0.285156 9.382812 0.285156 Z M 9.382812 0.285156 "/></g></g></g><g fill="#000000" fill-opacity="1"><g transform="translate(256.878556, 192.149987)"><g><path d="M 12.074219 -1.507812 C 7.425781 -1.507812 4 -5.019531 4 -10.484375 L 4 -10.8125 C 4 -16.359375 7.507812 -19.828125 12.074219 -19.828125 C 16.605469 -19.828125 20.113281 -16.441406 20.113281 -10.8125 L 20.113281 -10.484375 C 20.113281 -4.976562 16.644531 -1.507812 12.074219 -1.507812 Z M 12.035156 0.328125 C 17.789062 0.328125 22.355469 -4.078125 22.355469 -10.527344 L 22.355469 -10.851562 C 22.355469 -17.339844 17.828125 -21.664062 12.074219 -21.664062 C 6.363281 -21.664062 1.753906 -17.214844 1.753906 -10.8125 L 1.753906 -10.484375 C 1.753906 -4.203125 6.242188 0.328125 12.035156 0.328125 Z M 12.035156 0.328125 "/></g></g></g><g fill="#000000" fill-opacity="1"><g transform="translate(280.988588, 192.149987)"><g><path d="M 3.34375 0 L 5.507812 0 L 5.507812 -11.832031 C 5.507812 -17.5 8.609375 -19.417969 12.730469 -19.582031 L 12.730469 -21.621094 C 8.8125 -21.5 6.691406 -19.460938 5.507812 -16.847656 L 5.507812 -21.335938 L 3.34375 -21.335938 Z M 3.34375 0 "/></g></g></g><g fill="#000000" fill-opacity="1"><g transform="translate(295.185368, 192.149987)"><g/></g></g><g fill="#000000" fill-opacity="1"><g transform="translate(305.261808, 192.149987)"><g><path d="M 3.753906 0 L 6.039062 0 L 6.039062 -13.667969 L 23.214844 -13.667969 L 23.214844 0 L 25.5 0 L 25.5 -29.167969 L 23.214844 -29.167969 L 23.214844 -15.585938 L 6.039062 -15.585938 L 6.039062 -29.167969 L 3.753906 -29.167969 Z M 3.753906 0 "/></g></g></g><g fill="#000000" fill-opacity="1"><g transform="translate(334.512055, 192.149987)"><g><path d="M 12.074219 -1.507812 C 7.425781 -1.507812 4 -5.019531 4 -10.484375 L 4 -10.8125 C 4 -16.359375 7.507812 -19.828125 12.074219 -19.828125 C 16.605469 -19.828125 20.113281 -16.441406 20.113281 -10.8125 L 20.113281 -10.484375 C 20.113281 -4.976562 16.644531 -1.507812 12.074219 -1.507812 Z M 12.035156 0.328125 C 17.789062 0.328125 22.355469 -4.078125 22.355469 -10.527344 L 22.355469 -10.851562 C 22.355469 -17.339844 17.828125 -21.664062 12.074219 -21.664062 C 6.363281 -21.664062 1.753906 -17.214844 1.753906 -10.8125 L 1.753906 -10.484375 C 1.753906 -4.203125 6.242188 0.328125 12.035156 0.328125 Z M 12.035156 0.328125 "/></g></g></g><g fill="#000000" fill-opacity="1"><g transform="translate(358.6221, 192.149987)"><g><path d="M 7.832031 0 L 10.28125 0 L 15.953125 -17.867188 L 21.253906 0 L 23.742188 0 L 30.476562 -21.335938 L 28.273438 -21.335938 L 22.519531 -2.652344 L 16.890625 -21.335938 L 15.054688 -21.335938 L 9.21875 -2.652344 L 3.507812 -21.335938 L 1.183594 -21.335938 Z M 7.832031 0 "/></g></g></g><g fill="#000000" fill-opacity="1"><g transform="translate(390.279259, 192.149987)"><g><path d="M 2.53125 -10.28125 L 11.054688 -10.28125 L 11.054688 -12.320312 L 2.53125 -12.320312 Z M 2.53125 -10.28125 "/></g></g></g><g fill="#000000" fill-opacity="1"><g transform="translate(403.864101, 192.149987)"><g><path d="M 9.382812 0.285156 C 10.6875 0.285156 11.503906 0.0820312 12.199219 -0.164062 L 12.199219 -2 C 11.464844 -1.753906 10.605469 -1.550781 9.503906 -1.550781 C 7.546875 -1.550781 6.324219 -2.734375 6.324219 -5.304688 L 6.324219 -19.5 L 11.914062 -19.5 L 11.914062 -21.335938 L 6.324219 -21.335938 L 6.324219 -26.191406 L 4.160156 -26.191406 L 4.160156 -21.335938 L 1.019531 -21.335938 L 1.019531 -19.5 L 4.160156 -19.5 L 4.160156 -5.140625 C 4.160156 -1.714844 5.996094 0.285156 9.382812 0.285156 Z M 9.382812 0.285156 "/></g></g></g><g fill="#000000" fill-opacity="1"><g transform="translate(417.652904, 192.149987)"><g><path d="M 12.074219 -1.507812 C 7.425781 -1.507812 4 -5.019531 4 -10.484375 L 4 -10.8125 C 4 -16.359375 7.507812 -19.828125 12.074219 -19.828125 C 16.605469 -19.828125 20.113281 -16.441406 20.113281 -10.8125 L 20.113281 -10.484375 C 20.113281 -4.976562 16.644531 -1.507812 12.074219 -1.507812 Z M 12.035156 0.328125 C 17.789062 0.328125 22.355469 -4.078125 22.355469 -10.527344 L 22.355469 -10.851562 C 22.355469 -17.339844 17.828125 -21.664062 12.074219 -21.664062 C 6.363281 -21.664062 1.753906 -17.214844 1.753906 -10.8125 L 1.753906 -10.484375 C 1.753906 -4.203125 6.242188 0.328125 12.035156 0.328125 Z M 12.035156 0.328125 "/></g></g></g></svg>