<svg xmlns="http://www.w3.org/2000/svg" xmlns:xlink="http://www.w3.org/1999/xlink" width="1200" zoomAndPan="magnify" viewBox="0 0 900 359.999987" height="480" preserveAspectRatio="xMidYMid meet" version="1.0"><defs><g/><clipPath id="3f6b177001"><path d="M 17.25 0 L 882.75 0 C 887.324219 0 891.710938 1.816406 894.949219 5.050781 C 898.183594 8.289062 900 12.675781 900 17.25 L 900 342.75 C 900 347.324219 898.183594 351.710938 894.949219 354.949219 C 891.710938 358.183594 887.324219 360 882.75 360 L 17.25 360 C 12.675781 360 8.289062 358.183594 5.050781 354.949219 C 1.816406 351.710938 0 347.324219 0 342.75 L 0 17.25 C 0 12.675781 1.816406 8.289062 5.050781 5.050781 C 8.289062 1.816406 12.675781 0 17.25 0 Z M 17.25 0 " clip-rule="nonzero"/></clipPath><clipPath id="94440ebfd1"><path d="M 1.800781 1.800781 L 898.199219 1.800781 L 898.199219 358.199219 L 1.800781 358.199219 Z M 1.800781 1.800781 " clip-rule="nonzero"/></clipPath><clipPath id="58609f8003"><path d="M 19.050781 1.800781 L 880.949219 1.800781 C 885.523438 1.800781 889.914062 3.617188 893.148438 6.851562 C 896.382812 10.085938 898.199219 14.476562 898.199219 19.050781 L 898.199219 340.949219 C 898.199219 345.523438 896.382812 349.914062 893.148438 353.148438 C 889.914062 356.382812 885.523438 358.199219 880.949219 358.199219 L 19.050781 358.199219 C 14.476562 358.199219 10.085938 356.382812 6.851562 353.148438 C 3.617188 349.914062 1.800781 345.523438 1.800781 340.949219 L 1.800781 19.050781 C 1.800781 14.476562 3.617188 10.085938 6.851562 6.851562 C 10.085938 3.617188 14.476562 1.800781 19.050781 1.800781 Z M 19.050781 1.800781 " clip-rule="nonzero"/></clipPath><clipPath id="c7a9e96dd2"><path d="M 563 50 L 864.359375 50 L 864.359375 324 L 563 324 Z M 563 50 " clip-rule="nonzero"/></clipPath><clipPath id="59b2c79522"><path d="M 568 46 L 864.359375 46 L 864.359375 324 L 568 324 Z M 568 46 " clip-rule="nonzero"/></clipPath></defs><rect x="-90" width="1080" fill="#ffffff" y="-35.999999" height="431.999984" fill-opacity="1"/><rect x="-90" width="1080" fill="#ffffff" y="-35.999999" height="431.999984" fill-opacity="1"/><g clip-path="url(#3f6b177001)"><rect x="-90" width="1080" fill="#004aad" y="-35.999999" height="431.999984" fill-opacity="1"/></g><g clip-path="url(#94440ebfd1)"><g clip-path="url(#58609f8003)"><path fill="#ffffff" d="M 1.800781 1.800781 L 898.199219 1.800781 L 898.199219 358.199219 L 1.800781 358.199219 Z M 1.800781 1.800781 " fill-opacity="1" fill-rule="nonzero"/></g></g><path fill="#ffffff" d="M 610.46875 136.996094 L 685.402344 136.996094 C 688.847656 136.996094 691.679688 134.167969 691.679688 130.726562 L 691.679688 42.273438 C 691.679688 38.835938 688.847656 36.007812 685.402344 36.007812 L 610.46875 36.007812 C 607.023438 36.007812 604.191406 38.835938 604.191406 42.273438 L 604.191406 130.726562 C 604.191406 134.167969 607.023438 136.996094 610.46875 136.996094 Z M 610.46875 136.996094 " fill-opacity="1" fill-rule="nonzero"/><g clip-path="url(#c7a9e96dd2)"><path fill="#ffffff" d="M 850.351562 92.425781 L 807.488281 92.425781 C 799.757812 92.425781 793.480469 98.695312 793.480469 106.417969 L 793.480469 148.234375 L 779.855469 143.113281 L 771.820312 140.054688 C 771.667969 139.0625 771.589844 137.992188 771.4375 136.921875 C 770.59375 130.421875 769.675781 123.160156 768.835938 117.347656 C 768.835938 117.347656 777.867188 93.039062 780.238281 84.628906 C 782.535156 76.523438 779.015625 70.5625 774.804688 70.636719 C 774.804688 70.636719 775.875 56.496094 762.558594 55.195312 C 762.558594 55.195312 757.8125 47.015625 749.546875 51.832031 C 749.546875 51.832031 727.882812 54.355469 718.851562 55.273438 C 715.40625 55.578125 712.652344 59.554688 715.253906 63.375 C 714.183594 66.433594 714.71875 74.382812 720.917969 78.4375 C 720.917969 78.4375 720.84375 78.511719 720.84375 78.511719 C 718.777344 83.710938 718.316406 101.601562 720.230469 115.515625 C 719.3125 116.050781 718.238281 116.433594 717.015625 116.355469 C 717.550781 117.730469 719.160156 119.109375 720.765625 119.109375 C 721.835938 125.148438 723.445312 130.117188 725.589844 132.179688 C 728.726562 135.238281 732.707031 136.230469 737.527344 135.390625 C 737.757812 137.683594 737.988281 140.132812 738.292969 142.5 L 701.246094 155.269531 C 691.21875 158.097656 683.796875 166.964844 682.878906 177.285156 L 676.90625 238.523438 L 673.691406 239.59375 L 673.84375 240.128906 L 671.242188 227.667969 C 670.859375 225.753906 669.175781 224.378906 667.1875 224.304688 L 567.605469 222.851562 C 564.925781 222.773438 562.859375 225.296875 563.394531 227.894531 L 576.789062 292.34375 C 577.171875 294.253906 578.855469 295.628906 580.847656 295.707031 L 680.273438 297.160156 C 682.953125 297.234375 685.019531 294.714844 684.484375 292.113281 L 683.488281 287.375 C 683.949219 287.375 684.410156 287.449219 684.867188 287.527344 C 685.019531 287.601562 685.480469 287.984375 685.863281 288.367188 C 687.851562 289.972656 692.140625 293.488281 697.039062 295.476562 L 696.730469 295.402344 L 692.367188 321.546875 C 692.367188 321.699219 692.367188 321.851562 692.523438 322.007812 C 692.597656 322.160156 692.75 322.234375 692.980469 322.234375 L 734.390625 322.617188 C 734.621094 322.617188 734.851562 322.464844 734.925781 322.234375 L 739.976562 304.421875 L 741.355469 322.695312 C 741.355469 323 741.660156 323.230469 741.890625 323.230469 L 812.691406 323.917969 C 812.847656 323.917969 813 323.839844 813.074219 323.765625 C 813.152344 323.6875 813.230469 323.535156 813.230469 323.304688 L 811.621094 287.832031 C 822.492188 285.539062 830.375 276.289062 830.832031 265.128906 L 832.746094 181.71875 C 833.054688 174.761719 830.375 168.1875 825.707031 163.296875 L 850.351562 163.296875 C 858.082031 163.296875 864.359375 157.027344 864.359375 149.304688 L 864.359375 106.417969 C 864.359375 98.695312 858.082031 92.425781 850.351562 92.425781 Z M 850.351562 92.425781 " fill-opacity="1" fill-rule="nonzero"/></g><path fill="#ffffff" d="M 571.277344 190.96875 L 576.558594 190.96875 C 577.097656 190.96875 577.554688 191.277344 577.707031 191.734375 C 577.9375 192.269531 578.167969 192.804688 578.398438 193.339844 C 578.628906 193.800781 578.472656 194.335938 578.167969 194.714844 L 574.417969 198.460938 C 573.5 199.378906 573.5 200.832031 574.417969 201.75 L 580.617188 207.941406 C 581.535156 208.859375 582.988281 208.859375 583.910156 207.941406 L 587.660156 204.195312 C 588.042969 203.8125 588.578125 203.738281 589.035156 203.96875 C 589.574219 204.195312 590.109375 204.425781 590.644531 204.65625 C 591.101562 204.808594 591.410156 205.265625 591.410156 205.800781 L 591.410156 211.078125 C 591.410156 212.375 592.480469 213.445312 593.78125 213.445312 L 602.507812 213.445312 C 603.808594 213.445312 604.882812 212.375 604.882812 211.078125 L 604.882812 205.800781 C 604.882812 205.265625 605.1875 204.808594 605.644531 204.65625 C 606.183594 204.425781 606.71875 204.195312 607.253906 203.96875 C 607.714844 203.738281 608.25 203.8125 608.632812 204.195312 L 612.382812 207.941406 C 613.300781 208.859375 614.832031 208.859375 615.671875 207.941406 L 621.875 201.75 C 622.792969 200.832031 622.792969 199.378906 621.875 198.460938 L 618.121094 194.714844 C 617.738281 194.335938 617.664062 193.800781 617.894531 193.339844 C 618.121094 192.804688 618.351562 192.269531 618.582031 191.734375 C 618.734375 191.277344 619.195312 190.96875 619.730469 190.96875 L 625.011719 190.96875 C 626.3125 190.96875 627.382812 189.898438 627.382812 188.601562 L 627.382812 179.886719 C 627.382812 178.585938 626.3125 177.515625 625.011719 177.515625 L 619.730469 177.515625 C 619.195312 177.515625 618.8125 177.210938 618.582031 176.75 C 618.351562 176.214844 618.121094 175.679688 617.894531 175.144531 C 617.664062 174.6875 617.738281 174.152344 618.121094 173.769531 L 621.875 170.023438 C 622.792969 169.105469 622.792969 167.578125 621.875 166.660156 L 615.671875 160.46875 C 614.753906 159.550781 613.222656 159.550781 612.382812 160.46875 L 608.632812 164.214844 C 608.25 164.59375 607.714844 164.671875 607.253906 164.441406 C 606.71875 164.214844 606.183594 163.984375 605.644531 163.753906 C 605.1875 163.601562 604.882812 163.144531 604.882812 162.609375 L 604.882812 157.332031 C 604.882812 156.03125 603.808594 154.960938 602.507812 154.960938 L 593.78125 154.960938 C 592.480469 154.960938 591.410156 156.03125 591.410156 157.332031 L 591.410156 162.609375 C 591.410156 163.144531 591.101562 163.523438 590.644531 163.753906 C 590.109375 163.984375 589.574219 164.214844 589.035156 164.441406 C 588.578125 164.671875 588.042969 164.59375 587.660156 164.214844 L 583.910156 160.46875 C 582.988281 159.550781 581.460938 159.550781 580.617188 160.46875 L 574.417969 166.660156 C 573.5 167.578125 573.5 169.105469 574.417969 170.023438 L 578.167969 173.769531 C 578.550781 174.152344 578.628906 174.6875 578.398438 175.144531 C 578.167969 175.679688 577.9375 176.214844 577.707031 176.75 C 577.554688 177.210938 577.097656 177.515625 576.558594 177.515625 L 571.277344 177.515625 C 569.976562 177.515625 568.90625 178.585938 568.90625 179.886719 L 568.90625 188.601562 C 568.90625 189.976562 569.976562 190.96875 571.277344 190.96875 Z M 571.277344 190.96875 " fill-opacity="1" fill-rule="nonzero"/><path fill="#ffffff" d="M 633.738281 46.863281 L 619.808594 46.863281 C 617.355469 46.863281 615.445312 48.851562 615.445312 51.21875 L 615.445312 65.132812 C 615.445312 67.582031 617.433594 69.492188 619.808594 69.492188 L 633.738281 69.492188 C 636.1875 69.492188 638.101562 67.503906 638.101562 65.132812 L 638.101562 51.21875 C 638.101562 48.851562 636.1875 46.863281 633.738281 46.863281 Z M 633.8125 55.042969 L 625.394531 63.375 C 625.164062 63.605469 624.933594 63.679688 624.707031 63.679688 C 624.476562 63.679688 624.167969 63.605469 624.015625 63.375 L 619.808594 59.171875 C 619.425781 58.789062 619.425781 58.101562 619.808594 57.71875 C 620.1875 57.335938 620.878906 57.335938 621.261719 57.71875 L 624.707031 61.160156 L 632.359375 53.511719 C 632.742188 53.132812 633.429688 53.132812 633.8125 53.511719 C 634.195312 53.972656 634.195312 54.582031 633.8125 55.042969 Z M 633.738281 75.300781 L 619.808594 75.300781 C 617.355469 75.300781 615.445312 77.289062 615.445312 79.660156 L 615.445312 93.574219 C 615.445312 96.019531 617.433594 97.929688 619.808594 97.929688 L 633.738281 97.929688 C 636.1875 97.929688 638.101562 95.941406 638.101562 93.574219 L 638.101562 79.660156 C 638.101562 77.214844 636.1875 75.300781 633.738281 75.300781 Z M 633.8125 83.40625 L 625.394531 91.738281 C 625.164062 91.96875 624.933594 92.042969 624.707031 92.042969 C 624.476562 92.042969 624.167969 91.96875 624.015625 91.738281 L 619.808594 87.535156 C 619.425781 87.152344 619.425781 86.464844 619.808594 86.082031 C 620.1875 85.699219 620.878906 85.699219 621.261719 86.082031 L 624.707031 89.519531 L 632.359375 81.875 C 632.742188 81.492188 633.429688 81.492188 633.8125 81.875 C 634.195312 82.335938 634.195312 83.023438 633.8125 83.40625 Z M 850.351562 92.960938 L 807.488281 92.960938 C 800.0625 92.960938 794.015625 99 794.015625 106.417969 L 794.015625 149.074219 L 771.207031 140.4375 C 769.523438 127.746094 767.074219 108.632812 766.539062 106.644531 C 772.507812 105.195312 778.632812 96.476562 771.667969 89.675781 C 768.453125 86.539062 765.007812 87.304688 762.632812 88.605469 C 761.179688 87.535156 755.132812 72.550781 755.132812 72.550781 C 755.132812 72.550781 736.226562 82.335938 726.277344 80.421875 C 724.363281 80.042969 722.757812 79.429688 721.378906 78.589844 C 718.238281 86.464844 719.003906 124.839844 725.972656 131.644531 C 729.339844 134.933594 733.546875 135.542969 737.988281 134.550781 C 738.292969 137.226562 738.601562 140.132812 738.90625 142.808594 C 738.90625 142.730469 738.828125 142.652344 738.828125 142.652344 L 701.402344 155.652344 C 691.757812 158.328125 684.332031 166.660156 683.335938 177.210938 L 677.289062 238.75 L 673.617188 239.976562 L 677.902344 260.617188 C 677.671875 260.539062 677.367188 260.464844 677.136719 260.386719 C 670.402344 258.015625 663.511719 267.574219 659.761719 271.777344 C 658.917969 272.695312 658.539062 273.996094 658.84375 275.21875 C 658.996094 276.136719 659.992188 276.519531 661.371094 276.902344 C 661.445312 276.902344 661.597656 276.902344 661.828125 276.902344 C 660.222656 279.117188 660.605469 280.800781 661.445312 281.5625 C 662.671875 282.710938 664.429688 281.945312 666.34375 280.722656 C 663.359375 283.703125 665.503906 285.308594 667.1875 285.386719 C 667.417969 285.460938 667.796875 285.386719 668.257812 285.234375 C 668.027344 285.539062 667.875 285.921875 667.875 286.152344 C 668.179688 289.207031 670.09375 288.519531 671.472656 288.445312 C 673.691406 288.292969 680.964844 285.921875 685.019531 286.914062 C 685.480469 287.066406 690.914062 292.265625 697.34375 294.941406 L 692.90625 321.546875 L 734.3125 321.929688 L 740.207031 300.980469 L 741.890625 322.542969 L 812.691406 323.230469 L 811.085938 287.222656 C 821.726562 285.234375 829.839844 276.136719 830.296875 264.972656 L 832.210938 181.566406 C 832.519531 174.074219 829.457031 167.347656 824.402344 162.609375 L 850.351562 162.609375 C 857.777344 162.609375 863.824219 156.566406 863.824219 149.152344 L 863.824219 106.417969 C 863.746094 99 857.777344 92.960938 850.351562 92.960938 Z M 804.425781 125.683594 C 804.425781 121.707031 807.640625 118.496094 811.621094 118.496094 C 815.601562 118.496094 818.816406 121.707031 818.816406 125.683594 L 818.816406 138.527344 C 818.816406 142.5 815.601562 145.710938 811.621094 145.710938 C 807.640625 145.710938 804.425781 142.5 804.425781 138.527344 Z M 837.722656 138.527344 C 837.722656 142.5 834.507812 145.710938 830.527344 145.710938 C 826.546875 145.710938 823.332031 142.5 823.332031 138.527344 L 823.332031 117.121094 C 823.332031 113.144531 826.546875 109.933594 830.527344 109.933594 C 834.507812 109.933594 837.722656 113.144531 837.722656 117.121094 Z M 848.054688 145.710938 C 844.074219 145.710938 840.859375 142.5 840.859375 138.527344 C 840.859375 134.550781 844.074219 131.339844 848.054688 131.339844 C 852.035156 131.339844 855.25 134.550781 855.25 138.527344 C 855.25 142.425781 852.035156 145.710938 848.054688 145.710938 Z M 609.015625 203.890625 C 608.476562 203.355469 607.714844 203.203125 607.023438 203.507812 C 606.488281 203.738281 605.953125 203.96875 605.417969 204.195312 C 604.726562 204.425781 604.269531 205.113281 604.269531 205.878906 L 604.269531 211.152344 C 604.269531 212.148438 603.503906 212.910156 602.507812 212.910156 L 593.78125 212.910156 C 592.789062 212.910156 592.023438 212.148438 592.023438 211.152344 L 592.023438 205.878906 C 592.023438 205.113281 591.5625 204.503906 590.875 204.195312 C 590.339844 203.96875 589.800781 203.8125 589.265625 203.507812 C 588.578125 203.203125 587.8125 203.355469 587.277344 203.890625 L 583.527344 207.636719 C 582.835938 208.324219 581.6875 208.324219 581 207.636719 L 574.800781 201.445312 C 574.109375 200.757812 574.109375 199.609375 574.800781 198.921875 L 578.550781 195.175781 C 579.085938 194.640625 579.238281 193.875 578.933594 193.1875 C 578.703125 192.652344 578.472656 192.117188 578.246094 191.582031 C 578.015625 190.894531 577.324219 190.433594 576.558594 190.433594 L 571.277344 190.433594 C 570.285156 190.433594 569.519531 189.671875 569.519531 188.675781 L 569.519531 179.960938 C 569.519531 178.96875 570.285156 178.203125 571.277344 178.203125 L 576.558594 178.203125 C 577.324219 178.203125 577.9375 177.746094 578.246094 177.058594 C 578.472656 176.523438 578.628906 175.988281 578.933594 175.453125 C 579.238281 174.761719 579.085938 174 578.550781 173.464844 L 574.800781 169.71875 C 574.109375 169.03125 574.109375 167.882812 574.800781 167.195312 L 581 161.003906 C 581.6875 160.3125 582.835938 160.3125 583.527344 161.003906 L 587.277344 164.75 C 587.8125 165.285156 588.578125 165.4375 589.265625 165.128906 C 589.800781 164.902344 590.339844 164.671875 590.875 164.441406 C 591.5625 164.214844 592.023438 163.523438 592.023438 162.761719 L 592.023438 157.484375 C 592.023438 156.492188 592.789062 155.726562 593.78125 155.726562 L 602.507812 155.726562 C 603.503906 155.726562 604.269531 156.492188 604.269531 157.484375 L 604.269531 162.761719 C 604.269531 163.523438 604.726562 164.136719 605.417969 164.441406 C 605.953125 164.671875 606.488281 164.824219 607.023438 165.128906 C 607.714844 165.4375 608.476562 165.285156 609.015625 164.75 L 612.765625 161.003906 C 613.453125 160.3125 614.601562 160.3125 615.289062 161.003906 L 621.492188 167.195312 C 622.179688 167.882812 622.179688 169.03125 621.492188 169.71875 L 617.738281 173.464844 C 617.203125 174 617.050781 174.761719 617.355469 175.453125 C 617.585938 175.988281 617.816406 176.523438 618.046875 177.058594 C 618.277344 177.746094 618.964844 178.203125 619.730469 178.203125 L 625.011719 178.203125 C 626.007812 178.203125 626.773438 178.96875 626.773438 179.960938 L 626.773438 188.675781 C 626.773438 189.671875 626.007812 190.433594 625.011719 190.433594 L 619.730469 190.433594 C 618.964844 190.433594 618.351562 190.894531 618.046875 191.582031 C 617.816406 192.117188 617.664062 192.652344 617.355469 193.1875 C 617.050781 193.875 617.203125 194.640625 617.738281 195.175781 L 621.492188 198.921875 C 622.179688 199.609375 622.179688 200.757812 621.492188 201.445312 L 615.289062 207.636719 C 614.601562 208.324219 613.453125 208.324219 612.765625 207.636719 Z M 636.492188 259.621094 C 636.492188 267.269531 630.292969 273.460938 622.640625 273.460938 C 614.984375 273.460938 608.785156 267.269531 608.785156 259.621094 C 608.785156 251.976562 614.984375 245.785156 622.640625 245.785156 C 630.292969 245.785156 636.492188 251.902344 636.492188 259.621094 Z M 649.046875 58.484375 C 649.046875 57.105469 650.195312 56.035156 651.496094 56.035156 L 677.902344 56.035156 C 679.28125 56.035156 680.351562 57.183594 680.351562 58.484375 C 680.351562 59.78125 679.203125 61.003906 677.902344 61.003906 L 651.496094 61.003906 C 650.195312 60.929688 649.046875 59.859375 649.046875 58.484375 Z M 649.046875 86.617188 C 649.046875 85.238281 650.195312 84.167969 651.496094 84.167969 L 677.902344 84.167969 C 679.28125 84.167969 680.351562 85.316406 680.351562 86.617188 C 680.351562 87.914062 679.203125 89.0625 677.902344 89.0625 L 651.496094 89.0625 C 650.195312 89.0625 649.046875 87.992188 649.046875 86.617188 Z M 654.402344 124.152344 C 654.402344 125.605469 653.179688 126.828125 651.726562 126.828125 C 650.269531 126.828125 649.046875 125.605469 649.046875 124.152344 C 649.046875 122.699219 650.269531 121.476562 651.726562 121.476562 C 653.179688 121.476562 654.402344 122.699219 654.402344 124.152344 Z M 662.671875 121.476562 C 664.125 121.476562 665.347656 122.699219 665.347656 124.152344 C 665.347656 125.605469 664.125 126.828125 662.671875 126.828125 C 661.214844 126.828125 659.992188 125.605469 659.992188 124.152344 C 659.992188 122.699219 661.214844 121.476562 662.671875 121.476562 Z M 673.617188 121.476562 C 675.070312 121.476562 676.292969 122.699219 676.292969 124.152344 C 676.292969 125.605469 675.070312 126.828125 673.617188 126.828125 C 672.160156 126.828125 670.9375 125.605469 670.9375 124.152344 C 670.9375 122.699219 672.160156 121.476562 673.617188 121.476562 Z M 673.617188 121.476562 " fill-opacity="1" fill-rule="evenodd"/><path fill="#418aff" d="M 804.425781 138.527344 L 804.425781 125.683594 C 804.425781 121.707031 807.640625 118.496094 811.621094 118.496094 C 815.601562 118.496094 818.816406 121.707031 818.816406 125.683594 L 818.816406 138.527344 C 818.816406 142.5 815.601562 145.710938 811.621094 145.710938 C 807.71875 145.710938 804.425781 142.5 804.425781 138.527344 Z M 625.394531 63.375 L 633.738281 55.042969 C 634.121094 54.660156 634.121094 53.972656 633.738281 53.589844 C 633.355469 53.207031 632.664062 53.207031 632.28125 53.589844 L 624.628906 61.234375 L 621.183594 57.792969 C 620.800781 57.414062 620.113281 57.414062 619.730469 57.792969 C 619.347656 58.175781 619.347656 58.863281 619.730469 59.246094 L 623.941406 63.453125 C 624.167969 63.679688 624.398438 63.757812 624.628906 63.757812 C 624.859375 63.757812 625.242188 63.527344 625.394531 63.375 Z M 684.484375 292.113281 C 685.019531 294.714844 683.03125 297.234375 680.273438 297.160156 L 580.847656 295.707031 C 578.855469 295.707031 577.171875 294.253906 576.789062 292.34375 L 563.394531 227.894531 C 562.859375 225.296875 564.847656 222.773438 567.605469 222.851562 L 667.035156 224.304688 C 669.023438 224.304688 670.707031 225.753906 671.089844 227.667969 L 677.980469 260.847656 C 677.75 260.769531 677.441406 260.691406 677.214844 260.617188 C 670.476562 258.246094 663.589844 267.804688 659.839844 272.007812 C 658.996094 272.925781 658.613281 274.226562 658.917969 275.449219 C 659.074219 276.367188 660.066406 276.746094 661.445312 277.128906 C 661.523438 277.128906 661.675781 277.128906 661.90625 277.128906 C 660.296875 279.347656 660.679688 281.027344 661.523438 281.792969 C 662.746094 282.941406 664.507812 282.175781 666.421875 280.953125 C 663.4375 283.933594 665.578125 285.539062 667.261719 285.617188 C 667.492188 285.691406 667.875 285.617188 668.335938 285.460938 C 668.105469 285.769531 667.953125 286.152344 667.953125 286.378906 C 668.257812 289.4375 670.171875 288.75 671.550781 288.671875 C 673.539062 288.519531 679.355469 286.6875 683.488281 286.914062 Z M 632.4375 259.621094 C 632.4375 254.195312 628.074219 249.835938 622.640625 249.835938 C 617.203125 249.835938 612.839844 254.195312 612.839844 259.621094 C 612.839844 265.050781 617.203125 269.410156 622.640625 269.410156 C 628.074219 269.332031 632.4375 264.972656 632.4375 259.621094 Z M 752.53125 166.890625 L 756.511719 159.015625 L 750.234375 152.515625 L 743.5 159.167969 L 746.714844 166.890625 L 738.371094 236.535156 L 749.085938 248.84375 L 759.800781 236.535156 Z M 752.53125 166.890625 " fill-opacity="1" fill-rule="nonzero"/><path fill="#ffb15f" d="M 685.402344 36.007812 L 610.46875 36.007812 C 607.023438 36.007812 604.191406 38.835938 604.191406 42.273438 L 604.191406 130.726562 C 604.191406 134.167969 607.023438 136.996094 610.46875 136.996094 L 685.402344 136.996094 C 688.847656 136.996094 691.679688 134.167969 691.679688 130.726562 L 691.679688 42.273438 C 691.679688 38.835938 688.925781 36.007812 685.402344 36.007812 Z M 638.101562 93.574219 C 638.101562 96.019531 636.109375 97.929688 633.738281 97.929688 L 619.808594 97.929688 C 617.355469 97.929688 615.445312 95.941406 615.445312 93.574219 L 615.445312 79.660156 C 615.445312 77.214844 617.433594 75.300781 619.808594 75.300781 L 633.738281 75.300781 C 636.1875 75.300781 638.101562 77.289062 638.101562 79.660156 Z M 638.101562 65.132812 C 638.101562 67.582031 636.109375 69.492188 633.738281 69.492188 L 619.808594 69.492188 C 617.355469 69.492188 615.445312 67.503906 615.445312 65.132812 L 615.445312 51.21875 C 615.445312 48.773438 617.433594 46.863281 619.808594 46.863281 L 633.738281 46.863281 C 636.1875 46.863281 638.101562 48.851562 638.101562 51.21875 Z M 651.726562 126.828125 C 650.269531 126.828125 649.046875 125.605469 649.046875 124.152344 C 649.046875 122.699219 650.269531 121.476562 651.726562 121.476562 C 653.179688 121.476562 654.402344 122.699219 654.402344 124.152344 C 654.402344 125.605469 653.179688 126.828125 651.726562 126.828125 Z M 662.671875 126.828125 C 661.214844 126.828125 659.992188 125.605469 659.992188 124.152344 C 659.992188 122.699219 661.214844 121.476562 662.671875 121.476562 C 664.125 121.476562 665.347656 122.699219 665.347656 124.152344 C 665.347656 125.605469 664.125 126.828125 662.671875 126.828125 Z M 673.617188 126.828125 C 672.160156 126.828125 670.9375 125.605469 670.9375 124.152344 C 670.9375 122.699219 672.160156 121.476562 673.617188 121.476562 C 675.070312 121.476562 676.292969 122.699219 676.292969 124.152344 C 676.292969 125.605469 675.148438 126.828125 673.617188 126.828125 Z M 677.980469 89.0625 L 651.570312 89.0625 C 650.195312 89.0625 649.121094 87.914062 649.121094 86.617188 C 649.121094 85.316406 650.269531 84.167969 651.570312 84.167969 L 677.980469 84.167969 C 679.355469 84.167969 680.429688 85.316406 680.429688 86.617188 C 680.503906 87.992188 679.355469 89.0625 677.980469 89.0625 Z M 677.980469 60.929688 L 651.570312 60.929688 C 650.195312 60.929688 649.121094 59.78125 649.121094 58.484375 C 649.121094 57.183594 650.269531 56.035156 651.570312 56.035156 L 677.980469 56.035156 C 679.355469 56.035156 680.429688 57.183594 680.429688 58.484375 C 680.429688 59.78125 679.355469 60.929688 677.980469 60.929688 Z M 840.785156 138.449219 C 840.785156 134.472656 844 131.261719 847.980469 131.261719 C 851.960938 131.261719 855.175781 134.472656 855.175781 138.449219 C 855.175781 142.425781 851.960938 145.636719 847.980469 145.636719 C 844.074219 145.710938 840.785156 142.425781 840.785156 138.449219 Z M 598.144531 193.035156 C 593.324219 193.035156 589.34375 189.136719 589.34375 184.242188 C 589.34375 179.351562 593.246094 175.453125 598.144531 175.453125 C 603.042969 175.453125 606.949219 179.351562 606.949219 184.242188 C 606.949219 189.136719 602.96875 193.035156 598.144531 193.035156 Z M 598.144531 176.675781 C 593.933594 176.675781 590.492188 180.113281 590.492188 184.320312 C 590.492188 188.523438 593.933594 191.964844 598.144531 191.964844 C 602.355469 191.964844 605.800781 188.523438 605.800781 184.320312 C 605.800781 180.113281 602.355469 176.675781 598.144531 176.675781 Z M 598.144531 176.675781 " fill-opacity="1" fill-rule="nonzero"/><path fill="#9c6afd" d="M 830.449219 145.710938 C 826.472656 145.710938 823.257812 142.5 823.257812 138.527344 L 823.257812 117.121094 C 823.257812 113.144531 826.472656 109.933594 830.449219 109.933594 C 834.429688 109.933594 837.644531 113.144531 837.644531 117.121094 L 837.644531 138.527344 C 837.722656 142.5 834.429688 145.710938 830.449219 145.710938 Z M 625.394531 91.738281 L 633.8125 83.40625 C 634.195312 83.023438 634.195312 82.335938 633.8125 81.953125 C 633.429688 81.570312 632.742188 81.570312 632.359375 81.953125 L 624.707031 89.597656 L 621.261719 86.15625 C 620.878906 85.773438 620.1875 85.773438 619.808594 86.15625 C 619.425781 86.539062 619.425781 87.226562 619.808594 87.609375 L 624.015625 91.816406 C 624.246094 92.042969 624.476562 92.121094 624.707031 92.121094 C 624.933594 92.121094 625.242188 91.96875 625.394531 91.738281 Z M 625.394531 91.738281 " fill-opacity="1" fill-rule="nonzero"/><g clip-path="url(#59b2c79522)"><path fill="#343434" d="M 850.351562 92.425781 L 807.488281 92.425781 C 799.757812 92.425781 793.480469 98.695312 793.480469 106.417969 L 793.480469 148.234375 L 779.855469 143.113281 L 771.820312 140.054688 C 771.667969 139.0625 771.589844 137.992188 771.4375 136.921875 C 770.59375 130.421875 769.675781 123.160156 768.835938 117.347656 C 768.835938 117.347656 777.867188 93.039062 780.238281 84.628906 C 782.535156 76.523438 779.015625 70.5625 774.804688 70.636719 C 774.804688 70.636719 775.875 56.496094 762.558594 55.195312 C 762.558594 55.195312 757.8125 47.015625 749.546875 51.832031 C 749.546875 51.832031 727.882812 54.355469 718.851562 55.273438 C 715.40625 55.578125 712.652344 59.554688 715.253906 63.375 C 714.183594 66.433594 714.71875 74.382812 720.917969 78.4375 C 720.917969 78.4375 720.84375 78.511719 720.84375 78.511719 C 718.777344 83.710938 718.316406 101.601562 720.230469 115.515625 C 719.3125 116.050781 718.238281 116.433594 717.015625 116.355469 C 717.550781 117.730469 719.160156 119.109375 720.765625 119.109375 C 721.835938 125.148438 723.445312 130.117188 725.589844 132.179688 C 728.726562 135.238281 732.707031 136.230469 737.527344 135.390625 C 737.757812 137.683594 737.988281 140.132812 738.292969 142.5 L 701.246094 155.269531 C 691.21875 158.097656 683.796875 166.964844 682.878906 177.285156 L 676.90625 238.523438 L 673.691406 239.59375 L 673.921875 240.738281 L 677.367188 239.59375 L 686.320312 246.703125 C 686.398438 246.777344 686.550781 246.855469 686.703125 246.855469 C 686.859375 246.855469 687.011719 246.777344 687.164062 246.625 C 687.394531 246.398438 687.316406 246.015625 687.085938 245.785156 L 678.132812 238.675781 L 684.179688 177.4375 C 685.097656 167.5 692.140625 159.015625 701.785156 156.414062 C 701.785156 156.414062 701.859375 156.414062 701.859375 156.339844 L 729.949219 146.628906 C 730.871094 148.847656 735.078125 157.179688 743.957031 159.777344 L 743.652344 159.089844 L 744.113281 158.632812 C 735.84375 156.109375 731.941406 148.386719 730.945312 146.246094 L 738.601562 143.570312 C 739.367188 145.40625 742.351562 150.910156 750.617188 150.527344 C 755.515625 150.375 762.328125 149.074219 771.128906 141.046875 L 778.707031 143.878906 C 776.257812 146.324219 766.691406 155.421875 756.050781 158.402344 L 756.585938 158.9375 L 756.28125 159.472656 C 761.945312 157.867188 767.152344 154.734375 770.902344 151.980469 C 775.570312 148.617188 778.9375 145.253906 779.855469 144.257812 L 815.371094 157.714844 C 815.984375 157.945312 816.597656 158.171875 817.132812 158.402344 C 817.132812 158.402344 817.132812 158.402344 817.210938 158.402344 C 826.316406 162.300781 832.210938 171.628906 831.828125 181.566406 L 829.914062 264.972656 C 829.457031 275.753906 821.800781 284.699219 811.164062 286.6875 L 722.144531 294.789062 L 719.003906 266.808594 L 782.6875 254.117188 L 794.246094 259.164062 C 794.324219 259.164062 794.398438 259.242188 794.476562 259.242188 C 794.707031 259.242188 794.933594 259.085938 795.011719 258.859375 C 795.164062 258.550781 795.011719 258.246094 794.707031 258.09375 L 783.300781 253.125 L 786.976562 196.550781 C 786.976562 196.246094 786.746094 195.941406 786.4375 195.941406 C 786.132812 195.941406 785.828125 196.167969 785.828125 196.476562 L 782.152344 252.972656 L 708.367188 267.726562 C 708.058594 267.804688 707.90625 268.03125 707.90625 268.339844 L 707.984375 269.179688 C 706.605469 268.796875 704.769531 268.261719 702.625 267.648438 L 707.90625 197.925781 C 707.90625 197.621094 707.675781 197.316406 707.371094 197.316406 C 707.066406 197.316406 706.757812 197.546875 706.757812 197.851562 L 701.476562 267.34375 C 693.363281 264.972656 682.035156 261.6875 677.367188 260.082031 C 671.089844 257.863281 664.964844 265.050781 660.988281 269.789062 C 660.375 270.480469 659.914062 271.089844 659.378906 271.625 C 658.382812 272.695312 658 274.148438 658.308594 275.523438 C 658.535156 276.671875 659.683594 277.128906 660.832031 277.511719 C 659.609375 279.730469 660.144531 281.335938 660.988281 282.175781 C 661.980469 283.09375 663.207031 283.015625 664.429688 282.558594 C 664.125 283.320312 664.203125 283.933594 664.355469 284.390625 C 664.8125 285.539062 665.960938 286.074219 667.035156 286.152344 C 667.109375 286.152344 667.1875 286.152344 667.261719 286.152344 C 667.261719 286.226562 667.261719 286.304688 667.261719 286.378906 C 667.644531 289.589844 669.710938 289.363281 670.9375 289.285156 C 671.089844 289.285156 671.242188 289.285156 671.472656 289.207031 C 672.160156 289.132812 673.234375 288.902344 674.535156 288.597656 C 677.519531 287.910156 682.035156 286.914062 684.792969 287.601562 C 684.945312 287.679688 685.402344 288.0625 685.785156 288.445312 C 687.777344 290.050781 692.0625 293.566406 696.960938 295.554688 L 696.65625 295.476562 L 692.292969 321.625 C 692.292969 321.777344 692.292969 321.929688 692.445312 322.082031 C 692.597656 322.234375 692.675781 322.3125 692.90625 322.3125 L 734.3125 322.695312 C 734.542969 322.695312 734.773438 322.542969 734.851562 322.3125 L 739.902344 304.5 L 741.28125 322.769531 C 741.28125 323.078125 741.585938 323.304688 741.816406 323.304688 L 812.617188 323.992188 C 812.769531 323.992188 812.921875 323.917969 813 323.839844 C 813.074219 323.765625 813.152344 323.613281 813.152344 323.382812 L 811.546875 287.910156 C 822.414062 285.617188 830.296875 276.363281 830.757812 265.203125 L 832.671875 181.796875 C 832.976562 174.839844 830.296875 168.265625 825.628906 163.371094 L 850.351562 163.371094 C 858.082031 163.371094 864.359375 157.101562 864.359375 149.382812 L 864.359375 106.417969 C 864.359375 98.695312 858.082031 92.425781 850.351562 92.425781 Z M 717.855469 267.039062 L 720.917969 294.867188 L 711.046875 295.785156 L 709.054688 268.796875 Z M 685.171875 286.457031 C 684.410156 286.304688 683.566406 286.226562 682.648438 286.226562 C 679.96875 286.226562 676.753906 286.914062 674.304688 287.449219 C 673.082031 287.757812 672.007812 287.984375 671.394531 287.984375 C 671.242188 287.984375 671.011719 287.984375 670.859375 288.0625 C 669.558594 288.214844 668.640625 288.292969 668.410156 286.226562 C 668.410156 286.152344 668.410156 285.996094 668.640625 285.769531 C 669.867188 285.15625 679.816406 280.035156 682.648438 279.730469 C 685.710938 279.421875 691.144531 281.105469 691.144531 281.105469 C 691.449219 281.183594 691.757812 281.027344 691.832031 280.722656 C 691.910156 280.417969 691.757812 280.113281 691.449219 280.035156 C 691.21875 279.957031 685.785156 278.277344 682.496094 278.660156 C 679.28125 278.964844 668.792969 284.390625 667.953125 284.851562 C 667.414062 285.003906 667.261719 285.003906 667.261719 285.003906 C 667.1875 285.003906 667.1875 285.003906 667.109375 285.003906 C 666.421875 285.003906 665.65625 284.621094 665.425781 284.011719 C 665.195312 283.324219 665.578125 282.40625 666.652344 281.335938 C 669.253906 279.269531 676.21875 274.226562 678.746094 273.917969 C 681.804688 273.613281 688.007812 275.066406 688.082031 275.066406 C 688.386719 275.140625 688.695312 274.914062 688.769531 274.605469 C 688.847656 274.300781 688.617188 273.996094 688.3125 273.917969 C 688.082031 273.84375 681.882812 272.390625 678.589844 272.695312 C 675.300781 273 666.496094 279.882812 665.886719 280.339844 C 663.820312 281.640625 662.515625 281.945312 661.75 281.257812 C 661.0625 280.648438 660.910156 279.195312 662.210938 277.359375 C 664.507812 274.761719 670.9375 268.03125 673.539062 267.269531 C 676.675781 266.351562 686.476562 268.566406 686.550781 268.566406 C 686.859375 268.644531 687.164062 268.414062 687.242188 268.109375 C 687.316406 267.804688 687.085938 267.496094 686.78125 267.421875 C 686.398438 267.34375 676.601562 265.128906 673.234375 266.121094 C 670.019531 267.039062 662.671875 275.066406 661.523438 276.367188 C 660.296875 276.058594 659.53125 275.675781 659.378906 275.140625 C 659.148438 274.148438 659.457031 273 660.222656 272.238281 C 660.679688 271.703125 661.214844 271.089844 661.828125 270.402344 C 665.65625 265.890625 671.472656 259.085938 676.984375 261 C 683.335938 263.214844 701.859375 268.492188 707.984375 270.25 L 709.742188 294.179688 C 705.992188 295.628906 702.625 296.011719 699.871094 295.171875 C 694.128906 293.488281 688.847656 289.207031 686.550781 287.296875 C 685.632812 286.6875 685.402344 286.53125 685.171875 286.457031 Z M 812.234375 322.617188 L 742.503906 321.929688 L 740.898438 300.90625 C 740.898438 300.601562 740.667969 300.371094 740.359375 300.371094 C 740.054688 300.371094 739.824219 300.523438 739.75 300.753906 L 733.929688 321.316406 L 693.671875 320.9375 L 697.878906 295.707031 L 697.648438 295.628906 C 698.261719 295.859375 698.953125 296.089844 699.5625 296.320312 C 700.636719 296.625 701.785156 296.777344 703.007812 296.777344 C 705.152344 296.777344 707.449219 296.320312 709.898438 295.324219 L 709.972656 296.320312 C 709.972656 296.472656 710.050781 296.625 710.203125 296.699219 C 710.28125 296.777344 710.433594 296.855469 710.585938 296.855469 C 710.585938 296.855469 710.585938 296.855469 710.664062 296.855469 L 810.703125 287.757812 Z M 750.539062 149.382812 C 742.273438 149.6875 739.824219 143.878906 739.519531 142.808594 C 739.210938 140.359375 738.984375 137.609375 738.601562 134.550781 C 738.601562 134.398438 738.523438 134.246094 738.371094 134.167969 C 738.292969 134.089844 738.140625 134.089844 738.066406 134.089844 C 737.988281 134.089844 737.988281 134.089844 737.910156 134.089844 C 733.242188 135.160156 729.339844 134.246094 726.429688 131.339844 C 724.441406 129.351562 722.910156 124.6875 721.914062 118.878906 C 722.296875 118.726562 722.757812 118.417969 723.0625 118.039062 C 724.824219 121.25 736.535156 120.253906 735.769531 118.039062 C 737.910156 120.332031 741.050781 118.417969 741.816406 116.355469 C 738.21875 116.433594 736.457031 113.066406 733.011719 112.992188 L 729.414062 113.449219 L 726.660156 113.066406 C 725.742188 112.152344 726.125 106.417969 731.023438 94.71875 C 731.175781 94.414062 731.023438 94.109375 730.714844 93.957031 C 730.410156 93.800781 730.105469 93.957031 729.949219 94.261719 C 729.949219 94.335938 728.191406 98.464844 726.8125 102.898438 C 724.824219 109.167969 724.898438 111.769531 725.359375 112.992188 C 723.828125 113.144531 722.601562 113.984375 721.378906 114.828125 C 720.230469 105.882812 720 95.40625 720.535156 87.839844 C 725.050781 87.378906 727.578125 90.210938 727.730469 90.363281 C 727.808594 90.515625 728.039062 90.589844 728.191406 90.589844 C 728.34375 90.589844 728.496094 90.515625 728.574219 90.4375 C 728.804688 90.210938 728.804688 89.902344 728.648438 89.597656 C 728.496094 89.445312 725.664062 86.234375 720.6875 86.691406 C 720.917969 83.632812 721.300781 81.113281 721.835938 79.507812 C 723.214844 80.195312 724.667969 80.730469 726.355469 81.035156 C 727.273438 81.1875 728.265625 81.265625 729.339844 81.265625 C 738.675781 81.265625 752.070312 74.84375 755.058594 73.390625 C 756.511719 76.832031 761.105469 87.992188 762.558594 89.0625 C 762.710938 89.214844 762.941406 89.214844 763.171875 89.140625 C 766.308594 87.457031 769.140625 87.761719 771.589844 90.132812 C 774.804688 93.265625 774.804688 96.554688 774.191406 98.695312 C 773.199219 102.210938 770.058594 105.347656 766.691406 106.109375 C 766.539062 106.109375 766.386719 106.265625 766.308594 106.417969 C 766.230469 106.570312 766.230469 106.722656 766.230469 106.875 C 766.230469 106.875 766.230469 106.953125 766.230469 106.953125 C 766.769531 108.941406 768.910156 125.222656 770.441406 137.148438 C 770.59375 138.144531 770.671875 139.0625 770.824219 139.976562 C 770.824219 139.976562 770.824219 139.976562 770.75 139.976562 C 761.867188 147.929688 755.285156 149.230469 750.539062 149.382812 Z M 863.210938 149.152344 C 863.210938 156.261719 857.46875 161.996094 850.351562 161.996094 L 824.785156 161.996094 C 822.71875 160.085938 820.347656 158.480469 817.667969 157.332031 C 817.667969 157.332031 817.59375 157.332031 817.59375 157.332031 C 816.980469 157.101562 816.367188 156.875 815.753906 156.644531 L 794.707031 148.695312 L 794.707031 106.417969 C 794.707031 99.308594 800.445312 93.574219 807.566406 93.574219 L 850.351562 93.574219 C 857.46875 93.574219 863.210938 99.308594 863.210938 106.417969 Z M 625.011719 177.515625 L 619.730469 177.515625 C 619.195312 177.515625 618.8125 177.210938 618.582031 176.75 C 618.351562 176.214844 618.121094 175.679688 617.894531 175.144531 C 617.664062 174.6875 617.738281 174.152344 618.121094 173.769531 L 621.875 170.023438 C 622.792969 169.105469 622.792969 167.652344 621.875 166.660156 L 615.671875 160.46875 C 614.753906 159.550781 613.222656 159.550781 612.382812 160.46875 L 608.632812 164.214844 C 608.25 164.59375 607.714844 164.671875 607.253906 164.441406 C 606.71875 164.214844 606.183594 163.984375 605.644531 163.753906 C 605.1875 163.601562 604.882812 163.144531 604.882812 162.609375 L 604.882812 157.332031 C 604.882812 156.03125 603.808594 154.960938 602.507812 154.960938 L 593.78125 154.960938 C 592.480469 154.960938 591.410156 156.03125 591.410156 157.332031 L 591.410156 162.609375 C 591.410156 163.144531 591.101562 163.523438 590.644531 163.753906 C 590.109375 163.984375 589.574219 164.214844 589.035156 164.441406 C 588.578125 164.671875 588.042969 164.59375 587.660156 164.214844 L 583.910156 160.46875 C 582.988281 159.550781 581.460938 159.550781 580.617188 160.46875 L 574.417969 166.660156 C 573.5 167.578125 573.5 169.03125 574.417969 170.023438 L 578.167969 173.769531 C 578.550781 174.152344 578.628906 174.6875 578.398438 175.144531 C 578.167969 175.679688 577.9375 176.214844 577.707031 176.75 C 577.554688 177.210938 577.097656 177.515625 576.558594 177.515625 L 571.277344 177.515625 C 569.976562 177.515625 568.90625 178.585938 568.90625 179.886719 L 568.90625 188.601562 C 568.90625 189.898438 569.976562 190.96875 571.277344 190.96875 L 576.558594 190.96875 C 577.097656 190.96875 577.554688 191.277344 577.707031 191.734375 C 577.9375 192.269531 578.167969 192.804688 578.398438 193.339844 C 578.628906 193.800781 578.472656 194.335938 578.167969 194.714844 L 574.417969 198.460938 C 573.5 199.378906 573.5 200.832031 574.417969 201.828125 L 580.617188 208.019531 C 581.535156 208.9375 582.988281 208.9375 583.910156 208.019531 L 587.660156 204.273438 C 588.042969 203.890625 588.578125 203.8125 589.035156 204.042969 C 589.574219 204.273438 590.109375 204.503906 590.644531 204.730469 C 591.101562 204.882812 591.410156 205.34375 591.410156 205.878906 L 591.410156 211.152344 C 591.410156 212.453125 592.480469 213.523438 593.78125 213.523438 L 602.507812 213.523438 C 603.808594 213.523438 604.882812 212.453125 604.882812 211.152344 L 604.882812 205.878906 C 604.882812 205.34375 605.1875 204.882812 605.644531 204.730469 C 606.183594 204.503906 606.71875 204.273438 607.253906 204.042969 C 607.714844 203.8125 608.25 203.890625 608.632812 204.273438 L 612.382812 208.019531 C 613.300781 208.9375 614.832031 208.9375 615.671875 208.019531 L 621.875 201.828125 C 622.792969 200.910156 622.792969 199.457031 621.875 198.460938 L 618.121094 194.714844 C 617.738281 194.335938 617.664062 193.800781 617.894531 193.339844 C 618.121094 192.804688 618.351562 192.269531 618.582031 191.734375 C 618.734375 191.277344 619.195312 190.96875 619.730469 190.96875 L 625.011719 190.96875 C 626.3125 190.96875 627.382812 189.898438 627.382812 188.601562 L 627.382812 179.886719 C 627.382812 178.585938 626.3125 177.515625 625.011719 177.515625 Z M 626.234375 188.675781 C 626.234375 189.363281 625.699219 189.898438 625.011719 189.898438 L 619.730469 189.898438 C 618.734375 189.898438 617.894531 190.511719 617.511719 191.429688 C 617.355469 191.964844 617.128906 192.421875 616.898438 192.957031 C 616.515625 193.875 616.667969 194.945312 617.355469 195.632812 L 621.109375 199.378906 C 621.566406 199.839844 621.566406 200.601562 621.109375 201.0625 L 614.90625 207.253906 C 614.449219 207.714844 613.683594 207.714844 613.222656 207.253906 L 609.472656 203.507812 C 608.785156 202.820312 607.714844 202.589844 606.792969 203.050781 C 606.335938 203.277344 605.800781 203.507812 605.265625 203.660156 C 604.34375 203.96875 603.734375 204.882812 603.734375 205.878906 L 603.734375 211.152344 C 603.734375 211.839844 603.195312 212.375 602.507812 212.375 L 593.78125 212.375 C 593.09375 212.375 592.558594 211.839844 592.558594 211.152344 L 592.558594 205.878906 C 592.558594 204.882812 591.945312 204.042969 591.027344 203.660156 C 590.492188 203.507812 589.957031 203.277344 589.496094 203.050781 C 589.191406 202.898438 588.808594 202.820312 588.5 202.820312 C 587.886719 202.820312 587.277344 203.050781 586.816406 203.507812 L 583.066406 207.253906 C 582.605469 207.714844 581.839844 207.714844 581.382812 207.253906 L 575.183594 201.0625 C 574.722656 200.601562 574.722656 199.839844 575.183594 199.378906 L 578.933594 195.632812 C 579.621094 194.945312 579.851562 193.875 579.390625 192.957031 C 579.164062 192.5 578.933594 191.964844 578.78125 191.429688 C 578.472656 190.511719 577.554688 189.898438 576.558594 189.898438 L 571.277344 189.898438 C 570.589844 189.898438 570.054688 189.363281 570.054688 188.675781 L 570.054688 179.960938 C 570.054688 179.273438 570.589844 178.738281 571.277344 178.738281 L 576.558594 178.738281 C 577.554688 178.738281 578.398438 178.125 578.78125 177.210938 C 578.933594 176.675781 579.164062 176.140625 579.390625 175.679688 C 579.773438 174.761719 579.621094 173.691406 578.933594 173.003906 L 575.183594 169.257812 C 574.953125 169.03125 574.800781 168.722656 574.800781 168.417969 C 574.800781 168.113281 574.953125 167.804688 575.183594 167.578125 L 581.382812 161.382812 C 581.839844 160.925781 582.605469 160.925781 583.066406 161.382812 L 586.816406 165.128906 C 587.507812 165.820312 588.578125 166.046875 589.496094 165.589844 C 590.03125 165.359375 590.492188 165.128906 591.027344 164.976562 C 591.945312 164.671875 592.558594 163.753906 592.558594 162.761719 L 592.558594 157.484375 C 592.558594 156.796875 593.09375 156.261719 593.78125 156.261719 L 602.507812 156.261719 C 603.195312 156.261719 603.734375 156.796875 603.734375 157.484375 L 603.734375 162.761719 C 603.734375 163.753906 604.34375 164.59375 605.265625 164.976562 C 605.800781 165.128906 606.257812 165.359375 606.792969 165.589844 C 607.714844 165.972656 608.785156 165.820312 609.472656 165.128906 L 613.222656 161.382812 C 613.683594 160.925781 614.449219 160.925781 614.90625 161.382812 L 621.109375 167.578125 C 621.566406 168.035156 621.566406 168.800781 621.109375 169.257812 L 617.355469 173.003906 C 616.667969 173.691406 616.4375 174.761719 616.898438 175.679688 C 617.128906 176.214844 617.355469 176.675781 617.511719 177.210938 C 617.816406 178.125 618.734375 178.738281 619.730469 178.738281 L 625.011719 178.738281 C 625.699219 178.738281 626.234375 179.273438 626.234375 179.960938 Z M 738.828125 97.777344 C 739.136719 98.390625 739.210938 99.078125 739.058594 99.765625 C 738.90625 100.683594 738.523438 101.90625 737.453125 101.828125 C 735.769531 101.601562 735.921875 98.617188 736.992188 97.546875 C 737.910156 96.632812 738.523438 97.167969 738.828125 97.777344 Z M 724.363281 95.941406 C 724.667969 96.554688 724.746094 97.242188 724.59375 97.929688 C 724.441406 98.847656 724.058594 100.070312 722.984375 99.996094 C 721.300781 99.765625 721.453125 96.785156 722.527344 95.714844 C 723.519531 94.871094 724.058594 95.332031 724.363281 95.941406 Z M 739.59375 121.707031 C 739.75 121.9375 739.75 122.320312 739.441406 122.546875 C 737.605469 123.925781 734.925781 125.300781 731.636719 125.300781 C 730.871094 125.300781 730.105469 125.222656 729.261719 125.070312 C 728.957031 124.996094 728.726562 124.6875 728.804688 124.382812 C 728.878906 124.078125 729.1875 123.847656 729.492188 123.925781 C 733.472656 124.765625 736.761719 123.082031 738.753906 121.628906 C 739.058594 121.402344 739.441406 121.476562 739.59375 121.707031 Z M 745.871094 92.425781 C 746.101562 92.65625 746.023438 93.039062 745.796875 93.265625 C 745.71875 93.34375 745.566406 93.421875 745.414062 93.421875 C 745.257812 93.421875 745.105469 93.34375 744.953125 93.191406 C 744.800781 93.039062 741.433594 89.292969 735.539062 91.125 C 735.234375 91.203125 734.925781 91.050781 734.851562 90.746094 C 734.773438 90.4375 734.925781 90.132812 735.234375 90.054688 C 741.890625 87.914062 745.71875 92.195312 745.871094 92.425781 Z M 619.808594 70.101562 L 633.738281 70.101562 C 636.492188 70.101562 638.710938 67.886719 638.710938 65.132812 L 638.710938 51.21875 C 638.710938 48.46875 636.492188 46.25 633.738281 46.25 L 619.808594 46.25 C 617.050781 46.25 614.832031 48.46875 614.832031 51.21875 L 614.832031 65.132812 C 614.90625 67.886719 617.128906 70.101562 619.808594 70.101562 Z M 616.054688 51.21875 C 616.054688 49.15625 617.738281 47.398438 619.882812 47.398438 L 633.738281 47.398438 C 635.804688 47.398438 637.566406 49.078125 637.566406 51.21875 L 637.566406 65.132812 C 637.566406 67.199219 635.878906 68.957031 633.738281 68.957031 L 619.808594 68.957031 C 617.738281 68.957031 615.980469 67.273438 615.980469 65.132812 L 615.980469 51.21875 Z M 651.570312 61.539062 L 677.980469 61.539062 C 679.664062 61.539062 681.039062 60.164062 681.039062 58.484375 C 681.039062 56.800781 679.664062 55.425781 677.980469 55.425781 L 651.570312 55.425781 C 649.886719 55.425781 648.511719 56.800781 648.511719 58.484375 C 648.511719 60.164062 649.886719 61.539062 651.570312 61.539062 Z M 651.570312 56.570312 L 677.980469 56.570312 C 679.050781 56.570312 679.890625 57.414062 679.890625 58.484375 C 679.890625 59.554688 679.050781 60.394531 677.980469 60.394531 L 651.570312 60.394531 C 650.5 60.394531 649.65625 59.554688 649.65625 58.484375 C 649.65625 57.414062 650.5 56.570312 651.570312 56.570312 Z M 619.808594 98.464844 L 633.738281 98.464844 C 636.492188 98.464844 638.710938 96.25 638.710938 93.496094 L 638.710938 79.660156 C 638.710938 76.90625 636.492188 74.691406 633.738281 74.691406 L 619.808594 74.691406 C 617.050781 74.691406 614.832031 76.90625 614.832031 79.660156 L 614.832031 93.574219 C 614.90625 96.25 617.128906 98.464844 619.808594 98.464844 Z M 616.054688 79.660156 C 616.054688 77.59375 617.738281 75.835938 619.882812 75.835938 L 633.738281 75.835938 C 635.804688 75.835938 637.566406 77.519531 637.566406 79.660156 L 637.566406 93.574219 C 637.566406 95.636719 635.878906 97.394531 633.738281 97.394531 L 619.808594 97.394531 C 617.738281 97.394531 615.980469 95.714844 615.980469 93.574219 L 615.980469 79.660156 Z M 633.738281 102.976562 L 619.808594 102.976562 C 617.050781 102.976562 614.832031 105.195312 614.832031 107.945312 L 614.832031 121.859375 C 614.832031 124.613281 617.050781 126.828125 619.808594 126.828125 L 633.738281 126.828125 C 636.492188 126.828125 638.710938 124.613281 638.710938 121.859375 L 638.710938 107.945312 C 638.710938 105.195312 636.492188 102.976562 633.738281 102.976562 Z M 637.566406 121.859375 C 637.566406 123.925781 635.878906 125.683594 633.738281 125.683594 L 619.808594 125.683594 C 617.738281 125.683594 615.980469 124 615.980469 121.859375 L 615.980469 107.945312 C 615.980469 105.882812 617.664062 104.125 619.808594 104.125 L 633.738281 104.125 C 635.804688 104.125 637.566406 105.804688 637.566406 107.945312 Z M 681.039062 86.617188 C 681.039062 84.933594 679.664062 83.558594 677.980469 83.558594 L 651.570312 83.558594 C 649.886719 83.558594 648.511719 84.933594 648.511719 86.617188 C 648.511719 88.296875 649.886719 89.675781 651.570312 89.675781 L 677.980469 89.675781 C 679.664062 89.675781 681.039062 88.296875 681.039062 86.617188 Z M 649.65625 86.617188 C 649.65625 85.546875 650.5 84.703125 651.570312 84.703125 L 677.980469 84.703125 C 679.050781 84.703125 679.890625 85.546875 679.890625 86.617188 C 679.890625 87.6875 679.050781 88.527344 677.980469 88.527344 L 651.570312 88.527344 C 650.5 88.527344 649.65625 87.6875 649.65625 86.617188 Z M 649.65625 86.617188 " fill-opacity="1" fill-rule="nonzero"/></g><g fill="#000000" fill-opacity="1"><g transform="translate(81.450013, 192.149987)"><g><path d="M 1.347656 0 L 3.507812 0 L 6.691406 -8.933594 L 19.828125 -8.933594 L 23.050781 0 L 25.335938 0 L 14.851562 -29.167969 L 11.832031 -29.167969 Z M 13.257812 -27.292969 L 19.175781 -10.769531 L 7.34375 -10.769531 Z M 13.257812 -27.292969 "/></g></g></g><g fill="#000000" fill-opacity="1"><g transform="translate(108.130159, 192.149987)"><g><path d="M 3.34375 7.425781 L 5.507812 7.425781 L 5.507812 -4.855469 C 6.648438 -2.242188 9.382812 0.328125 13.625 0.328125 C 19.132812 0.328125 23.214844 -3.875 23.214844 -10.566406 L 23.214844 -10.894531 C 23.214844 -17.542969 19.011719 -21.664062 13.625 -21.664062 C 9.871094 -21.664062 6.730469 -19.132812 5.507812 -16.359375 L 5.507812 -21.335938 L 3.34375 -21.335938 Z M 13.464844 -1.507812 C 9.015625 -1.507812 5.46875 -4.652344 5.46875 -10.484375 L 5.46875 -10.8125 C 5.46875 -16.6875 9.261719 -19.828125 13.421875 -19.828125 C 17.5 -19.828125 20.96875 -16.6875 20.96875 -10.8125 L 20.96875 -10.484375 C 20.96875 -4.773438 17.949219 -1.507812 13.464844 -1.507812 Z M 13.464844 -1.507812 "/></g></g></g><g fill="#000000" fill-opacity="1"><g transform="translate(133.096905, 192.149987)"><g><path d="M 3.34375 7.425781 L 5.507812 7.425781 L 5.507812 -4.855469 C 6.648438 -2.242188 9.382812 0.328125 13.625 0.328125 C 19.132812 0.328125 23.214844 -3.875 23.214844 -10.566406 L 23.214844 -10.894531 C 23.214844 -17.542969 19.011719 -21.664062 13.625 -21.664062 C 9.871094 -21.664062 6.730469 -19.132812 5.507812 -16.359375 L 5.507812 -21.335938 L 3.34375 -21.335938 Z M 13.464844 -1.507812 C 9.015625 -1.507812 5.46875 -4.652344 5.46875 -10.484375 L 5.46875 -10.8125 C 5.46875 -16.6875 9.261719 -19.828125 13.421875 -19.828125 C 17.5 -19.828125 20.96875 -16.6875 20.96875 -10.8125 L 20.96875 -10.484375 C 20.96875 -4.773438 17.949219 -1.507812 13.464844 -1.507812 Z M 13.464844 -1.507812 "/></g></g></g><g fill="#000000" fill-opacity="1"><g transform="translate(158.06365, 192.149987)"><g><path d="M 3.425781 0 L 5.628906 0 L 5.628906 -31.535156 L 3.425781 -31.535156 Z M 3.425781 0 "/></g></g></g><g fill="#000000" fill-opacity="1"><g transform="translate(167.120216, 192.149987)"><g><path d="M 3.425781 0 L 5.589844 0 L 5.589844 -21.335938 L 3.425781 -21.335938 Z M 4.488281 -25.90625 C 5.34375 -25.90625 5.996094 -26.601562 5.996094 -27.457031 C 5.996094 -28.273438 5.34375 -28.964844 4.488281 -28.964844 C 3.632812 -28.964844 2.9375 -28.273438 2.9375 -27.457031 C 2.9375 -26.601562 3.632812 -25.90625 4.488281 -25.90625 Z M 4.488281 -25.90625 "/></g></g></g><g fill="#000000" fill-opacity="1"><g transform="translate(176.135981, 192.149987)"><g><path d="M 11.953125 0.328125 C 16.808594 0.328125 20.480469 -2.816406 21.050781 -7.382812 L 19.050781 -7.382812 C 18.523438 -3.550781 15.503906 -1.507812 11.953125 -1.507812 C 7.464844 -1.507812 4 -4.8125 4 -10.445312 L 4 -10.769531 C 4 -16.402344 7.507812 -19.828125 11.953125 -19.828125 C 15.300781 -19.828125 18.195312 -18.15625 18.726562 -14.566406 L 20.847656 -14.566406 C 20.277344 -19.378906 16.277344 -21.664062 11.953125 -21.664062 C 6.324219 -21.664062 1.753906 -17.296875 1.753906 -10.769531 L 1.753906 -10.445312 C 1.753906 -3.957031 6.199219 0.328125 11.953125 0.328125 Z M 11.953125 0.328125 "/></g></g></g><g fill="#000000" fill-opacity="1"><g transform="translate(198.818189, 192.149987)"><g><path d="M 9.015625 0.328125 C 12.605469 0.328125 14.890625 -1.183594 16.238281 -3.265625 L 16.238281 0 L 18.398438 0 L 18.398438 -14.117188 C 18.398438 -19.542969 15.378906 -21.664062 10.933594 -21.664062 C 6.894531 -21.664062 3.222656 -19.785156 2.734375 -15.300781 L 4.855469 -15.300781 C 5.34375 -18.441406 7.628906 -19.828125 10.851562 -19.828125 C 14.605469 -19.828125 16.238281 -18.113281 16.238281 -14.117188 L 16.238281 -12.199219 L 11.789062 -12.199219 C 6.527344 -12.199219 1.796875 -10.6875 1.796875 -5.753906 C 1.796875 -1.714844 4.8125 0.328125 9.015625 0.328125 Z M 9.179688 -1.429688 C 5.671875 -1.429688 3.957031 -3.019531 3.957031 -5.753906 C 3.957031 -9.585938 7.425781 -10.527344 11.871094 -10.527344 L 16.238281 -10.527344 L 16.238281 -6.894531 C 16.238281 -3.710938 13.097656 -1.429688 9.179688 -1.429688 Z M 9.179688 -1.429688 "/></g></g></g><g fill="#000000" fill-opacity="1"><g transform="translate(220.398921, 192.149987)"><g><path d="M 3.34375 0 L 5.507812 0 L 5.507812 -12.933594 C 5.507812 -17.421875 9.015625 -19.785156 12.566406 -19.785156 C 16.359375 -19.785156 18.480469 -17.789062 18.480469 -13.257812 L 18.480469 0 L 20.644531 0 L 20.644531 -13.136719 C 20.644531 -19.214844 17.582031 -21.664062 13.054688 -21.664062 C 9.261719 -21.664062 6.488281 -19.5 5.507812 -17.175781 L 5.507812 -21.335938 L 3.34375 -21.335938 Z M 3.34375 0 "/></g></g></g><g fill="#000000" fill-opacity="1"><g transform="translate(244.182591, 192.149987)"><g><path d="M 9.382812 0.285156 C 10.6875 0.285156 11.503906 0.0820312 12.199219 -0.164062 L 12.199219 -2 C 11.464844 -1.753906 10.605469 -1.550781 9.503906 -1.550781 C 7.546875 -1.550781 6.324219 -2.734375 6.324219 -5.304688 L 6.324219 -19.5 L 11.914062 -19.5 L 11.914062 -21.335938 L 6.324219 -21.335938 L 6.324219 -26.191406 L 4.160156 -26.191406 L 4.160156 -21.335938 L 1.019531 -21.335938 L 1.019531 -19.5 L 4.160156 -19.5 L 4.160156 -5.140625 C 4.160156 -1.714844 5.996094 0.285156 9.382812 0.285156 Z M 9.382812 0.285156 "/></g></g></g><g fill="#000000" fill-opacity="1"><g transform="translate(257.971407, 192.149987)"><g/></g></g><g fill="#000000" fill-opacity="1"><g transform="translate(268.047847, 192.149987)"><g><path d="M 3.753906 0 L 6.039062 0 L 6.039062 -13.667969 L 23.214844 -13.667969 L 23.214844 0 L 25.5 0 L 25.5 -29.167969 L 23.214844 -29.167969 L 23.214844 -15.585938 L 6.039062 -15.585938 L 6.039062 -29.167969 L 3.753906 -29.167969 Z M 3.753906 0 "/></g></g></g><g fill="#000000" fill-opacity="1"><g transform="translate(297.298094, 192.149987)"><g><path d="M 12.074219 -1.507812 C 7.425781 -1.507812 4 -5.019531 4 -10.484375 L 4 -10.8125 C 4 -16.359375 7.507812 -19.828125 12.074219 -19.828125 C 16.605469 -19.828125 20.113281 -16.441406 20.113281 -10.8125 L 20.113281 -10.484375 C 20.113281 -4.976562 16.644531 -1.507812 12.074219 -1.507812 Z M 12.035156 0.328125 C 17.789062 0.328125 22.355469 -4.078125 22.355469 -10.527344 L 22.355469 -10.851562 C 22.355469 -17.339844 17.828125 -21.664062 12.074219 -21.664062 C 6.363281 -21.664062 1.753906 -17.214844 1.753906 -10.8125 L 1.753906 -10.484375 C 1.753906 -4.203125 6.242188 0.328125 12.035156 0.328125 Z M 12.035156 0.328125 "/></g></g></g><g fill="#000000" fill-opacity="1"><g transform="translate(321.408112, 192.149987)"><g><path d="M 7.832031 0 L 10.28125 0 L 15.953125 -17.867188 L 21.253906 0 L 23.742188 0 L 30.476562 -21.335938 L 28.273438 -21.335938 L 22.519531 -2.652344 L 16.890625 -21.335938 L 15.054688 -21.335938 L 9.21875 -2.652344 L 3.507812 -21.335938 L 1.183594 -21.335938 Z M 7.832031 0 "/></g></g></g><g fill="#000000" fill-opacity="1"><g transform="translate(353.065271, 192.149987)"><g><path d="M 2.53125 -10.28125 L 11.054688 -10.28125 L 11.054688 -12.320312 L 2.53125 -12.320312 Z M 2.53125 -10.28125 "/></g></g></g><g fill="#000000" fill-opacity="1"><g transform="translate(366.650113, 192.149987)"><g><path d="M 9.382812 0.285156 C 10.6875 0.285156 11.503906 0.0820312 12.199219 -0.164062 L 12.199219 -2 C 11.464844 -1.753906 10.605469 -1.550781 9.503906 -1.550781 C 7.546875 -1.550781 6.324219 -2.734375 6.324219 -5.304688 L 6.324219 -19.5 L 11.914062 -19.5 L 11.914062 -21.335938 L 6.324219 -21.335938 L 6.324219 -26.191406 L 4.160156 -26.191406 L 4.160156 -21.335938 L 1.019531 -21.335938 L 1.019531 -19.5 L 4.160156 -19.5 L 4.160156 -5.140625 C 4.160156 -1.714844 5.996094 0.285156 9.382812 0.285156 Z M 9.382812 0.285156 "/></g></g></g><g fill="#000000" fill-opacity="1"><g transform="translate(380.438916, 192.149987)"><g><path d="M 12.074219 -1.507812 C 7.425781 -1.507812 4 -5.019531 4 -10.484375 L 4 -10.8125 C 4 -16.359375 7.507812 -19.828125 12.074219 -19.828125 C 16.605469 -19.828125 20.113281 -16.441406 20.113281 -10.8125 L 20.113281 -10.484375 C 20.113281 -4.976562 16.644531 -1.507812 12.074219 -1.507812 Z M 12.035156 0.328125 C 17.789062 0.328125 22.355469 -4.078125 22.355469 -10.527344 L 22.355469 -10.851562 C 22.355469 -17.339844 17.828125 -21.664062 12.074219 -21.664062 C 6.363281 -21.664062 1.753906 -17.214844 1.753906 -10.8125 L 1.753906 -10.484375 C 1.753906 -4.203125 6.242188 0.328125 12.035156 0.328125 Z M 12.035156 0.328125 "/></g></g></g></svg>