<svg xmlns="http://www.w3.org/2000/svg" xmlns:xlink="http://www.w3.org/1999/xlink" width="1200" zoomAndPan="magnify" viewBox="0 0 900 359.999987" height="480" preserveAspectRatio="xMidYMid meet" version="1.0"><defs><g/><clipPath id="436cded865"><path d="M 17.25 0 L 882.75 0 C 887.324219 0 891.710938 1.816406 894.949219 5.050781 C 898.183594 8.289062 900 12.675781 900 17.25 L 900 342.75 C 900 347.324219 898.183594 351.710938 894.949219 354.949219 C 891.710938 358.183594 887.324219 360 882.75 360 L 17.25 360 C 12.675781 360 8.289062 358.183594 5.050781 354.949219 C 1.816406 351.710938 0 347.324219 0 342.75 L 0 17.25 C 0 12.675781 1.816406 8.289062 5.050781 5.050781 C 8.289062 1.816406 12.675781 0 17.25 0 Z M 17.25 0 " clip-rule="nonzero"/></clipPath><clipPath id="9b1e9ccbd6"><path d="M 1.800781 1.800781 L 898.199219 1.800781 L 898.199219 358.199219 L 1.800781 358.199219 Z M 1.800781 1.800781 " clip-rule="nonzero"/></clipPath><clipPath id="65058a7593"><path d="M 19.050781 1.800781 L 880.949219 1.800781 C 885.523438 1.800781 889.914062 3.617188 893.148438 6.851562 C 896.382812 10.085938 898.199219 14.476562 898.199219 19.050781 L 898.199219 340.949219 C 898.199219 345.523438 896.382812 349.914062 893.148438 353.148438 C 889.914062 356.382812 885.523438 358.199219 880.949219 358.199219 L 19.050781 358.199219 C 14.476562 358.199219 10.085938 356.382812 6.851562 353.148438 C 3.617188 349.914062 1.800781 345.523438 1.800781 340.949219 L 1.800781 19.050781 C 1.800781 14.476562 3.617188 10.085938 6.851562 6.851562 C 10.085938 3.617188 14.476562 1.800781 19.050781 1.800781 Z M 19.050781 1.800781 " clip-rule="nonzero"/></clipPath><clipPath id="9a2982cdd1"><path d="M 590 36 L 868.878906 36 L 868.878906 324 L 590 324 Z M 590 36 " clip-rule="nonzero"/></clipPath><clipPath id="442a2bcf55"><path d="M 603 52 L 868.878906 52 L 868.878906 306 L 603 306 Z M 603 52 " clip-rule="nonzero"/></clipPath><clipPath id="47f87ceed4"><path d="M 590 36 L 868.878906 36 L 868.878906 167 L 590 167 Z M 590 36 " clip-rule="nonzero"/></clipPath><clipPath id="c2bbcc0dd8"><path d="M 712.5 57.75 L 786 57.75 L 786 141 L 712.5 141 Z M 712.5 57.75 " clip-rule="nonzero"/></clipPath><clipPath id="4109839dfd"><path d="M 712.5 61 L 786 61 L 786 141 L 712.5 141 Z M 712.5 61 " clip-rule="nonzero"/></clipPath><clipPath id="352968fad6"><path d="M 712.5 57.75 L 786 57.75 L 786 141 L 712.5 141 Z M 712.5 57.75 " clip-rule="nonzero"/></clipPath></defs><g clip-path="url(#436cded865)"><rect x="-90" width="1080" fill="#004aad" y="-35.999999" height="431.999984" fill-opacity="1"/></g><g clip-path="url(#9b1e9ccbd6)"><g clip-path="url(#65058a7593)"><path fill="#ffffff" d="M 1.800781 1.800781 L 898.199219 1.800781 L 898.199219 358.199219 L 1.800781 358.199219 Z M 1.800781 1.800781 " fill-opacity="1" fill-rule="nonzero"/></g></g><g clip-path="url(#9a2982cdd1)"><path fill="#ffffff" d="M 861.054688 51.890625 L 624.25 51.890625 C 625.054688 51.023438 625.253906 49.820312 624.921875 48.679688 C 624.519531 47.476562 623.515625 46.609375 622.246094 46.40625 L 615.359375 45.402344 C 614.621094 45.269531 613.953125 44.800781 613.617188 44.132812 L 610.542969 37.910156 C 610.007812 36.90625 608.871094 36.171875 607.667969 36.171875 C 606.464844 36.171875 605.257812 36.90625 604.722656 37.976562 L 601.648438 44.199219 C 601.3125 44.867188 600.644531 45.335938 599.910156 45.46875 L 593.019531 46.472656 C 591.75 46.675781 590.746094 47.542969 590.347656 48.75 C 589.945312 49.953125 590.28125 51.222656 591.148438 52.09375 L 596.164062 56.910156 C 596.699219 57.445312 596.96875 58.179688 596.832031 58.917969 L 595.628906 65.808594 C 595.429688 67.078125 595.898438 68.28125 596.96875 69.019531 C 597.570312 69.417969 598.238281 69.621094 598.90625 69.621094 C 599.441406 69.621094 599.976562 69.488281 600.445312 69.21875 L 602.785156 68.015625 L 602.785156 125.210938 C 602.785156 129.492188 606.261719 133.039062 610.609375 133.039062 L 612.546875 133.039062 C 613.820312 137.722656 618.097656 141.265625 623.183594 141.265625 L 638.429688 141.265625 L 638.628906 148.492188 C 638.628906 148.757812 638.695312 149.027344 638.761719 149.292969 C 639.164062 153.375 642.039062 161.671875 643.914062 164.882812 C 644.046875 165.082031 644.246094 165.550781 644.449219 166.152344 L 643.242188 166.421875 C 642.976562 166.488281 642.84375 166.6875 642.84375 166.957031 C 642.84375 167.089844 643.3125 170.835938 644.113281 176.789062 C 646.386719 192.976562 651.066406 225.355469 655.882812 245.960938 C 658.15625 255.660156 666.316406 263.019531 676.214844 264.222656 C 684.839844 265.292969 693.265625 261.144531 697.679688 253.652344 L 711.390625 230.441406 L 712.191406 303.960938 C 712.191406 304.226562 712.390625 304.429688 712.660156 304.429688 L 716.003906 304.496094 L 715.601562 322.890625 L 812.234375 323.828125 L 813.039062 305.566406 L 817.386719 305.632812 C 817.519531 305.632812 817.652344 305.566406 817.785156 305.5 C 817.851562 305.363281 817.921875 305.230469 817.921875 305.097656 C 816.113281 284.960938 815.445312 277.804688 815.246094 275.328125 C 817.785156 276.664062 823.871094 276.800781 823.9375 276.734375 C 831.761719 276.265625 837.113281 269.910156 839.585938 266.164062 C 845.539062 257.199219 842.597656 242.347656 840.457031 231.511719 C 840.121094 229.90625 839.855469 228.433594 839.585938 227.027344 C 837.449219 215.457031 834.304688 200.335938 828.753906 186.488281 C 820.863281 166.886719 811.902344 156.183594 801.269531 153.84375 C 796.386719 152.773438 788.761719 151.769531 778.597656 150.898438 L 770.304688 143.675781 C 770.304688 143.675781 770.238281 143.609375 770.238281 143.609375 C 770.105469 143.542969 769.101562 143.007812 766.828125 142.671875 L 763.550781 134.910156 C 763.550781 134.910156 763.484375 134.910156 763.484375 134.910156 C 764.421875 134.511719 765.355469 133.976562 766.292969 133.238281 L 861.054688 133.238281 C 865.332031 133.238281 868.878906 129.761719 868.878906 125.414062 L 868.878906 59.71875 C 868.8125 55.4375 865.332031 51.890625 861.054688 51.890625 Z M 743.6875 145.75 C 743.621094 145.75 743.488281 145.816406 743.421875 145.882812 L 737.804688 152.90625 C 727.574219 154.78125 720.082031 156.25 715.402344 157.320312 C 702.695312 160.265625 695.941406 162.941406 689.253906 174.78125 C 684.105469 183.878906 679.222656 193.980469 677.550781 197.59375 L 672.535156 170.5 L 670.664062 160.464844 C 670.664062 160.332031 670.527344 160.199219 670.460938 160.132812 C 670.328125 160.066406 670.195312 160.066406 670.0625 160.066406 L 665.980469 161 C 667.386719 157.523438 669.527344 150.429688 668.320312 142.203125 C 668.253906 141.867188 668.1875 141.535156 668.121094 141.199219 L 690.523438 141.199219 C 695.605469 141.199219 699.953125 137.722656 701.15625 132.972656 L 722.757812 132.972656 C 723.828125 135.3125 725.367188 137.1875 727.371094 138.257812 C 731.988281 140.730469 737.070312 141.332031 742.484375 139.996094 L 744.425781 145.414062 C 744.222656 145.613281 743.957031 145.683594 743.6875 145.75 Z M 743.6875 145.75 " fill-opacity="1" fill-rule="nonzero"/></g><g clip-path="url(#442a2bcf55)"><path fill="#ffffff" d="M 612.148438 70.691406 L 612.148438 130.230469 C 612.148438 131.03125 612.214844 131.835938 612.414062 132.570312 L 610.609375 132.570312 C 606.597656 132.570312 603.320312 129.292969 603.320312 125.277344 L 603.320312 67.210938 L 606.394531 65.605469 C 607.199219 65.203125 608.203125 65.203125 609.003906 65.605469 L 612.683594 67.546875 C 612.28125 68.550781 612.148438 69.554688 612.148438 70.691406 Z M 868.34375 59.71875 L 868.34375 125.210938 C 868.34375 129.226562 865.066406 132.503906 861.054688 132.503906 L 757.53125 132.503906 L 762.613281 134.84375 C 762.683594 134.910156 762.75 134.910156 762.882812 134.910156 C 762.949219 134.910156 763.015625 134.910156 763.082031 134.910156 C 763.082031 134.910156 763.082031 134.910156 763.148438 134.910156 L 766.359375 142.402344 C 762.613281 141.9375 755.925781 142.136719 745.09375 145.347656 L 743.019531 139.460938 C 737.738281 140.867188 732.589844 140.464844 727.839844 137.855469 C 725.902344 136.785156 724.363281 134.910156 723.292969 132.503906 L 701.492188 132.503906 C 701.625 131.765625 701.757812 130.964844 701.757812 130.160156 L 701.757812 70.625 C 701.757812 64.535156 696.808594 59.585938 690.726562 59.585938 L 623.183594 59.585938 C 621.441406 59.585938 619.769531 59.988281 618.300781 60.722656 L 618.03125 58.984375 C 617.898438 58.046875 618.167969 57.175781 618.835938 56.507812 L 623.113281 52.359375 L 861.054688 52.359375 C 865.066406 52.425781 868.34375 55.707031 868.34375 59.71875 Z M 781.675781 70.089844 C 781.675781 65.808594 778.195312 62.328125 773.917969 62.328125 L 723.292969 62.328125 C 719.011719 62.328125 715.535156 65.808594 715.535156 70.089844 L 715.535156 114.84375 C 715.535156 118.386719 717.875 121.332031 721.085938 122.269531 C 721.019531 120.527344 721.152344 118.722656 721.351562 116.984375 L 719.078125 114.039062 C 718.410156 113.171875 718.679688 111.898438 719.613281 111.363281 L 723.160156 109.355469 C 724.496094 103.871094 727.039062 98.789062 728.710938 95.777344 C 731.050781 95.777344 733.523438 95.441406 735.195312 95.242188 C 734.996094 95.644531 734.929688 96.042969 735.128906 96.511719 C 735.730469 97.984375 739.140625 98.050781 740.878906 97.984375 C 740.949219 106.011719 748.773438 112.703125 750.308594 113.972656 C 750.242188 115.042969 750.375 116.648438 750.84375 118.789062 C 750.910156 118.988281 750.980469 119.125 751.179688 119.191406 C 751.3125 119.257812 751.515625 119.257812 751.714844 119.191406 C 753.320312 118.320312 755.59375 117.382812 757.332031 117.917969 C 758.199219 118.1875 758.804688 118.722656 759.339844 119.660156 C 759.804688 120.59375 760.140625 121.597656 760.140625 122.535156 L 774.050781 122.535156 C 778.332031 122.535156 781.808594 119.058594 781.808594 114.777344 Z M 858.511719 70.089844 C 858.511719 65.539062 854.835938 61.859375 850.289062 61.859375 L 799.664062 61.859375 C 795.117188 61.859375 791.4375 65.539062 791.4375 70.089844 L 791.4375 114.84375 C 791.4375 119.390625 795.117188 123.070312 799.664062 123.070312 L 850.289062 123.070312 C 854.835938 123.070312 858.511719 119.390625 858.511719 114.84375 Z M 666.382812 78.652344 C 666.382812 73.164062 661.902344 68.683594 656.417969 68.683594 C 650.933594 68.683594 646.453125 73.164062 646.453125 78.652344 C 646.453125 84.136719 650.933594 88.6875 656.417969 88.6875 C 661.902344 88.6875 666.382812 84.203125 666.382812 78.652344 Z M 640.167969 108.621094 L 672.667969 108.621094 C 672.667969 108.621094 672.667969 90.425781 656.417969 90.425781 C 640.167969 90.425781 640.167969 108.621094 640.167969 108.621094 Z M 749.640625 72.09375 C 743.355469 72.09375 738.207031 77.179688 738.207031 83.535156 C 738.207031 89.890625 743.289062 94.972656 749.640625 94.972656 C 755.996094 94.972656 761.078125 89.890625 761.078125 83.535156 C 761.011719 77.246094 755.925781 72.09375 749.640625 72.09375 Z M 824.941406 92.5 C 831.226562 92.5 836.378906 87.414062 836.378906 81.058594 C 836.378906 74.769531 831.292969 69.621094 824.941406 69.621094 C 818.65625 69.621094 813.507812 74.703125 813.507812 81.058594 C 813.574219 87.347656 818.65625 92.5 824.941406 92.5 Z M 824.941406 94.503906 C 806.351562 94.503906 806.351562 115.3125 806.351562 115.3125 L 843.601562 115.3125 C 843.601562 115.3125 843.601562 94.503906 824.941406 94.503906 Z M 828.21875 186.621094 C 822.265625 171.839844 813.773438 157.121094 801.066406 154.246094 C 795.382812 152.972656 786.488281 151.96875 778.332031 151.300781 L 769.902344 143.941406 C 769.902344 143.941406 763.351562 140.195312 743.824219 146.285156 L 738.070312 153.441406 C 729.847656 154.914062 721.019531 156.652344 715.535156 157.925781 C 703.03125 160.800781 696.410156 163.277344 689.722656 175.183594 C 683.300781 186.554688 677.351562 199.398438 677.351562 199.398438 L 670.195312 160.734375 L 665.179688 161.9375 C 666.449219 158.996094 669.125 151.5 667.855469 142.472656 C 667.050781 136.785156 664.910156 134.441406 662.972656 133.507812 L 662.167969 127.886719 L 681.5625 127.886719 C 682.566406 127.886719 683.4375 127.085938 683.4375 126.015625 C 683.4375 125.011719 682.632812 124.140625 681.5625 124.140625 L 661.566406 124.140625 L 661.167969 121.464844 L 680.558594 121.464844 C 682.164062 121.464844 683.4375 120.195312 683.4375 118.589844 L 683.4375 116.847656 C 683.4375 115.242188 682.164062 113.972656 680.558594 113.972656 L 659.5625 113.972656 C 658.824219 112.902344 657.753906 112.234375 656.617188 112.234375 C 655.28125 112.167969 654.546875 112.96875 654.144531 113.972656 L 632.277344 113.972656 C 630.671875 113.972656 629.402344 115.242188 629.402344 116.847656 L 629.402344 118.589844 C 629.402344 120.195312 630.671875 121.464844 632.277344 121.464844 L 654.277344 121.464844 L 654.613281 124.140625 L 631.273438 124.140625 C 630.269531 124.140625 629.402344 124.945312 629.402344 126.015625 C 629.402344 127.085938 630.203125 127.886719 631.273438 127.886719 L 655.015625 127.886719 L 655.550781 132.835938 C 655.015625 131.566406 653.675781 130.695312 652.136719 130.765625 C 650.199219 130.832031 648.726562 132.503906 648.929688 134.308594 L 649.195312 136.382812 C 648.792969 135.246094 647.65625 134.441406 646.320312 134.441406 C 644.582031 134.441406 643.242188 135.980469 643.378906 137.652344 L 643.511719 139.660156 C 643.109375 139.058594 642.441406 138.65625 641.640625 138.523438 C 640.101562 138.324219 638.761719 139.328125 638.832031 140.730469 L 639.03125 148.558594 C 639.03125 148.824219 639.097656 149.027344 639.164062 149.226562 C 639.5 153.175781 642.308594 161.335938 644.246094 164.679688 C 644.449219 164.949219 644.714844 165.683594 644.984375 166.554688 L 643.242188 166.957031 C 643.242188 166.957031 649.53125 217.328125 656.21875 245.828125 C 658.425781 255.394531 666.382812 262.484375 676.078125 263.6875 C 684.503906 264.757812 692.796875 260.675781 697.078125 253.320312 L 711.65625 228.5 L 712.527344 303.824219 L 817.183594 305.03125 C 817.183594 305.03125 814.375 273.855469 814.375 273.855469 C 814.507812 275.664062 822.601562 276.128906 823.671875 276.0625 C 830.15625 275.664062 835.441406 270.914062 838.917969 265.695312 C 845.605469 255.59375 840.789062 237.933594 838.785156 226.894531 C 836.511719 213.382812 833.433594 199.535156 828.21875 186.621094 Z M 828.21875 186.621094 " fill-opacity="1" fill-rule="nonzero"/></g><path fill="#9c6afd" d="M 690.523438 59.652344 L 623.183594 59.652344 C 621.441406 59.652344 619.769531 60.054688 618.300781 60.789062 L 619.167969 65.875 C 619.570312 68.148438 617.164062 69.886719 615.089844 68.816406 L 612.617188 67.480469 C 612.347656 68.484375 612.148438 69.554688 612.148438 70.625 L 612.148438 130.160156 C 612.148438 136.25 617.097656 141.199219 623.183594 141.199219 L 638.964844 141.199219 L 638.964844 140.597656 C 638.898438 139.191406 640.234375 138.121094 641.773438 138.390625 C 642.574219 138.523438 643.242188 138.925781 643.644531 139.527344 L 643.511719 137.519531 C 643.378906 135.78125 644.714844 134.308594 646.453125 134.308594 C 647.726562 134.308594 648.863281 135.113281 649.328125 136.25 L 649.0625 134.175781 C 648.863281 132.300781 650.265625 130.695312 652.273438 130.628906 C 653.808594 130.5625 655.148438 131.433594 655.683594 132.703125 L 655.148438 127.753906 L 631.273438 127.753906 C 630.269531 127.753906 629.402344 126.949219 629.402344 125.878906 C 629.402344 124.878906 630.203125 124.007812 631.273438 124.007812 L 654.613281 124.007812 L 654.277344 121.332031 L 632.277344 121.332031 C 630.671875 121.332031 629.402344 120.058594 629.402344 118.453125 L 629.402344 116.714844 C 629.402344 115.109375 630.671875 113.839844 632.277344 113.839844 L 654.210938 113.839844 C 654.613281 112.769531 655.347656 112.03125 656.6875 112.101562 C 657.824219 112.167969 658.960938 112.835938 659.628906 113.839844 L 680.625 113.839844 C 682.230469 113.839844 683.503906 115.109375 683.503906 116.714844 L 683.503906 118.453125 C 683.503906 120.058594 682.230469 121.332031 680.625 121.332031 L 661.234375 121.332031 L 661.632812 124.007812 L 681.628906 124.007812 C 682.632812 124.007812 683.503906 124.808594 683.503906 125.878906 C 683.503906 126.949219 682.699219 127.753906 681.628906 127.753906 L 662.238281 127.753906 L 663.039062 133.371094 C 664.84375 134.242188 666.785156 136.382812 667.71875 141.265625 L 690.523438 141.265625 C 696.609375 141.265625 701.558594 136.316406 701.558594 130.230469 L 701.558594 70.691406 C 701.625 64.601562 696.609375 59.652344 690.523438 59.652344 Z M 656.417969 68.683594 C 661.902344 68.683594 666.382812 73.164062 666.382812 78.652344 C 666.382812 84.136719 661.902344 88.6875 656.417969 88.6875 C 650.933594 88.6875 646.453125 84.203125 646.453125 78.71875 C 646.453125 73.234375 650.933594 68.683594 656.417969 68.683594 Z M 640.167969 108.621094 C 640.167969 108.621094 640.167969 90.425781 656.417969 90.425781 C 672.667969 90.425781 672.667969 108.621094 672.667969 108.621094 Z M 640.167969 108.621094 " fill-opacity="1" fill-rule="nonzero"/><path fill="#418aff" d="M 850.289062 61.859375 L 799.664062 61.859375 C 795.117188 61.859375 791.4375 65.539062 791.4375 70.089844 L 791.4375 114.84375 C 791.4375 119.390625 795.117188 123.070312 799.664062 123.070312 L 850.289062 123.070312 C 854.835938 123.070312 858.511719 119.390625 858.511719 114.84375 L 858.511719 70.089844 C 858.511719 65.539062 854.835938 61.859375 850.289062 61.859375 Z M 824.941406 69.621094 C 831.226562 69.621094 836.378906 74.703125 836.378906 81.058594 C 836.378906 87.414062 831.292969 92.5 824.941406 92.5 C 818.65625 92.5 813.507812 87.414062 813.507812 81.058594 C 813.574219 74.769531 818.65625 69.621094 824.941406 69.621094 Z M 806.351562 115.3125 C 806.351562 115.3125 806.351562 94.503906 824.941406 94.503906 C 843.53125 94.503906 843.53125 115.3125 843.53125 115.3125 C 843.53125 115.3125 806.351562 115.3125 806.351562 115.3125 Z M 723.425781 94.707031 C 723.160156 94.4375 722.957031 93.902344 723.160156 93.167969 C 724.363281 89.621094 728.644531 86.476562 734.328125 86.546875 C 731.519531 84.941406 731.652344 84.335938 731.71875 84.070312 C 731.785156 83.800781 731.988281 83.402344 732.789062 83.335938 L 732.921875 83.335938 C 747.433594 82.0625 758.46875 84.136719 765.757812 89.355469 C 771.644531 93.570312 778.464844 105.675781 776.324219 115.777344 C 774.519531 124.273438 768.433594 133.039062 763.082031 134.910156 C 763.015625 134.910156 762.949219 134.910156 762.882812 134.910156 C 762.816406 134.910156 762.75 134.910156 762.613281 134.84375 L 754.253906 130.898438 C 754.121094 130.832031 753.988281 130.695312 753.988281 130.5625 L 753.921875 130.429688 C 753.855469 130.296875 753.921875 130.09375 753.988281 129.960938 C 754.054688 129.828125 754.1875 129.761719 754.390625 129.695312 C 754.457031 129.695312 754.457031 129.695312 754.523438 129.695312 L 754.589844 129.695312 C 756.597656 129.292969 758.535156 127.753906 759.472656 125.8125 C 760.40625 123.875 760.339844 121.664062 759.269531 119.660156 C 758.804688 118.722656 758.132812 118.1875 757.265625 117.917969 C 755.527344 117.382812 753.253906 118.320312 751.648438 119.191406 C 751.515625 119.257812 751.3125 119.257812 751.113281 119.191406 C 750.980469 119.125 750.84375 118.988281 750.777344 118.789062 C 750.375 116.582031 750.175781 115.042969 750.242188 113.972656 C 748.703125 112.703125 740.878906 106.011719 740.8125 97.984375 C 739.140625 98.050781 735.730469 97.984375 735.0625 96.511719 C 734.863281 96.042969 734.929688 95.644531 735.128906 95.242188 C 731.851562 95.777344 724.964844 96.511719 723.425781 94.707031 Z M 839.519531 226.960938 C 837.378906 215.386719 834.238281 200.269531 828.6875 186.421875 C 820.796875 166.820312 811.835938 156.117188 801.203125 153.777344 C 796.320312 152.707031 788.695312 151.703125 778.53125 150.832031 L 770.238281 143.609375 C 770.238281 143.609375 770.171875 143.542969 770.171875 143.542969 C 769.902344 143.40625 763.214844 139.726562 743.6875 145.816406 C 743.621094 145.816406 743.488281 145.882812 743.421875 145.949219 L 737.804688 152.972656 C 727.574219 154.847656 720.082031 156.320312 715.402344 157.390625 C 702.695312 160.332031 695.941406 163.007812 689.253906 174.847656 C 684.105469 183.945312 679.222656 194.046875 677.550781 197.660156 L 672.535156 170.566406 L 670.664062 160.53125 C 670.664062 160.398438 670.527344 160.265625 670.460938 160.199219 C 670.328125 160.132812 670.195312 160.132812 670.0625 160.132812 L 643.242188 166.417969 C 642.976562 166.488281 642.84375 166.6875 642.84375 166.957031 C 642.84375 167.089844 643.3125 170.835938 644.113281 176.789062 C 646.386719 192.976562 651.066406 225.355469 655.882812 245.960938 C 658.15625 255.660156 666.316406 263.019531 676.214844 264.222656 C 684.839844 265.292969 693.265625 261.144531 697.679688 253.652344 L 711.390625 230.441406 L 712.191406 303.960938 C 712.191406 304.226562 712.390625 304.429688 712.660156 304.429688 L 817.316406 305.632812 C 817.453125 305.632812 817.585938 305.566406 817.71875 305.5 C 817.785156 305.363281 817.851562 305.230469 817.851562 305.097656 C 816.046875 284.960938 815.378906 277.804688 815.179688 275.328125 C 817.71875 276.664062 823.804688 276.800781 823.871094 276.734375 C 831.695312 276.265625 837.046875 269.910156 839.519531 266.164062 C 845.472656 257.199219 842.53125 242.347656 840.390625 231.511719 C 840.054688 229.839844 839.789062 228.367188 839.519531 226.960938 Z M 744.15625 146.683594 C 762.347656 141.066406 769.101562 144.078125 769.703125 144.34375 L 777.261719 150.964844 C 766.027344 152.773438 744.15625 152.90625 739.207031 152.90625 Z M 669.792969 161.269531 L 671.464844 170.300781 L 645.117188 176.121094 C 644.515625 171.570312 644.113281 168.425781 643.980469 167.289062 Z M 838.71875 265.5625 C 836.308594 269.171875 831.226562 275.195312 823.871094 275.664062 C 822.066406 275.796875 815.179688 274.992188 815.109375 273.855469 C 815.042969 273.253906 811.164062 223.75 807.820312 202.144531 C 807.753906 201.875 807.554688 201.675781 807.21875 201.742188 C 806.953125 201.808594 806.75 202.007812 806.820312 202.34375 C 810.164062 223.882812 814.042969 273.453125 814.042969 273.988281 C 814.042969 274.125 816.449219 300.414062 816.78125 304.628906 L 713.261719 303.359375 L 712.390625 228.632812 L 721.957031 208.429688 C 722.089844 208.164062 721.957031 207.894531 721.6875 207.761719 C 721.421875 207.628906 721.152344 207.761719 721.019531 208.03125 L 711.390625 228.300781 L 696.808594 253.050781 C 692.597656 260.210938 684.574219 264.15625 676.28125 263.152344 C 666.785156 261.949219 659.027344 254.925781 656.820312 245.625 C 652.070312 225.222656 647.390625 193.3125 645.183594 177.054688 L 671.597656 171.238281 L 676.816406 199.332031 C 676.882812 199.535156 677.015625 199.734375 677.214844 199.734375 C 677.417969 199.734375 677.617188 199.667969 677.75 199.46875 C 677.816406 199.332031 683.769531 186.554688 690.121094 175.316406 C 696.675781 163.742188 702.894531 161.269531 715.601562 158.324219 C 720.214844 157.253906 727.839844 155.785156 738.070312 153.910156 C 738.140625 153.910156 738.207031 153.910156 738.339844 153.910156 C 741.550781 153.910156 766.628906 153.84375 778.261719 151.769531 C 788.429688 152.640625 796.050781 153.644531 800.867188 154.714844 C 811.097656 156.988281 819.859375 167.492188 827.617188 186.757812 C 833.167969 200.539062 836.308594 215.589844 838.382812 227.09375 C 838.652344 228.5 838.917969 230.039062 839.253906 231.578125 C 841.527344 242.28125 844.46875 256.929688 838.71875 265.5625 Z M 648.660156 173.175781 C 650.066406 173.175781 651.136719 172.039062 651.136719 170.703125 C 651.136719 169.363281 650 168.226562 648.660156 168.226562 C 647.324219 168.226562 646.1875 169.363281 646.1875 170.703125 C 646.1875 172.039062 647.324219 173.175781 648.660156 173.175781 Z M 648.660156 169.164062 C 649.464844 169.164062 650.132812 169.832031 650.132812 170.632812 C 650.132812 171.4375 649.464844 172.105469 648.660156 172.105469 C 647.859375 172.105469 647.191406 171.4375 647.191406 170.632812 C 647.191406 169.832031 647.859375 169.164062 648.660156 169.164062 Z M 648.660156 169.164062 " fill-opacity="1" fill-rule="nonzero"/><path fill="#ffb15f" d="M 734.527344 95.375 C 734.726562 95.375 734.996094 95.308594 735.195312 95.308594 C 734.929688 95.308594 734.726562 95.308594 734.527344 95.375 Z M 760.007812 122.601562 C 760.007812 122.132812 759.871094 121.664062 759.738281 121.128906 C 759.871094 121.664062 759.941406 122.132812 760.007812 122.601562 Z M 733.792969 95.441406 C 733.925781 95.441406 733.992188 95.441406 734.125 95.375 C 733.992188 95.441406 733.925781 95.441406 733.792969 95.441406 Z M 773.917969 62.394531 L 723.292969 62.394531 C 719.011719 62.394531 715.535156 65.875 715.535156 70.15625 L 715.535156 114.910156 C 715.535156 118.453125 717.875 121.398438 721.085938 122.335938 C 721.019531 120.59375 721.152344 118.789062 721.351562 117.050781 L 719.078125 114.105469 C 718.410156 113.238281 718.679688 111.964844 719.613281 111.429688 L 723.160156 109.421875 C 724.496094 103.9375 727.039062 98.855469 728.710938 95.84375 C 726.367188 95.84375 724.230469 95.644531 723.492188 94.707031 C 723.226562 94.4375 723.023438 93.902344 723.226562 93.167969 C 724.429688 89.621094 728.710938 86.476562 734.394531 86.546875 C 731.585938 84.941406 731.71875 84.335938 731.785156 84.070312 C 731.851562 83.800781 732.054688 83.402344 732.855469 83.335938 L 732.988281 83.335938 C 734.863281 83.199219 736.601562 83.066406 738.339844 83 C 738.605469 76.910156 743.621094 72.09375 749.707031 72.09375 C 755.996094 72.09375 761.144531 77.179688 761.144531 83.535156 C 761.144531 84.605469 761.011719 85.609375 760.742188 86.546875 C 762.613281 87.347656 764.285156 88.285156 765.824219 89.421875 C 771.710938 93.636719 778.53125 105.746094 776.390625 115.847656 C 775.921875 118.121094 775.121094 120.460938 774.117188 122.601562 C 778.398438 122.601562 781.808594 119.125 781.808594 114.84375 L 781.808594 70.089844 C 781.675781 65.808594 778.195312 62.394531 773.917969 62.394531 Z M 759.472656 120.460938 C 759.539062 120.664062 759.605469 120.863281 759.671875 121.0625 C 759.605469 120.796875 759.539062 120.59375 759.472656 120.460938 Z M 716.070312 303.894531 L 715.667969 322.824219 L 812.234375 323.828125 L 813.039062 305.097656 Z M 605.125 38.246094 L 602.050781 44.46875 C 601.648438 45.269531 600.84375 45.871094 599.976562 46.003906 L 593.089844 46.941406 C 590.816406 47.277344 589.878906 50.085938 591.550781 51.691406 L 596.5 56.507812 C 597.167969 57.175781 597.433594 58.046875 597.300781 58.984375 L 596.164062 65.875 C 595.761719 68.148438 598.171875 69.886719 600.242188 68.816406 L 606.394531 65.605469 C 607.199219 65.203125 608.203125 65.203125 609.003906 65.605469 L 615.15625 68.816406 C 617.230469 69.886719 619.570312 68.148438 619.234375 65.875 L 618.03125 59.050781 C 617.898438 58.113281 618.167969 57.246094 618.835938 56.574219 L 623.785156 51.757812 C 625.457031 50.152344 624.519531 47.34375 622.246094 47.007812 L 615.359375 46.003906 C 614.421875 45.871094 613.6875 45.269531 613.285156 44.46875 L 610.207031 38.246094 C 609.136719 36.171875 606.195312 36.171875 605.125 38.246094 Z M 605.125 38.246094 " fill-opacity="1" fill-rule="nonzero"/><g clip-path="url(#47f87ceed4)"><path fill="#343434" d="M 668.320312 142.269531 C 669.527344 150.5 667.386719 157.589844 665.980469 161.066406 L 664.777344 161.335938 C 666.046875 158.257812 668.589844 150.964844 667.320312 142.402344 C 666.648438 137.921875 665.113281 134.976562 662.703125 133.839844 C 662.570312 133.773438 662.4375 133.640625 662.4375 133.441406 L 659.828125 115.847656 C 659.5625 114.039062 658.15625 112.566406 656.550781 112.566406 C 655.949219 112.566406 655.480469 112.703125 655.082031 113.101562 C 654.34375 113.90625 654.078125 115.578125 654.277344 117.71875 L 655.949219 132.703125 C 655.949219 132.972656 655.816406 133.171875 655.550781 133.238281 C 655.28125 133.304688 655.082031 133.171875 654.945312 132.972656 C 654.480469 131.835938 653.273438 131.097656 652.003906 131.164062 C 651.203125 131.230469 650.398438 131.566406 649.863281 132.167969 C 649.398438 132.703125 649.195312 133.441406 649.261719 134.175781 L 649.53125 136.25 C 649.53125 136.515625 649.398438 136.71875 649.128906 136.785156 C 648.863281 136.851562 648.660156 136.71875 648.527344 136.449219 C 648.191406 135.445312 647.257812 134.84375 646.1875 134.84375 C 645.519531 134.84375 644.847656 135.113281 644.382812 135.648438 C 643.914062 136.183594 643.710938 136.851562 643.710938 137.519531 L 643.847656 139.527344 C 643.847656 139.726562 643.710938 139.996094 643.511719 140.0625 C 643.3125 140.128906 643.042969 140.0625 642.910156 139.863281 C 642.574219 139.394531 642.039062 139.058594 641.371094 138.925781 C 640.703125 138.859375 640.101562 138.992188 639.699219 139.394531 C 639.296875 139.726562 639.164062 140.195312 639.164062 140.664062 L 639.367188 148.492188 C 639.367188 148.625 639.433594 148.824219 639.5 149.027344 C 639.5 149.09375 639.5 149.09375 639.5 149.160156 C 639.832031 153.109375 642.710938 161.269531 644.515625 164.414062 C 644.648438 164.679688 644.914062 165.214844 645.183594 165.953125 L 644.179688 166.152344 C 643.980469 165.550781 643.777344 165.082031 643.644531 164.882812 C 641.773438 161.601562 638.898438 153.375 638.496094 149.292969 C 638.429688 149.027344 638.363281 148.757812 638.363281 148.492188 L 638.160156 140.664062 C 638.160156 139.863281 638.429688 139.191406 639.03125 138.65625 C 639.699219 138.054688 640.636719 137.789062 641.570312 137.921875 C 641.972656 137.988281 642.375 138.121094 642.777344 138.324219 L 642.710938 137.585938 C 642.640625 136.652344 642.976562 135.648438 643.644531 134.976562 C 644.3125 134.242188 645.25 133.839844 646.1875 133.839844 C 646.988281 133.839844 647.726562 134.109375 648.328125 134.511719 L 648.328125 134.242188 C 648.191406 133.238281 648.527344 132.234375 649.128906 131.5 C 649.796875 130.695312 650.867188 130.160156 651.9375 130.160156 C 652.941406 130.09375 653.945312 130.429688 654.679688 131.03125 L 653.34375 117.785156 C 653.140625 116.046875 653.207031 113.707031 654.410156 112.433594 C 654.945312 111.832031 655.683594 111.566406 656.617188 111.566406 C 658.691406 111.632812 660.496094 113.4375 660.832031 115.710938 L 663.375 133.039062 C 665.980469 134.441406 667.652344 137.519531 668.320312 142.269531 Z M 763.015625 134.910156 C 762.949219 134.910156 762.882812 134.910156 762.816406 134.910156 C 762.75 134.910156 762.683594 134.910156 762.546875 134.84375 L 762.414062 134.777344 L 765.625 142.269531 C 766.027344 142.335938 766.425781 142.335938 766.761719 142.402344 L 763.484375 134.644531 C 763.351562 134.777344 763.148438 134.84375 763.015625 134.910156 Z M 743.289062 139.328125 L 745.359375 145.214844 C 745.027344 145.28125 744.691406 145.414062 744.425781 145.480469 L 742.484375 140.0625 C 737.070312 141.402344 731.988281 140.796875 727.371094 138.324219 C 725.367188 137.253906 723.828125 135.378906 722.757812 133.039062 L 701.222656 133.039062 C 701.292969 132.703125 701.359375 132.371094 701.425781 132.035156 L 722.355469 132.035156 C 720.617188 127.6875 720.214844 122.066406 720.816406 117.117188 L 718.679688 114.308594 C 718.277344 113.773438 718.144531 113.101562 718.277344 112.433594 C 718.410156 111.765625 718.8125 111.230469 719.414062 110.894531 L 722.757812 109.023438 C 724.09375 103.738281 726.503906 98.789062 728.175781 95.777344 C 728.574219 95.777344 728.910156 95.777344 729.3125 95.777344 C 728.039062 98.050781 726.167969 101.664062 724.765625 105.746094 C 724.898438 105.746094 725.03125 105.746094 725.097656 105.746094 L 727.773438 107.015625 C 729.042969 105.746094 730.78125 104.941406 732.65625 104.941406 C 736.46875 104.941406 739.542969 108.019531 739.542969 111.832031 C 739.542969 115.644531 736.46875 118.722656 732.65625 118.722656 C 728.84375 118.722656 725.765625 115.644531 725.765625 111.832031 C 725.765625 110.292969 726.234375 108.886719 727.105469 107.75 L 724.628906 106.546875 C 724.5625 106.480469 724.496094 106.480469 724.429688 106.414062 C 724.09375 107.351562 723.828125 108.351562 723.628906 109.355469 C 723.628906 109.492188 723.492188 109.625 723.359375 109.691406 L 719.816406 111.699219 C 719.480469 111.898438 719.28125 112.234375 719.144531 112.566406 C 719.011719 112.902344 719.144531 113.304688 719.414062 113.636719 L 721.6875 116.582031 C 721.753906 116.714844 721.820312 116.847656 721.753906 116.917969 C 721.488281 118.855469 721.421875 120.996094 721.554688 123.070312 C 721.621094 123.136719 721.6875 123.136719 721.753906 123.203125 C 721.753906 123.203125 723.761719 126.28125 727.171875 126.214844 C 727.4375 126.214844 727.707031 126.414062 727.707031 126.683594 C 727.707031 126.949219 727.503906 127.21875 727.238281 127.21875 C 727.171875 127.21875 727.039062 127.21875 726.972656 127.21875 C 724.429688 127.21875 722.691406 125.8125 721.753906 124.742188 C 722.289062 130.230469 724.160156 135.3125 727.90625 137.320312 C 732.453125 139.726562 737.46875 140.261719 742.753906 138.859375 C 742.820312 138.859375 742.820312 138.859375 742.886719 138.859375 C 743.085938 138.992188 743.222656 139.125 743.289062 139.328125 Z M 726.769531 112.03125 C 726.769531 115.3125 729.445312 117.917969 732.65625 117.917969 C 735.863281 117.917969 738.539062 115.242188 738.539062 112.03125 C 738.539062 108.820312 735.863281 106.144531 732.65625 106.144531 C 729.445312 106.144531 726.769531 108.753906 726.769531 112.03125 Z M 730.984375 112.96875 C 731.917969 113.304688 732.519531 112.234375 732.855469 111.429688 C 733.054688 110.828125 733.191406 110.160156 732.988281 109.558594 C 732.855469 108.957031 732.386719 108.421875 731.382812 109.023438 C 730.246094 109.757812 729.578125 112.433594 730.984375 112.96875 Z M 739.476562 106.210938 C 739.542969 106.347656 739.742188 106.414062 739.878906 106.414062 C 739.945312 106.414062 740.078125 106.414062 740.144531 106.347656 C 740.34375 106.210938 740.414062 105.878906 740.277344 105.675781 C 740.144531 105.542969 737.738281 101.863281 732.589844 102 C 732.320312 102 732.121094 102.265625 732.121094 102.535156 C 732.121094 102.800781 732.386719 103 732.65625 103 C 737.203125 102.867188 739.410156 106.078125 739.476562 106.210938 Z M 868.8125 59.71875 L 868.8125 125.210938 C 868.8125 129.492188 865.332031 133.039062 860.988281 133.039062 L 766.226562 133.039062 C 766.628906 132.703125 767.027344 132.371094 767.363281 132.035156 L 860.988281 132.035156 C 864.730469 132.035156 867.808594 128.957031 867.808594 125.210938 L 867.808594 59.71875 C 867.808594 55.972656 864.730469 52.894531 860.988281 52.894531 L 623.25 52.894531 L 619.101562 56.910156 C 618.566406 57.445312 618.300781 58.179688 618.433594 58.917969 L 619.636719 65.808594 C 619.839844 67.078125 619.371094 68.28125 618.300781 69.019531 C 617.296875 69.753906 615.960938 69.886719 614.824219 69.285156 L 608.671875 66.074219 C 608 65.738281 607.199219 65.738281 606.53125 66.074219 L 603.722656 67.546875 L 603.722656 125.277344 C 603.722656 129.023438 606.796875 132.101562 610.542969 132.101562 L 612.28125 132.101562 C 612.347656 132.4375 612.414062 132.769531 612.480469 133.105469 L 610.542969 133.105469 C 606.261719 133.105469 602.71875 129.625 602.71875 125.277344 L 602.71875 68.015625 L 600.378906 69.21875 C 599.976562 69.554688 599.441406 69.621094 598.90625 69.621094 C 598.238281 69.621094 597.570312 69.417969 596.96875 69.019531 C 595.964844 68.28125 595.429688 67.011719 595.628906 65.808594 L 596.832031 58.984375 C 596.96875 58.246094 596.699219 57.511719 596.164062 56.976562 L 591.214844 52.160156 C 590.28125 51.289062 590.011719 50.019531 590.414062 48.816406 C 590.816406 47.609375 591.816406 46.742188 593.089844 46.539062 L 599.976562 45.539062 C 600.710938 45.402344 601.378906 44.933594 601.714844 44.265625 L 604.792969 38.042969 C 605.257812 36.90625 606.394531 36.171875 607.667969 36.171875 C 608.9375 36.171875 610.074219 36.90625 610.609375 37.976562 L 613.6875 44.199219 C 614.019531 44.867188 614.6875 45.335938 615.425781 45.46875 L 622.3125 46.472656 C 623.582031 46.675781 624.585938 47.542969 624.988281 48.75 C 625.320312 49.886719 625.121094 51.089844 624.320312 51.960938 L 861.054688 51.960938 C 865.332031 51.890625 868.8125 55.4375 868.8125 59.71875 Z M 623.382812 51.355469 C 624.050781 50.753906 624.25 49.886719 623.984375 49.015625 C 623.648438 48.214844 622.980469 47.609375 622.113281 47.476562 L 615.222656 46.472656 C 614.152344 46.339844 613.21875 45.671875 612.75 44.667969 L 609.671875 38.445312 C 609.273438 37.644531 608.535156 37.175781 607.601562 37.175781 C 606.664062 37.175781 605.996094 37.644531 605.59375 38.445312 L 602.515625 44.667969 C 602.050781 45.671875 601.113281 46.339844 600.042969 46.472656 L 593.15625 47.476562 C 592.285156 47.609375 591.550781 48.214844 591.28125 49.015625 C 591.015625 49.820312 591.214844 50.753906 591.882812 51.355469 L 596.898438 56.242188 C 597.703125 56.976562 598.035156 58.113281 597.835938 59.183594 L 596.632812 65.941406 C 596.5 66.808594 596.832031 67.679688 597.570312 68.148438 C 598.304688 68.683594 599.171875 68.75 599.976562 68.347656 L 606.128906 65.136719 C 606.597656 64.871094 607.132812 64.738281 607.667969 64.738281 C 608.203125 64.738281 608.738281 64.871094 609.203125 65.136719 L 615.355469 68.347656 C 616.160156 68.75 617.027344 68.683594 617.765625 68.148438 C 618.5 67.613281 618.835938 66.808594 618.699219 65.941406 L 617.496094 59.117188 C 617.296875 58.046875 617.699219 56.976562 618.433594 56.175781 Z M 623.382812 51.355469 " fill-opacity="1" fill-rule="nonzero"/></g><g fill="#000000" fill-opacity="1"><g transform="translate(84.3047, 192.149987)"><g><path d="M 1.347656 0 L 3.507812 0 L 6.691406 -8.933594 L 19.828125 -8.933594 L 23.050781 0 L 25.335938 0 L 14.851562 -29.167969 L 11.832031 -29.167969 Z M 13.257812 -27.292969 L 19.175781 -10.769531 L 7.34375 -10.769531 Z M 13.257812 -27.292969 "/></g></g></g><g fill="#000000" fill-opacity="1"><g transform="translate(110.984847, 192.149987)"><g><path d="M 9.382812 0.285156 C 10.6875 0.285156 11.503906 0.0820312 12.199219 -0.164062 L 12.199219 -2 C 11.464844 -1.753906 10.605469 -1.550781 9.503906 -1.550781 C 7.546875 -1.550781 6.324219 -2.734375 6.324219 -5.304688 L 6.324219 -19.5 L 11.914062 -19.5 L 11.914062 -21.335938 L 6.324219 -21.335938 L 6.324219 -26.191406 L 4.160156 -26.191406 L 4.160156 -21.335938 L 1.019531 -21.335938 L 1.019531 -19.5 L 4.160156 -19.5 L 4.160156 -5.140625 C 4.160156 -1.714844 5.996094 0.285156 9.382812 0.285156 Z M 9.382812 0.285156 "/></g></g></g><g fill="#000000" fill-opacity="1"><g transform="translate(124.773663, 192.149987)"><g><path d="M 9.382812 0.285156 C 10.6875 0.285156 11.503906 0.0820312 12.199219 -0.164062 L 12.199219 -2 C 11.464844 -1.753906 10.605469 -1.550781 9.503906 -1.550781 C 7.546875 -1.550781 6.324219 -2.734375 6.324219 -5.304688 L 6.324219 -19.5 L 11.914062 -19.5 L 11.914062 -21.335938 L 6.324219 -21.335938 L 6.324219 -26.191406 L 4.160156 -26.191406 L 4.160156 -21.335938 L 1.019531 -21.335938 L 1.019531 -19.5 L 4.160156 -19.5 L 4.160156 -5.140625 C 4.160156 -1.714844 5.996094 0.285156 9.382812 0.285156 Z M 9.382812 0.285156 "/></g></g></g><g fill="#000000" fill-opacity="1"><g transform="translate(138.56248, 192.149987)"><g><path d="M 11.871094 0.328125 C 16.441406 0.328125 19.828125 -1.875 20.726562 -5.957031 L 18.5625 -5.957031 C 17.828125 -2.976562 15.421875 -1.507812 11.871094 -1.507812 C 6.8125 -1.507812 4.078125 -4.773438 4 -10.484375 L 20.886719 -10.484375 L 20.886719 -11.261719 C 20.886719 -18.316406 16.6875 -21.664062 11.546875 -21.664062 C 5.832031 -21.664062 1.753906 -17.214844 1.753906 -10.769531 L 1.753906 -10.445312 C 1.753906 -4.039062 5.710938 0.328125 11.871094 0.328125 Z M 4.078125 -12.238281 C 4.488281 -16.890625 7.425781 -19.828125 11.546875 -19.828125 C 15.707031 -19.828125 18.441406 -17.421875 18.644531 -12.238281 Z M 4.078125 -12.238281 "/></g></g></g><g fill="#000000" fill-opacity="1"><g transform="translate(161.163086, 192.149987)"><g><path d="M 3.34375 0 L 5.507812 0 L 5.507812 -12.933594 C 5.507812 -17.421875 9.015625 -19.785156 12.566406 -19.785156 C 16.359375 -19.785156 18.480469 -17.789062 18.480469 -13.257812 L 18.480469 0 L 20.644531 0 L 20.644531 -13.136719 C 20.644531 -19.214844 17.582031 -21.664062 13.054688 -21.664062 C 9.261719 -21.664062 6.488281 -19.5 5.507812 -17.175781 L 5.507812 -21.335938 L 3.34375 -21.335938 Z M 3.34375 0 "/></g></g></g><g fill="#000000" fill-opacity="1"><g transform="translate(184.946756, 192.149987)"><g><path d="M 11.339844 0.328125 C 15.339844 0.328125 18.316406 -2.367188 19.460938 -4.9375 L 19.460938 0 L 21.621094 0 L 21.621094 -31.535156 L 19.460938 -31.535156 L 19.460938 -16.605469 C 18.234375 -19.257812 15.871094 -21.664062 11.667969 -21.664062 C 6.039062 -21.664062 1.753906 -17.257812 1.753906 -10.6875 L 1.753906 -10.363281 C 1.753906 -3.589844 5.914062 0.328125 11.339844 0.328125 Z M 11.546875 -1.507812 C 7.300781 -1.507812 4 -4.609375 4 -10.445312 L 4 -10.769531 C 4 -16.523438 7.300781 -19.828125 11.871094 -19.828125 C 16.320312 -19.828125 19.5 -16.726562 19.5 -10.851562 L 19.5 -10.527344 C 19.5 -4.652344 15.871094 -1.507812 11.546875 -1.507812 Z M 11.546875 -1.507812 "/></g></g></g><g fill="#000000" fill-opacity="1"><g transform="translate(209.913501, 192.149987)"><g><path d="M 11.871094 0.328125 C 16.441406 0.328125 19.828125 -1.875 20.726562 -5.957031 L 18.5625 -5.957031 C 17.828125 -2.976562 15.421875 -1.507812 11.871094 -1.507812 C 6.8125 -1.507812 4.078125 -4.773438 4 -10.484375 L 20.886719 -10.484375 L 20.886719 -11.261719 C 20.886719 -18.316406 16.6875 -21.664062 11.546875 -21.664062 C 5.832031 -21.664062 1.753906 -17.214844 1.753906 -10.769531 L 1.753906 -10.445312 C 1.753906 -4.039062 5.710938 0.328125 11.871094 0.328125 Z M 4.078125 -12.238281 C 4.488281 -16.890625 7.425781 -19.828125 11.546875 -19.828125 C 15.707031 -19.828125 18.441406 -17.421875 18.644531 -12.238281 Z M 4.078125 -12.238281 "/></g></g></g><g fill="#000000" fill-opacity="1"><g transform="translate(232.514108, 192.149987)"><g><path d="M 11.871094 0.328125 C 16.441406 0.328125 19.828125 -1.875 20.726562 -5.957031 L 18.5625 -5.957031 C 17.828125 -2.976562 15.421875 -1.507812 11.871094 -1.507812 C 6.8125 -1.507812 4.078125 -4.773438 4 -10.484375 L 20.886719 -10.484375 L 20.886719 -11.261719 C 20.886719 -18.316406 16.6875 -21.664062 11.546875 -21.664062 C 5.832031 -21.664062 1.753906 -17.214844 1.753906 -10.769531 L 1.753906 -10.445312 C 1.753906 -4.039062 5.710938 0.328125 11.871094 0.328125 Z M 4.078125 -12.238281 C 4.488281 -16.890625 7.425781 -19.828125 11.546875 -19.828125 C 15.707031 -19.828125 18.441406 -17.421875 18.644531 -12.238281 Z M 4.078125 -12.238281 "/></g></g></g><g fill="#000000" fill-opacity="1"><g transform="translate(255.114715, 192.149987)"><g/></g></g><g fill="#000000" fill-opacity="1"><g transform="translate(265.191155, 192.149987)"><g><path d="M 3.753906 0 L 6.039062 0 L 6.039062 -13.667969 L 23.214844 -13.667969 L 23.214844 0 L 25.5 0 L 25.5 -29.167969 L 23.214844 -29.167969 L 23.214844 -15.585938 L 6.039062 -15.585938 L 6.039062 -29.167969 L 3.753906 -29.167969 Z M 3.753906 0 "/></g></g></g><g fill="#000000" fill-opacity="1"><g transform="translate(294.441402, 192.149987)"><g><path d="M 12.074219 -1.507812 C 7.425781 -1.507812 4 -5.019531 4 -10.484375 L 4 -10.8125 C 4 -16.359375 7.507812 -19.828125 12.074219 -19.828125 C 16.605469 -19.828125 20.113281 -16.441406 20.113281 -10.8125 L 20.113281 -10.484375 C 20.113281 -4.976562 16.644531 -1.507812 12.074219 -1.507812 Z M 12.035156 0.328125 C 17.789062 0.328125 22.355469 -4.078125 22.355469 -10.527344 L 22.355469 -10.851562 C 22.355469 -17.339844 17.828125 -21.664062 12.074219 -21.664062 C 6.363281 -21.664062 1.753906 -17.214844 1.753906 -10.8125 L 1.753906 -10.484375 C 1.753906 -4.203125 6.242188 0.328125 12.035156 0.328125 Z M 12.035156 0.328125 "/></g></g></g><g fill="#000000" fill-opacity="1"><g transform="translate(318.551447, 192.149987)"><g><path d="M 7.832031 0 L 10.28125 0 L 15.953125 -17.867188 L 21.253906 0 L 23.742188 0 L 30.476562 -21.335938 L 28.273438 -21.335938 L 22.519531 -2.652344 L 16.890625 -21.335938 L 15.054688 -21.335938 L 9.21875 -2.652344 L 3.507812 -21.335938 L 1.183594 -21.335938 Z M 7.832031 0 "/></g></g></g><g fill="#000000" fill-opacity="1"><g transform="translate(350.208606, 192.149987)"><g><path d="M 2.53125 -10.28125 L 11.054688 -10.28125 L 11.054688 -12.320312 L 2.53125 -12.320312 Z M 2.53125 -10.28125 "/></g></g></g><g fill="#000000" fill-opacity="1"><g transform="translate(363.793448, 192.149987)"><g><path d="M 9.382812 0.285156 C 10.6875 0.285156 11.503906 0.0820312 12.199219 -0.164062 L 12.199219 -2 C 11.464844 -1.753906 10.605469 -1.550781 9.503906 -1.550781 C 7.546875 -1.550781 6.324219 -2.734375 6.324219 -5.304688 L 6.324219 -19.5 L 11.914062 -19.5 L 11.914062 -21.335938 L 6.324219 -21.335938 L 6.324219 -26.191406 L 4.160156 -26.191406 L 4.160156 -21.335938 L 1.019531 -21.335938 L 1.019531 -19.5 L 4.160156 -19.5 L 4.160156 -5.140625 C 4.160156 -1.714844 5.996094 0.285156 9.382812 0.285156 Z M 9.382812 0.285156 "/></g></g></g><g fill="#000000" fill-opacity="1"><g transform="translate(377.582251, 192.149987)"><g><path d="M 12.074219 -1.507812 C 7.425781 -1.507812 4 -5.019531 4 -10.484375 L 4 -10.8125 C 4 -16.359375 7.507812 -19.828125 12.074219 -19.828125 C 16.605469 -19.828125 20.113281 -16.441406 20.113281 -10.8125 L 20.113281 -10.484375 C 20.113281 -4.976562 16.644531 -1.507812 12.074219 -1.507812 Z M 12.035156 0.328125 C 17.789062 0.328125 22.355469 -4.078125 22.355469 -10.527344 L 22.355469 -10.851562 C 22.355469 -17.339844 17.828125 -21.664062 12.074219 -21.664062 C 6.363281 -21.664062 1.753906 -17.214844 1.753906 -10.8125 L 1.753906 -10.484375 C 1.753906 -4.203125 6.242188 0.328125 12.035156 0.328125 Z M 12.035156 0.328125 "/></g></g></g><g clip-path="url(#c2bbcc0dd8)"><path fill="#ffffff" d="M 861.054688 51.890625 L 624.25 51.890625 C 625.054688 51.023438 625.253906 49.820312 624.921875 48.679688 C 624.519531 47.476562 623.515625 46.609375 622.246094 46.40625 L 615.359375 45.402344 C 614.621094 45.269531 613.953125 44.800781 613.617188 44.132812 L 610.542969 37.910156 C 610.007812 36.90625 608.871094 36.171875 607.667969 36.171875 C 606.464844 36.171875 605.257812 36.90625 604.722656 37.976562 L 601.648438 44.199219 C 601.3125 44.867188 600.644531 45.335938 599.910156 45.46875 L 593.019531 46.472656 C 591.75 46.675781 590.746094 47.542969 590.347656 48.75 C 589.945312 49.953125 590.28125 51.222656 591.148438 52.09375 L 596.164062 56.910156 C 596.699219 57.445312 596.96875 58.179688 596.832031 58.917969 L 595.628906 65.808594 C 595.429688 67.078125 595.898438 68.28125 596.96875 69.019531 C 597.570312 69.417969 598.238281 69.621094 598.90625 69.621094 C 599.441406 69.621094 599.976562 69.488281 600.445312 69.21875 L 602.785156 68.015625 L 602.785156 125.210938 C 602.785156 129.492188 606.261719 133.039062 610.609375 133.039062 L 612.546875 133.039062 C 613.820312 137.722656 618.097656 141.265625 623.183594 141.265625 L 638.429688 141.265625 L 638.628906 148.492188 C 638.628906 148.757812 638.695312 149.027344 638.761719 149.292969 C 639.164062 153.375 642.039062 161.671875 643.914062 164.882812 C 644.046875 165.082031 644.246094 165.550781 644.449219 166.152344 L 643.242188 166.421875 C 642.976562 166.488281 642.84375 166.6875 642.84375 166.957031 C 642.84375 167.089844 643.3125 170.835938 644.113281 176.789062 C 646.386719 192.976562 651.066406 225.355469 655.882812 245.960938 C 658.15625 255.660156 666.316406 263.019531 676.214844 264.222656 C 684.839844 265.292969 693.265625 261.144531 697.679688 253.652344 L 711.390625 230.441406 L 712.191406 303.960938 C 712.191406 304.226562 712.390625 304.429688 712.660156 304.429688 L 716.003906 304.496094 L 715.601562 322.890625 L 812.234375 323.828125 L 813.039062 305.566406 L 817.386719 305.632812 C 817.519531 305.632812 817.652344 305.566406 817.785156 305.5 C 817.851562 305.363281 817.921875 305.230469 817.921875 305.097656 C 816.113281 284.960938 815.445312 277.804688 815.246094 275.328125 C 817.785156 276.664062 823.871094 276.800781 823.9375 276.734375 C 831.761719 276.265625 837.113281 269.910156 839.585938 266.164062 C 845.539062 257.199219 842.597656 242.347656 840.457031 231.511719 C 840.121094 229.90625 839.855469 228.433594 839.585938 227.027344 C 837.449219 215.457031 834.304688 200.335938 828.753906 186.488281 C 820.863281 166.886719 811.902344 156.183594 801.269531 153.84375 C 796.386719 152.773438 788.761719 151.769531 778.597656 150.898438 L 770.304688 143.675781 C 770.304688 143.675781 770.238281 143.609375 770.238281 143.609375 C 770.105469 143.542969 769.101562 143.007812 766.828125 142.671875 L 763.550781 134.910156 C 763.550781 134.910156 763.484375 134.910156 763.484375 134.910156 C 764.421875 134.511719 765.355469 133.976562 766.292969 133.238281 L 861.054688 133.238281 C 865.332031 133.238281 868.878906 129.761719 868.878906 125.414062 L 868.878906 59.71875 C 868.8125 55.4375 865.332031 51.890625 861.054688 51.890625 Z M 743.6875 145.75 C 743.621094 145.75 743.488281 145.816406 743.421875 145.882812 L 737.804688 152.90625 C 727.574219 154.78125 720.082031 156.25 715.402344 157.320312 C 702.695312 160.265625 695.941406 162.941406 689.253906 174.78125 C 684.105469 183.878906 679.222656 193.980469 677.550781 197.59375 L 672.535156 170.5 L 670.664062 160.464844 C 670.664062 160.332031 670.527344 160.199219 670.460938 160.132812 C 670.328125 160.066406 670.195312 160.066406 670.0625 160.066406 L 665.980469 161 C 667.386719 157.523438 669.527344 150.429688 668.320312 142.203125 C 668.253906 141.867188 668.1875 141.535156 668.121094 141.199219 L 690.523438 141.199219 C 695.605469 141.199219 699.953125 137.722656 701.15625 132.972656 L 722.757812 132.972656 C 723.828125 135.3125 725.367188 137.1875 727.371094 138.257812 C 731.988281 140.730469 737.070312 141.332031 742.484375 139.996094 L 744.425781 145.414062 C 744.222656 145.613281 743.957031 145.683594 743.6875 145.75 Z M 743.6875 145.75 " fill-opacity="1" fill-rule="nonzero"/><path fill="#ffffff" d="M 612.148438 70.691406 L 612.148438 130.230469 C 612.148438 131.03125 612.214844 131.835938 612.414062 132.570312 L 610.609375 132.570312 C 606.597656 132.570312 603.320312 129.292969 603.320312 125.277344 L 603.320312 67.210938 L 606.394531 65.605469 C 607.199219 65.203125 608.203125 65.203125 609.003906 65.605469 L 612.683594 67.546875 C 612.28125 68.550781 612.148438 69.554688 612.148438 70.691406 Z M 868.34375 59.71875 L 868.34375 125.210938 C 868.34375 129.226562 865.066406 132.503906 861.054688 132.503906 L 757.53125 132.503906 L 762.613281 134.84375 C 762.683594 134.910156 762.75 134.910156 762.882812 134.910156 C 762.949219 134.910156 763.015625 134.910156 763.082031 134.910156 C 763.082031 134.910156 763.082031 134.910156 763.148438 134.910156 L 766.359375 142.402344 C 762.613281 141.9375 755.925781 142.136719 745.09375 145.347656 L 743.019531 139.460938 C 737.738281 140.867188 732.589844 140.464844 727.839844 137.855469 C 725.902344 136.785156 724.363281 134.910156 723.292969 132.503906 L 701.492188 132.503906 C 701.625 131.765625 701.757812 130.964844 701.757812 130.160156 L 701.757812 70.625 C 701.757812 64.535156 696.808594 59.585938 690.726562 59.585938 L 623.183594 59.585938 C 621.441406 59.585938 619.769531 59.988281 618.300781 60.722656 L 618.03125 58.984375 C 617.898438 58.046875 618.167969 57.175781 618.835938 56.507812 L 623.113281 52.359375 L 861.054688 52.359375 C 865.066406 52.425781 868.34375 55.707031 868.34375 59.71875 Z M 781.675781 70.089844 C 781.675781 65.808594 778.195312 62.328125 773.917969 62.328125 L 723.292969 62.328125 C 719.011719 62.328125 715.535156 65.808594 715.535156 70.089844 L 715.535156 114.84375 C 715.535156 118.386719 717.875 121.332031 721.085938 122.269531 C 721.019531 120.527344 721.152344 118.722656 721.351562 116.984375 L 719.078125 114.039062 C 718.410156 113.171875 718.679688 111.898438 719.613281 111.363281 L 723.160156 109.355469 C 724.496094 103.871094 727.039062 98.789062 728.710938 95.777344 C 731.050781 95.777344 733.523438 95.441406 735.195312 95.242188 C 734.996094 95.644531 734.929688 96.042969 735.128906 96.511719 C 735.730469 97.984375 739.140625 98.050781 740.878906 97.984375 C 740.949219 106.011719 748.773438 112.703125 750.308594 113.972656 C 750.242188 115.042969 750.375 116.648438 750.84375 118.789062 C 750.910156 118.988281 750.980469 119.125 751.179688 119.191406 C 751.3125 119.257812 751.515625 119.257812 751.714844 119.191406 C 753.320312 118.320312 755.59375 117.382812 757.332031 117.917969 C 758.199219 118.1875 758.804688 118.722656 759.339844 119.660156 C 759.804688 120.59375 760.140625 121.597656 760.140625 122.535156 L 774.050781 122.535156 C 778.332031 122.535156 781.808594 119.058594 781.808594 114.777344 Z M 858.511719 70.089844 C 858.511719 65.539062 854.835938 61.859375 850.289062 61.859375 L 799.664062 61.859375 C 795.117188 61.859375 791.4375 65.539062 791.4375 70.089844 L 791.4375 114.84375 C 791.4375 119.390625 795.117188 123.070312 799.664062 123.070312 L 850.289062 123.070312 C 854.835938 123.070312 858.511719 119.390625 858.511719 114.84375 Z M 666.382812 78.652344 C 666.382812 73.164062 661.902344 68.683594 656.417969 68.683594 C 650.933594 68.683594 646.453125 73.164062 646.453125 78.652344 C 646.453125 84.136719 650.933594 88.6875 656.417969 88.6875 C 661.902344 88.6875 666.382812 84.203125 666.382812 78.652344 Z M 640.167969 108.621094 L 672.667969 108.621094 C 672.667969 108.621094 672.667969 90.425781 656.417969 90.425781 C 640.167969 90.425781 640.167969 108.621094 640.167969 108.621094 Z M 749.640625 72.09375 C 743.355469 72.09375 738.207031 77.179688 738.207031 83.535156 C 738.207031 89.890625 743.289062 94.972656 749.640625 94.972656 C 755.996094 94.972656 761.078125 89.890625 761.078125 83.535156 C 761.011719 77.246094 755.925781 72.09375 749.640625 72.09375 Z M 824.941406 92.5 C 831.226562 92.5 836.378906 87.414062 836.378906 81.058594 C 836.378906 74.769531 831.292969 69.621094 824.941406 69.621094 C 818.65625 69.621094 813.507812 74.703125 813.507812 81.058594 C 813.574219 87.347656 818.65625 92.5 824.941406 92.5 Z M 824.941406 94.503906 C 806.351562 94.503906 806.351562 115.3125 806.351562 115.3125 L 843.601562 115.3125 C 843.601562 115.3125 843.601562 94.503906 824.941406 94.503906 Z M 828.21875 186.621094 C 822.265625 171.839844 813.773438 157.121094 801.066406 154.246094 C 795.382812 152.972656 786.488281 151.96875 778.332031 151.300781 L 769.902344 143.941406 C 769.902344 143.941406 763.351562 140.195312 743.824219 146.285156 L 738.070312 153.441406 C 729.847656 154.914062 721.019531 156.652344 715.535156 157.925781 C 703.03125 160.800781 696.410156 163.277344 689.722656 175.183594 C 683.300781 186.554688 677.351562 199.398438 677.351562 199.398438 L 670.195312 160.734375 L 665.179688 161.9375 C 666.449219 158.996094 669.125 151.5 667.855469 142.472656 C 667.050781 136.785156 664.910156 134.441406 662.972656 133.507812 L 662.167969 127.886719 L 681.5625 127.886719 C 682.566406 127.886719 683.4375 127.085938 683.4375 126.015625 C 683.4375 125.011719 682.632812 124.140625 681.5625 124.140625 L 661.566406 124.140625 L 661.167969 121.464844 L 680.558594 121.464844 C 682.164062 121.464844 683.4375 120.195312 683.4375 118.589844 L 683.4375 116.847656 C 683.4375 115.242188 682.164062 113.972656 680.558594 113.972656 L 659.5625 113.972656 C 658.824219 112.902344 657.753906 112.234375 656.617188 112.234375 C 655.28125 112.167969 654.546875 112.96875 654.144531 113.972656 L 632.277344 113.972656 C 630.671875 113.972656 629.402344 115.242188 629.402344 116.847656 L 629.402344 118.589844 C 629.402344 120.195312 630.671875 121.464844 632.277344 121.464844 L 654.277344 121.464844 L 654.613281 124.140625 L 631.273438 124.140625 C 630.269531 124.140625 629.402344 124.945312 629.402344 126.015625 C 629.402344 127.085938 630.203125 127.886719 631.273438 127.886719 L 655.015625 127.886719 L 655.550781 132.835938 C 655.015625 131.566406 653.675781 130.695312 652.136719 130.765625 C 650.199219 130.832031 648.726562 132.503906 648.929688 134.308594 L 649.195312 136.382812 C 648.792969 135.246094 647.65625 134.441406 646.320312 134.441406 C 644.582031 134.441406 643.242188 135.980469 643.378906 137.652344 L 643.511719 139.660156 C 643.109375 139.058594 642.441406 138.65625 641.640625 138.523438 C 640.101562 138.324219 638.761719 139.328125 638.832031 140.730469 L 639.03125 148.558594 C 639.03125 148.824219 639.097656 149.027344 639.164062 149.226562 C 639.5 153.175781 642.308594 161.335938 644.246094 164.679688 C 644.449219 164.949219 644.714844 165.683594 644.984375 166.554688 L 643.242188 166.957031 C 643.242188 166.957031 649.53125 217.328125 656.21875 245.828125 C 658.425781 255.394531 666.382812 262.484375 676.078125 263.6875 C 684.503906 264.757812 692.796875 260.675781 697.078125 253.320312 L 711.65625 228.5 L 712.527344 303.824219 L 817.183594 305.03125 C 817.183594 305.03125 814.375 273.855469 814.375 273.855469 C 814.507812 275.664062 822.601562 276.128906 823.671875 276.0625 C 830.15625 275.664062 835.441406 270.914062 838.917969 265.695312 C 845.605469 255.59375 840.789062 237.933594 838.785156 226.894531 C 836.511719 213.382812 833.433594 199.535156 828.21875 186.621094 Z M 828.21875 186.621094 " fill-opacity="1" fill-rule="nonzero"/></g><g clip-path="url(#4109839dfd)"><path fill="#343434" d="M 850.289062 61.859375 L 799.664062 61.859375 C 795.117188 61.859375 791.4375 65.539062 791.4375 70.089844 L 791.4375 114.84375 C 791.4375 119.390625 795.117188 123.070312 799.664062 123.070312 L 850.289062 123.070312 C 854.835938 123.070312 858.511719 119.390625 858.511719 114.84375 L 858.511719 70.089844 C 858.511719 65.539062 854.835938 61.859375 850.289062 61.859375 Z M 824.941406 69.621094 C 831.226562 69.621094 836.378906 74.703125 836.378906 81.058594 C 836.378906 87.414062 831.292969 92.5 824.941406 92.5 C 818.65625 92.5 813.507812 87.414062 813.507812 81.058594 C 813.574219 74.769531 818.65625 69.621094 824.941406 69.621094 Z M 806.351562 115.3125 C 806.351562 115.3125 806.351562 94.503906 824.941406 94.503906 C 843.53125 94.503906 843.53125 115.3125 843.53125 115.3125 C 843.53125 115.3125 806.351562 115.3125 806.351562 115.3125 Z M 723.425781 94.707031 C 723.160156 94.4375 722.957031 93.902344 723.160156 93.167969 C 724.363281 89.621094 728.644531 86.476562 734.328125 86.546875 C 731.519531 84.941406 731.652344 84.335938 731.71875 84.070312 C 731.785156 83.800781 731.988281 83.402344 732.789062 83.335938 L 732.921875 83.335938 C 747.433594 82.0625 758.46875 84.136719 765.757812 89.355469 C 771.644531 93.570312 778.464844 105.675781 776.324219 115.777344 C 774.519531 124.273438 768.433594 133.039062 763.082031 134.910156 C 763.015625 134.910156 762.949219 134.910156 762.882812 134.910156 C 762.816406 134.910156 762.75 134.910156 762.613281 134.84375 L 754.253906 130.898438 C 754.121094 130.832031 753.988281 130.695312 753.988281 130.5625 L 753.921875 130.429688 C 753.855469 130.296875 753.921875 130.09375 753.988281 129.960938 C 754.054688 129.828125 754.1875 129.761719 754.390625 129.695312 C 754.457031 129.695312 754.457031 129.695312 754.523438 129.695312 L 754.589844 129.695312 C 756.597656 129.292969 758.535156 127.753906 759.472656 125.8125 C 760.40625 123.875 760.339844 121.664062 759.269531 119.660156 C 758.804688 118.722656 758.132812 118.1875 757.265625 117.917969 C 755.527344 117.382812 753.253906 118.320312 751.648438 119.191406 C 751.515625 119.257812 751.3125 119.257812 751.113281 119.191406 C 750.980469 119.125 750.84375 118.988281 750.777344 118.789062 C 750.375 116.582031 750.175781 115.042969 750.242188 113.972656 C 748.703125 112.703125 740.878906 106.011719 740.8125 97.984375 C 739.140625 98.050781 735.730469 97.984375 735.0625 96.511719 C 734.863281 96.042969 734.929688 95.644531 735.128906 95.242188 C 731.851562 95.777344 724.964844 96.511719 723.425781 94.707031 Z M 839.519531 226.960938 C 837.378906 215.386719 834.238281 200.269531 828.6875 186.421875 C 820.796875 166.820312 811.835938 156.117188 801.203125 153.777344 C 796.320312 152.707031 788.695312 151.703125 778.53125 150.832031 L 770.238281 143.609375 C 770.238281 143.609375 770.171875 143.542969 770.171875 143.542969 C 769.902344 143.40625 763.214844 139.726562 743.6875 145.816406 C 743.621094 145.816406 743.488281 145.882812 743.421875 145.949219 L 737.804688 152.972656 C 727.574219 154.847656 720.082031 156.320312 715.402344 157.390625 C 702.695312 160.332031 695.941406 163.007812 689.253906 174.847656 C 684.105469 183.945312 679.222656 194.046875 677.550781 197.660156 L 672.535156 170.566406 L 670.664062 160.53125 C 670.664062 160.398438 670.527344 160.265625 670.460938 160.199219 C 670.328125 160.132812 670.195312 160.132812 670.0625 160.132812 L 643.242188 166.417969 C 642.976562 166.488281 642.84375 166.6875 642.84375 166.957031 C 642.84375 167.089844 643.3125 170.835938 644.113281 176.789062 C 646.386719 192.976562 651.066406 225.355469 655.882812 245.960938 C 658.15625 255.660156 666.316406 263.019531 676.214844 264.222656 C 684.839844 265.292969 693.265625 261.144531 697.679688 253.652344 L 711.390625 230.441406 L 712.191406 303.960938 C 712.191406 304.226562 712.390625 304.429688 712.660156 304.429688 L 817.316406 305.632812 C 817.453125 305.632812 817.585938 305.566406 817.71875 305.5 C 817.785156 305.363281 817.851562 305.230469 817.851562 305.097656 C 816.046875 284.960938 815.378906 277.804688 815.179688 275.328125 C 817.71875 276.664062 823.804688 276.800781 823.871094 276.734375 C 831.695312 276.265625 837.046875 269.910156 839.519531 266.164062 C 845.472656 257.199219 842.53125 242.347656 840.390625 231.511719 C 840.054688 229.839844 839.789062 228.367188 839.519531 226.960938 Z M 744.15625 146.683594 C 762.347656 141.066406 769.101562 144.078125 769.703125 144.34375 L 777.261719 150.964844 C 766.027344 152.773438 744.15625 152.90625 739.207031 152.90625 Z M 669.792969 161.269531 L 671.464844 170.300781 L 645.117188 176.121094 C 644.515625 171.570312 644.113281 168.425781 643.980469 167.289062 Z M 838.71875 265.5625 C 836.308594 269.171875 831.226562 275.195312 823.871094 275.664062 C 822.066406 275.796875 815.179688 274.992188 815.109375 273.855469 C 815.042969 273.253906 811.164062 223.75 807.820312 202.144531 C 807.753906 201.875 807.554688 201.675781 807.21875 201.742188 C 806.953125 201.808594 806.75 202.007812 806.820312 202.34375 C 810.164062 223.882812 814.042969 273.453125 814.042969 273.988281 C 814.042969 274.125 816.449219 300.414062 816.78125 304.628906 L 713.261719 303.359375 L 712.390625 228.632812 L 721.957031 208.429688 C 722.089844 208.164062 721.957031 207.894531 721.6875 207.761719 C 721.421875 207.628906 721.152344 207.761719 721.019531 208.03125 L 711.390625 228.300781 L 696.808594 253.050781 C 692.597656 260.210938 684.574219 264.15625 676.28125 263.152344 C 666.785156 261.949219 659.027344 254.925781 656.820312 245.625 C 652.070312 225.222656 647.390625 193.3125 645.183594 177.054688 L 671.597656 171.238281 L 676.816406 199.332031 C 676.882812 199.535156 677.015625 199.734375 677.214844 199.734375 C 677.417969 199.734375 677.617188 199.667969 677.75 199.46875 C 677.816406 199.332031 683.769531 186.554688 690.121094 175.316406 C 696.675781 163.742188 702.894531 161.269531 715.601562 158.324219 C 720.214844 157.253906 727.839844 155.785156 738.070312 153.910156 C 738.140625 153.910156 738.207031 153.910156 738.339844 153.910156 C 741.550781 153.910156 766.628906 153.84375 778.261719 151.769531 C 788.429688 152.640625 796.050781 153.644531 800.867188 154.714844 C 811.097656 156.988281 819.859375 167.492188 827.617188 186.757812 C 833.167969 200.539062 836.308594 215.589844 838.382812 227.09375 C 838.652344 228.5 838.917969 230.039062 839.253906 231.578125 C 841.527344 242.28125 844.46875 256.929688 838.71875 265.5625 Z M 648.660156 173.175781 C 650.066406 173.175781 651.136719 172.039062 651.136719 170.703125 C 651.136719 169.363281 650 168.226562 648.660156 168.226562 C 647.324219 168.226562 646.1875 169.363281 646.1875 170.703125 C 646.1875 172.039062 647.324219 173.175781 648.660156 173.175781 Z M 648.660156 169.164062 C 649.464844 169.164062 650.132812 169.832031 650.132812 170.632812 C 650.132812 171.4375 649.464844 172.105469 648.660156 172.105469 C 647.859375 172.105469 647.191406 171.4375 647.191406 170.632812 C 647.191406 169.832031 647.859375 169.164062 648.660156 169.164062 Z M 648.660156 169.164062 " fill-opacity="1" fill-rule="nonzero"/></g><g clip-path="url(#352968fad6)"><path fill="#ffb15f" d="M 734.527344 95.375 C 734.726562 95.375 734.996094 95.308594 735.195312 95.308594 C 734.929688 95.308594 734.726562 95.308594 734.527344 95.375 Z M 760.007812 122.601562 C 760.007812 122.132812 759.871094 121.664062 759.738281 121.128906 C 759.871094 121.664062 759.941406 122.132812 760.007812 122.601562 Z M 733.792969 95.441406 C 733.925781 95.441406 733.992188 95.441406 734.125 95.375 C 733.992188 95.441406 733.925781 95.441406 733.792969 95.441406 Z M 773.917969 62.394531 L 723.292969 62.394531 C 719.011719 62.394531 715.535156 65.875 715.535156 70.15625 L 715.535156 114.910156 C 715.535156 118.453125 717.875 121.398438 721.085938 122.335938 C 721.019531 120.59375 721.152344 118.789062 721.351562 117.050781 L 719.078125 114.105469 C 718.410156 113.238281 718.679688 111.964844 719.613281 111.429688 L 723.160156 109.421875 C 724.496094 103.9375 727.039062 98.855469 728.710938 95.84375 C 726.367188 95.84375 724.230469 95.644531 723.492188 94.707031 C 723.226562 94.4375 723.023438 93.902344 723.226562 93.167969 C 724.429688 89.621094 728.710938 86.476562 734.394531 86.546875 C 731.585938 84.941406 731.71875 84.335938 731.785156 84.070312 C 731.851562 83.800781 732.054688 83.402344 732.855469 83.335938 L 732.988281 83.335938 C 734.863281 83.199219 736.601562 83.066406 738.339844 83 C 738.605469 76.910156 743.621094 72.09375 749.707031 72.09375 C 755.996094 72.09375 761.144531 77.179688 761.144531 83.535156 C 761.144531 84.605469 761.011719 85.609375 760.742188 86.546875 C 762.613281 87.347656 764.285156 88.285156 765.824219 89.421875 C 771.710938 93.636719 778.53125 105.746094 776.390625 115.847656 C 775.921875 118.121094 775.121094 120.460938 774.117188 122.601562 C 778.398438 122.601562 781.808594 119.125 781.808594 114.84375 L 781.808594 70.089844 C 781.675781 65.808594 778.195312 62.394531 773.917969 62.394531 Z M 759.472656 120.460938 C 759.539062 120.664062 759.605469 120.863281 759.671875 121.0625 C 759.605469 120.796875 759.539062 120.59375 759.472656 120.460938 Z M 716.070312 303.894531 L 715.667969 322.824219 L 812.234375 323.828125 L 813.039062 305.097656 Z M 605.125 38.246094 L 602.050781 44.46875 C 601.648438 45.269531 600.84375 45.871094 599.976562 46.003906 L 593.089844 46.941406 C 590.816406 47.277344 589.878906 50.085938 591.550781 51.691406 L 596.5 56.507812 C 597.167969 57.175781 597.433594 58.046875 597.300781 58.984375 L 596.164062 65.875 C 595.761719 68.148438 598.171875 69.886719 600.242188 68.816406 L 606.394531 65.605469 C 607.199219 65.203125 608.203125 65.203125 609.003906 65.605469 L 615.15625 68.816406 C 617.230469 69.886719 619.570312 68.148438 619.234375 65.875 L 618.03125 59.050781 C 617.898438 58.113281 618.167969 57.246094 618.835938 56.574219 L 623.785156 51.757812 C 625.457031 50.152344 624.519531 47.34375 622.246094 47.007812 L 615.359375 46.003906 C 614.421875 45.871094 613.6875 45.269531 613.285156 44.46875 L 610.207031 38.246094 C 609.136719 36.171875 606.195312 36.171875 605.125 38.246094 Z M 605.125 38.246094 " fill-opacity="1" fill-rule="nonzero"/><path fill="#343434" d="M 668.320312 142.269531 C 669.527344 150.5 667.386719 157.589844 665.980469 161.066406 L 664.777344 161.335938 C 666.046875 158.257812 668.589844 150.964844 667.320312 142.402344 C 666.648438 137.921875 665.113281 134.976562 662.703125 133.839844 C 662.570312 133.773438 662.4375 133.640625 662.4375 133.441406 L 659.828125 115.847656 C 659.5625 114.039062 658.15625 112.566406 656.550781 112.566406 C 655.949219 112.566406 655.480469 112.703125 655.082031 113.101562 C 654.34375 113.90625 654.078125 115.578125 654.277344 117.71875 L 655.949219 132.703125 C 655.949219 132.972656 655.816406 133.171875 655.550781 133.238281 C 655.28125 133.304688 655.082031 133.171875 654.945312 132.972656 C 654.480469 131.835938 653.273438 131.097656 652.003906 131.164062 C 651.203125 131.230469 650.398438 131.566406 649.863281 132.167969 C 649.398438 132.703125 649.195312 133.441406 649.261719 134.175781 L 649.53125 136.25 C 649.53125 136.515625 649.398438 136.71875 649.128906 136.785156 C 648.863281 136.851562 648.660156 136.71875 648.527344 136.449219 C 648.191406 135.445312 647.257812 134.84375 646.1875 134.84375 C 645.519531 134.84375 644.847656 135.113281 644.382812 135.648438 C 643.914062 136.183594 643.710938 136.851562 643.710938 137.519531 L 643.847656 139.527344 C 643.847656 139.726562 643.710938 139.996094 643.511719 140.0625 C 643.3125 140.128906 643.042969 140.0625 642.910156 139.863281 C 642.574219 139.394531 642.039062 139.058594 641.371094 138.925781 C 640.703125 138.859375 640.101562 138.992188 639.699219 139.394531 C 639.296875 139.726562 639.164062 140.195312 639.164062 140.664062 L 639.367188 148.492188 C 639.367188 148.625 639.433594 148.824219 639.5 149.027344 C 639.5 149.09375 639.5 149.09375 639.5 149.160156 C 639.832031 153.109375 642.710938 161.269531 644.515625 164.414062 C 644.648438 164.679688 644.914062 165.214844 645.183594 165.953125 L 644.179688 166.152344 C 643.980469 165.550781 643.777344 165.082031 643.644531 164.882812 C 641.773438 161.601562 638.898438 153.375 638.496094 149.292969 C 638.429688 149.027344 638.363281 148.757812 638.363281 148.492188 L 638.160156 140.664062 C 638.160156 139.863281 638.429688 139.191406 639.03125 138.65625 C 639.699219 138.054688 640.636719 137.789062 641.570312 137.921875 C 641.972656 137.988281 642.375 138.121094 642.777344 138.324219 L 642.710938 137.585938 C 642.640625 136.652344 642.976562 135.648438 643.644531 134.976562 C 644.3125 134.242188 645.25 133.839844 646.1875 133.839844 C 646.988281 133.839844 647.726562 134.109375 648.328125 134.511719 L 648.328125 134.242188 C 648.191406 133.238281 648.527344 132.234375 649.128906 131.5 C 649.796875 130.695312 650.867188 130.160156 651.9375 130.160156 C 652.941406 130.09375 653.945312 130.429688 654.679688 131.03125 L 653.34375 117.785156 C 653.140625 116.046875 653.207031 113.707031 654.410156 112.433594 C 654.945312 111.832031 655.683594 111.566406 656.617188 111.566406 C 658.691406 111.632812 660.496094 113.4375 660.832031 115.710938 L 663.375 133.039062 C 665.980469 134.441406 667.652344 137.519531 668.320312 142.269531 Z M 763.015625 134.910156 C 762.949219 134.910156 762.882812 134.910156 762.816406 134.910156 C 762.75 134.910156 762.683594 134.910156 762.546875 134.84375 L 762.414062 134.777344 L 765.625 142.269531 C 766.027344 142.335938 766.425781 142.335938 766.761719 142.402344 L 763.484375 134.644531 C 763.351562 134.777344 763.148438 134.84375 763.015625 134.910156 Z M 743.289062 139.328125 L 745.359375 145.214844 C 745.027344 145.28125 744.691406 145.414062 744.425781 145.480469 L 742.484375 140.0625 C 737.070312 141.402344 731.988281 140.796875 727.371094 138.324219 C 725.367188 137.253906 723.828125 135.378906 722.757812 133.039062 L 701.222656 133.039062 C 701.292969 132.703125 701.359375 132.371094 701.425781 132.035156 L 722.355469 132.035156 C 720.617188 127.6875 720.214844 122.066406 720.816406 117.117188 L 718.679688 114.308594 C 718.277344 113.773438 718.144531 113.101562 718.277344 112.433594 C 718.410156 111.765625 718.8125 111.230469 719.414062 110.894531 L 722.757812 109.023438 C 724.09375 103.738281 726.503906 98.789062 728.175781 95.777344 C 728.574219 95.777344 728.910156 95.777344 729.3125 95.777344 C 728.039062 98.050781 726.167969 101.664062 724.765625 105.746094 C 724.898438 105.746094 725.03125 105.746094 725.097656 105.746094 L 727.773438 107.015625 C 729.042969 105.746094 730.78125 104.941406 732.65625 104.941406 C 736.46875 104.941406 739.542969 108.019531 739.542969 111.832031 C 739.542969 115.644531 736.46875 118.722656 732.65625 118.722656 C 728.84375 118.722656 725.765625 115.644531 725.765625 111.832031 C 725.765625 110.292969 726.234375 108.886719 727.105469 107.75 L 724.628906 106.546875 C 724.5625 106.480469 724.496094 106.480469 724.429688 106.414062 C 724.09375 107.351562 723.828125 108.351562 723.628906 109.355469 C 723.628906 109.492188 723.492188 109.625 723.359375 109.691406 L 719.816406 111.699219 C 719.480469 111.898438 719.28125 112.234375 719.144531 112.566406 C 719.011719 112.902344 719.144531 113.304688 719.414062 113.636719 L 721.6875 116.582031 C 721.753906 116.714844 721.820312 116.847656 721.753906 116.917969 C 721.488281 118.855469 721.421875 120.996094 721.554688 123.070312 C 721.621094 123.136719 721.6875 123.136719 721.753906 123.203125 C 721.753906 123.203125 723.761719 126.28125 727.171875 126.214844 C 727.4375 126.214844 727.707031 126.414062 727.707031 126.683594 C 727.707031 126.949219 727.503906 127.21875 727.238281 127.21875 C 727.171875 127.21875 727.039062 127.21875 726.972656 127.21875 C 724.429688 127.21875 722.691406 125.8125 721.753906 124.742188 C 722.289062 130.230469 724.160156 135.3125 727.90625 137.320312 C 732.453125 139.726562 737.46875 140.261719 742.753906 138.859375 C 742.820312 138.859375 742.820312 138.859375 742.886719 138.859375 C 743.085938 138.992188 743.222656 139.125 743.289062 139.328125 Z M 726.769531 112.03125 C 726.769531 115.3125 729.445312 117.917969 732.65625 117.917969 C 735.863281 117.917969 738.539062 115.242188 738.539062 112.03125 C 738.539062 108.820312 735.863281 106.144531 732.65625 106.144531 C 729.445312 106.144531 726.769531 108.753906 726.769531 112.03125 Z M 730.984375 112.96875 C 731.917969 113.304688 732.519531 112.234375 732.855469 111.429688 C 733.054688 110.828125 733.191406 110.160156 732.988281 109.558594 C 732.855469 108.957031 732.386719 108.421875 731.382812 109.023438 C 730.246094 109.757812 729.578125 112.433594 730.984375 112.96875 Z M 739.476562 106.210938 C 739.542969 106.347656 739.742188 106.414062 739.878906 106.414062 C 739.945312 106.414062 740.078125 106.414062 740.144531 106.347656 C 740.34375 106.210938 740.414062 105.878906 740.277344 105.675781 C 740.144531 105.542969 737.738281 101.863281 732.589844 102 C 732.320312 102 732.121094 102.265625 732.121094 102.535156 C 732.121094 102.800781 732.386719 103 732.65625 103 C 737.203125 102.867188 739.410156 106.078125 739.476562 106.210938 Z M 868.8125 59.71875 L 868.8125 125.210938 C 868.8125 129.492188 865.332031 133.039062 860.988281 133.039062 L 766.226562 133.039062 C 766.628906 132.703125 767.027344 132.371094 767.363281 132.035156 L 860.988281 132.035156 C 864.730469 132.035156 867.808594 128.957031 867.808594 125.210938 L 867.808594 59.71875 C 867.808594 55.972656 864.730469 52.894531 860.988281 52.894531 L 623.25 52.894531 L 619.101562 56.910156 C 618.566406 57.445312 618.300781 58.179688 618.433594 58.917969 L 619.636719 65.808594 C 619.839844 67.078125 619.371094 68.28125 618.300781 69.019531 C 617.296875 69.753906 615.960938 69.886719 614.824219 69.285156 L 608.671875 66.074219 C 608 65.738281 607.199219 65.738281 606.53125 66.074219 L 603.722656 67.546875 L 603.722656 125.277344 C 603.722656 129.023438 606.796875 132.101562 610.542969 132.101562 L 612.28125 132.101562 C 612.347656 132.4375 612.414062 132.769531 612.480469 133.105469 L 610.542969 133.105469 C 606.261719 133.105469 602.71875 129.625 602.71875 125.277344 L 602.71875 68.015625 L 600.378906 69.21875 C 599.976562 69.554688 599.441406 69.621094 598.90625 69.621094 C 598.238281 69.621094 597.570312 69.417969 596.96875 69.019531 C 595.964844 68.28125 595.429688 67.011719 595.628906 65.808594 L 596.832031 58.984375 C 596.96875 58.246094 596.699219 57.511719 596.164062 56.976562 L 591.214844 52.160156 C 590.28125 51.289062 590.011719 50.019531 590.414062 48.816406 C 590.816406 47.609375 591.816406 46.742188 593.089844 46.539062 L 599.976562 45.539062 C 600.710938 45.402344 601.378906 44.933594 601.714844 44.265625 L 604.792969 38.042969 C 605.257812 36.90625 606.394531 36.171875 607.667969 36.171875 C 608.9375 36.171875 610.074219 36.90625 610.609375 37.976562 L 613.6875 44.199219 C 614.019531 44.867188 614.6875 45.335938 615.425781 45.46875 L 622.3125 46.472656 C 623.582031 46.675781 624.585938 47.542969 624.988281 48.75 C 625.320312 49.886719 625.121094 51.089844 624.320312 51.960938 L 861.054688 51.960938 C 865.332031 51.890625 868.8125 55.4375 868.8125 59.71875 Z M 623.382812 51.355469 C 624.050781 50.753906 624.25 49.886719 623.984375 49.015625 C 623.648438 48.214844 622.980469 47.609375 622.113281 47.476562 L 615.222656 46.472656 C 614.152344 46.339844 613.21875 45.671875 612.75 44.667969 L 609.671875 38.445312 C 609.273438 37.644531 608.535156 37.175781 607.601562 37.175781 C 606.664062 37.175781 605.996094 37.644531 605.59375 38.445312 L 602.515625 44.667969 C 602.050781 45.671875 601.113281 46.339844 600.042969 46.472656 L 593.15625 47.476562 C 592.285156 47.609375 591.550781 48.214844 591.28125 49.015625 C 591.015625 49.820312 591.214844 50.753906 591.882812 51.355469 L 596.898438 56.242188 C 597.703125 56.976562 598.035156 58.113281 597.835938 59.183594 L 596.632812 65.941406 C 596.5 66.808594 596.832031 67.679688 597.570312 68.148438 C 598.304688 68.683594 599.171875 68.75 599.976562 68.347656 L 606.128906 65.136719 C 606.597656 64.871094 607.132812 64.738281 607.667969 64.738281 C 608.203125 64.738281 608.738281 64.871094 609.203125 65.136719 L 615.355469 68.347656 C 616.160156 68.75 617.027344 68.683594 617.765625 68.148438 C 618.5 67.613281 618.835938 66.808594 618.699219 65.941406 L 617.496094 59.117188 C 617.296875 58.046875 617.699219 56.976562 618.433594 56.175781 Z M 623.382812 51.355469 " fill-opacity="1" fill-rule="nonzero"/></g></svg>