<svg xmlns="http://www.w3.org/2000/svg" xmlns:xlink="http://www.w3.org/1999/xlink" width="1200" zoomAndPan="magnify" viewBox="0 0 900 359.999987" height="480" preserveAspectRatio="xMidYMid meet" version="1.0"><defs><g/><clipPath id="e1f1a7e0bf"><path d="M 17.25 0 L 882.75 0 C 887.324219 0 891.710938 1.816406 894.949219 5.050781 C 898.183594 8.289062 900 12.675781 900 17.25 L 900 342.75 C 900 347.324219 898.183594 351.710938 894.949219 354.949219 C 891.710938 358.183594 887.324219 360 882.75 360 L 17.25 360 C 12.675781 360 8.289062 358.183594 5.050781 354.949219 C 1.816406 351.710938 0 347.324219 0 342.75 L 0 17.25 C 0 12.675781 1.816406 8.289062 5.050781 5.050781 C 8.289062 1.816406 12.675781 0 17.25 0 Z M 17.25 0 " clip-rule="nonzero"/></clipPath><clipPath id="a08e71e0fa"><path d="M 1.800781 1.800781 L 898.199219 1.800781 L 898.199219 358.199219 L 1.800781 358.199219 Z M 1.800781 1.800781 " clip-rule="nonzero"/></clipPath><clipPath id="c1aa56c8f5"><path d="M 19.050781 1.800781 L 880.949219 1.800781 C 885.523438 1.800781 889.914062 3.617188 893.148438 6.851562 C 896.382812 10.085938 898.199219 14.476562 898.199219 19.050781 L 898.199219 340.949219 C 898.199219 345.523438 896.382812 349.914062 893.148438 353.148438 C 889.914062 356.382812 885.523438 358.199219 880.949219 358.199219 L 19.050781 358.199219 C 14.476562 358.199219 10.085938 356.382812 6.851562 353.148438 C 3.617188 349.914062 1.800781 345.523438 1.800781 340.949219 L 1.800781 19.050781 C 1.800781 14.476562 3.617188 10.085938 6.851562 6.851562 C 10.085938 3.617188 14.476562 1.800781 19.050781 1.800781 Z M 19.050781 1.800781 " clip-rule="nonzero"/></clipPath><clipPath id="cb3273e436"><path d="M 566.6875 36 L 844 36 L 844 324 L 566.6875 324 Z M 566.6875 36 " clip-rule="nonzero"/></clipPath><clipPath id="6d70babcf9"><path d="M 765 195 L 868.9375 195 L 868.9375 265 L 765 265 Z M 765 195 " clip-rule="nonzero"/></clipPath><clipPath id="f99f8eb9fd"><path d="M 739 56 L 868.9375 56 L 868.9375 265 L 739 265 Z M 739 56 " clip-rule="nonzero"/></clipPath><clipPath id="980901dbec"><path d="M 566.6875 36 L 832 36 L 832 324 L 566.6875 324 Z M 566.6875 36 " clip-rule="nonzero"/></clipPath></defs><g clip-path="url(#e1f1a7e0bf)"><rect x="-90" width="1080" fill="#004aad" y="-35.999999" height="431.999984" fill-opacity="1"/></g><g clip-path="url(#a08e71e0fa)"><g clip-path="url(#c1aa56c8f5)"><path fill="#ffffff" d="M 1.800781 1.800781 L 898.199219 1.800781 L 898.199219 358.199219 L 1.800781 358.199219 Z M 1.800781 1.800781 " fill-opacity="1" fill-rule="nonzero"/></g></g><g clip-path="url(#cb3273e436)"><path fill="#ffffff" d="M 843.894531 169.761719 L 843.515625 61.058594 C 843.515625 59.457031 842.21875 58.164062 840.546875 58.164062 L 822.277344 58.242188 L 822.277344 56.261719 C 822.277344 56.1875 822.277344 56.1875 822.277344 56.109375 C 822.277344 56.109375 822.277344 56.035156 822.277344 56.035156 C 822.277344 55.957031 822.203125 55.882812 822.203125 55.882812 L 802.640625 36.242188 C 802.566406 36.164062 802.566406 36.164062 802.488281 36.164062 C 802.488281 36.164062 802.488281 36.164062 802.414062 36.164062 C 802.335938 36.164062 802.335938 36.164062 802.261719 36.164062 L 734.136719 36.242188 C 732.691406 36.242188 731.320312 36.773438 730.332031 37.839844 C 729.34375 38.828125 728.734375 40.199219 728.734375 41.644531 L 728.886719 144.414062 C 727.363281 145.324219 725.917969 146.316406 724.472656 147.382812 C 723.40625 148.140625 722.339844 148.902344 721.273438 149.664062 C 720.132812 150.503906 718.992188 151.261719 717.847656 152.101562 C 717.394531 152.480469 716.859375 152.785156 716.328125 153.167969 C 714.578125 154.382812 712.824219 155.601562 711.457031 157.125 C 711.457031 157.199219 711.378906 157.199219 711.378906 157.277344 C 711.226562 156.820312 710.769531 156.59375 710.390625 156.441406 C 709.707031 156.136719 709.019531 155.90625 708.335938 155.753906 C 707.648438 155.601562 707.195312 155.449219 706.890625 155.222656 C 706.890625 155.144531 706.890625 155.070312 706.890625 154.992188 C 706.8125 154.6875 706.585938 154.535156 706.28125 154.535156 C 706.128906 154.15625 706.050781 153.625 705.976562 152.9375 C 705.898438 151.492188 705.671875 150.046875 705.0625 148.675781 C 704.53125 147.535156 703.691406 147 702.550781 146.695312 C 700.953125 146.316406 699.429688 146.695312 697.90625 146.847656 C 695.242188 147.152344 692.65625 147.457031 689.992188 147.6875 C 689.992188 147.6875 689.992188 147.609375 689.992188 147.609375 C 689.914062 147.304688 689.609375 147.078125 689.304688 147.152344 C 689.304688 147.152344 689.230469 147.152344 689.003906 147.230469 C 687.859375 145.171875 687.554688 143.042969 687.859375 140.757812 C 688.242188 137.410156 688.925781 134.136719 689.914062 130.863281 C 691.894531 124.316406 693.796875 117.769531 695.089844 111.070312 C 695.777344 107.492188 696.539062 103.839844 696.691406 100.183594 C 696.992188 94.09375 696.765625 88.082031 695.699219 82.066406 C 694.480469 75.519531 692.425781 69.355469 689.304688 63.492188 C 687.25 59.6875 684.433594 56.566406 680.933594 54.054688 C 677.128906 51.3125 672.941406 49.410156 668.453125 48.191406 C 664.949219 47.277344 661.449219 46.746094 657.796875 46.824219 C 657.035156 46.824219 656.347656 46.976562 655.589844 47.050781 C 651.859375 47.277344 648.28125 47.964844 644.855469 49.257812 C 638.460938 51.695312 632.90625 55.425781 628.492188 60.828125 C 623.925781 66.386719 620.804688 72.628906 618.976562 79.554688 C 618.140625 82.753906 617.300781 86.027344 617.148438 89.375 C 616.847656 94.246094 617.148438 99.117188 617.910156 103.992188 C 618.824219 109.394531 620.195312 114.648438 621.871094 119.824219 C 623.847656 125.761719 626.359375 131.472656 629.101562 137.027344 C 630.394531 139.769531 631.917969 142.355469 632.144531 145.554688 C 632.222656 147.382812 632.070312 148.980469 630.546875 150.199219 C 629.558594 150.957031 628.796875 151.949219 628.339844 153.242188 C 628.261719 153.546875 628.035156 153.851562 627.882812 154.15625 C 627.273438 155.296875 626.285156 155.832031 625.066406 155.90625 C 624.609375 155.90625 624.078125 155.90625 623.621094 155.90625 L 623.316406 156.058594 C 623.011719 155.527344 622.859375 155.144531 622.859375 155.144531 C 622.707031 154.839844 622.402344 154.765625 622.097656 154.917969 C 621.945312 154.992188 621.871094 155.144531 621.792969 155.296875 C 620.117188 154.992188 618.519531 155.296875 616.996094 156.136719 C 616.390625 156.515625 615.703125 156.898438 615.171875 157.351562 C 613.648438 158.648438 612.050781 159.714844 610.148438 160.320312 C 609.539062 160.550781 608.929688 160.855469 608.777344 161.617188 C 608.777344 161.539062 608.855469 161.539062 608.855469 161.464844 C 608.777344 161.464844 608.703125 161.464844 608.625 161.539062 C 608.472656 161.386719 608.246094 161.234375 608.09375 161.3125 C 604.820312 161.84375 601.699219 162.988281 598.425781 164.8125 C 595.304688 166.5625 592.945312 168.316406 591.117188 170.21875 C 588.378906 173.035156 585.941406 176.230469 583.582031 180.113281 C 581.222656 183.996094 579.320312 188.257812 577.648438 193.207031 C 576.582031 196.558594 575.589844 200.210938 574.679688 204.703125 L 574.144531 207.441406 C 573.613281 209.878906 573.078125 212.464844 572.625 214.980469 C 571.785156 219.394531 571.023438 223.429688 570.339844 227.308594 C 569.960938 229.367188 569.730469 231.421875 569.425781 233.476562 L 569.199219 235.152344 C 568.894531 237.28125 568.664062 238.957031 568.511719 240.554688 L 568.054688 240.859375 C 567.902344 242.382812 567.675781 244.058594 567.601562 245.65625 C 567.523438 247.101562 567.371094 248.472656 567.21875 249.765625 C 566.992188 251.59375 566.914062 253.496094 566.839844 255.324219 L 566.839844 255.78125 C 566.761719 258.292969 566.761719 260.882812 566.761719 263.394531 C 566.761719 264.992188 566.761719 266.589844 566.761719 268.1875 C 566.761719 269.558594 566.914062 271.003906 567.144531 272.148438 C 567.675781 275.496094 568.359375 279.378906 569.882812 283.183594 C 571.785156 287.980469 574.144531 291.101562 577.34375 293.234375 C 576.429688 295.746094 576.960938 297.953125 578.941406 299.78125 C 579.09375 299.933594 579.167969 300.007812 579.320312 300.160156 L 579.550781 300.390625 C 580.082031 300.921875 580.539062 301.453125 580.917969 301.910156 C 580.917969 301.988281 580.996094 301.988281 580.996094 302.0625 C 581.605469 302.902344 582.0625 303.738281 582.367188 304.574219 C 582.898438 306.097656 583.8125 307.316406 585.03125 308.230469 C 586.324219 309.144531 587.160156 309.980469 587.921875 310.96875 C 588.605469 311.882812 589.597656 312.570312 591.117188 313.023438 C 593.25 313.710938 595.535156 314.089844 598.046875 314.089844 C 598.578125 314.320312 599.109375 314.320312 599.566406 314.320312 C 599.71875 314.320312 599.949219 314.320312 600.101562 314.320312 C 599.949219 314.851562 599.871094 315.308594 599.796875 315.765625 C 599.796875 315.917969 599.71875 316.144531 599.71875 316.296875 C 599.414062 318.203125 599.566406 320.105469 599.644531 321.855469 C 599.71875 323.378906 600.710938 323.605469 601.621094 323.683594 L 602.230469 323.683594 C 602.839844 323.683594 603.375 323.757812 603.980469 323.757812 C 604.363281 323.757812 604.742188 323.757812 605.125 323.683594 C 606.265625 323.605469 607.484375 323.605469 608.703125 323.605469 C 610.070312 323.605469 611.441406 323.605469 612.8125 323.453125 C 614.03125 323.300781 615.324219 323.300781 616.542969 323.300781 C 617.453125 323.300781 618.445312 323.300781 619.433594 323.226562 C 621.71875 323.074219 624 323.074219 626.207031 323.074219 C 627.957031 323.074219 629.785156 323.074219 631.613281 322.996094 C 633.894531 322.921875 636.179688 322.921875 638.460938 322.84375 C 641.203125 322.84375 644.019531 322.84375 646.835938 322.617188 C 647.292969 322.617188 647.671875 322.539062 648.128906 322.386719 C 648.890625 322.160156 649.347656 321.78125 649.574219 321.019531 L 681.011719 321.019531 C 681.316406 321.78125 681.921875 322.007812 683.21875 322.082031 C 685.121094 322.160156 687.023438 322.007812 688.851562 321.929688 C 690.449219 321.855469 692.121094 321.78125 693.722656 321.78125 C 697.070312 321.78125 700.417969 321.703125 703.234375 321.628906 C 704.453125 321.550781 705.671875 321.550781 706.890625 321.476562 C 710.160156 321.324219 713.511719 321.171875 716.859375 321.324219 C 717.164062 321.324219 717.546875 321.324219 717.847656 321.398438 C 720.285156 321.703125 722.339844 321.703125 724.242188 321.324219 C 725.765625 321.09375 725.992188 320.789062 725.992188 319.191406 C 725.992188 317.898438 725.917969 316.679688 725.839844 315.460938 C 725.765625 314.015625 725.613281 312.570312 725.6875 311.046875 C 725.6875 310.96875 725.6875 310.894531 725.6875 310.742188 C 725.382812 309.371094 725.460938 307.925781 725.460938 306.480469 C 725.460938 305.640625 725.460938 304.804688 725.460938 303.964844 C 725.460938 303.890625 725.460938 303.890625 725.460938 303.8125 C 725.535156 303.8125 725.535156 303.8125 725.613281 303.8125 C 725.839844 303.738281 725.992188 303.585938 725.992188 303.359375 C 728.582031 302.824219 731.015625 301.988281 733.453125 301.148438 C 734.671875 300.691406 735.964844 300.3125 737.183594 299.933594 C 740.152344 299.019531 742.585938 297.800781 744.792969 296.203125 C 747.609375 294.070312 749.4375 292.015625 750.65625 289.503906 C 751.949219 286.6875 752.710938 283.566406 752.785156 279.835938 C 752.863281 278.085938 752.863281 276.257812 752.785156 274.507812 C 752.785156 273.746094 752.785156 273.058594 752.785156 272.300781 C 752.785156 272.070312 752.785156 271.84375 752.785156 271.613281 C 752.785156 271.003906 752.785156 270.472656 752.710938 269.863281 C 752.480469 268.492188 752.480469 267.121094 752.40625 265.828125 C 752.40625 264.914062 752.328125 263.925781 752.253906 262.9375 C 752.175781 261.945312 752.101562 260.878906 752.023438 259.890625 C 751.949219 258.976562 751.949219 258.0625 751.871094 257.226562 C 751.796875 256.160156 751.71875 255.09375 751.644531 254.03125 C 751.492188 252.355469 751.414062 250.527344 751.1875 248.777344 C 751.035156 246.949219 750.882812 245.125 750.808594 243.371094 C 750.730469 242.609375 750.730469 241.851562 750.65625 241.089844 C 750.578125 239.945312 750.578125 238.730469 750.578125 237.585938 C 750.578125 236.21875 750.503906 234.769531 750.425781 233.324219 C 750.351562 232.5625 750.351562 231.878906 750.425781 231.039062 C 750.425781 230.128906 750.503906 229.136719 750.351562 228.222656 C 750.199219 227.082031 750.199219 225.863281 750.199219 224.644531 C 750.199219 223.351562 750.199219 221.980469 749.96875 220.6875 C 749.816406 219.851562 749.816406 218.9375 749.816406 218.023438 C 749.816406 217.414062 749.816406 216.804688 749.742188 216.195312 C 749.589844 214.21875 749.4375 212.238281 749.285156 210.257812 L 749.132812 208.738281 C 748.980469 206.527344 748.597656 204.398438 748.296875 202.265625 C 748.21875 201.582031 748.066406 200.820312 747.992188 200.132812 C 747.6875 198.230469 747.382812 196.253906 747 194.347656 C 746.695312 192.828125 746.46875 191.226562 746.238281 189.707031 C 745.859375 187.042969 745.175781 183.464844 743.804688 180.039062 C 741.214844 173.339844 736.878906 168.316406 731.015625 165.195312 C 731.167969 164.585938 731.246094 163.976562 731.167969 163.367188 C 731.015625 162.300781 730.410156 161.464844 729.417969 160.855469 C 729.113281 160.625 727.746094 160.246094 726.601562 160.167969 C 728.808594 157.960938 730.941406 155.753906 733.148438 153.699219 C 733.527344 153.777344 733.910156 153.851562 734.289062 153.851562 L 755.527344 153.851562 L 755.527344 170.066406 C 755.527344 171.664062 756.820312 172.957031 758.496094 172.957031 L 841.078125 172.730469 C 842.601562 172.652344 843.894531 171.359375 843.894531 169.761719 Z M 843.894531 169.761719 " fill-opacity="1" fill-rule="nonzero"/></g><g clip-path="url(#6d70babcf9)"><path fill="#ffffff" d="M 865.738281 195.796875 L 835.066406 195.796875 C 833.847656 195.796875 832.707031 196.558594 832.171875 197.699219 L 831.03125 199.980469 L 831.335938 199.375 L 774.402344 199.375 C 774.097656 199.375 773.792969 199.601562 773.792969 199.980469 L 773.792969 213.457031 L 774.402344 213.457031 L 769.074219 213.457031 C 767.324219 213.457031 765.953125 214.902344 765.953125 216.578125 L 765.953125 260.957031 C 765.953125 262.707031 767.398438 264.078125 769.074219 264.078125 L 865.816406 264.078125 C 867.566406 264.078125 868.9375 262.632812 868.9375 260.957031 L 868.9375 198.992188 C 868.9375 197.242188 867.488281 195.796875 865.738281 195.796875 Z M 865.738281 195.796875 " fill-opacity="1" fill-rule="nonzero"/></g><path fill="#ffb15f" d="M 649.878906 316.832031 L 649.878906 315.992188 C 649.878906 315.539062 649.878906 315.082031 649.878906 314.625 C 649.878906 313.480469 649.878906 312.417969 650.03125 311.351562 C 651.402344 311.046875 652.847656 310.894531 654.21875 310.816406 L 655.285156 310.742188 C 658.402344 310.359375 661.601562 310.132812 664.035156 309.980469 C 664.949219 309.902344 665.863281 309.828125 666.851562 309.753906 C 668.90625 309.601562 670.964844 309.371094 673.019531 309.371094 C 673.246094 309.371094 673.550781 309.371094 673.777344 309.296875 C 675.683594 309.066406 677.585938 308.992188 679.410156 308.914062 L 680.324219 308.839844 C 680.628906 309.371094 680.707031 309.902344 680.707031 310.742188 C 680.707031 313.710938 680.707031 316.679688 680.707031 319.570312 C 680.707031 320.179688 680.78125 320.636719 680.933594 321.019531 L 649.5 321.019531 C 649.574219 320.867188 649.574219 320.714844 649.652344 320.5625 C 649.878906 319.34375 649.878906 318.125 649.878906 316.832031 Z M 843.894531 169.761719 C 843.894531 171.359375 842.601562 172.652344 841.003906 172.730469 L 758.417969 172.957031 C 756.820312 172.957031 755.527344 171.664062 755.449219 170.066406 L 755.375 153.851562 L 817.027344 153.777344 C 818.472656 153.777344 819.84375 153.242188 820.832031 152.175781 C 820.910156 152.101562 821.058594 151.949219 821.136719 151.871094 L 831.714844 151.871094 C 832.933594 151.871094 833.847656 150.882812 833.847656 149.742188 C 833.847656 148.597656 832.859375 147.609375 831.714844 147.609375 L 822.429688 147.609375 L 822.429688 141.976562 L 831.640625 141.976562 C 832.859375 141.976562 833.773438 140.988281 833.773438 139.84375 C 833.773438 138.703125 832.78125 137.714844 831.640625 137.714844 L 822.429688 137.714844 L 822.429688 132.082031 L 831.640625 132.082031 C 832.859375 132.082031 833.773438 131.089844 833.773438 129.949219 C 833.773438 128.808594 832.78125 127.816406 831.640625 127.816406 L 822.429688 127.816406 L 822.429688 122.183594 L 831.640625 122.183594 C 832.859375 122.183594 833.773438 121.195312 833.773438 120.054688 C 833.773438 118.910156 832.78125 117.921875 831.640625 117.921875 L 822.429688 117.921875 L 822.429688 92.34375 L 831.5625 92.34375 C 832.78125 92.34375 833.695312 91.355469 833.695312 90.210938 C 833.695312 89.070312 832.707031 88.082031 831.5625 88.082031 L 822.429688 88.082031 L 822.429688 58.164062 L 840.699219 58.089844 C 842.296875 58.089844 843.589844 59.382812 843.667969 60.980469 Z M 834 159.5625 C 834 158.34375 833.011719 157.429688 831.867188 157.429688 L 768.769531 157.65625 C 767.550781 157.65625 766.640625 158.648438 766.640625 159.789062 C 766.640625 160.929688 767.628906 161.921875 768.769531 161.921875 L 831.945312 161.691406 C 833.011719 161.769531 834 160.777344 834 159.5625 Z M 676.59375 267.730469 C 673.476562 267.351562 669.898438 269.484375 667.917969 269.941406 C 665.941406 270.472656 664.644531 270.394531 664.035156 267.65625 C 663.425781 265.144531 662.894531 259.433594 662.820312 258.597656 L 657.871094 263.242188 L 652.390625 268.570312 L 652.390625 276.257812 L 681.316406 271.84375 L 681.464844 267.960938 C 681.464844 267.882812 679.714844 268.113281 676.59375 267.730469 Z M 676.59375 267.730469 " fill-opacity="1" fill-rule="nonzero"/><path fill="#ffffff" d="M 663.503906 264.457031 C 663.578125 264.839844 663.578125 265.21875 663.65625 265.523438 C 663.65625 265.449219 663.65625 265.371094 663.65625 265.371094 C 663.65625 265.296875 663.65625 265.21875 663.65625 265.144531 C 663.65625 264.992188 663.578125 264.839844 663.578125 264.761719 C 663.578125 264.609375 663.578125 264.535156 663.503906 264.457031 Z M 663.277344 262.480469 C 663.277344 262.554688 663.277344 262.632812 663.277344 262.632812 C 663.277344 262.707031 663.277344 262.785156 663.277344 262.859375 C 663.277344 262.632812 663.199219 262.480469 663.199219 262.25 C 663.277344 262.328125 663.277344 262.402344 663.277344 262.480469 Z M 662.894531 258.902344 C 662.894531 258.75 662.894531 258.671875 662.894531 258.597656 C 662.820312 258.671875 662.894531 258.75 662.894531 258.902344 Z M 752.175781 272.300781 C 752.175781 274.8125 752.253906 277.324219 752.175781 279.835938 C 752.101562 283.109375 751.492188 286.304688 750.121094 289.273438 C 748.828125 291.9375 746.847656 293.996094 744.488281 295.746094 C 742.207031 297.421875 739.769531 298.5625 737.105469 299.398438 C 733.375 300.542969 729.722656 302.0625 725.839844 302.902344 C 725.234375 303.054688 724.929688 303.359375 724.929688 304.042969 C 725.003906 306.328125 724.699219 308.609375 725.15625 310.894531 C 725.15625 310.96875 725.15625 310.96875 725.15625 311.046875 C 725.003906 313.785156 725.460938 316.449219 725.460938 319.191406 C 725.460938 320.5625 725.460938 320.5625 724.167969 320.789062 C 722.113281 321.171875 720.058594 321.09375 718 320.789062 C 717.695312 320.714844 717.316406 320.714844 716.9375 320.714844 C 712.371094 320.5625 707.878906 320.867188 703.3125 321.019531 C 700.191406 321.09375 696.992188 321.171875 693.875 321.171875 C 690.371094 321.171875 686.871094 321.550781 683.371094 321.476562 C 681.769531 321.398438 681.542969 321.171875 681.46875 319.570312 C 681.46875 316.601562 681.46875 313.710938 681.46875 310.742188 C 681.46875 309.980469 681.316406 309.21875 680.933594 308.535156 C 680.859375 308.457031 680.78125 308.382812 680.628906 308.304688 C 678.347656 308.382812 676.0625 308.457031 673.777344 308.761719 C 673.550781 308.761719 673.324219 308.761719 673.09375 308.761719 C 670.050781 308.6875 667.082031 309.144531 664.035156 309.371094 C 661.144531 309.601562 658.175781 309.828125 655.285156 310.132812 C 653.378906 310.359375 651.476562 310.511719 649.652344 310.894531 C 649.652344 310.96875 649.574219 311.046875 649.574219 311.121094 C 649.269531 312.722656 649.421875 314.394531 649.347656 316.070312 C 649.347656 317.59375 649.347656 319.113281 649.117188 320.5625 C 648.964844 321.324219 648.660156 321.703125 647.976562 321.933594 C 647.597656 322.007812 647.214844 322.082031 646.835938 322.082031 C 641.8125 322.386719 636.710938 322.160156 631.6875 322.386719 C 627.652344 322.539062 623.542969 322.386719 619.507812 322.617188 C 617.300781 322.769531 615.09375 322.617188 612.886719 322.84375 C 610.300781 323.148438 607.789062 322.921875 605.277344 323.148438 C 604.132812 323.226562 602.992188 323.148438 601.773438 323.074219 C 600.785156 322.996094 600.40625 322.769531 600.328125 321.78125 C 600.175781 319.953125 600.101562 318.125 600.40625 316.375 C 600.558594 315.539062 600.558594 314.625 601.015625 313.863281 C 600.023438 313.480469 599.109375 313.9375 598.273438 313.480469 C 595.914062 313.480469 593.632812 313.175781 591.421875 312.417969 C 590.28125 312.035156 589.292969 311.503906 588.53125 310.511719 C 587.695312 309.371094 586.628906 308.457031 585.5625 307.695312 C 584.34375 306.78125 583.507812 305.640625 583.050781 304.269531 C 582.441406 302.519531 581.375 301.148438 580.160156 299.855469 C 579.929688 299.628906 579.777344 299.398438 579.550781 299.171875 C 577.648438 297.421875 577.265625 295.289062 578.253906 292.929688 C 578.179688 292.851562 578.105469 292.699219 578.027344 292.625 C 574.832031 290.570312 572.777344 287.601562 571.253906 284.25 C 571.023438 283.792969 570.796875 283.261719 570.644531 282.804688 C 570.113281 281.511719 569.65625 280.140625 569.351562 278.769531 C 569.121094 277.855469 568.894531 276.941406 568.664062 276.03125 C 568.359375 274.660156 568.132812 273.289062 567.902344 271.84375 C 567.828125 271.539062 567.828125 271.234375 567.753906 270.851562 C 567.675781 270.546875 567.675781 270.242188 567.675781 269.863281 C 567.601562 269.253906 567.601562 268.570312 567.601562 267.882812 C 567.675781 263.773438 567.523438 259.664062 567.675781 255.550781 C 567.675781 255.09375 567.753906 254.640625 567.753906 254.105469 C 567.828125 253.039062 567.828125 251.972656 567.980469 250.910156 C 567.980469 250.453125 568.054688 249.996094 568.132812 249.539062 C 568.285156 248.472656 568.359375 247.484375 568.4375 246.417969 C 568.4375 246.113281 568.511719 245.730469 568.511719 245.429688 C 568.511719 244.972656 568.589844 244.515625 568.589844 244.058594 C 568.589844 243.601562 568.664062 243.144531 568.742188 242.6875 C 568.816406 241.773438 568.96875 240.859375 569.046875 240.023438 C 569.273438 238.195312 569.503906 236.445312 569.730469 234.617188 C 570.113281 232.03125 570.414062 229.441406 570.871094 226.855469 C 571.40625 223.65625 572.015625 220.535156 572.625 217.339844 C 572.777344 216.425781 573.003906 215.433594 573.15625 214.523438 C 573.460938 212.769531 573.839844 211.097656 574.144531 209.421875 C 574.449219 207.746094 574.832031 205.996094 575.210938 204.320312 C 575.972656 200.4375 576.886719 196.632812 578.179688 192.902344 C 579.703125 188.335938 581.527344 183.996094 584.039062 179.886719 C 584.574219 178.972656 585.105469 178.136719 585.714844 177.296875 C 586.78125 175.773438 587.847656 174.253906 589.0625 172.882812 C 589.824219 171.96875 590.664062 171.054688 591.5 170.140625 C 591.804688 169.835938 592.109375 169.53125 592.414062 169.304688 C 594.316406 167.554688 596.445312 166.183594 598.730469 164.890625 C 599.1875 164.660156 599.566406 164.433594 600.023438 164.203125 C 600.175781 164.128906 600.253906 164.050781 600.40625 163.976562 C 600.710938 163.824219 601.015625 163.671875 601.320312 163.519531 C 601.46875 163.441406 601.621094 163.367188 601.773438 163.289062 C 602.078125 163.140625 602.382812 163.0625 602.6875 162.910156 C 602.839844 162.835938 602.992188 162.835938 603.070312 162.757812 C 603.527344 162.605469 603.984375 162.453125 604.4375 162.300781 L 604.515625 162.148438 C 604.515625 162.148438 606.722656 161.464844 608.777344 161.082031 C 608.777344 161.160156 608.703125 161.160156 608.703125 161.234375 C 608.625 162.074219 609.007812 162.683594 609.691406 163.0625 C 610.148438 163.367188 610.605469 163.671875 611.136719 163.898438 C 614.484375 165.269531 617.453125 167.171875 620.117188 169.683594 C 623.847656 173.261719 627.273438 177.222656 631.003906 180.875 C 633.132812 182.929688 635.265625 184.910156 637.550781 186.8125 C 639.910156 188.714844 642.269531 190.695312 644.398438 192.902344 C 644.550781 193.054688 644.703125 193.207031 644.933594 193.285156 C 645.539062 193.4375 646.148438 193.664062 646.757812 194.042969 C 650.414062 196.101562 654.140625 197.925781 658.101562 199.070312 C 663.199219 200.515625 668.375 201.046875 673.476562 199.296875 C 673.929688 199.144531 674.160156 198.535156 674.617188 198.839844 C 674.921875 198.6875 676.441406 197.242188 676.671875 197.011719 C 678.878906 195.339844 679.714844 195.109375 681.617188 193.207031 C 682.074219 192.75 682.304688 192.140625 682.914062 191.835938 C 682.914062 191.835938 685.273438 193.664062 688.316406 196.328125 C 687.632812 195.644531 687.023438 195.035156 686.339844 194.347656 C 685.347656 193.359375 684.28125 192.371094 682.914062 191.835938 C 683.140625 190.769531 684.511719 189.554688 685.121094 188.640625 C 686.035156 187.421875 686.945312 186.128906 687.785156 184.832031 C 690.980469 180.191406 693.644531 175.015625 697.601562 170.902344 C 699.582031 168.847656 701.714844 166.714844 703.84375 164.890625 C 705.976562 163.0625 708.410156 161.617188 710.160156 159.484375 C 710.769531 158.800781 711.226562 158.039062 711.914062 157.351562 C 713.664062 155.449219 716.097656 153.929688 718.230469 152.40625 C 720.4375 150.808594 722.644531 149.285156 724.851562 147.6875 C 726.375 146.621094 727.972656 145.554688 729.496094 144.566406 L 729.265625 41.570312 C 729.265625 38.90625 731.398438 36.699219 734.0625 36.699219 L 802.183594 36.621094 L 821.746094 56.1875 L 821.820312 87.777344 L 831.5625 87.777344 C 832.78125 87.777344 833.695312 88.765625 833.695312 89.910156 C 833.695312 91.125 832.707031 92.039062 831.5625 92.039062 L 821.820312 92.039062 L 821.820312 97.671875 L 831.5625 97.671875 C 832.78125 97.671875 833.695312 98.664062 833.695312 99.804688 C 833.695312 101.023438 832.707031 101.9375 831.5625 101.9375 L 821.820312 101.9375 L 821.820312 107.570312 L 831.5625 107.570312 C 832.78125 107.570312 833.695312 108.558594 833.695312 109.699219 C 833.695312 110.84375 832.707031 111.832031 831.5625 111.832031 L 821.820312 111.832031 L 821.820312 117.464844 L 831.5625 117.464844 C 832.78125 117.464844 833.695312 118.453125 833.695312 119.597656 C 833.695312 120.8125 832.707031 121.726562 831.5625 121.726562 L 821.746094 121.726562 L 821.746094 127.359375 L 831.5625 127.359375 C 832.78125 127.359375 833.695312 128.351562 833.695312 129.492188 C 833.695312 130.710938 832.707031 131.625 831.5625 131.625 L 821.746094 131.625 L 821.746094 137.257812 L 831.5625 137.257812 C 832.78125 137.257812 833.695312 138.246094 833.695312 139.386719 C 833.695312 140.53125 832.707031 141.519531 831.5625 141.519531 L 821.746094 141.519531 L 821.746094 147.152344 L 831.5625 147.152344 C 832.78125 147.152344 833.695312 148.140625 833.695312 149.285156 C 833.695312 150.503906 832.707031 151.414062 831.5625 151.414062 L 820.222656 151.414062 C 819.386719 152.253906 818.167969 152.785156 816.875 152.785156 L 733.984375 152.863281 C 733.527344 152.863281 733.074219 152.785156 732.691406 152.710938 C 730.105469 155.144531 727.59375 157.65625 725.082031 160.171875 C 725.003906 160.246094 725.003906 160.320312 725.003906 160.398438 C 725.15625 159.941406 728.429688 160.703125 728.808594 160.929688 C 730.410156 161.921875 730.636719 163.59375 730.027344 165.117188 C 730.105469 165.117188 730.179688 165.195312 730.332031 165.195312 C 736.496094 168.46875 740.53125 173.414062 743.042969 179.886719 C 744.261719 182.929688 744.871094 186.128906 745.402344 189.402344 C 745.9375 192.902344 746.621094 196.328125 747.152344 199.832031 C 747.535156 202.722656 748.066406 205.539062 748.296875 208.433594 C 748.449219 210.945312 748.675781 213.457031 748.828125 215.890625 C 748.902344 217.414062 748.828125 218.9375 749.054688 220.382812 C 749.4375 222.894531 749.132812 225.40625 749.4375 227.917969 C 749.664062 229.59375 749.359375 231.269531 749.511719 233.019531 C 749.742188 235.609375 749.589844 238.195312 749.816406 240.785156 C 749.96875 243.371094 750.046875 245.960938 750.351562 248.550781 C 750.65625 251.367188 750.808594 254.105469 751.035156 256.921875 C 751.1875 258.824219 751.261719 260.730469 751.414062 262.632812 C 751.644531 264.992188 751.492188 267.273438 751.871094 269.636719 C 752.253906 270.777344 752.175781 271.539062 752.175781 272.300781 Z M 651.554688 216.195312 C 653.761719 214.597656 655.96875 212.921875 658.25 211.402344 C 659.164062 210.792969 660.078125 210.183594 660.839844 209.34375 C 658.632812 208.355469 656.578125 207.136719 654.980469 205.160156 C 656.957031 206.679688 659.011719 208.050781 661.296875 208.964844 C 662.4375 208.128906 663.65625 207.367188 664.722656 206.453125 C 666.777344 204.703125 668.90625 202.648438 671.191406 201.277344 C 671.800781 200.894531 672.636719 200.285156 673.019531 199.601562 C 672.484375 199.144531 671.800781 200.210938 671.265625 200.285156 C 667.234375 201.125 663.199219 200.894531 659.164062 199.90625 C 654.980469 198.917969 651.097656 197.089844 647.367188 195.035156 C 646.605469 194.578125 645.921875 193.816406 644.933594 194.121094 C 645.617188 197.316406 646.53125 200.4375 647.519531 203.558594 C 648.203125 205.539062 648.585938 207.519531 648.738281 209.574219 C 648.890625 211.859375 649.195312 214.21875 649.574219 216.5 C 649.804688 216.804688 650.03125 217.109375 650.335938 217.261719 C 650.714844 217.035156 651.019531 216.578125 651.554688 216.195312 Z M 692.503906 259.96875 C 691.816406 257.988281 690.90625 256.160156 689.992188 254.257812 C 688.546875 251.136719 687.402344 247.941406 687.175781 244.515625 C 687.097656 243.21875 686.945312 241.925781 686.792969 240.632812 C 686.71875 240.328125 686.71875 240.023438 686.640625 239.71875 C 686.640625 239.71875 686.640625 239.640625 686.640625 239.640625 C 686.566406 239.109375 686.414062 238.578125 686.339844 238.042969 C 686.261719 237.664062 686.1875 237.28125 686.1875 236.824219 C 686.1875 236.75 686.109375 236.75 686.109375 236.671875 C 685.652344 237.054688 685.273438 237.511719 684.890625 237.890625 L 662.667969 258.75 L 657.949219 263.164062 L 652.46875 268.492188 L 652.46875 276.179688 L 681.390625 271.765625 L 681.542969 267.882812 C 682.074219 267.730469 682.609375 267.578125 683.140625 267.273438 C 684.511719 266.589844 685.652344 265.523438 687.023438 264.761719 C 688.394531 264 689.914062 263.546875 691.4375 263.394531 C 692.273438 263.316406 692.730469 262.707031 692.730469 261.871094 C 692.730469 261.261719 692.730469 260.652344 692.503906 259.96875 Z M 663.808594 266.4375 C 663.882812 266.742188 663.882812 266.972656 663.960938 267.199219 C 663.960938 267.121094 663.960938 267.046875 663.960938 267.046875 C 663.960938 266.894531 663.882812 266.820312 663.882812 266.667969 C 663.882812 266.589844 663.808594 266.515625 663.808594 266.4375 Z M 663.425781 263.851562 C 663.425781 264 663.503906 264.230469 663.503906 264.382812 C 663.503906 264.304688 663.503906 264.152344 663.425781 264 C 663.425781 263.925781 663.425781 263.925781 663.425781 263.851562 Z M 662.894531 259.054688 C 662.894531 259.128906 662.894531 259.28125 662.894531 259.359375 C 662.894531 259.28125 662.894531 259.207031 662.894531 259.207031 C 662.894531 259.128906 662.894531 259.054688 662.894531 259.054688 Z M 662.894531 259.359375 C 662.894531 259.433594 662.894531 259.433594 662.894531 259.511719 C 662.972656 259.511719 662.894531 259.433594 662.894531 259.359375 Z M 662.972656 259.664062 C 662.972656 259.738281 662.972656 259.890625 662.972656 259.96875 C 662.972656 259.890625 662.972656 259.816406 662.972656 259.664062 Z M 663.046875 260.578125 C 663.046875 260.5 663.046875 260.347656 663.046875 260.273438 C 663.046875 260.347656 663.046875 260.425781 663.046875 260.578125 Z M 663.199219 261.792969 C 663.199219 261.792969 663.199219 261.871094 663.199219 261.792969 C 663.199219 261.566406 663.125 261.335938 663.125 261.109375 C 663.125 261.335938 663.199219 261.566406 663.199219 261.792969 Z M 834 159.5625 C 834 158.34375 833.011719 157.429688 831.867188 157.429688 L 768.769531 157.65625 C 767.550781 157.65625 766.640625 158.648438 766.640625 159.789062 C 766.640625 160.929688 767.628906 161.921875 768.769531 161.921875 L 831.945312 161.691406 C 833.011719 161.769531 834 160.777344 834 159.5625 Z M 774.402344 199.980469 L 774.402344 252.429688 L 866.425781 252.429688 L 866.425781 199.980469 Z M 644.398438 136.570312 C 647.0625 138.628906 650.03125 140.074219 653.378906 140.683594 C 654.902344 140.910156 656.347656 141.0625 657.871094 141.292969 C 660.15625 141.597656 662.4375 141.519531 664.644531 140.757812 C 679.335938 135.886719 685.730469 121.5 686.414062 107.035156 C 686.640625 101.9375 686.109375 96.835938 685.042969 92.191406 C 684.585938 90.210938 684.128906 88.15625 683.21875 86.253906 C 682.761719 85.492188 682.378906 84.65625 681.769531 83.96875 C 679.792969 81.609375 677.585938 79.554688 675.148438 77.804688 C 668.527344 73.160156 661.21875 71.714844 653.378906 73.542969 C 647.519531 74.910156 642.421875 77.878906 638.003906 81.914062 C 634.960938 84.730469 632.222656 87.851562 630.394531 91.660156 C 630.164062 91.734375 630.164062 92.039062 630.164062 92.191406 C 629.253906 94.476562 628.71875 96.835938 628.644531 99.195312 C 628.109375 113.355469 632.90625 127.816406 644.398438 136.570312 Z M 644.398438 136.570312 " fill-opacity="1" fill-rule="nonzero"/><g clip-path="url(#f99f8eb9fd)"><path fill="#418aff" d="M 796.398438 60.21875 L 754.765625 60.296875 C 753.625 60.296875 752.710938 59.382812 752.710938 58.242188 C 752.710938 57.097656 753.625 56.1875 754.765625 56.1875 L 796.476562 56.109375 C 797.617188 56.109375 798.53125 57.023438 798.53125 58.164062 C 798.453125 59.308594 797.542969 60.21875 796.398438 60.21875 Z M 812.078125 72.019531 C 812.078125 70.878906 811.164062 69.964844 810.023438 69.964844 L 741.140625 70.039062 C 740 70.039062 739.085938 70.953125 739.085938 72.09375 C 739.085938 73.238281 740 74.152344 741.140625 74.152344 L 810.023438 74.074219 C 811.164062 74.074219 812.078125 73.160156 812.078125 72.019531 Z M 812.078125 82.449219 C 812.078125 81.304688 811.164062 80.394531 810.023438 80.394531 L 741.140625 80.46875 C 740 80.46875 739.085938 81.382812 739.085938 82.523438 C 739.085938 83.667969 740 84.578125 741.140625 84.578125 L 810.023438 84.503906 C 811.164062 84.503906 812.078125 83.589844 812.078125 82.449219 Z M 812.078125 92.878906 C 812.078125 91.734375 811.164062 90.820312 810.023438 90.820312 L 741.140625 90.898438 C 740 90.898438 739.085938 91.8125 739.085938 92.953125 C 739.085938 94.09375 740 95.007812 741.140625 95.007812 L 810.023438 94.933594 C 811.164062 94.933594 812.078125 93.941406 812.078125 92.878906 Z M 812.15625 103.230469 C 812.15625 102.089844 811.242188 101.175781 810.101562 101.175781 L 741.214844 101.25 C 740.074219 101.25 739.160156 102.164062 739.160156 103.304688 C 739.160156 104.449219 740.074219 105.359375 741.214844 105.359375 L 810.101562 105.285156 C 811.164062 105.285156 812.15625 104.371094 812.15625 103.230469 Z M 812.15625 113.660156 C 812.15625 112.515625 811.242188 111.601562 810.101562 111.601562 L 741.214844 111.679688 C 740.074219 111.679688 739.160156 112.59375 739.160156 113.734375 C 739.160156 114.875 740.074219 115.789062 741.214844 115.789062 L 810.101562 115.714844 C 811.242188 115.714844 812.15625 114.800781 812.15625 113.660156 Z M 812.15625 124.085938 C 812.15625 122.945312 811.242188 122.03125 810.101562 122.03125 L 741.214844 122.109375 C 740.074219 122.109375 739.160156 123.023438 739.160156 124.164062 C 739.160156 125.304688 740.074219 126.21875 741.214844 126.21875 L 810.101562 126.144531 C 811.242188 126.144531 812.15625 125.152344 812.15625 124.085938 Z M 868.9375 198.992188 L 868.9375 260.957031 C 868.9375 262.707031 867.488281 264.078125 865.816406 264.078125 L 769.074219 264.078125 C 767.324219 264.078125 765.953125 262.632812 765.953125 260.957031 L 765.953125 216.578125 C 765.953125 214.828125 767.398438 213.457031 769.074219 213.457031 L 822.203125 213.457031 C 823.421875 213.457031 824.5625 212.695312 825.09375 211.554688 L 832.25 197.699219 C 832.78125 196.558594 833.921875 195.796875 835.140625 195.796875 L 865.816406 195.796875 C 867.488281 195.796875 868.9375 197.242188 868.9375 198.992188 Z M 820.375 228.832031 C 820.375 228.375 819.996094 227.996094 819.539062 227.996094 L 777.066406 227.996094 C 776.609375 227.996094 776.230469 228.375 776.230469 228.832031 C 776.230469 229.289062 776.609375 229.671875 777.066406 229.671875 L 819.539062 229.671875 C 819.996094 229.671875 820.375 229.289062 820.375 228.832031 Z M 820.375 221.980469 C 820.375 221.523438 819.996094 221.144531 819.539062 221.144531 L 777.066406 221.144531 C 776.609375 221.144531 776.230469 221.523438 776.230469 221.980469 C 776.230469 222.4375 776.609375 222.820312 777.066406 222.820312 L 819.539062 222.820312 C 819.996094 222.820312 820.375 222.4375 820.375 221.980469 Z M 820.375 221.980469 " fill-opacity="1" fill-rule="nonzero"/></g><path fill="#9c6afd" d="M 692.503906 259.96875 C 692.730469 260.578125 692.730469 261.261719 692.730469 261.871094 C 692.730469 262.707031 692.199219 263.242188 691.4375 263.394531 C 689.914062 263.546875 688.394531 264.078125 687.023438 264.761719 C 685.652344 265.523438 684.511719 266.589844 683.140625 267.273438 C 682.609375 267.578125 682.074219 267.730469 681.542969 267.882812 L 681.542969 267.808594 C 681.542969 267.808594 679.714844 268.035156 676.671875 267.65625 C 673.628906 267.273438 669.972656 269.40625 667.996094 269.863281 C 666.015625 270.394531 664.722656 270.320312 664.113281 267.578125 C 663.503906 265.066406 662.972656 259.359375 662.894531 258.519531 L 662.742188 258.671875 L 684.96875 237.816406 C 685.347656 237.433594 685.804688 237.054688 686.1875 236.597656 C 686.1875 236.671875 686.261719 236.671875 686.261719 236.75 C 686.261719 238.042969 686.71875 239.261719 686.871094 240.554688 C 687.023438 241.851562 687.097656 243.144531 687.25 244.4375 C 687.480469 247.941406 688.621094 251.136719 690.066406 254.183594 C 690.828125 256.160156 691.742188 257.988281 692.503906 259.96875 Z M 671.265625 200.4375 C 667.234375 201.277344 663.199219 201.046875 659.164062 200.058594 C 654.980469 199.070312 651.097656 197.242188 647.367188 195.1875 C 646.605469 194.730469 645.921875 193.96875 644.933594 194.273438 C 645.617188 197.46875 646.53125 200.589844 647.519531 203.710938 C 648.203125 205.691406 648.585938 207.671875 648.738281 209.726562 C 648.890625 212.011719 649.195312 214.371094 649.574219 216.652344 C 649.804688 216.957031 650.03125 217.261719 650.335938 217.414062 C 650.714844 216.957031 651.019531 216.5 651.476562 216.195312 C 653.683594 214.597656 655.890625 212.921875 658.175781 211.402344 C 659.089844 210.792969 660.003906 210.183594 660.765625 209.34375 C 658.554688 208.355469 656.5 207.136719 654.902344 205.160156 C 656.882812 206.679688 658.9375 208.050781 661.21875 208.964844 C 662.363281 208.128906 663.578125 207.367188 664.644531 206.453125 C 666.699219 204.703125 668.832031 202.648438 671.117188 201.277344 C 671.722656 200.894531 672.5625 200.285156 672.941406 199.601562 C 672.484375 199.296875 671.875 200.285156 671.265625 200.4375 Z M 710.542969 159.636719 C 707.953125 161.921875 705.289062 164.050781 702.777344 166.335938 C 698.59375 169.988281 694.863281 174.023438 691.96875 178.742188 C 689.535156 182.625 687.097656 186.507812 684.28125 190.164062 C 683.828125 190.769531 683.292969 191.378906 682.683594 191.835938 C 682.074219 192.140625 681.847656 192.75 681.390625 193.207031 C 679.488281 195.109375 678.652344 195.339844 676.441406 197.011719 C 676.140625 197.242188 674.691406 198.6875 674.386719 198.839844 C 673.929688 198.535156 673.703125 199.144531 673.246094 199.296875 C 668.070312 201.125 662.972656 200.515625 657.871094 199.070312 C 653.835938 197.925781 650.109375 196.101562 646.53125 194.042969 C 645.996094 193.742188 645.386719 193.4375 644.703125 193.285156 C 644.550781 193.132812 644.324219 193.054688 644.171875 192.902344 C 642.039062 190.695312 639.679688 188.714844 637.320312 186.8125 C 635.035156 184.984375 632.90625 182.929688 630.773438 180.875 C 627.046875 177.222656 623.695312 173.261719 619.890625 169.683594 C 617.300781 167.171875 614.257812 165.195312 610.910156 163.898438 C 610.375 163.671875 609.917969 163.367188 609.460938 163.0625 C 608.777344 162.683594 608.398438 162.074219 608.472656 161.234375 C 608.625 160.472656 609.234375 160.167969 609.84375 159.941406 C 611.746094 159.332031 613.34375 158.265625 614.867188 156.972656 C 615.398438 156.515625 616.085938 156.136719 616.695312 155.753906 C 618.367188 154.765625 620.195312 154.535156 622.097656 154.992188 C 626.207031 161.996094 631.15625 168.164062 639.070312 171.132812 C 637.546875 170.21875 635.949219 169.378906 634.503906 168.390625 C 629.785156 165.269531 626.359375 161.007812 623.542969 156.210938 C 623.390625 155.984375 623.316406 155.753906 623.390625 155.449219 C 623.847656 155.449219 624.382812 155.449219 624.835938 155.449219 C 626.132812 155.375 627.046875 154.765625 627.652344 153.699219 C 627.804688 153.394531 627.957031 153.089844 628.109375 152.785156 C 628.492188 151.566406 629.253906 150.578125 630.316406 149.816406 C 631.917969 148.597656 632.070312 147 631.992188 145.171875 C 631.839844 141.976562 630.316406 139.386719 628.949219 136.648438 C 626.285156 131.015625 623.695312 125.304688 621.71875 119.445312 C 620.042969 114.269531 618.671875 109.015625 617.757812 103.609375 C 616.996094 98.738281 616.695312 93.867188 616.996094 88.996094 C 617.226562 85.644531 617.988281 82.449219 618.824219 79.175781 C 620.652344 72.246094 623.773438 66.003906 628.339844 60.449219 C 632.753906 55.042969 638.308594 51.3125 644.703125 48.878906 C 648.128906 47.582031 651.78125 46.898438 655.4375 46.671875 C 656.195312 46.59375 656.882812 46.441406 657.644531 46.441406 C 661.296875 46.289062 664.796875 46.898438 668.300781 47.8125 C 672.867188 49.03125 677.050781 50.933594 680.78125 53.671875 C 684.28125 56.1875 687.097656 59.308594 689.15625 63.113281 C 692.273438 68.972656 694.332031 75.140625 695.546875 81.6875 C 696.613281 87.699219 696.84375 93.714844 696.539062 99.804688 C 696.386719 103.457031 695.625 107.113281 694.9375 110.691406 C 693.644531 117.390625 691.816406 123.933594 689.761719 130.480469 C 688.773438 133.679688 688.089844 137.027344 687.707031 140.378906 C 687.402344 142.738281 687.785156 145.019531 689.003906 147.152344 C 688.089844 147.839844 687.023438 147.761719 686.035156 147.761719 C 678.117188 147.988281 670.277344 147.6875 662.589844 145.554688 C 660.914062 145.097656 659.164062 144.566406 657.492188 144.03125 C 657.796875 144.414062 658.328125 144.566406 658.785156 144.71875 C 665.40625 147.078125 672.257812 148.21875 679.335938 148.21875 C 681.617188 148.21875 683.828125 148.21875 686.109375 148.21875 C 687.25 148.21875 688.316406 147.988281 689.382812 147.535156 C 692.199219 147.230469 695.015625 146.925781 697.90625 146.621094 C 699.429688 146.46875 700.953125 146.085938 702.550781 146.46875 C 703.691406 146.773438 704.53125 147.382812 705.0625 148.445312 C 705.671875 149.816406 705.898438 151.261719 705.976562 152.710938 C 706.128906 154.6875 706.433594 155.070312 708.335938 155.527344 C 709.019531 155.679688 709.78125 155.90625 710.390625 156.210938 C 710.921875 156.441406 711.378906 156.746094 711.457031 157.429688 C 711.761719 158.496094 711.074219 159.105469 710.542969 159.636719 Z M 653.378906 140.683594 C 654.902344 140.910156 656.347656 141.0625 657.871094 141.292969 C 660.15625 141.597656 662.4375 141.519531 664.644531 140.757812 C 679.335938 135.886719 685.730469 121.5 686.414062 107.035156 C 686.640625 101.9375 686.109375 96.835938 685.042969 92.191406 C 684.585938 90.210938 684.128906 88.15625 683.21875 86.253906 C 682.988281 85.265625 682.609375 84.273438 682.152344 83.363281 C 680.554688 80.011719 678.804688 76.738281 676.898438 73.464844 C 674.84375 69.964844 672.5625 66.691406 669.363281 64.101562 C 664.492188 60.21875 659.164062 59.761719 653.53125 61.589844 C 648.28125 63.339844 644.171875 66.84375 640.746094 71.105469 C 636.332031 76.816406 633.058594 83.132812 630.699219 89.984375 C 630.46875 90.515625 630.242188 91.125 630.316406 91.734375 C 630.164062 91.886719 630.242188 92.117188 630.089844 92.269531 C 629.175781 94.550781 628.644531 96.910156 628.566406 99.269531 C 628.109375 113.277344 632.90625 127.816406 644.398438 136.570312 C 647.0625 138.628906 650.03125 140.074219 653.378906 140.683594 Z M 790.082031 141.140625 C 788.027344 141.140625 786.046875 141.214844 783.992188 141.214844 C 783.6875 141.214844 783.382812 140.835938 783.613281 140.53125 C 783.613281 140.53125 783.613281 140.53125 783.535156 140.453125 C 783.460938 140.378906 783.460938 140.378906 783.382812 140.300781 C 783.308594 140.226562 783.15625 140.148438 783.003906 140.148438 C 782.621094 140.148438 782.242188 140.605469 781.9375 140.757812 C 781.253906 141.214844 780.414062 141.519531 779.578125 141.445312 C 779.199219 141.445312 778.816406 141.367188 778.359375 141.214844 C 777.980469 141.597656 777.597656 141.898438 777.140625 142.128906 C 775.316406 142.890625 773.414062 142.128906 772.269531 140.757812 C 770.597656 141.976562 768.464844 142.660156 766.410156 143.042969 C 765.800781 143.117188 765.574219 142.28125 766.183594 142.128906 C 768.085938 141.75 770.214844 141.214844 771.738281 139.996094 C 771.359375 139.3125 771.128906 138.550781 771.128906 137.714844 C 771.207031 136.496094 772.042969 134.59375 773.566406 135.050781 C 774.859375 135.429688 774.78125 137.105469 774.328125 138.09375 C 773.945312 138.929688 773.488281 139.617188 772.878906 140.148438 C 774.023438 141.519531 776.078125 142.050781 777.445312 140.835938 C 776.761719 140.378906 776.304688 139.617188 776.609375 138.777344 C 776.839844 138.171875 777.371094 137.714844 778.054688 137.789062 C 778.742188 137.867188 779.121094 138.398438 779.199219 139.007812 C 779.273438 139.539062 779.121094 140.074219 778.894531 140.53125 C 779.273438 140.605469 779.730469 140.683594 780.1875 140.605469 C 780.796875 140.53125 781.328125 140.148438 781.863281 139.769531 C 782.242188 139.464844 782.699219 139.234375 783.15625 139.3125 C 783.613281 139.386719 784.222656 139.769531 784.449219 140.300781 C 786.351562 140.300781 788.179688 140.226562 790.082031 140.226562 C 790.691406 140.226562 790.691406 141.140625 790.082031 141.140625 Z M 772.269531 139.082031 C 772.347656 139.234375 772.347656 139.3125 772.421875 139.464844 C 772.804688 139.082031 773.109375 138.703125 773.414062 138.171875 C 773.640625 137.714844 773.871094 137.179688 773.792969 136.648438 C 773.71875 136.265625 773.488281 135.808594 773.03125 135.960938 C 772.421875 136.191406 772.195312 136.875 772.117188 137.410156 C 772.042969 138.019531 772.117188 138.550781 772.269531 139.082031 Z M 778.132812 140.226562 C 778.359375 139.921875 778.4375 139.539062 778.359375 139.160156 C 778.285156 138.550781 777.597656 138.78125 777.523438 139.234375 C 777.523438 139.617188 777.828125 139.996094 778.132812 140.226562 Z M 783.613281 140.605469 Z M 812.003906 134.667969 L 810.328125 136.191406 C 810.9375 137.332031 811.242188 138.628906 811.164062 139.996094 C 810.9375 144.03125 807.511719 147.230469 803.402344 147 C 799.292969 146.773438 796.171875 143.347656 796.398438 139.234375 C 796.628906 135.203125 800.054688 132.003906 804.164062 132.234375 C 806.445312 132.386719 808.425781 133.527344 809.644531 135.203125 L 811.164062 133.832031 C 811.394531 133.601562 811.773438 133.601562 812.003906 133.832031 C 812.230469 134.136719 812.230469 134.441406 812.003906 134.667969 Z M 809.566406 136.953125 L 803.933594 142.050781 C 803.859375 142.128906 803.707031 142.203125 803.554688 142.203125 C 803.402344 142.203125 803.324219 142.128906 803.171875 142.050781 L 800.660156 140.074219 C 800.433594 139.84375 800.355469 139.539062 800.585938 139.234375 C 800.8125 139.007812 801.117188 138.929688 801.421875 139.160156 L 803.628906 140.835938 L 809.035156 135.886719 C 807.96875 134.363281 806.21875 133.375 804.238281 133.296875 C 800.738281 133.144531 797.769531 135.808594 797.617188 139.3125 C 797.464844 142.8125 800.128906 145.78125 803.628906 145.933594 C 807.132812 146.085938 810.101562 143.421875 810.253906 139.921875 C 810.253906 138.855469 810.023438 137.867188 809.566406 136.953125 Z M 809.566406 136.953125 " fill-opacity="1" fill-rule="nonzero"/><g clip-path="url(#980901dbec)"><path fill="#343434" d="M 831.261719 199.375 L 830.652344 200.515625 L 774.933594 200.515625 L 774.933594 213.457031 L 773.792969 213.457031 L 773.792969 199.980469 C 773.792969 199.679688 774.023438 199.375 774.402344 199.375 Z M 752.710938 274.582031 C 752.710938 276.332031 752.710938 278.160156 752.710938 279.910156 C 752.558594 283.566406 751.871094 286.761719 750.578125 289.578125 C 749.4375 292.015625 747.535156 294.148438 744.71875 296.277344 C 742.585938 297.875 740.074219 299.09375 737.105469 300.007812 C 735.886719 300.390625 734.59375 300.84375 733.375 301.226562 C 730.941406 302.0625 728.503906 302.902344 725.917969 303.433594 C 725.839844 303.660156 725.6875 303.8125 725.535156 303.890625 C 725.460938 303.890625 725.460938 303.890625 725.382812 303.890625 C 725.382812 303.964844 725.382812 303.964844 725.382812 304.042969 C 725.460938 304.878906 725.382812 305.71875 725.382812 306.554688 C 725.382812 308 725.308594 309.449219 725.613281 310.816406 C 725.613281 310.894531 725.613281 311.046875 725.613281 311.121094 C 725.535156 312.570312 725.613281 314.089844 725.765625 315.539062 C 725.839844 316.753906 725.917969 318.050781 725.917969 319.265625 C 725.917969 320.867188 725.6875 321.171875 724.167969 321.398438 C 722.265625 321.703125 720.285156 321.703125 717.773438 321.476562 C 717.46875 321.398438 717.089844 321.398438 716.785156 321.398438 C 713.433594 321.324219 710.085938 321.476562 706.8125 321.550781 C 705.59375 321.628906 704.378906 321.628906 703.160156 321.703125 C 700.34375 321.78125 696.992188 321.855469 693.644531 321.855469 C 692.046875 321.855469 690.371094 321.933594 688.773438 322.007812 C 686.945312 322.082031 685.042969 322.160156 683.140625 322.160156 C 681.238281 322.082031 680.707031 321.628906 680.707031 319.648438 C 680.707031 316.679688 680.707031 313.710938 680.707031 310.816406 C 680.707031 310.054688 680.554688 309.449219 680.324219 308.914062 L 679.410156 308.992188 C 677.585938 309.066406 675.605469 309.144531 673.777344 309.371094 C 673.550781 309.371094 673.324219 309.449219 673.019531 309.449219 C 670.964844 309.371094 668.832031 309.601562 666.851562 309.828125 C 665.941406 309.902344 665.027344 309.980469 664.035156 310.054688 C 661.601562 310.207031 658.480469 310.4375 655.285156 310.816406 L 654.21875 310.894531 C 652.847656 311.046875 651.476562 311.199219 650.109375 311.425781 C 650.109375 311.425781 650.109375 311.425781 650.03125 311.503906 C 649.878906 312.570312 649.878906 313.632812 649.878906 314.777344 C 649.878906 315.234375 649.878906 315.691406 649.878906 316.144531 L 649.878906 316.984375 C 649.878906 318.203125 649.878906 319.496094 649.652344 320.789062 C 649.5 321.78125 648.964844 322.386719 648.050781 322.617188 C 647.597656 322.691406 647.214844 322.769531 646.757812 322.84375 C 643.941406 322.996094 641.125 322.996094 638.386719 323.074219 C 636.179688 323.074219 633.820312 323.074219 631.535156 323.226562 C 629.710938 323.300781 627.882812 323.300781 626.132812 323.300781 C 623.925781 323.300781 621.566406 323.300781 619.359375 323.453125 C 618.367188 323.53125 617.453125 323.53125 616.464844 323.53125 C 615.246094 323.53125 613.953125 323.53125 612.734375 323.683594 C 611.367188 323.835938 609.996094 323.835938 608.625 323.835938 C 607.484375 323.835938 606.265625 323.835938 605.046875 323.910156 C 604.667969 323.910156 604.285156 323.988281 603.90625 323.988281 C 603.296875 323.988281 602.6875 323.988281 602.15625 323.910156 L 601.546875 323.910156 C 600.558594 323.835938 599.644531 323.605469 599.566406 322.082031 C 599.414062 320.332031 599.339844 318.429688 599.644531 316.527344 C 599.644531 316.375 599.71875 316.144531 599.71875 315.992188 C 599.796875 315.539062 599.871094 315.003906 600.023438 314.546875 C 599.871094 314.546875 599.644531 314.546875 599.492188 314.546875 C 599.035156 314.546875 598.503906 314.546875 597.96875 314.320312 C 595.457031 314.320312 593.175781 313.9375 591.042969 313.253906 C 589.597656 312.796875 588.605469 312.113281 587.847656 311.199219 C 587.160156 310.285156 586.246094 309.371094 584.953125 308.457031 C 583.660156 307.542969 582.746094 306.328125 582.289062 304.804688 C 581.984375 303.964844 581.527344 303.128906 580.917969 302.292969 C 580.917969 302.292969 580.84375 302.214844 580.84375 302.140625 C 580.464844 301.605469 580.007812 301.148438 579.472656 300.617188 L 579.246094 300.390625 C 579.09375 300.238281 579.015625 300.160156 578.863281 300.007812 C 576.886719 298.179688 576.351562 295.972656 577.265625 293.460938 C 573.992188 291.332031 571.710938 288.210938 569.808594 283.414062 C 568.285156 279.683594 567.601562 275.726562 567.066406 272.375 C 566.914062 271.234375 566.6875 269.789062 566.6875 268.417969 C 566.6875 266.820312 566.6875 265.21875 566.6875 263.621094 C 566.6875 261.109375 566.6875 258.519531 566.761719 256.007812 L 566.761719 255.550781 C 566.839844 253.726562 566.914062 251.898438 567.144531 249.996094 C 567.296875 248.703125 567.449219 247.332031 567.523438 245.882812 C 567.601562 244.285156 567.828125 242.6875 567.980469 241.089844 L 568.054688 240.402344 C 568.207031 238.804688 568.4375 237.128906 568.742188 235 L 568.96875 233.324219 C 569.273438 231.34375 569.578125 229.214844 569.882812 227.160156 C 570.566406 223.199219 571.328125 219.164062 572.167969 214.828125 C 572.625 212.3125 573.15625 209.726562 573.6875 207.289062 L 574.222656 204.550781 C 575.136719 200.058594 576.046875 196.40625 577.191406 193.054688 C 578.789062 188.105469 580.765625 183.84375 583.128906 179.960938 C 585.488281 176.078125 587.921875 172.882812 590.664062 170.066406 C 592.566406 168.164062 594.847656 166.410156 597.96875 164.660156 C 601.167969 162.835938 604.363281 161.691406 607.636719 161.160156 C 607.941406 161.082031 608.246094 161.3125 608.320312 161.617188 C 608.398438 161.921875 608.167969 162.226562 607.863281 162.300781 C 604.742188 162.835938 601.699219 163.898438 598.578125 165.652344 C 595.535156 167.324219 593.328125 169 591.5 170.828125 C 588.835938 173.566406 586.398438 176.6875 584.117188 180.496094 C 581.832031 184.300781 579.929688 188.488281 578.332031 193.359375 C 577.265625 196.632812 576.351562 200.285156 575.441406 204.703125 L 574.90625 207.441406 C 574.375 209.878906 573.839844 212.464844 573.382812 214.980469 C 572.546875 219.394531 571.785156 223.351562 571.175781 227.3125 C 570.796875 229.367188 570.566406 231.421875 570.265625 233.402344 L 570.035156 235.074219 C 569.730469 237.207031 569.503906 238.882812 569.351562 240.480469 L 569.273438 241.164062 C 569.121094 242.6875 568.894531 244.285156 568.816406 245.882812 C 568.742188 247.332031 568.589844 248.777344 568.4375 250.070312 C 568.207031 251.898438 568.132812 253.726562 568.054688 255.550781 L 568.054688 256.007812 C 567.980469 258.519531 567.980469 261.109375 567.980469 263.546875 C 567.980469 265.144531 567.980469 266.742188 567.980469 268.339844 C 567.980469 269.636719 568.132812 271.003906 568.285156 272.148438 C 568.816406 275.421875 569.503906 279.226562 570.949219 282.957031 C 572.851562 287.675781 575.136719 290.722656 578.332031 292.699219 C 581.679688 294.753906 584.726562 296.507812 588.226562 297.117188 L 588.304688 297.117188 C 589.976562 297.421875 591.726562 297.800781 593.480469 297.722656 C 594.316406 297.722656 595.152344 297.722656 595.992188 297.722656 C 596.902344 297.722656 597.894531 297.800781 598.882812 297.722656 C 602.992188 297.648438 607.101562 296.8125 611.136719 295.210938 C 615.628906 293.386719 619.585938 291.632812 623.238281 289.730469 C 626.285156 288.132812 629.253906 286.230469 631.6875 284.554688 C 632.601562 283.945312 634.046875 283.109375 635.265625 282.347656 C 636.027344 281.890625 636.710938 281.433594 637.246094 281.128906 C 637.246094 281.128906 637.320312 281.128906 637.320312 281.128906 L 683.980469 237.359375 C 690.980469 230.660156 702.320312 219.394531 702.777344 218.023438 C 702.777344 217.109375 700.496094 212.847656 698.972656 210.488281 L 698.210938 209.34375 C 697.601562 208.433594 696.992188 207.441406 696.386719 206.527344 C 695.472656 205.160156 694.558594 204.015625 693.570312 203.101562 C 692.65625 202.191406 691.667969 201.277344 690.753906 200.285156 C 689.078125 198.613281 687.328125 196.863281 685.578125 195.109375 L 685.5 195.035156 C 684.585938 194.121094 683.75 193.359375 682.609375 192.828125 L 663.65625 208.128906 C 660.078125 211.019531 656.425781 213.988281 652.390625 216.578125 L 589.902344 256.160156 C 589.824219 256.238281 589.671875 256.238281 589.597656 256.238281 C 589.445312 256.238281 589.214844 256.160156 589.140625 256.007812 C 588.988281 255.703125 589.0625 255.398438 589.292969 255.246094 L 610.375 241.621094 L 610.910156 203.863281 C 610.910156 203.558594 611.136719 203.332031 611.519531 203.332031 C 611.820312 203.332031 612.050781 203.558594 612.050781 203.941406 L 611.519531 241.011719 L 651.859375 215.433594 C 654.597656 213.683594 657.261719 211.707031 659.773438 209.648438 C 657.414062 208.507812 654.597656 205.84375 654.445312 205.691406 C 654.21875 205.464844 654.21875 205.082031 654.445312 204.855469 C 654.675781 204.625 655.054688 204.625 655.285156 204.855469 C 655.285156 204.855469 658.554688 207.898438 660.839844 208.8125 C 661.601562 208.203125 662.285156 207.671875 663.046875 207.0625 L 670.429688 201.046875 C 668.984375 201.277344 667.539062 201.351562 666.167969 201.351562 C 653.914062 201.351562 644.703125 194.042969 644.550781 193.890625 C 644.324219 193.664062 644.246094 193.359375 644.476562 193.054688 C 644.703125 192.828125 645.007812 192.75 645.3125 192.980469 C 645.464844 193.054688 657.644531 202.722656 672.332031 199.449219 L 682.226562 191.457031 C 682.457031 190.621094 683.21875 189.78125 683.828125 189.097656 C 684.054688 188.792969 684.359375 188.488281 684.511719 188.257812 C 685.425781 187.042969 686.339844 185.746094 687.175781 184.453125 C 688.164062 183.007812 689.078125 181.558594 689.992188 180.113281 C 692.046875 176.765625 694.253906 173.339844 697.070312 170.445312 C 698.820312 168.621094 701.105469 166.335938 703.386719 164.355469 C 704.074219 163.746094 704.832031 163.214844 705.59375 162.605469 C 707.042969 161.539062 708.488281 160.398438 709.707031 159.027344 C 709.933594 158.722656 710.160156 158.417969 710.390625 158.113281 C 710.695312 157.734375 711.074219 157.277344 711.457031 156.898438 C 712.824219 155.375 714.652344 154.15625 716.328125 152.9375 C 716.859375 152.558594 717.316406 152.253906 717.847656 151.871094 C 718.992188 151.035156 720.132812 150.199219 721.273438 149.4375 C 722.339844 148.675781 723.40625 147.914062 724.472656 147.152344 C 725.917969 146.085938 727.441406 145.171875 728.886719 144.183594 L 728.734375 41.417969 C 728.734375 39.972656 729.265625 38.601562 730.332031 37.613281 C 731.320312 36.621094 732.691406 36.011719 734.136719 36.011719 L 802.261719 36.089844 C 802.335938 36.089844 802.335938 36.089844 802.414062 36.089844 C 802.414062 36.089844 802.414062 36.089844 802.488281 36.089844 C 802.566406 36.089844 802.640625 36.164062 802.640625 36.164062 L 822.203125 55.730469 C 822.277344 55.804688 822.277344 55.804688 822.277344 55.882812 C 822.277344 55.882812 822.277344 55.882812 822.277344 55.957031 C 822.277344 56.035156 822.277344 56.035156 822.277344 56.109375 L 822.429688 148.21875 C 822.429688 149.664062 821.898438 151.035156 820.832031 152.023438 C 819.84375 153.015625 818.472656 153.625 817.027344 153.625 L 734.136719 153.699219 C 733.757812 153.699219 733.375 153.625 732.996094 153.546875 C 730.789062 155.601562 728.582031 157.734375 726.449219 160.019531 C 727.59375 160.171875 728.960938 160.550781 729.265625 160.703125 C 730.257812 161.3125 730.863281 162.226562 731.015625 163.214844 C 731.09375 163.824219 731.09375 164.433594 730.863281 165.042969 C 736.726562 168.238281 741.0625 173.1875 743.652344 179.886719 C 744.945312 183.3125 745.632812 186.8125 746.011719 189.554688 C 746.238281 191.074219 746.542969 192.675781 746.773438 194.195312 C 747.078125 196.101562 747.457031 198.078125 747.761719 199.980469 C 747.839844 200.667969 747.992188 201.429688 748.066406 202.113281 C 748.371094 204.246094 748.75 206.375 748.902344 208.585938 L 749.054688 210.105469 C 749.207031 212.085938 749.359375 214.066406 749.511719 216.042969 C 749.589844 216.652344 749.589844 217.261719 749.589844 217.871094 C 749.589844 218.785156 749.589844 219.699219 749.742188 220.535156 C 749.96875 221.90625 749.96875 223.199219 749.96875 224.492188 C 749.96875 225.636719 749.96875 226.855469 750.121094 228.070312 C 750.273438 228.984375 750.199219 229.976562 750.199219 230.886719 C 750.199219 231.648438 750.121094 232.410156 750.199219 233.171875 C 750.351562 234.617188 750.351562 236.066406 750.351562 237.433594 C 750.351562 238.578125 750.351562 239.792969 750.425781 240.9375 C 750.503906 241.699219 750.503906 242.460938 750.578125 243.21875 C 750.65625 244.972656 750.808594 246.875 750.960938 248.625 C 751.113281 250.375 751.265625 252.125 751.414062 253.878906 C 751.492188 254.941406 751.566406 256.007812 751.644531 257.074219 C 751.71875 257.988281 751.796875 258.824219 751.796875 259.738281 C 751.871094 260.730469 751.871094 261.71875 752.023438 262.785156 C 752.101562 263.773438 752.175781 264.761719 752.175781 265.675781 C 752.253906 267.046875 752.253906 268.417969 752.480469 269.710938 C 752.558594 270.320312 752.558594 270.929688 752.558594 271.460938 C 752.558594 271.691406 752.558594 271.917969 752.558594 272.148438 C 752.710938 273.0625 752.710938 273.820312 752.710938 274.582031 Z M 802.792969 38.066406 L 802.792969 51.390625 C 802.792969 53.75 804.695312 55.652344 807.054688 55.652344 L 820.375 55.652344 L 811.394531 46.671875 Z M 729.875 41.570312 L 730.027344 143.652344 C 731.167969 142.964844 732.386719 142.203125 733.527344 141.445312 C 734.0625 141.0625 734.671875 140.683594 735.28125 140.378906 L 735.8125 139.996094 C 736.117188 139.769531 736.421875 139.617188 736.800781 139.464844 C 737.792969 139.007812 738.78125 138.929688 739.617188 139.386719 C 740.457031 139.84375 740.988281 140.757812 741.140625 141.898438 C 741.367188 144.261719 740.304688 146.085938 739.160156 147.535156 C 737.714844 149.4375 735.964844 151.1875 734.289062 152.710938 C 734.289062 152.710938 734.289062 152.710938 734.367188 152.710938 L 817.253906 152.632812 C 818.394531 152.632812 819.460938 152.175781 820.300781 151.414062 C 821.136719 150.578125 821.515625 149.511719 821.515625 148.371094 L 821.363281 56.792969 L 807.207031 56.792969 C 805.761719 56.792969 804.390625 56.261719 803.402344 55.195312 C 802.414062 54.207031 801.804688 52.835938 801.804688 51.390625 L 801.804688 37.230469 L 734.214844 37.308594 C 733.074219 37.308594 732.007812 37.765625 731.167969 38.523438 C 730.257812 39.363281 729.875 40.429688 729.875 41.570312 Z M 700.417969 209.648438 C 703.386719 208.128906 706.355469 206.148438 709.171875 204.246094 C 710.847656 203.101562 712.671875 201.886719 714.425781 200.820312 C 715.335938 200.285156 716.328125 199.753906 717.46875 199.144531 C 720.4375 197.621094 723.863281 195.871094 725.308594 193.285156 C 725.917969 192.21875 726.601562 191.226562 727.210938 190.316406 L 727.667969 189.707031 C 728.199219 188.867188 728.582031 188.183594 728.886719 187.574219 C 729.722656 185.59375 729.800781 183.996094 729.191406 182.625 C 729.039062 182.398438 728.960938 182.167969 728.808594 181.863281 C 728.429688 181.179688 728.046875 180.417969 727.898438 179.582031 C 727.898438 179.429688 727.820312 179.277344 727.820312 179.199219 C 726.296875 180.039062 719.371094 183.84375 716.175781 186.660156 C 716.097656 186.738281 715.945312 186.8125 715.792969 186.8125 C 715.640625 186.8125 715.488281 186.738281 715.335938 186.585938 C 715.109375 186.355469 715.183594 185.976562 715.414062 185.746094 C 719.066406 182.550781 727.210938 178.210938 727.59375 177.984375 C 727.667969 177.90625 727.746094 177.90625 727.820312 177.90625 C 727.898438 177.375 728.046875 176.839844 728.125 176.308594 C 728.429688 175.242188 728.65625 174.175781 728.277344 173.1875 C 728.125 172.882812 727.972656 172.578125 727.746094 172.273438 C 727.363281 171.816406 726.984375 171.207031 726.90625 170.523438 C 725.003906 171.589844 718.535156 175.167969 715.566406 177.832031 C 715.488281 177.90625 715.335938 177.984375 715.183594 177.984375 C 715.035156 177.984375 714.882812 177.90625 714.730469 177.753906 C 714.5 177.527344 714.578125 177.144531 714.804688 176.917969 C 718.457031 173.71875 726.601562 169.378906 726.984375 169.152344 C 727.058594 169.152344 727.058594 169.078125 727.136719 169.078125 C 727.210938 168.925781 727.289062 168.773438 727.363281 168.695312 C 727.746094 168.011719 728.199219 167.476562 728.734375 166.945312 C 728.886719 166.714844 729.113281 166.5625 729.265625 166.335938 C 729.953125 165.421875 730.332031 164.433594 730.179688 163.519531 C 730.027344 162.835938 729.648438 162.226562 728.960938 161.769531 C 728.582031 161.539062 726.375 161.082031 725.839844 161.160156 C 725.6875 161.3125 725.535156 161.3125 725.308594 161.3125 C 723.175781 162.53125 714.957031 167.324219 712.066406 169.835938 C 711.988281 169.914062 711.835938 169.988281 711.683594 169.988281 C 711.53125 169.988281 711.378906 169.914062 711.226562 169.761719 C 711 169.53125 711.074219 169.152344 711.304688 168.925781 C 714.578125 166.03125 724.167969 160.550781 725.15625 160.019531 C 727.667969 157.429688 730.179688 154.839844 732.84375 152.480469 C 734.671875 150.808594 736.726562 148.902344 738.324219 146.773438 C 739.390625 145.402344 740.304688 143.878906 740.074219 141.898438 C 740 141.140625 739.695312 140.53125 739.160156 140.226562 C 738.703125 139.921875 738.019531 139.996094 737.410156 140.300781 C 737.105469 140.453125 736.800781 140.605469 736.574219 140.835938 L 735.964844 141.214844 C 735.433594 141.597656 734.824219 141.898438 734.289062 142.28125 C 733.074219 143.117188 731.855469 143.878906 730.636719 144.640625 C 728.808594 145.78125 726.984375 146.925781 725.234375 148.21875 C 724.167969 148.980469 723.101562 149.742188 722.035156 150.503906 C 720.894531 151.339844 719.753906 152.101562 718.609375 152.9375 C 718.078125 153.320312 717.621094 153.625 717.089844 154.003906 C 715.414062 155.144531 713.664062 156.363281 712.371094 157.808594 C 712.066406 158.191406 711.761719 158.570312 711.378906 158.953125 C 711.152344 159.257812 710.921875 159.5625 710.617188 159.867188 C 709.402344 161.3125 707.800781 162.53125 706.355469 163.671875 C 705.671875 164.203125 704.910156 164.738281 704.226562 165.347656 C 701.941406 167.25 699.734375 169.53125 697.984375 171.359375 C 695.242188 174.175781 693.113281 177.527344 691.058594 180.800781 C 690.144531 182.246094 689.230469 183.769531 688.242188 185.214844 C 687.328125 186.507812 686.414062 187.800781 685.5 189.019531 C 685.273438 189.324219 685.042969 189.628906 684.738281 189.933594 C 684.28125 190.46875 683.75 191 683.523438 191.53125 C 684.738281 192.140625 685.652344 193.054688 686.566406 193.890625 L 686.640625 193.96875 C 688.394531 195.644531 690.144531 197.394531 691.816406 199.144531 C 692.730469 200.058594 693.722656 201.046875 694.632812 201.960938 C 695.625 202.949219 696.613281 204.167969 697.601562 205.539062 C 698.210938 206.453125 698.820312 207.441406 699.503906 208.355469 L 700.265625 209.496094 C 700.265625 209.726562 700.34375 209.648438 700.417969 209.648438 Z M 600.785156 312.949219 C 603.296875 312.796875 605.808594 312.265625 608.320312 311.65625 C 615.246094 310.054688 622.171875 308.152344 628.871094 306.25 C 631.917969 305.414062 634.960938 304.574219 638.082031 303.738281 C 638.234375 303.660156 638.386719 303.660156 638.539062 303.660156 C 638.996094 303.585938 639.375 303.433594 639.679688 303.207031 C 639.375 302.597656 639.300781 301.910156 639.222656 301.226562 C 639.148438 300.921875 639.148438 300.617188 639.070312 300.238281 C 638.234375 296.734375 637.699219 293.003906 637.398438 288.96875 C 637.320312 288.4375 637.320312 287.90625 637.246094 287.371094 C 637.09375 285.773438 637.015625 284.097656 637.015625 282.421875 C 636.636719 282.652344 636.332031 282.878906 635.949219 283.109375 C 634.734375 283.871094 633.285156 284.707031 632.449219 285.316406 C 629.9375 286.992188 627.046875 288.894531 623.925781 290.570312 C 620.269531 292.472656 616.3125 294.300781 611.746094 296.125 C 607.636719 297.800781 603.375 298.636719 599.109375 298.714844 C 598.121094 298.714844 597.132812 298.714844 596.144531 298.714844 C 595.304688 298.714844 594.46875 298.636719 593.628906 298.714844 C 591.804688 298.714844 589.976562 298.410156 588.226562 298.027344 L 588.152344 298.027344 C 584.648438 297.34375 581.679688 295.746094 578.40625 293.765625 C 577.722656 295.746094 578.179688 297.421875 579.777344 298.867188 C 579.929688 299.019531 580.082031 299.171875 580.234375 299.324219 L 580.464844 299.550781 C 580.996094 300.085938 581.453125 300.617188 581.832031 301.148438 C 582.824219 301.53125 588.910156 303.585938 595.992188 303.207031 C 596.292969 303.207031 596.597656 303.433594 596.597656 303.738281 C 596.597656 304.042969 596.371094 304.347656 596.066406 304.347656 C 595.457031 304.347656 594.847656 304.421875 594.238281 304.421875 C 589.292969 304.421875 585.03125 303.359375 582.824219 302.75 C 583.050781 303.207031 583.28125 303.738281 583.507812 304.269531 C 583.964844 305.566406 584.726562 306.632812 585.792969 307.390625 C 586.246094 307.695312 586.628906 308.078125 587.007812 308.382812 C 587.007812 308.382812 587.085938 308.382812 587.085938 308.382812 C 587.160156 308.382812 593.175781 309.21875 596.292969 308.914062 C 596.597656 308.914062 596.902344 309.144531 596.902344 309.449219 C 596.902344 309.753906 596.675781 310.054688 596.371094 310.054688 C 595.914062 310.132812 595.304688 310.132812 594.773438 310.132812 C 592.566406 310.132812 589.902344 309.902344 588.304688 309.675781 C 588.53125 309.902344 588.683594 310.132812 588.835938 310.359375 C 589.367188 311.121094 590.207031 311.65625 591.421875 312.035156 C 593.480469 312.722656 595.6875 313.023438 598.121094 313.101562 L 599.796875 313.101562 C 599.871094 313.101562 600.023438 313.101562 600.101562 313.101562 C 600.175781 313.101562 600.328125 313.101562 600.40625 313.101562 C 600.480469 312.871094 600.632812 312.871094 600.785156 312.949219 Z M 648.890625 311.65625 L 643.332031 312.417969 C 643.332031 312.417969 643.257812 312.417969 643.257812 312.417969 C 643.027344 312.417969 642.800781 312.265625 642.722656 312.035156 L 639.984375 304.421875 C 639.605469 304.652344 639.222656 304.726562 638.84375 304.804688 C 638.691406 304.804688 638.613281 304.878906 638.460938 304.878906 C 635.417969 305.71875 632.375 306.554688 629.253906 307.390625 C 622.554688 309.296875 615.550781 311.199219 608.625 312.796875 C 606.191406 313.328125 603.832031 313.863281 601.394531 314.089844 C 601.394531 314.089844 601.394531 314.167969 601.394531 314.167969 C 601.089844 314.699219 601.015625 315.308594 600.9375 315.917969 C 600.9375 316.070312 600.863281 316.296875 600.863281 316.449219 C 600.632812 318.203125 600.710938 320.027344 600.863281 321.78125 C 600.9375 322.386719 600.9375 322.464844 601.773438 322.539062 L 602.460938 322.539062 C 603.375 322.617188 604.285156 322.617188 605.199219 322.539062 C 606.417969 322.464844 607.636719 322.464844 608.855469 322.386719 C 610.148438 322.386719 611.519531 322.386719 612.8125 322.234375 C 614.105469 322.082031 615.398438 322.082031 616.617188 322.082031 C 617.53125 322.082031 618.519531 322.082031 619.433594 322.007812 C 621.71875 321.855469 624.078125 321.855469 626.285156 321.855469 C 628.035156 321.855469 629.859375 321.855469 631.613281 321.78125 C 633.894531 321.703125 636.253906 321.703125 638.460938 321.628906 C 641.203125 321.628906 644.019531 321.628906 646.757812 321.398438 C 647.140625 321.398438 647.445312 321.324219 647.824219 321.246094 C 648.28125 321.09375 648.507812 320.941406 648.585938 320.332031 C 648.8125 319.113281 648.8125 317.972656 648.8125 316.753906 L 648.8125 315.917969 C 648.8125 315.460938 648.8125 315.082031 648.8125 314.625 C 648.738281 313.710938 648.738281 312.644531 648.890625 311.65625 Z M 724.777344 319.265625 C 724.777344 317.972656 724.699219 316.753906 724.625 315.539062 C 724.546875 314.089844 724.394531 312.570312 724.472656 311.046875 C 724.167969 309.523438 724.167969 308 724.242188 306.554688 C 724.242188 305.792969 724.242188 304.957031 724.242188 304.117188 C 716.25 305.488281 687.554688 308.078125 681.464844 308.609375 C 681.769531 309.21875 681.921875 309.980469 681.921875 310.816406 C 681.921875 313.785156 681.921875 316.679688 681.921875 319.648438 C 681.921875 320.941406 681.921875 320.941406 683.21875 321.019531 C 685.042969 321.09375 686.945312 320.941406 688.773438 320.867188 C 690.371094 320.789062 692.046875 320.714844 693.722656 320.714844 C 697.070312 320.714844 700.34375 320.636719 703.160156 320.5625 C 704.378906 320.484375 705.59375 320.484375 706.8125 320.410156 C 710.085938 320.257812 713.511719 320.105469 716.859375 320.257812 C 717.242188 320.257812 717.621094 320.257812 717.925781 320.332031 C 720.285156 320.636719 722.1875 320.636719 723.9375 320.332031 C 724.242188 320.257812 724.625 320.179688 724.699219 320.179688 C 724.777344 320.027344 724.777344 319.648438 724.777344 319.265625 Z M 751.566406 274.582031 C 751.566406 273.820312 751.566406 273.0625 751.566406 272.375 C 751.566406 272.148438 751.566406 271.917969 751.566406 271.691406 C 751.566406 271.15625 751.566406 270.625 751.492188 270.167969 C 751.261719 268.796875 751.261719 267.351562 751.1875 265.980469 C 751.1875 265.066406 751.113281 264.078125 751.035156 263.164062 C 750.960938 262.175781 750.882812 261.109375 750.808594 260.121094 C 750.730469 259.207031 750.730469 258.367188 750.65625 257.457031 C 750.578125 256.390625 750.503906 255.324219 750.425781 254.257812 C 750.273438 252.582031 750.199219 250.832031 749.96875 249.082031 C 749.816406 247.253906 749.664062 245.429688 749.589844 243.601562 C 749.511719 242.839844 749.511719 242.078125 749.4375 241.316406 C 749.359375 240.097656 749.359375 238.882812 749.359375 237.738281 C 749.359375 236.371094 749.285156 234.921875 749.207031 233.550781 C 749.132812 232.792969 749.132812 231.953125 749.207031 231.191406 C 749.207031 230.28125 749.285156 229.367188 749.132812 228.527344 C 748.980469 227.308594 748.980469 226.015625 748.902344 224.875 C 748.902344 223.65625 748.902344 222.285156 748.675781 221.070312 C 748.523438 220.15625 748.523438 219.164062 748.523438 218.25 C 748.523438 217.644531 748.523438 217.109375 748.449219 216.5 C 748.296875 214.523438 748.144531 212.542969 747.992188 210.5625 L 747.839844 209.039062 C 747.6875 206.910156 747.382812 204.777344 747 202.648438 C 746.925781 201.960938 746.773438 201.199219 746.695312 200.4375 C 746.390625 198.535156 746.085938 196.558594 745.785156 194.652344 C 745.480469 193.054688 745.25 191.53125 745.023438 189.933594 C 744.640625 187.269531 743.957031 183.84375 742.664062 180.570312 C 740.152344 174.101562 736.117188 169.457031 730.484375 166.335938 C 730.332031 166.640625 730.105469 166.945312 729.875 167.171875 C 729.722656 167.402344 729.496094 167.628906 729.34375 167.859375 C 728.886719 168.390625 728.429688 168.847656 728.125 169.457031 C 727.898438 169.835938 727.820312 170.140625 727.820312 170.445312 C 727.820312 170.902344 728.125 171.359375 728.503906 171.816406 C 728.734375 172.199219 729.039062 172.578125 729.191406 173.035156 C 729.722656 174.40625 729.417969 175.621094 729.113281 176.839844 C 728.886719 177.753906 728.65625 178.667969 728.808594 179.582031 C 728.960938 180.265625 729.265625 180.875 729.648438 181.558594 C 729.800781 181.789062 729.953125 182.09375 730.027344 182.320312 C 730.789062 183.996094 730.710938 185.898438 729.800781 188.183594 C 729.496094 188.945312 729.113281 189.628906 728.503906 190.542969 L 728.046875 191.152344 C 727.441406 192.066406 726.753906 193.054688 726.144531 194.042969 C 724.546875 196.859375 720.96875 198.6875 717.847656 200.363281 C 716.785156 200.894531 715.792969 201.429688 714.882812 201.960938 C 713.128906 203.027344 711.378906 204.167969 709.707031 205.3125 C 706.8125 207.214844 703.84375 209.269531 700.800781 210.792969 C 700.722656 210.792969 700.722656 210.792969 700.648438 210.867188 C 701.789062 212.921875 703.921875 216.652344 703.921875 217.949219 C 703.921875 219.546875 691.894531 231.191406 684.738281 238.042969 L 677.433594 244.972656 C 677.433594 244.972656 677.433594 245.046875 677.433594 245.046875 C 677.433594 245.125 676.59375 253.421875 678.195312 256.464844 C 678.347656 256.769531 678.195312 257.074219 677.964844 257.226562 C 677.890625 257.304688 677.8125 257.304688 677.738281 257.304688 C 677.507812 257.304688 677.355469 257.226562 677.203125 257 C 675.835938 254.335938 676.0625 248.550781 676.214844 246.035156 L 642.34375 277.855469 L 713.359375 266.894531 L 711.378906 209.726562 C 711.378906 209.421875 711.609375 209.117188 711.914062 209.117188 C 712.21875 209.117188 712.445312 209.34375 712.519531 209.648438 L 714.5 267.273438 C 714.5 267.578125 714.273438 267.808594 714.042969 267.882812 L 640.820312 279.152344 L 638.003906 281.738281 C 637.929688 283.566406 638.082031 285.46875 638.234375 287.296875 C 638.308594 287.828125 638.308594 288.359375 638.386719 288.894531 C 638.691406 292.929688 639.222656 296.582031 639.984375 300.007812 C 640.0625 300.3125 640.136719 300.691406 640.210938 300.996094 C 640.289062 301.605469 640.441406 302.214844 640.667969 302.75 C 640.820312 302.976562 640.820312 303.207031 640.746094 303.433594 L 643.5625 311.121094 L 649.269531 310.359375 C 649.347656 310.359375 649.347656 310.285156 649.421875 310.285156 C 650.945312 309.980469 652.542969 309.75 654.066406 309.601562 L 655.132812 309.523438 C 658.328125 309.144531 661.449219 308.914062 663.882812 308.761719 C 664.796875 308.6875 665.710938 308.609375 666.625 308.535156 C 668.679688 308.382812 670.8125 308.152344 672.941406 308.152344 C 673.171875 308.152344 673.324219 308.152344 673.476562 308.152344 C 675.378906 307.925781 677.355469 307.847656 679.183594 307.773438 L 679.714844 307.773438 C 679.792969 307.621094 679.945312 307.542969 680.097656 307.542969 C 680.476562 307.542969 716.785156 304.347656 724.394531 302.902344 C 724.625 302.597656 724.929688 302.445312 725.382812 302.367188 C 727.898438 301.835938 730.410156 300.996094 732.84375 300.160156 C 734.0625 299.703125 735.355469 299.324219 736.574219 298.941406 C 739.390625 298.105469 741.75 296.886719 743.804688 295.363281 C 746.46875 293.386719 748.21875 291.40625 749.285156 289.121094 C 750.578125 286.457031 751.1875 283.414062 751.339844 279.910156 C 751.644531 278.085938 751.566406 276.332031 751.566406 274.582031 Z M 630.394531 117.085938 C 628.71875 114.722656 622.78125 104.21875 627.273438 76.511719 C 627.347656 76.207031 627.578125 75.976562 627.957031 76.054688 C 628.261719 76.128906 628.492188 76.433594 628.414062 76.738281 C 625.523438 94.628906 627.046875 105.285156 628.871094 111.070312 C 628.1875 107.339844 627.882812 103.457031 628.035156 99.347656 C 628.109375 96.988281 628.644531 94.550781 629.558594 92.117188 C 629.558594 92.039062 629.632812 91.964844 629.710938 91.964844 C 629.710938 91.964844 629.710938 91.964844 629.710938 91.886719 C 629.710938 91.8125 629.785156 91.582031 629.9375 91.429688 C 630.242188 90.820312 630.621094 90.136719 631.003906 89.527344 C 633.285156 82.90625 636.484375 76.664062 640.898438 71.183594 C 644.324219 66.917969 648.433594 63.417969 653.683594 61.667969 C 659.316406 59.839844 664.644531 60.296875 669.515625 64.179688 C 672.789062 66.765625 674.996094 70.039062 677.050781 73.542969 C 678.953125 76.738281 680.707031 80.011719 682.304688 83.4375 C 682.378906 83.589844 682.457031 83.742188 682.457031 83.820312 C 682.835938 84.273438 683.140625 84.808594 683.371094 85.339844 C 683.523438 85.570312 683.597656 85.796875 683.75 86.027344 C 684.585938 87.929688 685.042969 89.832031 685.5 91.734375 L 685.578125 92.117188 C 686.261719 94.855469 686.640625 97.75 686.871094 100.71875 C 687.554688 94.855469 687.785156 85.796875 684.96875 77.804688 C 684.890625 77.5 685.042969 77.195312 685.347656 77.042969 C 685.652344 76.96875 685.957031 77.121094 686.109375 77.425781 C 690.828125 90.515625 687.25 106.199219 687.023438 107.1875 C 686.261719 124.316406 678.042969 137.027344 664.875 141.367188 C 663.425781 141.824219 661.90625 142.050781 660.308594 142.050781 C 659.546875 142.050781 658.707031 141.976562 657.871094 141.898438 C 657.339844 141.824219 656.730469 141.75 656.195312 141.671875 C 655.285156 141.597656 654.292969 141.445312 653.378906 141.292969 C 650.109375 140.683594 647.0625 139.3125 644.171875 137.105469 C 637.625 132.15625 632.980469 125.230469 630.394531 117.085938 Z M 631.382812 116.550781 C 631.535156 116.703125 631.613281 116.855469 631.613281 116.855469 C 631.765625 117.007812 631.765625 117.3125 631.6875 117.539062 C 634.277344 125.152344 638.691406 131.625 644.703125 136.265625 C 647.519531 138.398438 650.335938 139.691406 653.457031 140.226562 C 654.371094 140.378906 655.285156 140.53125 656.195312 140.605469 C 656.804688 140.683594 657.339844 140.757812 657.949219 140.835938 C 660.308594 141.140625 662.515625 140.988281 664.492188 140.378906 C 677.128906 136.191406 685.121094 123.78125 685.804688 107.1875 C 686.035156 102.238281 685.5 97.214844 684.433594 92.496094 L 684.359375 92.117188 C 683.902344 90.289062 683.523438 88.386719 682.683594 86.710938 C 682.53125 86.558594 682.457031 86.253906 682.304688 86.027344 C 682 85.492188 681.695312 84.960938 681.316406 84.503906 C 679.335938 82.144531 677.128906 80.089844 674.769531 78.414062 C 668.300781 73.847656 661.144531 72.476562 653.457031 74.304688 C 647.976562 75.597656 642.953125 78.335938 638.308594 82.523438 C 634.808594 85.722656 632.371094 88.765625 630.773438 92.117188 C 630.773438 92.191406 630.699219 92.191406 630.699219 92.269531 C 630.699219 92.269531 630.699219 92.269531 630.699219 92.34375 C 630.699219 92.421875 630.621094 92.574219 630.546875 92.800781 C 629.632812 95.085938 629.175781 97.367188 629.101562 99.574219 C 628.949219 105.4375 629.785156 111.222656 631.382812 116.550781 Z M 657.644531 143.652344 C 657.339844 143.5 657.035156 143.652344 656.882812 143.957031 C 656.730469 144.261719 656.882812 144.566406 657.1875 144.71875 C 665.636719 148.140625 673.703125 149.054688 679.5625 149.054688 C 685.425781 149.054688 689.230469 148.21875 689.304688 148.21875 C 689.609375 148.140625 689.839844 147.839844 689.761719 147.535156 C 689.6875 147.230469 689.382812 147 689.078125 147.078125 C 688.925781 147.078125 674.082031 150.425781 657.644531 143.652344 Z M 651.554688 174.328125 C 651.25 174.253906 650.945312 174.40625 650.792969 174.632812 C 650.714844 174.9375 650.867188 175.242188 651.097656 175.394531 C 657.1875 177.601562 662.894531 178.289062 667.765625 178.289062 C 675.988281 178.289062 681.542969 176.308594 681.695312 176.230469 C 681.769531 176.230469 681.769531 176.15625 681.769531 176.15625 C 684.207031 176.15625 686.792969 175.851562 689.382812 175.394531 C 689.6875 175.320312 689.914062 175.015625 689.839844 174.710938 C 689.761719 174.40625 689.457031 174.175781 689.15625 174.253906 C 656.652344 180.34375 635.265625 147.535156 635.113281 147.152344 C 634.960938 146.847656 634.582031 146.773438 634.351562 147 C 634.125 147.152344 633.972656 147.535156 634.199219 147.761719 C 634.351562 148.066406 651.324219 174.101562 678.042969 176.003906 C 673.019531 177.144531 662.894531 178.441406 651.554688 174.328125 Z M 638.765625 171.894531 C 638.84375 171.894531 638.917969 171.894531 638.917969 171.894531 C 639.148438 171.894531 639.375 171.742188 639.453125 171.511719 C 639.527344 171.207031 639.375 170.902344 639.070312 170.828125 C 628.644531 167.324219 622.476562 155.070312 622.476562 154.992188 C 622.324219 154.6875 622.023438 154.613281 621.71875 154.765625 C 621.414062 154.917969 621.335938 155.222656 621.488281 155.527344 C 621.792969 155.984375 627.882812 168.316406 638.765625 171.894531 Z M 697.375 159.867188 C 697.527344 159.867188 697.601562 159.789062 697.753906 159.714844 C 697.832031 159.714844 701.789062 156.289062 706.28125 155.601562 C 706.585938 155.527344 706.8125 155.296875 706.738281 154.917969 C 706.660156 154.613281 706.433594 154.382812 706.050781 154.460938 C 701.257812 155.222656 697.144531 158.722656 696.992188 158.875 C 696.765625 159.105469 696.691406 159.410156 696.917969 159.714844 C 696.992188 159.789062 697.222656 159.867188 697.375 159.867188 Z M 670.582031 101.785156 C 670.125 102.390625 669.972656 103.152344 670.050781 103.914062 C 670.050781 104.90625 670.355469 106.273438 671.496094 106.273438 C 673.246094 106.273438 673.628906 103.078125 672.5625 101.859375 C 671.648438 100.71875 670.964844 101.175781 670.582031 101.785156 Z M 655.359375 117.3125 C 655.511719 117.390625 657.1875 117.996094 659.242188 117.996094 C 660.6875 117.996094 662.363281 117.617188 663.65625 116.476562 C 664.1875 116.019531 665.710938 114.570312 662.742188 104.980469 C 661.296875 100.335938 659.46875 96 659.46875 96 C 659.316406 95.695312 659.011719 95.542969 658.707031 95.695312 C 658.402344 95.847656 658.25 96.148438 658.402344 96.453125 C 663.578125 108.785156 663.882812 114.800781 662.894531 115.714844 C 660.308594 118.074219 655.816406 116.324219 655.816406 116.324219 C 655.511719 116.171875 655.207031 116.324219 655.054688 116.628906 C 654.980469 116.855469 655.132812 117.238281 655.359375 117.3125 Z M 651.628906 124.542969 C 651.476562 124.847656 651.554688 125.152344 651.859375 125.304688 C 652.085938 125.457031 655.207031 127.285156 659.316406 127.285156 C 661.371094 127.285156 663.730469 126.828125 666.015625 125.382812 C 666.320312 125.230469 666.394531 124.847656 666.167969 124.621094 C 666.015625 124.390625 665.636719 124.238281 665.40625 124.46875 C 659.242188 128.351562 652.542969 124.46875 652.46875 124.390625 C 652.164062 124.238281 651.78125 124.316406 651.628906 124.542969 Z M 667.765625 96.074219 C 667.84375 96.074219 667.996094 96.074219 668.070312 96 C 668.070312 96 671.875 93.789062 676.367188 95.921875 C 676.671875 96.074219 676.976562 95.921875 677.128906 95.617188 C 677.28125 95.3125 677.128906 95.007812 676.824219 94.855469 C 671.800781 92.496094 667.691406 94.933594 667.539062 95.007812 C 667.234375 95.160156 667.15625 95.542969 667.308594 95.769531 C 667.386719 96 667.539062 96.074219 667.765625 96.074219 Z M 649.042969 102.164062 C 648.585938 101.554688 647.898438 101.25 647.140625 102.390625 C 646.226562 103.761719 646.835938 106.882812 648.660156 106.730469 C 649.804688 106.65625 649.957031 105.207031 649.878906 104.21875 C 649.726562 103.457031 649.5 102.695312 649.042969 102.164062 Z M 642.421875 96.910156 C 642.496094 96.910156 642.648438 96.910156 642.722656 96.835938 C 646.988281 94.398438 650.792969 96.074219 650.945312 96.148438 C 651.25 96.300781 651.554688 96.148438 651.707031 95.847656 C 651.859375 95.542969 651.707031 95.238281 651.402344 95.085938 C 651.25 95.007812 646.910156 93.027344 642.117188 95.769531 C 641.8125 95.921875 641.734375 96.300781 641.886719 96.53125 C 642.039062 96.835938 642.269531 96.910156 642.421875 96.910156 Z M 642.421875 96.910156 " fill-opacity="1" fill-rule="nonzero"/></g><g fill="#000000" fill-opacity="1"><g transform="translate(115.115637, 192.150045)"><g><path d="M 3.753906 0 L 21.253906 0 L 21.253906 -1.875 L 6.039062 -1.875 L 6.039062 -14.035156 L 17.789062 -14.035156 L 17.789062 -15.910156 L 6.039062 -15.910156 L 6.039062 -27.292969 L 20.519531 -27.292969 L 20.519531 -29.167969 L 3.753906 -29.167969 Z M 3.753906 0 "/></g></g></g><g fill="#000000" fill-opacity="1"><g transform="translate(138.205794, 192.150045)"><g><path d="M 11.339844 0.328125 C 15.339844 0.328125 18.316406 -2.367188 19.460938 -4.9375 L 19.460938 0 L 21.621094 0 L 21.621094 -31.535156 L 19.460938 -31.535156 L 19.460938 -16.605469 C 18.234375 -19.257812 15.871094 -21.664062 11.667969 -21.664062 C 6.039062 -21.664062 1.753906 -17.257812 1.753906 -10.6875 L 1.753906 -10.363281 C 1.753906 -3.589844 5.914062 0.328125 11.339844 0.328125 Z M 11.546875 -1.507812 C 7.300781 -1.507812 4 -4.609375 4 -10.445312 L 4 -10.769531 C 4 -16.523438 7.300781 -19.828125 11.871094 -19.828125 C 16.320312 -19.828125 19.5 -16.726562 19.5 -10.851562 L 19.5 -10.527344 C 19.5 -4.652344 15.871094 -1.507812 11.546875 -1.507812 Z M 11.546875 -1.507812 "/></g></g></g><g fill="#000000" fill-opacity="1"><g transform="translate(163.17254, 192.150045)"><g><path d="M 3.425781 0 L 5.589844 0 L 5.589844 -21.335938 L 3.425781 -21.335938 Z M 4.488281 -25.90625 C 5.34375 -25.90625 5.996094 -26.601562 5.996094 -27.457031 C 5.996094 -28.273438 5.34375 -28.964844 4.488281 -28.964844 C 3.632812 -28.964844 2.9375 -28.273438 2.9375 -27.457031 C 2.9375 -26.601562 3.632812 -25.90625 4.488281 -25.90625 Z M 4.488281 -25.90625 "/></g></g></g><g fill="#000000" fill-opacity="1"><g transform="translate(172.188305, 192.150045)"><g><path d="M 9.382812 0.285156 C 10.6875 0.285156 11.503906 0.0820312 12.199219 -0.164062 L 12.199219 -2 C 11.464844 -1.753906 10.605469 -1.550781 9.503906 -1.550781 C 7.546875 -1.550781 6.324219 -2.734375 6.324219 -5.304688 L 6.324219 -19.5 L 11.914062 -19.5 L 11.914062 -21.335938 L 6.324219 -21.335938 L 6.324219 -26.191406 L 4.160156 -26.191406 L 4.160156 -21.335938 L 1.019531 -21.335938 L 1.019531 -19.5 L 4.160156 -19.5 L 4.160156 -5.140625 C 4.160156 -1.714844 5.996094 0.285156 9.382812 0.285156 Z M 9.382812 0.285156 "/></g></g></g><g fill="#000000" fill-opacity="1"><g transform="translate(185.977121, 192.150045)"><g><path d="M 12.074219 -1.507812 C 7.425781 -1.507812 4 -5.019531 4 -10.484375 L 4 -10.8125 C 4 -16.359375 7.507812 -19.828125 12.074219 -19.828125 C 16.605469 -19.828125 20.113281 -16.441406 20.113281 -10.8125 L 20.113281 -10.484375 C 20.113281 -4.976562 16.644531 -1.507812 12.074219 -1.507812 Z M 12.035156 0.328125 C 17.789062 0.328125 22.355469 -4.078125 22.355469 -10.527344 L 22.355469 -10.851562 C 22.355469 -17.339844 17.828125 -21.664062 12.074219 -21.664062 C 6.363281 -21.664062 1.753906 -17.214844 1.753906 -10.8125 L 1.753906 -10.484375 C 1.753906 -4.203125 6.242188 0.328125 12.035156 0.328125 Z M 12.035156 0.328125 "/></g></g></g><g fill="#000000" fill-opacity="1"><g transform="translate(210.087153, 192.150045)"><g><path d="M 3.34375 0 L 5.507812 0 L 5.507812 -11.832031 C 5.507812 -17.5 8.609375 -19.417969 12.730469 -19.582031 L 12.730469 -21.621094 C 8.8125 -21.5 6.691406 -19.460938 5.507812 -16.847656 L 5.507812 -21.335938 L 3.34375 -21.335938 Z M 3.34375 0 "/></g></g></g><g fill="#000000" fill-opacity="1"><g transform="translate(224.283933, 192.150045)"><g/></g></g><g fill="#000000" fill-opacity="1"><g transform="translate(234.360373, 192.150045)"><g><path d="M 3.753906 0 L 6.039062 0 L 6.039062 -13.667969 L 23.214844 -13.667969 L 23.214844 0 L 25.5 0 L 25.5 -29.167969 L 23.214844 -29.167969 L 23.214844 -15.585938 L 6.039062 -15.585938 L 6.039062 -29.167969 L 3.753906 -29.167969 Z M 3.753906 0 "/></g></g></g><g fill="#000000" fill-opacity="1"><g transform="translate(263.61062, 192.150045)"><g><path d="M 12.074219 -1.507812 C 7.425781 -1.507812 4 -5.019531 4 -10.484375 L 4 -10.8125 C 4 -16.359375 7.507812 -19.828125 12.074219 -19.828125 C 16.605469 -19.828125 20.113281 -16.441406 20.113281 -10.8125 L 20.113281 -10.484375 C 20.113281 -4.976562 16.644531 -1.507812 12.074219 -1.507812 Z M 12.035156 0.328125 C 17.789062 0.328125 22.355469 -4.078125 22.355469 -10.527344 L 22.355469 -10.851562 C 22.355469 -17.339844 17.828125 -21.664062 12.074219 -21.664062 C 6.363281 -21.664062 1.753906 -17.214844 1.753906 -10.8125 L 1.753906 -10.484375 C 1.753906 -4.203125 6.242188 0.328125 12.035156 0.328125 Z M 12.035156 0.328125 "/></g></g></g><g fill="#000000" fill-opacity="1"><g transform="translate(287.720652, 192.150045)"><g><path d="M 7.832031 0 L 10.28125 0 L 15.953125 -17.867188 L 21.253906 0 L 23.742188 0 L 30.476562 -21.335938 L 28.273438 -21.335938 L 22.519531 -2.652344 L 16.890625 -21.335938 L 15.054688 -21.335938 L 9.21875 -2.652344 L 3.507812 -21.335938 L 1.183594 -21.335938 Z M 7.832031 0 "/></g></g></g><g fill="#000000" fill-opacity="1"><g transform="translate(319.377824, 192.150045)"><g><path d="M 2.53125 -10.28125 L 11.054688 -10.28125 L 11.054688 -12.320312 L 2.53125 -12.320312 Z M 2.53125 -10.28125 "/></g></g></g><g fill="#000000" fill-opacity="1"><g transform="translate(332.962666, 192.150045)"><g><path d="M 9.382812 0.285156 C 10.6875 0.285156 11.503906 0.0820312 12.199219 -0.164062 L 12.199219 -2 C 11.464844 -1.753906 10.605469 -1.550781 9.503906 -1.550781 C 7.546875 -1.550781 6.324219 -2.734375 6.324219 -5.304688 L 6.324219 -19.5 L 11.914062 -19.5 L 11.914062 -21.335938 L 6.324219 -21.335938 L 6.324219 -26.191406 L 4.160156 -26.191406 L 4.160156 -21.335938 L 1.019531 -21.335938 L 1.019531 -19.5 L 4.160156 -19.5 L 4.160156 -5.140625 C 4.160156 -1.714844 5.996094 0.285156 9.382812 0.285156 Z M 9.382812 0.285156 "/></g></g></g><g fill="#000000" fill-opacity="1"><g transform="translate(346.751483, 192.150045)"><g><path d="M 12.074219 -1.507812 C 7.425781 -1.507812 4 -5.019531 4 -10.484375 L 4 -10.8125 C 4 -16.359375 7.507812 -19.828125 12.074219 -19.828125 C 16.605469 -19.828125 20.113281 -16.441406 20.113281 -10.8125 L 20.113281 -10.484375 C 20.113281 -4.976562 16.644531 -1.507812 12.074219 -1.507812 Z M 12.035156 0.328125 C 17.789062 0.328125 22.355469 -4.078125 22.355469 -10.527344 L 22.355469 -10.851562 C 22.355469 -17.339844 17.828125 -21.664062 12.074219 -21.664062 C 6.363281 -21.664062 1.753906 -17.214844 1.753906 -10.8125 L 1.753906 -10.484375 C 1.753906 -4.203125 6.242188 0.328125 12.035156 0.328125 Z M 12.035156 0.328125 "/></g></g></g></svg>