<svg xmlns="http://www.w3.org/2000/svg" xmlns:xlink="http://www.w3.org/1999/xlink" width="1200" zoomAndPan="magnify" viewBox="0 0 900 359.999987" height="480" preserveAspectRatio="xMidYMid meet" version="1.0"><defs><g/><clipPath id="f43d59104c"><path d="M 14.25 0 L 885.75 0 C 889.53125 0 893.152344 1.5 895.828125 4.171875 C 898.5 6.847656 900 10.46875 900 14.25 L 900 345.75 C 900 349.53125 898.5 353.152344 895.828125 355.828125 C 893.152344 358.5 889.53125 360 885.75 360 L 14.25 360 C 10.46875 360 6.847656 358.5 4.171875 355.828125 C 1.5 353.152344 0 349.53125 0 345.75 L 0 14.25 C 0 10.46875 1.5 6.847656 4.171875 4.171875 C 6.847656 1.5 10.46875 0 14.25 0 Z M 14.25 0 " clip-rule="nonzero"/></clipPath><clipPath id="7fa1759464"><path d="M 1.800781 1.800781 L 898.199219 1.800781 L 898.199219 358.199219 L 1.800781 358.199219 Z M 1.800781 1.800781 " clip-rule="nonzero"/></clipPath><clipPath id="c8ff218765"><path d="M 16.050781 1.800781 L 883.949219 1.800781 C 887.730469 1.800781 891.355469 3.300781 894.027344 5.972656 C 896.699219 8.644531 898.199219 12.269531 898.199219 16.050781 L 898.199219 343.949219 C 898.199219 347.730469 896.699219 351.355469 894.027344 354.027344 C 891.355469 356.699219 887.730469 358.199219 883.949219 358.199219 L 16.050781 358.199219 C 12.269531 358.199219 8.644531 356.699219 5.972656 354.027344 C 3.300781 351.355469 1.800781 347.730469 1.800781 343.949219 L 1.800781 16.050781 C 1.800781 12.269531 3.300781 8.644531 5.972656 5.972656 C 8.644531 3.300781 12.269531 1.800781 16.050781 1.800781 Z M 16.050781 1.800781 " clip-rule="nonzero"/></clipPath><clipPath id="98f5e46e07"><path d="M 631 65 L 863.902344 65 L 863.902344 324 L 631 324 Z M 631 65 " clip-rule="nonzero"/></clipPath><clipPath id="182348a408"><path d="M 584.902344 36 L 665 36 L 665 120 L 584.902344 120 Z M 584.902344 36 " clip-rule="nonzero"/></clipPath><clipPath id="24481f4bf2"><path d="M 761 51 L 863.902344 51 L 863.902344 154 L 761 154 Z M 761 51 " clip-rule="nonzero"/></clipPath><clipPath id="3ef16f4554"><path d="M 585 36 L 863.902344 36 L 863.902344 319 L 585 319 Z M 585 36 " clip-rule="nonzero"/></clipPath><clipPath id="5c1832b770"><path d="M 636 55 L 863.902344 55 L 863.902344 289 L 636 289 Z M 636 55 " clip-rule="nonzero"/></clipPath><clipPath id="97df99beb0"><path d="M 584.902344 36 L 863.902344 36 L 863.902344 284 L 584.902344 284 Z M 584.902344 36 " clip-rule="nonzero"/></clipPath></defs><g clip-path="url(#f43d59104c)"><rect x="-90" width="1080" fill="#004aad" y="-35.999999" height="431.999984" fill-opacity="1"/></g><g clip-path="url(#7fa1759464)"><g clip-path="url(#c8ff218765)"><path fill="#ffffff" d="M 1.800781 1.800781 L 898.199219 1.800781 L 898.199219 358.199219 L 1.800781 358.199219 Z M 1.800781 1.800781 " fill-opacity="1" fill-rule="nonzero"/></g></g><g clip-path="url(#98f5e46e07)"><path fill="#ffffff" d="M 863.394531 187.683594 L 861.582031 187.617188 L 847.15625 195.605469 C 846.285156 195.605469 844.941406 195.875 843.734375 197.484375 L 841.386719 198.757812 C 841.386719 198.691406 841.386719 198.691406 841.316406 198.625 C 841.183594 198.492188 841.050781 198.355469 840.847656 198.421875 C 840.714844 198.421875 829.777344 199.765625 827.027344 199.429688 C 823.738281 199.027344 815.285156 205.269531 813.203125 206.949219 C 810.253906 209.363281 809.042969 210.640625 807.234375 213.996094 C 806.628906 215.136719 805.289062 217.148438 803.8125 219.164062 L 800.523438 215.875 C 800.457031 215.808594 800.320312 215.738281 800.1875 215.738281 C 800.054688 215.738281 799.917969 215.808594 799.851562 215.875 L 783.28125 232.988281 L 765.296875 181.644531 C 763.820312 176.878906 759.726562 170.90625 754.359375 169.027344 C 753.957031 168.890625 753.488281 168.757812 753.152344 168.691406 L 742.484375 166.007812 L 734.296875 164.394531 L 721.414062 156.8125 C 721.414062 156.8125 721.414062 156.8125 721.347656 156.8125 C 721.414062 156.742188 721.414062 156.675781 721.414062 156.542969 C 721.414062 156.339844 721.414062 156.140625 721.347656 155.9375 C 732.824219 152.3125 744.09375 141.84375 744.09375 141.84375 L 743.558594 135.734375 C 742.617188 125.667969 739.667969 113.386719 737.183594 104.390625 C 737.050781 102.246094 736.714844 100.03125 736.246094 97.746094 C 736.042969 95.800781 735.707031 93.921875 735.238281 91.707031 C 734.433594 88.082031 732.488281 84.59375 730.742188 81.304688 C 728.730469 77.679688 726.046875 74.191406 723.09375 71.90625 C 721.617188 70.765625 720.410156 70.09375 719.402344 69.761719 C 715.042969 67.679688 709.675781 65.867188 704.910156 66 C 703.164062 66 701.421875 66.136719 699.742188 66.269531 C 699.8125 66.203125 699.8125 66.203125 699.8125 66.203125 L 698.9375 66.335938 C 697.328125 66.539062 695.71875 66.808594 694.109375 67.140625 C 688.472656 68.417969 683.304688 70.832031 678.609375 74.929688 C 675.925781 77.277344 673.910156 80.097656 672.433594 83.183594 C 672.300781 83.519531 672.101562 83.855469 671.964844 84.191406 C 665.589844 97.816406 659.417969 118.824219 660.960938 150.972656 L 682.632812 155.671875 C 679.277344 158.691406 673.777344 163.722656 673.105469 164.394531 L 644.859375 174.730469 C 644.390625 174.933594 635.933594 179.226562 634.59375 191.375 C 633.519531 201.644531 631.574219 266.683594 631.839844 272.117188 C 632.042969 277.019531 636.472656 292.589844 645.125 293.125 C 645.664062 293.125 646.132812 293.191406 646.601562 293.191406 C 647.476562 293.191406 648.347656 293.125 649.152344 293.058594 L 639.960938 320.375 C 639.894531 320.511719 639.960938 320.644531 640.027344 320.777344 C 640.09375 320.914062 640.230469 320.980469 640.363281 321.046875 C 655.796875 323.597656 666.0625 323.933594 674.851562 323.933594 C 675.117188 323.933594 675.320312 323.730469 675.320312 323.53125 C 675.722656 320.777344 676.058594 318.429688 676.328125 316.347656 C 683.910156 317.558594 694.039062 318.765625 704.84375 318.765625 C 705.984375 318.765625 707.125 318.765625 708.265625 318.699219 C 721.617188 318.363281 732.6875 316.820312 740.203125 315.410156 C 740.808594 320.308594 741.140625 323.394531 741.210938 323.53125 C 741.210938 323.796875 741.476562 324 741.679688 324 C 741.679688 324 741.679688 324 741.746094 324 L 742.214844 323.933594 C 757.917969 322.589844 762.679688 322.1875 774.488281 318.832031 C 774.625 318.765625 774.757812 318.699219 774.824219 318.5625 C 774.890625 318.429688 774.890625 318.296875 774.824219 318.160156 L 753.621094 272.65625 C 753.691406 271.984375 753.824219 268.828125 753.890625 267.890625 L 754.695312 252.117188 L 755.164062 243.792969 C 756.441406 246.34375 759.726562 252.921875 763.621094 261.648438 C 766.4375 267.957031 771.941406 272.050781 778.71875 272.855469 C 779.523438 272.992188 780.328125 272.992188 781.132812 272.992188 C 785.964844 272.992188 790.457031 271.113281 793.007812 267.957031 C 796.699219 263.324219 818.167969 234.464844 818.371094 234.195312 C 818.503906 233.996094 818.503906 233.726562 818.304688 233.527344 L 815.351562 230.574219 L 814.816406 230.035156 C 814.816406 230.035156 814.414062 229.632812 814.414062 229.632812 C 814.882812 228.894531 815.21875 228.289062 815.417969 228.023438 C 815.886719 227.886719 817.566406 227.753906 819.175781 227.621094 C 822.664062 227.285156 827.027344 226.8125 828.769531 226.277344 C 829.375 226.074219 829.777344 225.941406 830.179688 225.875 C 831.65625 225.472656 831.925781 225.335938 833.46875 223.660156 C 833.601562 223.527344 833.667969 223.390625 833.734375 223.257812 C 836.621094 219.296875 836.21875 215.941406 836.015625 215 C 836.753906 213.726562 836.890625 211.847656 836.890625 211.308594 C 836.957031 211.242188 837.023438 211.109375 837.089844 210.90625 C 838.097656 210.707031 842.996094 209.699219 844.070312 208.023438 C 845.074219 206.476562 848.160156 199.566406 848.566406 197.820312 L 848.898438 197.617188 L 862.855469 189.898438 L 863.730469 188.222656 C 863.863281 188.085938 863.660156 187.753906 863.394531 187.683594 Z M 720.746094 157.617188 Z M 727.453125 200.503906 Z M 740.070312 314.46875 C 740.070312 314.46875 740.070312 314.402344 740.070312 314.402344 C 740.070312 314.46875 740.070312 314.46875 740.070312 314.46875 Z M 840.582031 203.390625 C 840.246094 203.457031 839.507812 203.660156 838.835938 203.726562 C 838.769531 203.660156 838.703125 203.589844 838.632812 203.457031 L 841.183594 202.046875 C 840.914062 202.652344 840.648438 203.121094 840.582031 203.390625 Z M 840.582031 203.390625 " fill-opacity="1" fill-rule="nonzero"/></g><g clip-path="url(#182348a408)"><path fill="#ffffff" d="M 644.457031 119.898438 C 644.523438 119.964844 644.589844 119.964844 644.65625 119.964844 C 644.722656 119.964844 644.792969 119.964844 644.859375 119.898438 C 644.992188 119.828125 645.125 119.761719 645.125 119.5625 L 649.621094 106.136719 C 658.882812 98.621094 664.117188 87.480469 664.117188 75.597656 C 664.117188 53.785156 646.335938 36 624.527344 36 C 602.722656 36 584.941406 53.785156 584.941406 75.597656 C 584.941406 97.414062 602.722656 115.199219 624.527344 115.199219 C 627.347656 115.199219 630.164062 114.863281 632.914062 114.257812 Z M 644.457031 119.898438 " fill-opacity="1" fill-rule="nonzero"/></g><g clip-path="url(#24481f4bf2)"><path fill="#ffffff" d="M 768.519531 153.386719 L 857.085938 153.386719 C 860.710938 153.386719 863.660156 150.433594 863.660156 146.808594 L 863.660156 58.214844 C 863.660156 54.589844 860.710938 51.636719 857.085938 51.636719 L 768.519531 51.636719 C 764.894531 51.636719 761.941406 54.589844 761.941406 58.214844 L 761.941406 146.808594 C 761.941406 150.433594 764.894531 153.386719 768.519531 153.386719 Z M 768.519531 153.386719 " fill-opacity="1" fill-rule="nonzero"/></g><g clip-path="url(#3ef16f4554)"><path fill="#ffffff" d="M 858.695312 152.648438 C 858.761719 152.648438 858.832031 152.582031 858.832031 152.582031 C 858.832031 152.648438 858.761719 152.648438 858.695312 152.648438 Z M 858.695312 152.648438 C 858.496094 152.71875 858.292969 152.785156 858.09375 152.785156 C 858.292969 152.785156 858.496094 152.71875 858.695312 152.648438 Z M 763.351562 150.03125 C 763.21875 149.832031 763.082031 149.5625 762.949219 149.292969 C 763.082031 149.5625 763.21875 149.765625 763.351562 150.03125 Z M 863.125 146.878906 C 863.125 149.5625 861.3125 151.84375 858.898438 152.648438 L 858.964844 144.863281 L 858.964844 142.917969 C 858.964844 142.851562 858.898438 142.851562 858.898438 142.785156 C 858.292969 133.519531 851.917969 125.199219 842.390625 122.648438 C 839.507812 121.84375 836.6875 121.105469 834.207031 120.5 C 833.871094 121.777344 825.820312 131.910156 815.621094 131.910156 C 814.816406 131.910156 814.011719 131.84375 813.203125 131.710938 C 813.003906 131.640625 812.800781 131.507812 812.800781 131.304688 L 812.199219 126.273438 L 810.386719 130.769531 C 810.320312 130.902344 810.183594 131.039062 810.050781 131.105469 C 809.515625 131.238281 809.042969 131.238281 808.507812 131.238281 C 805.691406 131.238281 803.207031 129.628906 801.128906 126.40625 C 799.316406 123.589844 798.375 120.433594 798.242188 119.828125 C 798.242188 119.761719 798.242188 119.695312 798.242188 119.628906 C 795.757812 120.164062 793.34375 120.769531 792.136719 121.105469 C 789.71875 121.777344 787.707031 122.3125 786.367188 122.851562 C 786.367188 122.851562 786.296875 122.851562 786.296875 122.851562 C 786.164062 122.917969 786.03125 122.984375 785.894531 122.984375 C 783.414062 124.125 771.539062 130.367188 763.21875 149.292969 C 762.882812 148.554688 762.679688 147.75 762.679688 146.878906 L 762.679688 58.28125 C 762.679688 54.925781 765.363281 52.242188 768.71875 52.242188 L 857.289062 52.242188 C 860.640625 52.242188 863.324219 54.925781 863.324219 58.28125 Z M 850.578125 58.351562 C 850.578125 59.691406 851.652344 60.832031 853.058594 60.832031 C 854.46875 60.832031 855.542969 59.757812 855.542969 58.351562 C 855.542969 56.941406 854.46875 55.867188 853.058594 55.867188 C 851.71875 55.933594 850.578125 57.007812 850.578125 58.351562 Z M 842.257812 58.351562 C 842.257812 59.691406 843.332031 60.832031 844.738281 60.832031 C 846.148438 60.832031 847.222656 59.757812 847.222656 58.351562 C 847.222656 56.941406 846.148438 55.867188 844.738281 55.867188 C 843.398438 55.933594 842.257812 57.007812 842.257812 58.351562 Z M 834.140625 58.351562 C 834.140625 59.691406 835.210938 60.832031 836.621094 60.832031 C 838.03125 60.832031 839.105469 59.757812 839.105469 58.351562 C 839.105469 56.941406 838.03125 55.867188 836.621094 55.867188 C 835.210938 55.867188 834.140625 57.007812 834.140625 58.351562 Z M 764.425781 151.308594 C 764.023438 150.972656 763.6875 150.503906 763.351562 150.097656 C 763.6875 150.570312 764.023438 150.972656 764.425781 151.308594 Z M 720.679688 157.28125 C 720.679688 157.148438 720.679688 157.078125 720.746094 156.945312 L 720.609375 156.945312 L 720.945312 156.542969 C 720.945312 156.542969 720.410156 149.429688 720.476562 149.496094 C 720.476562 149.496094 733.5625 146.003906 734.632812 128.351562 C 735.035156 121.304688 733.964844 110.703125 732.554688 100.902344 C 731.683594 99.492188 731.078125 97.949219 730.542969 96.472656 C 729.402344 93.117188 728.59375 89.558594 726.648438 86.605469 C 727.320312 89.492188 727.992188 92.445312 727.722656 95.398438 C 727.65625 96.203125 727.453125 97.078125 726.917969 97.613281 C 726.382812 98.21875 725.308594 98.351562 724.769531 97.746094 C 725.644531 94.324219 725.171875 90.632812 724.101562 87.277344 C 723.027344 83.921875 721.28125 80.765625 719.539062 77.679688 C 720.679688 83.519531 720.878906 89.558594 720.007812 95.464844 C 719.871094 96.339844 719.738281 97.210938 719.132812 97.816406 C 718.328125 98.753906 716.851562 98.890625 715.578125 98.753906 C 714.304688 98.621094 712.960938 98.351562 711.753906 98.820312 C 713.566406 92.175781 713.902344 85.128906 712.828125 78.351562 C 712.960938 83.117188 712.15625 87.949219 710.546875 92.445312 C 709.875 94.324219 709.003906 96.136719 707.660156 97.546875 C 706.253906 98.957031 704.304688 99.894531 702.359375 99.628906 C 705.042969 95.601562 706.453125 90.699219 706.320312 85.800781 C 704.574219 90.902344 702.695312 96.070312 699.476562 100.296875 C 696.792969 103.855469 692.832031 106.675781 688.539062 107.480469 C 687.933594 115.332031 687.464844 120.566406 688.738281 129.761719 C 689.410156 134.59375 692.96875 139.425781 693.839844 144.261719 C 694.441406 147.816406 694.777344 151.171875 694.375 154.863281 C 694.375 155.066406 694.308594 155.335938 694.242188 155.535156 L 686.726562 156.476562 L 683.507812 155.804688 L 683.976562 159.226562 L 684.378906 159.429688 L 685.316406 171.375 C 685.316406 171.710938 685.988281 188.289062 685.988281 208.828125 L 722.019531 210.640625 C 723.429688 210.707031 724.570312 211.847656 724.636719 213.257812 L 728.664062 285.339844 C 728.730469 287.019531 727.386719 288.359375 725.710938 288.292969 L 680.753906 285.945312 C 679.949219 291.449219 679.414062 295.140625 678.945312 298.160156 C 678.070312 303.863281 677.601562 307.085938 676.460938 315.675781 C 684.78125 317.019531 696.253906 318.363281 708.332031 318.09375 C 721.75 317.757812 732.753906 316.214844 740.203125 314.804688 C 738.191406 298.027344 733.894531 261.109375 733.292969 247.152344 C 732.488281 229.097656 720.8125 158.019531 720.679688 157.28125 Z M 679.210938 277.085938 C 679.210938 277.085938 679.144531 277.085938 679.210938 277.085938 C 680.6875 276.210938 681.828125 275.542969 682.296875 275.136719 C 682.632812 274.871094 684.3125 272.992188 685.453125 271.648438 C 685.519531 271.582031 685.519531 271.582031 685.585938 271.515625 C 685.652344 271.445312 685.71875 271.378906 685.789062 271.3125 C 685.855469 271.246094 685.921875 271.179688 685.988281 271.113281 C 685.988281 271.042969 686.054688 271.042969 686.054688 270.976562 C 686.390625 270.574219 686.660156 270.304688 686.660156 270.304688 C 686.660156 270.304688 688.738281 269.835938 690.417969 269.230469 C 690.753906 269.097656 691.089844 268.964844 691.355469 268.828125 C 691.828125 268.5625 692.230469 268.359375 692.429688 268.089844 C 692.496094 268.023438 692.496094 268.023438 692.496094 267.957031 C 692.898438 267.152344 693.035156 265.539062 691.960938 264.734375 C 691.894531 264.667969 691.757812 264.601562 691.625 264.535156 C 691.289062 264.332031 690.820312 264.265625 690.214844 264.199219 C 690.015625 264.199219 689.8125 264.199219 689.613281 264.199219 C 689.613281 264.199219 690.214844 263.996094 690.953125 263.660156 C 691.019531 263.59375 691.15625 263.59375 691.222656 263.527344 C 691.421875 263.460938 691.558594 263.324219 691.757812 263.257812 C 691.894531 263.191406 691.960938 263.125 692.09375 263.058594 C 692.296875 262.921875 692.496094 262.722656 692.699219 262.585938 C 692.765625 262.519531 692.898438 262.386719 692.96875 262.320312 C 693.101562 262.183594 693.167969 262.050781 693.234375 261.917969 C 693.300781 261.78125 693.4375 261.582031 693.4375 261.445312 C 693.503906 261.109375 693.570312 260.777344 693.570312 260.441406 C 693.570312 260.441406 693.570312 260.441406 693.570312 260.371094 C 693.570312 259.902344 693.4375 259.5 693.101562 259.164062 C 692.5625 258.492188 691.421875 258.023438 689.34375 258.089844 C 688.738281 258.089844 688.070312 258.15625 687.332031 258.292969 C 687.128906 258.292969 686.929688 258.359375 686.660156 258.359375 C 686.59375 258.359375 686.527344 258.359375 686.457031 258.359375 C 686.257812 258.359375 686.121094 258.425781 685.921875 258.425781 C 685.855469 258.425781 685.789062 258.425781 685.789062 258.425781 C 685.585938 258.492188 685.386719 258.492188 685.183594 258.5625 C 685.117188 258.5625 685.117188 258.5625 685.050781 258.5625 C 684.78125 258.628906 684.578125 258.628906 684.3125 258.695312 C 682.5 259.03125 680.488281 259.5 678.542969 259.902344 C 678.542969 259.902344 678.542969 259.902344 678.472656 259.902344 C 673.507812 261.042969 668.8125 262.183594 668.007812 261.984375 C 667.671875 261.917969 667.132812 260.910156 668.140625 260.441406 C 668.609375 260.238281 682.367188 254.871094 684.648438 254.265625 C 684.78125 254.265625 684.847656 254.199219 684.980469 254.132812 C 684.980469 254.132812 685.050781 254.132812 685.050781 254.132812 C 685.117188 254.0625 685.25 253.996094 685.316406 253.996094 C 685.316406 253.996094 685.316406 253.996094 685.386719 253.996094 C 685.453125 253.929688 685.519531 253.863281 685.585938 253.796875 C 685.585938 253.796875 685.585938 253.796875 685.652344 253.726562 C 685.71875 253.660156 685.789062 253.59375 685.855469 253.460938 C 685.855469 253.460938 685.855469 253.394531 685.921875 253.394531 C 685.988281 253.324219 686.054688 253.257812 686.054688 253.125 C 686.054688 253.125 686.054688 253.125 686.054688 253.058594 C 686.121094 252.988281 686.121094 252.855469 686.191406 252.722656 C 686.191406 252.722656 686.191406 252.65625 686.191406 252.65625 C 686.257812 252.453125 686.324219 252.183594 686.324219 251.984375 C 686.324219 251.984375 686.324219 251.917969 686.324219 251.917969 C 686.324219 251.78125 686.324219 251.714844 686.324219 251.582031 C 686.324219 251.445312 686.324219 251.378906 686.324219 251.246094 C 686.324219 251.246094 686.324219 251.246094 686.324219 251.179688 C 686.324219 251.042969 686.257812 250.976562 686.257812 250.84375 C 686.257812 250.84375 686.257812 250.84375 686.257812 250.773438 C 686.191406 250.640625 686.191406 250.574219 686.121094 250.441406 C 686.054688 250.304688 685.988281 250.238281 685.921875 250.171875 C 685.921875 250.171875 685.921875 250.171875 685.921875 250.105469 C 685.789062 249.902344 685.585938 249.769531 685.386719 249.632812 C 685.386719 249.632812 685.386719 249.632812 685.316406 249.632812 C 684.714844 249.230469 683.773438 249.164062 682.433594 249.5 C 677.46875 250.773438 661.230469 254.667969 661.230469 254.667969 L 659.957031 254.800781 C 659.957031 254.800781 656.464844 255.003906 653.378906 260.171875 L 647.476562 263.929688 C 647.476562 263.929688 642.308594 272.050781 647.476562 279.703125 C 652.640625 287.285156 658.882812 280.84375 658.882812 280.84375 C 658.882812 280.84375 665.121094 283.929688 666.867188 283.394531 C 668.207031 283.125 674.984375 279.5 679.210938 277.085938 C 679.144531 277.085938 679.210938 277.085938 679.210938 277.085938 Z M 649.21875 105.867188 L 644.65625 119.425781 L 632.980469 113.789062 C 630.230469 114.394531 627.414062 114.726562 624.527344 114.726562 C 602.921875 114.726562 585.476562 97.210938 585.476562 75.597656 C 585.476562 53.988281 602.921875 36.535156 624.527344 36.535156 C 646.132812 36.535156 663.644531 54.054688 663.644531 75.667969 C 663.644531 87.816406 658.007812 98.753906 649.21875 105.867188 Z M 612.316406 75.398438 C 612.316406 72.511719 609.96875 70.164062 607.082031 70.164062 C 604.199219 70.164062 601.847656 72.511719 601.847656 75.398438 C 601.847656 78.285156 604.199219 80.632812 607.082031 80.632812 C 609.96875 80.699219 612.316406 78.351562 612.316406 75.398438 Z M 629.558594 75.398438 C 629.558594 72.511719 627.210938 70.164062 624.328125 70.164062 C 621.441406 70.164062 619.09375 72.511719 619.09375 75.398438 C 619.09375 78.285156 621.441406 80.632812 624.328125 80.632812 C 627.210938 80.699219 629.558594 78.351562 629.558594 75.398438 Z M 647.273438 75.398438 C 647.273438 72.511719 644.925781 70.164062 642.039062 70.164062 C 639.15625 70.164062 636.808594 72.511719 636.808594 75.398438 C 636.808594 78.285156 639.15625 80.632812 642.039062 80.632812 C 644.925781 80.699219 647.273438 78.351562 647.273438 75.398438 Z M 847.757812 196.207031 C 847.757812 196.207031 845.476562 195.335938 843.734375 198.355469 C 841.921875 201.375 840.914062 203.726562 840.914062 203.726562 C 840.714844 203.859375 838.835938 204.195312 838.835938 204.195312 L 838.703125 204.398438 C 838.433594 203.925781 838.03125 203.457031 837.292969 202.851562 C 836.890625 202.519531 836.285156 202.25 835.546875 201.980469 L 840.847656 199.027344 L 840.914062 198.894531 C 840.914062 198.894531 829.777344 200.234375 826.960938 199.898438 C 824.140625 199.566406 816.359375 205.066406 813.539062 207.351562 C 810.722656 209.632812 809.515625 210.90625 807.703125 214.261719 C 807.03125 215.472656 805.691406 217.484375 804.214844 219.566406 L 814.007812 229.363281 C 814.613281 228.425781 815.015625 227.820312 815.015625 227.753906 C 815.152344 227.484375 825.75 226.8125 828.570312 225.941406 C 831.386719 225.070312 831.121094 225.472656 833.066406 223.457031 C 833.132812 223.390625 833.199219 223.257812 833.332031 223.121094 C 836.554688 218.761719 835.480469 215.136719 835.480469 215.136719 C 836.421875 213.726562 836.351562 211.445312 836.351562 211.445312 C 836.351562 211.445312 836.554688 211.109375 836.824219 210.640625 L 836.824219 210.707031 C 836.824219 210.707031 842.527344 209.632812 843.597656 208.019531 C 844.671875 206.34375 847.894531 199.027344 848.027344 197.820312 C 848.164062 196.613281 847.757812 196.207031 847.757812 196.207031 Z M 847.757812 196.207031 " fill-opacity="1" fill-rule="nonzero"/></g><path fill="#ffb15f" d="M 818.304688 233.59375 L 800.523438 215.875 C 800.457031 215.808594 800.320312 215.738281 800.1875 215.738281 C 800.054688 215.738281 799.917969 215.808594 799.851562 215.875 L 783.28125 232.988281 L 765.296875 181.644531 C 763.820312 176.878906 759.726562 170.90625 754.359375 169.027344 C 753.957031 168.890625 753.488281 168.757812 753.152344 168.691406 L 742.484375 166.007812 L 734.296875 164.394531 L 721.414062 156.8125 C 721.214844 156.742188 721.011719 156.742188 720.878906 156.8125 C 720.746094 156.945312 720.609375 157.148438 720.679688 157.28125 C 720.8125 158.019531 732.488281 229.097656 733.292969 247.285156 C 733.628906 255.203125 735.171875 270.507812 736.78125 285.339844 L 727.992188 287.421875 C 727.453125 288.09375 726.648438 288.429688 725.710938 288.429688 L 724.167969 288.359375 L 711.6875 291.3125 L 680.488281 287.824219 C 680.554688 287.285156 680.621094 286.683594 680.753906 286.078125 L 666.800781 285.339844 C 665.523438 285.273438 664.449219 284.332031 664.183594 283.058594 C 663.445312 282.789062 662.570312 282.523438 661.832031 282.1875 C 661.632812 282.117188 661.429688 282.050781 661.230469 281.917969 C 660.089844 281.449219 659.148438 280.976562 658.949219 280.910156 C 658.882812 280.910156 658.882812 280.910156 658.882812 280.910156 C 658.882812 280.910156 658.816406 280.976562 658.816406 280.976562 C 658.746094 281.046875 658.746094 281.046875 658.679688 281.113281 C 658.613281 281.179688 658.546875 281.179688 658.480469 281.246094 C 658.480469 281.246094 658.410156 281.246094 658.410156 281.3125 C 658.34375 281.378906 658.277344 281.449219 658.144531 281.515625 C 658.078125 281.582031 657.941406 281.648438 657.808594 281.714844 C 657.808594 281.714844 657.742188 281.714844 657.742188 281.785156 C 657.675781 281.851562 657.539062 281.917969 657.40625 281.984375 C 657.40625 281.984375 657.339844 281.984375 657.339844 282.050781 C 657.070312 282.1875 656.800781 282.386719 656.535156 282.523438 C 656.535156 282.523438 656.464844 282.523438 656.464844 282.589844 C 656.332031 282.65625 656.199219 282.722656 656.0625 282.789062 C 656.0625 282.789062 655.996094 282.789062 655.996094 282.789062 C 655.863281 282.855469 655.660156 282.925781 655.460938 282.992188 C 655.460938 282.992188 655.460938 282.992188 655.394531 282.992188 C 655.257812 283.058594 655.058594 283.125 654.921875 283.125 C 654.855469 283.125 654.855469 283.125 654.789062 283.125 C 654.453125 283.191406 654.050781 283.261719 653.648438 283.328125 C 653.582031 283.328125 653.582031 283.328125 653.515625 283.328125 C 653.378906 283.328125 653.179688 283.328125 653.042969 283.328125 C 652.976562 283.328125 652.976562 283.328125 652.910156 283.328125 C 652.707031 283.328125 652.507812 283.328125 652.304688 283.261719 C 650.695312 282.992188 649.019531 281.984375 647.40625 279.636719 C 642.242188 272.050781 647.40625 263.863281 647.40625 263.863281 L 653.3125 260.105469 C 653.515625 259.835938 653.648438 259.566406 653.847656 259.300781 C 653.917969 259.230469 653.917969 259.164062 653.984375 259.097656 C 654.117188 258.894531 654.320312 258.628906 654.453125 258.425781 C 654.453125 258.425781 654.453125 258.359375 654.519531 258.359375 C 654.722656 258.15625 654.855469 257.957031 655.058594 257.753906 C 655.125 257.6875 655.125 257.6875 655.191406 257.621094 C 655.324219 257.417969 655.527344 257.285156 655.660156 257.152344 C 655.660156 257.152344 655.726562 257.085938 655.726562 257.085938 C 655.929688 256.949219 656.0625 256.75 656.199219 256.613281 C 656.265625 256.546875 656.265625 256.546875 656.332031 256.480469 C 656.464844 256.347656 656.601562 256.277344 656.734375 256.144531 C 656.734375 256.144531 656.800781 256.078125 656.800781 256.078125 C 656.9375 255.941406 657.136719 255.875 657.269531 255.742188 C 657.339844 255.742188 657.339844 255.675781 657.40625 255.675781 C 657.539062 255.609375 657.605469 255.539062 657.742188 255.472656 C 657.808594 255.472656 657.808594 255.40625 657.875 255.40625 C 658.007812 255.339844 658.144531 255.273438 658.277344 255.203125 C 658.34375 255.203125 658.34375 255.136719 658.410156 255.136719 C 658.480469 255.136719 658.546875 255.070312 658.613281 255.070312 C 658.679688 255.070312 658.746094 255.003906 658.746094 255.003906 C 659.484375 254.734375 659.957031 254.667969 659.957031 254.667969 L 661.230469 254.535156 C 661.230469 254.535156 663.242188 254.0625 666.0625 253.394531 C 664.113281 253.863281 662.570312 254.199219 661.832031 254.398438 L 658.277344 210.503906 C 658.144531 208.828125 659.550781 207.417969 661.230469 207.484375 L 685.921875 208.757812 C 685.921875 188.222656 685.25 171.644531 685.25 171.308594 L 683.976562 155.335938 C 683.976562 155.132812 683.839844 155 683.640625 154.933594 C 683.4375 154.863281 683.238281 154.863281 683.105469 155 C 679.816406 157.953125 673.710938 163.523438 672.972656 164.195312 L 644.722656 174.53125 C 644.390625 174.933594 635.933594 179.226562 634.59375 191.375 C 633.519531 201.644531 631.574219 266.683594 631.839844 272.117188 C 632.042969 277.019531 636.472656 292.589844 645.125 293.125 C 645.664062 293.125 646.132812 293.191406 646.601562 293.191406 C 647.476562 293.191406 648.347656 293.125 649.152344 293.058594 L 639.960938 320.375 C 639.894531 320.511719 639.960938 320.644531 640.027344 320.777344 C 640.09375 320.914062 640.230469 320.980469 640.363281 321.046875 C 655.796875 323.597656 666.0625 323.933594 674.851562 323.933594 C 675.117188 323.933594 675.320312 323.730469 675.320312 323.53125 C 675.722656 320.777344 676.058594 318.429688 676.328125 316.347656 C 683.910156 317.558594 694.039062 318.765625 704.84375 318.765625 C 705.984375 318.765625 707.125 318.765625 708.265625 318.699219 C 721.617188 318.363281 732.6875 316.820312 740.203125 315.410156 C 740.808594 320.308594 741.140625 323.394531 741.210938 323.53125 C 741.210938 323.796875 741.476562 324 741.679688 324 C 741.679688 324 741.679688 324 741.746094 324 L 742.214844 323.933594 C 757.917969 322.589844 762.679688 322.1875 774.488281 318.832031 C 774.625 318.765625 774.757812 318.699219 774.824219 318.5625 C 774.890625 318.429688 774.890625 318.296875 774.824219 318.160156 L 753.621094 272.65625 C 753.691406 271.984375 753.824219 268.828125 753.890625 267.890625 L 754.695312 252.117188 L 755.164062 243.792969 C 756.441406 246.34375 759.726562 252.921875 763.621094 261.648438 C 766.4375 267.957031 771.941406 272.050781 778.71875 272.855469 C 779.523438 272.921875 780.328125 272.992188 781.132812 272.992188 C 785.964844 272.992188 790.457031 271.113281 793.007812 267.957031 C 796.699219 263.324219 818.167969 234.464844 818.371094 234.195312 C 818.4375 234.0625 818.4375 233.726562 818.304688 233.59375 Z M 708.265625 317.824219 C 696.320312 318.09375 684.78125 316.820312 676.527344 315.410156 C 677.667969 307.152344 678.136719 303.933594 679.011719 298.359375 C 679.414062 295.8125 679.816406 292.859375 680.417969 288.695312 L 711.6875 292.1875 C 711.753906 292.1875 711.820312 292.1875 711.820312 292.1875 L 736.847656 286.28125 C 738.054688 297.019531 739.265625 307.421875 740.136719 314.535156 C 732.621094 315.945312 721.617188 317.488281 708.265625 317.824219 Z M 607.015625 70.164062 C 609.902344 70.164062 612.25 72.511719 612.25 75.398438 C 612.25 78.285156 609.902344 80.632812 607.015625 80.632812 C 604.128906 80.632812 601.78125 78.285156 601.78125 75.398438 C 601.78125 72.511719 604.128906 70.164062 607.015625 70.164062 Z M 836.621094 55.933594 C 837.964844 55.933594 839.105469 57.007812 839.105469 58.417969 C 839.105469 59.828125 838.03125 60.902344 836.621094 60.902344 C 835.210938 60.902344 834.140625 59.828125 834.140625 58.417969 C 834.140625 57.007812 835.28125 55.933594 836.621094 55.933594 Z M 836.621094 55.933594 " fill-opacity="1" fill-rule="nonzero"/><g clip-path="url(#5c1832b770)"><path fill="#9c6afd" d="M 853.058594 55.933594 C 854.402344 55.933594 855.542969 57.007812 855.542969 58.417969 C 855.542969 59.828125 854.46875 60.902344 853.058594 60.902344 C 851.652344 60.902344 850.578125 59.828125 850.578125 58.417969 C 850.578125 57.007812 851.71875 55.933594 853.058594 55.933594 Z M 724.570312 213.457031 C 724.503906 212.046875 723.363281 210.90625 721.953125 210.839844 L 661.230469 207.753906 C 659.550781 207.6875 658.144531 209.09375 658.277344 210.773438 L 661.832031 254.667969 C 664.785156 253.929688 678.003906 250.773438 682.433594 249.632812 C 687.398438 248.359375 687.0625 253.726562 684.648438 254.398438 C 682.433594 255.003906 668.542969 260.441406 668.074219 260.640625 C 667.066406 261.109375 667.605469 262.117188 667.941406 262.183594 C 669.28125 262.519531 681.089844 259.230469 687.195312 258.359375 C 693.300781 257.488281 693.773438 259.769531 693.371094 261.515625 C 692.96875 263.257812 689.476562 264.332031 689.476562 264.332031 C 693.035156 264.0625 692.96875 266.816406 692.363281 268.023438 C 691.757812 269.230469 686.457031 270.375 686.457031 270.375 C 686.457031 270.375 682.632812 274.734375 682.097656 275.207031 C 680.351562 276.683594 668.542969 283.058594 666.730469 283.59375 C 666.195312 283.796875 665.121094 283.59375 663.980469 283.191406 C 664.25 284.46875 665.257812 285.40625 666.597656 285.476562 L 725.507812 288.5625 C 727.1875 288.628906 728.527344 287.285156 728.460938 285.609375 Z M 841.386719 198.757812 L 843.734375 197.484375 C 843.597656 197.683594 843.464844 197.886719 843.332031 198.089844 C 842.390625 199.632812 841.722656 201.042969 841.183594 202.046875 L 838.632812 203.457031 C 838.367188 203.1875 838.03125 202.851562 837.628906 202.449219 C 837.425781 202.25 837.089844 202.113281 836.753906 201.914062 L 841.117188 199.496094 C 841.183594 199.429688 841.25 199.429688 841.316406 199.296875 L 841.386719 199.160156 C 841.453125 199.09375 841.453125 198.960938 841.386719 198.757812 Z M 863.730469 188.355469 L 862.855469 190.035156 L 848.566406 197.953125 C 848.566406 197.886719 848.632812 197.820312 848.632812 197.753906 C 848.832031 196.277344 848.164062 195.804688 848.027344 195.738281 C 848.027344 195.738281 848.027344 195.738281 847.960938 195.738281 C 847.960938 195.738281 847.625 195.605469 847.15625 195.605469 L 861.582031 187.617188 L 863.394531 187.683594 C 863.660156 187.753906 863.863281 188.085938 863.730469 188.355469 Z M 642.039062 70.164062 C 644.925781 70.164062 647.273438 72.511719 647.273438 75.398438 C 647.273438 78.285156 644.925781 80.632812 642.039062 80.632812 C 639.15625 80.632812 636.808594 78.285156 636.808594 75.398438 C 636.738281 72.511719 639.089844 70.164062 642.039062 70.164062 Z M 858.964844 142.917969 L 858.964844 144.863281 L 858.898438 152.648438 C 858.359375 152.851562 857.757812 152.917969 857.085938 152.917969 L 768.519531 152.917969 C 766.035156 152.917969 763.957031 151.441406 763.015625 149.292969 C 771.402344 130.367188 783.28125 124.125 785.695312 122.984375 C 785.828125 122.917969 785.964844 122.851562 786.097656 122.851562 C 786.097656 122.851562 786.164062 122.851562 786.164062 122.851562 C 787.507812 122.3125 789.519531 121.777344 791.933594 121.105469 C 793.144531 120.769531 795.558594 120.164062 798.039062 119.628906 C 798.039062 119.695312 798.039062 119.761719 798.039062 119.828125 C 798.175781 120.433594 799.113281 123.589844 800.925781 126.40625 C 803.003906 129.5625 805.554688 131.238281 808.304688 131.238281 C 808.777344 131.238281 809.3125 131.171875 809.851562 131.105469 C 809.984375 131.039062 810.117188 130.972656 810.183594 130.769531 L 811.996094 126.273438 L 812.601562 131.304688 C 812.601562 131.507812 812.800781 131.710938 813.003906 131.710938 C 813.808594 131.84375 814.613281 131.910156 815.417969 131.910156 C 825.617188 131.910156 833.667969 121.777344 834.003906 120.5 C 836.488281 121.105469 839.371094 121.910156 842.191406 122.648438 C 851.71875 125.265625 858.09375 133.519531 858.695312 142.785156 C 858.898438 142.785156 858.898438 142.851562 858.964844 142.917969 Z M 858.964844 142.917969 " fill-opacity="1" fill-rule="nonzero"/></g><g clip-path="url(#97df99beb0)"><path fill="#343434" d="M 687.195312 257.753906 C 684.246094 258.15625 680.085938 259.164062 676.328125 259.96875 C 672.835938 260.777344 668.878906 261.648438 668.140625 261.582031 C 668.074219 261.515625 668.007812 261.378906 668.074219 261.246094 C 668.074219 261.179688 668.074219 261.042969 668.34375 260.976562 C 668.945312 260.707031 682.632812 255.40625 684.78125 254.800781 C 686.390625 254.332031 687.128906 252.386719 686.726562 250.910156 C 686.390625 249.566406 685.050781 248.359375 682.296875 249.097656 C 677.402344 250.371094 661.296875 254.265625 661.164062 254.265625 L 659.886719 254.398438 C 659.621094 254.398438 656.0625 254.800781 652.976562 259.902344 L 647.140625 263.59375 C 647.074219 263.660156 647.003906 263.660156 647.003906 263.730469 C 646.9375 263.796875 641.703125 272.253906 647.003906 280.039062 C 648.617188 282.453125 650.5625 283.730469 652.707031 283.929688 C 655.660156 284.199219 658.144531 282.253906 658.949219 281.515625 C 660.359375 282.1875 664.316406 284 666.398438 284 C 666.664062 284 666.867188 284 667 283.929688 C 668.8125 283.394531 680.753906 276.949219 682.5 275.472656 C 682.96875 275.070312 686.054688 271.515625 686.792969 270.707031 C 688.269531 270.375 692.230469 269.433594 692.898438 268.160156 C 693.300781 267.285156 693.503906 265.945312 692.832031 264.9375 C 692.5625 264.601562 692.230469 264.199219 691.558594 263.929688 C 692.5625 263.394531 693.703125 262.585938 693.90625 261.515625 C 694.175781 260.304688 693.972656 259.367188 693.371094 258.695312 C 692.363281 257.621094 690.351562 257.351562 687.195312 257.753906 Z M 692.898438 261.3125 C 692.632812 262.519531 690.214844 263.460938 689.410156 263.730469 C 688.941406 263.863281 670.757812 267.890625 667.203125 268.226562 C 666.933594 268.226562 666.730469 268.492188 666.730469 268.761719 C 666.730469 269.03125 667 269.230469 667.203125 269.230469 C 667.203125 269.230469 667.269531 269.230469 667.269531 269.230469 C 670.824219 268.898438 688.40625 264.9375 689.546875 264.667969 C 690.6875 264.601562 691.492188 264.871094 691.894531 265.40625 C 692.296875 266.011719 692.230469 267.015625 691.960938 267.621094 C 691.625 268.226562 688.875 269.164062 686.390625 269.703125 C 686.257812 269.703125 673.171875 272.519531 670.691406 272.921875 C 670.421875 272.992188 670.222656 273.191406 670.289062 273.527344 C 670.355469 273.796875 670.554688 273.929688 670.757812 273.929688 C 670.757812 273.929688 670.824219 273.929688 670.824219 273.929688 C 672.835938 273.59375 681.558594 271.78125 685.117188 271.042969 C 683.707031 272.65625 682.097656 274.402344 681.828125 274.667969 C 680.152344 276.078125 668.34375 282.453125 666.664062 282.925781 C 665.589844 283.261719 661.566406 281.648438 659.148438 280.441406 C 659.148438 280.441406 659.148438 280.441406 659.082031 280.375 C 659.015625 280.308594 651.769531 276.210938 650.964844 267.285156 C 650.964844 267.015625 650.695312 266.816406 650.425781 266.816406 C 650.160156 266.816406 649.957031 267.085938 649.957031 267.351562 C 650.695312 275.273438 656.0625 279.570312 657.941406 280.777344 C 657.070312 281.515625 654.988281 282.925781 652.707031 282.789062 C 650.898438 282.65625 649.21875 281.449219 647.742188 279.300781 C 643.113281 272.519531 647.140625 265.136719 647.675781 264.199219 L 653.515625 260.507812 C 653.582031 260.441406 653.648438 260.441406 653.648438 260.371094 C 656.535156 255.539062 659.820312 255.273438 659.820312 255.203125 L 661.164062 255.070312 C 661.296875 255.003906 677.402344 251.179688 682.367188 249.902344 C 684.109375 249.433594 685.316406 249.835938 685.585938 250.976562 C 685.855469 252.050781 685.25 253.394531 684.3125 253.660156 C 682.097656 254.265625 668.273438 259.632812 667.671875 259.902344 C 667.066406 260.171875 666.730469 260.707031 666.800781 261.246094 C 666.867188 261.78125 667.203125 262.253906 667.605469 262.386719 C 668.410156 262.585938 671.292969 261.917969 676.328125 260.777344 C 680.015625 259.902344 684.246094 258.964844 687.0625 258.5625 C 690.484375 258.089844 691.828125 258.628906 692.363281 259.164062 C 693.035156 259.835938 693.101562 260.441406 692.898438 261.3125 Z M 848.632812 197.753906 C 848.496094 199.09375 845.144531 206.542969 844.136719 208.15625 C 843.0625 209.832031 838.164062 210.839844 837.160156 211.042969 C 837.089844 211.175781 836.957031 211.308594 836.957031 211.445312 C 836.957031 211.980469 836.890625 213.792969 836.085938 215.136719 C 836.285156 216.007812 836.6875 219.429688 833.804688 223.390625 C 833.734375 223.527344 833.601562 223.660156 833.535156 223.792969 C 831.925781 225.472656 831.722656 225.539062 830.246094 226.007812 C 829.910156 226.144531 829.441406 226.210938 828.839844 226.410156 C 827.09375 226.949219 822.730469 227.417969 819.242188 227.753906 C 817.632812 227.886719 816.023438 228.089844 815.484375 228.15625 C 815.285156 228.425781 814.949219 229.027344 814.480469 229.765625 L 813.742188 229.027344 C 814.277344 228.15625 814.613281 227.621094 814.679688 227.550781 C 814.882812 227.21875 814.882812 227.21875 819.109375 226.746094 C 822.398438 226.410156 826.890625 226.007812 828.503906 225.472656 C 829.105469 225.269531 829.578125 225.136719 829.910156 225.070312 C 831.253906 224.667969 831.320312 224.667969 832.796875 223.121094 C 832.863281 223.054688 832.929688 222.988281 833 222.855469 C 836.019531 218.691406 835.144531 215.269531 835.144531 215.203125 C 835.078125 215.070312 835.144531 214.933594 835.210938 214.800781 C 836.019531 213.523438 836.019531 211.378906 836.019531 211.378906 C 836.019531 211.308594 836.019531 211.175781 836.085938 211.109375 C 836.085938 211.109375 836.285156 210.773438 836.554688 210.371094 C 837.089844 209.027344 837.160156 208.355469 837.089844 208.019531 C 836.890625 206.542969 832.730469 205.472656 830.71875 204.933594 L 830.382812 204.867188 C 827.429688 204.0625 824.878906 204.0625 823.335938 204.800781 C 821.257812 205.738281 821.121094 205.941406 821.054688 207.082031 C 821.054688 207.617188 822.0625 207.6875 823.671875 207.820312 C 824.207031 207.820312 824.746094 207.886719 825.347656 207.953125 C 827.699219 208.222656 831.523438 209.363281 831.722656 209.363281 C 831.722656 209.363281 831.722656 209.363281 831.789062 209.363281 C 831.789062 209.363281 831.859375 209.363281 831.859375 209.429688 C 831.859375 209.429688 831.925781 209.496094 831.925781 209.496094 C 831.925781 209.496094 831.992188 209.566406 831.992188 209.566406 C 831.992188 209.566406 831.992188 209.632812 832.058594 209.632812 C 832.058594 209.632812 832.058594 209.699219 832.058594 209.699219 C 832.058594 209.699219 832.058594 209.765625 832.058594 209.832031 C 832.058594 209.832031 832.058594 209.902344 832.058594 209.902344 C 832.058594 209.902344 832.058594 209.902344 832.058594 209.96875 C 832.058594 209.96875 832.058594 209.96875 832.058594 210.035156 C 832.058594 210.035156 832.058594 210.035156 832.058594 210.101562 C 832.058594 210.167969 832.058594 210.167969 831.992188 210.167969 C 831.992188 210.167969 831.992188 210.238281 831.925781 210.238281 C 831.925781 210.304688 831.859375 210.304688 831.789062 210.304688 C 831.789062 210.304688 831.789062 210.304688 831.722656 210.304688 C 831.65625 210.304688 831.65625 210.371094 831.589844 210.371094 C 831.589844 210.371094 831.523438 210.371094 831.523438 210.371094 C 831.523438 210.371094 831.453125 210.371094 831.453125 210.371094 C 831.386719 210.371094 825.617188 209.699219 822.933594 209.96875 C 820.71875 210.167969 818.101562 210.976562 817.164062 211.308594 C 817.230469 211.914062 817.363281 212.988281 817.902344 213.457031 C 818.238281 213.726562 818.574219 213.792969 819.109375 213.660156 C 821.660156 213.121094 824.542969 213.324219 825.148438 213.390625 C 825.617188 213.191406 827.628906 212.652344 829.441406 213.457031 C 831.453125 214.332031 834.472656 217.886719 834.609375 218.089844 C 834.808594 218.289062 834.742188 218.625 834.542969 218.828125 C 834.472656 218.894531 834.339844 218.960938 834.207031 218.960938 C 834.070312 218.960938 833.9375 218.894531 833.804688 218.761719 C 833.804688 218.691406 830.851562 215.203125 829.039062 214.464844 C 827.363281 213.726562 825.417969 214.464844 825.347656 214.464844 L 820.585938 216.210938 C 820.785156 216.949219 821.390625 218.359375 823.203125 218.359375 C 823.203125 218.359375 823.269531 218.359375 823.269531 218.359375 C 825.550781 218.289062 826.085938 217.953125 826.222656 217.886719 C 826.289062 217.753906 826.421875 217.6875 826.558594 217.6875 C 826.691406 217.6875 826.890625 217.6875 826.960938 217.820312 L 828.769531 219.699219 C 828.90625 219.835938 828.972656 220.101562 828.839844 220.304688 L 827.765625 222.453125 C 827.699219 222.652344 827.496094 222.71875 827.296875 222.71875 C 827.226562 222.71875 827.160156 222.71875 827.09375 222.652344 C 826.824219 222.519531 826.757812 222.25 826.890625 221.980469 L 827.765625 220.167969 L 826.488281 218.828125 C 826.019531 219.097656 825.015625 219.296875 823.269531 219.363281 C 823.203125 219.363281 823.203125 219.363281 823.136719 219.363281 C 820.449219 219.363281 819.578125 217.148438 819.445312 215.941406 C 819.445312 215.738281 819.578125 215.472656 819.78125 215.40625 L 822.53125 214.398438 C 821.523438 214.398438 820.316406 214.464844 819.175781 214.734375 C 818.371094 214.933594 817.632812 214.800781 817.097656 214.332031 C 815.886719 213.324219 815.957031 211.109375 815.957031 211.042969 C 815.957031 210.839844 816.089844 210.640625 816.292969 210.570312 C 816.425781 210.503906 819.78125 209.363281 822.664062 209.09375 C 823.203125 209.027344 823.871094 209.027344 824.609375 209.027344 C 824.207031 208.960938 823.804688 208.960938 823.402344 208.960938 C 821.660156 208.894531 819.78125 208.757812 819.847656 207.214844 C 819.914062 205.472656 820.652344 205 822.664062 204.0625 C 825.015625 202.988281 828.167969 203.457031 830.449219 204.0625 L 830.785156 204.128906 C 834.207031 205.066406 837.5625 206.074219 837.894531 208.019531 C 837.964844 208.558594 837.894531 209.296875 837.5625 210.238281 C 839.707031 209.765625 842.59375 208.894531 843.195312 207.886719 C 844.269531 206.277344 847.425781 198.960938 847.558594 197.886719 C 847.625 197.28125 847.492188 197.015625 847.425781 196.945312 C 847.089844 196.878906 845.410156 196.613281 844.070312 198.894531 C 842.324219 201.847656 841.316406 204.195312 841.316406 204.261719 C 841.25 204.328125 841.183594 204.464844 841.117188 204.53125 C 840.914062 204.664062 840.246094 204.800781 839.035156 205 L 838.96875 205.066406 C 838.835938 205.203125 838.703125 205.269531 838.5 205.269531 C 838.300781 205.269531 838.164062 205.136719 838.097656 205 C 837.894531 204.597656 837.492188 204.195312 836.824219 203.589844 C 836.621094 203.390625 836.152344 203.121094 835.210938 202.851562 C 835.011719 202.785156 834.875 202.652344 834.875 202.449219 C 834.875 202.25 834.945312 202.046875 835.144531 201.980469 L 838.566406 200.101562 C 835.144531 200.4375 828.90625 201.042969 826.824219 200.839844 C 824.34375 200.503906 817.027344 205.539062 813.808594 208.15625 C 810.992188 210.4375 809.851562 211.644531 808.105469 214.867188 C 807.433594 216.144531 806.023438 218.15625 804.550781 220.304688 L 803.8125 219.566406 C 805.289062 217.550781 806.5625 215.539062 807.234375 214.398438 C 809.042969 211.042969 810.253906 209.765625 813.203125 207.351562 C 815.285156 205.671875 823.738281 199.429688 827.027344 199.832031 C 829.777344 200.167969 840.714844 198.894531 840.847656 198.828125 C 841.050781 198.828125 841.25 198.894531 841.316406 199.027344 C 841.453125 199.160156 841.453125 199.429688 841.316406 199.566406 L 841.25 199.699219 C 841.183594 199.765625 841.117188 199.832031 841.050781 199.898438 L 836.6875 202.316406 C 837.089844 202.519531 837.359375 202.652344 837.5625 202.851562 C 838.097656 203.324219 838.5 203.726562 838.769531 204.0625 C 839.441406 203.925781 840.175781 203.792969 840.511719 203.726562 C 840.78125 203.054688 841.789062 200.972656 843.265625 198.492188 C 845.210938 195.136719 847.894531 196.074219 847.894531 196.074219 C 847.894531 196.074219 847.894531 196.074219 847.960938 196.074219 C 848.164062 195.804688 848.832031 196.277344 848.632812 197.753906 Z M 737.183594 104.324219 C 737.050781 102.175781 736.714844 99.960938 736.246094 97.679688 C 736.042969 95.734375 735.707031 93.855469 735.238281 91.640625 C 734.433594 88.015625 732.488281 84.527344 730.742188 81.238281 C 728.730469 77.613281 726.046875 74.121094 723.09375 71.839844 C 721.617188 70.699219 720.410156 70.027344 719.402344 69.691406 C 715.042969 67.613281 709.675781 65.800781 704.910156 65.933594 C 694.914062 66.070312 686.121094 68.351562 678.609375 74.929688 C 675.925781 77.277344 673.910156 80.097656 672.433594 83.183594 C 672.300781 83.519531 672.101562 83.855469 671.964844 84.191406 C 665.589844 97.816406 659.417969 118.824219 660.960938 150.972656 L 682.96875 155.738281 L 683.4375 159.363281 C 683.4375 159.496094 683.574219 159.628906 683.707031 159.695312 L 706.519531 173.121094 L 698.601562 184.933594 L 685.921875 173.457031 C 685.71875 173.253906 685.386719 173.253906 685.183594 173.523438 C 684.980469 173.722656 684.980469 174.058594 685.25 174.261719 L 698.335938 186.140625 C 698.402344 186.207031 698.535156 186.277344 698.671875 186.277344 C 698.671875 186.277344 698.738281 186.277344 698.738281 186.277344 C 698.871094 186.277344 699.003906 186.207031 699.074219 186.074219 L 707.257812 173.925781 L 715.847656 184.933594 C 715.980469 185.066406 716.117188 185.132812 716.25 185.132812 C 716.382812 185.132812 716.585938 185 716.652344 184.867188 L 723.765625 173.054688 C 723.898438 172.785156 723.832031 172.515625 723.5625 172.382812 C 723.292969 172.246094 723.027344 172.316406 722.890625 172.582031 L 716.183594 183.792969 L 707.863281 173.121094 L 721.347656 157.011719 C 721.417969 156.945312 721.484375 156.8125 721.484375 156.675781 C 721.484375 156.476562 721.484375 156.273438 721.417969 156.074219 C 732.890625 152.449219 744.160156 141.976562 744.160156 141.976562 L 743.625 135.871094 C 742.6875 125.601562 739.734375 113.320312 737.183594 104.324219 Z M 707.058594 172.316406 L 684.378906 158.957031 L 683.976562 155.9375 L 690.820312 157.414062 C 692.496094 157.75 694.109375 156.609375 694.308594 154.933594 C 694.710938 151.242188 694.375 147.882812 693.773438 144.328125 C 692.898438 139.496094 689.34375 134.664062 688.671875 129.828125 C 687.332031 120.636719 687.867188 115.398438 688.472656 107.546875 C 692.765625 106.742188 696.722656 103.921875 699.410156 100.367188 C 702.695312 96.070312 704.507812 90.902344 706.253906 85.867188 C 706.386719 90.699219 704.976562 95.667969 702.292969 99.695312 C 704.238281 99.960938 706.253906 99.023438 707.59375 97.613281 C 708.9375 96.203125 709.808594 94.324219 710.480469 92.511719 C 712.089844 88.015625 712.894531 83.183594 712.761719 78.417969 C 713.765625 85.195312 713.429688 92.246094 711.6875 98.890625 C 712.894531 98.417969 714.238281 98.6875 715.511719 98.820312 C 716.785156 98.957031 718.261719 98.820312 719.066406 97.882812 C 719.605469 97.210938 719.804688 96.339844 719.941406 95.53125 C 720.8125 89.625 720.679688 83.585938 719.46875 77.746094 C 721.214844 80.835938 722.960938 83.988281 724.03125 87.34375 C 725.105469 90.699219 725.574219 94.390625 724.703125 97.816406 C 725.242188 98.417969 726.3125 98.285156 726.851562 97.679688 C 727.386719 97.078125 727.589844 96.269531 727.65625 95.464844 C 727.925781 92.511719 727.253906 89.558594 726.582031 86.671875 C 728.527344 89.625 729.265625 93.183594 730.472656 96.539062 C 730.875 97.613281 731.277344 98.6875 731.816406 99.761719 C 733.226562 109.558594 734.566406 120.96875 734.097656 128.488281 C 733.558594 137.414062 729.871094 142.515625 726.851562 145.265625 C 723.765625 148.085938 720.746094 149.027344 720.34375 149.160156 C 719.871094 149.226562 719.941406 149.292969 720.207031 153.1875 L 720.476562 156.476562 Z M 644.722656 119.964844 C 644.792969 119.964844 644.859375 119.964844 644.925781 119.898438 C 645.058594 119.828125 645.195312 119.761719 645.195312 119.5625 L 649.6875 106.136719 C 658.882812 98.621094 664.117188 87.480469 664.117188 75.597656 C 664.117188 53.785156 646.335938 36 624.527344 36 C 602.722656 36 584.941406 53.785156 584.941406 75.597656 C 584.941406 97.414062 602.722656 115.199219 624.527344 115.199219 C 627.347656 115.199219 630.164062 114.863281 632.914062 114.257812 L 644.457031 119.828125 C 644.523438 119.898438 644.589844 119.964844 644.722656 119.964844 Z M 633.25 113.320312 C 633.183594 113.25 633.117188 113.25 633.050781 113.25 C 632.980469 113.25 632.980469 113.25 632.914062 113.25 C 630.164062 113.855469 627.347656 114.191406 624.527344 114.191406 C 603.257812 114.191406 585.949219 96.875 585.949219 75.597656 C 585.949219 54.324219 603.257812 37.007812 624.527344 37.007812 C 645.796875 37.007812 663.109375 54.324219 663.109375 75.597656 C 663.109375 87.210938 657.941406 98.152344 648.882812 105.535156 C 648.816406 105.601562 648.75 105.667969 648.75 105.734375 L 644.390625 118.753906 Z M 811.257812 218.691406 C 810.992188 218.691406 810.722656 218.492188 810.722656 218.222656 C 810.722656 217.953125 810.921875 217.6875 811.191406 217.6875 C 811.527344 217.6875 819.109375 217.148438 823.203125 221.578125 C 823.402344 221.78125 823.402344 222.117188 823.203125 222.316406 C 823.136719 222.382812 823 222.453125 822.867188 222.453125 C 822.730469 222.453125 822.597656 222.382812 822.464844 222.316406 C 818.707031 218.15625 811.394531 218.691406 811.257812 218.691406 Z M 758.320312 196.746094 L 755.566406 242.386719 C 755.566406 242.652344 755.300781 242.855469 755.097656 242.855469 C 754.832031 242.855469 754.628906 242.585938 754.628906 242.316406 L 757.378906 196.679688 C 757.378906 196.410156 757.648438 196.207031 757.917969 196.207031 C 758.117188 196.207031 758.320312 196.476562 758.320312 196.746094 Z M 637.007812 258.359375 C 636.941406 258.425781 636.808594 258.492188 636.671875 258.492188 C 636.539062 258.492188 636.402344 258.425781 636.269531 258.292969 C 636.070312 258.089844 636.136719 257.753906 636.335938 257.554688 C 636.402344 257.488281 643.382812 251.511719 653.042969 254.871094 C 653.3125 254.9375 653.445312 255.273438 653.378906 255.539062 C 653.3125 255.808594 652.976562 255.941406 652.707031 255.875 C 643.652344 252.65625 637.074219 258.292969 637.007812 258.359375 Z M 653.378906 190.707031 L 658.480469 250.371094 C 658.480469 250.640625 658.277344 250.910156 658.007812 250.910156 C 658.007812 250.910156 658.007812 250.910156 657.941406 250.910156 C 657.675781 250.910156 657.472656 250.707031 657.472656 250.441406 L 652.375 190.773438 C 652.375 190.503906 652.574219 190.234375 652.84375 190.234375 C 653.179688 190.234375 653.378906 190.4375 653.378906 190.707031 Z M 734.5 164.664062 C 734.769531 165.132812 740.738281 176.476562 740.40625 181.644531 C 740.40625 181.847656 740.269531 181.980469 740.136719 182.046875 L 736.378906 184.128906 L 739.800781 186.609375 C 739.933594 186.679688 740 186.878906 740 187.015625 C 739.933594 188.625 739.0625 227.148438 735.105469 238.359375 C 735.035156 238.558594 734.835938 238.695312 734.632812 238.695312 C 734.566406 238.695312 734.5 238.695312 734.5 238.695312 C 734.230469 238.625 734.097656 238.292969 734.164062 238.023438 C 737.921875 227.484375 738.929688 190.773438 738.996094 187.28125 L 735.171875 184.464844 C 735.035156 184.328125 734.96875 184.195312 734.96875 183.992188 C 734.96875 183.792969 735.105469 183.65625 735.238281 183.589844 L 739.464844 181.242188 C 739.53125 176.273438 733.695312 165.199219 733.628906 165.066406 C 733.492188 164.796875 733.5625 164.53125 733.828125 164.394531 C 734.03125 164.261719 734.367188 164.394531 734.5 164.664062 Z M 713.027344 111.707031 C 714.035156 112.714844 714.101562 115.464844 712.625 115.601562 C 711.621094 115.734375 711.285156 114.59375 711.148438 113.722656 C 711.015625 113.117188 711.082031 112.445312 711.417969 111.84375 C 711.621094 111.304688 712.15625 110.902344 713.027344 111.707031 Z M 726.785156 109.492188 C 727.789062 110.5 727.855469 113.25 726.382812 113.386719 C 725.375 113.519531 725.039062 112.378906 724.90625 111.507812 C 724.769531 110.902344 724.839844 110.230469 725.171875 109.628906 C 725.375 109.15625 725.910156 108.6875 726.785156 109.492188 Z M 715.710938 127.347656 C 715.78125 127.078125 716.117188 126.945312 716.382812 127.078125 C 716.449219 127.078125 720.34375 128.554688 722.625 126.542969 C 723.496094 125.734375 723.226562 120.433594 718.597656 109.628906 C 718.464844 109.359375 718.597656 109.089844 718.867188 108.957031 C 719.132812 108.820312 719.402344 108.957031 719.539062 109.226562 C 719.539062 109.292969 721.148438 113.117188 722.421875 117.144531 C 725.105469 125.601562 723.699219 126.875 723.292969 127.28125 C 722.152344 128.351562 720.679688 128.621094 719.335938 128.621094 C 717.589844 128.621094 716.046875 128.085938 715.980469 128.019531 C 715.78125 127.882812 715.644531 127.613281 715.710938 127.347656 Z M 720.34375 136.742188 C 717.859375 136.742188 716.046875 135.804688 715.980469 135.804688 C 715.710938 135.667969 715.644531 135.402344 715.78125 135.132812 C 715.914062 134.863281 716.183594 134.796875 716.449219 134.929688 C 716.652344 134.996094 721.148438 137.347656 725.710938 133.925781 C 725.910156 133.722656 726.246094 133.789062 726.449219 133.992188 C 726.648438 134.191406 726.582031 134.527344 726.382812 134.730469 C 724.234375 136.273438 722.152344 136.742188 720.34375 136.742188 Z M 714.90625 105.800781 C 714.839844 106.070312 714.570312 106.203125 714.304688 106.136719 C 708.867188 104.390625 705.78125 107.882812 705.648438 108.082031 C 705.582031 108.21875 705.378906 108.285156 705.246094 108.285156 C 705.113281 108.285156 704.976562 108.21875 704.910156 108.152344 C 704.707031 107.949219 704.707031 107.679688 704.84375 107.414062 C 704.910156 107.34375 708.535156 103.25 714.570312 105.199219 C 714.839844 105.265625 714.976562 105.535156 714.90625 105.800781 Z M 720.945312 105.464844 C 720.746094 105.265625 720.746094 104.996094 720.878906 104.726562 C 721.011719 104.59375 723.699219 101.507812 728.460938 102.042969 C 728.730469 102.042969 728.929688 102.3125 728.929688 102.582031 C 728.929688 102.847656 728.664062 103.050781 728.394531 103.050781 C 724.167969 102.582031 721.820312 105.265625 721.683594 105.398438 C 721.617188 105.535156 721.414062 105.601562 721.28125 105.601562 C 721.148438 105.601562 721.011719 105.601562 720.945312 105.464844 Z M 821.660156 68.953125 C 818.4375 68.953125 815.417969 69.761719 812.800781 71.167969 C 811.59375 70.902344 810.320312 70.902344 809.179688 71.707031 C 807.164062 73.046875 805.691406 76.738281 804.75 79.492188 C 804.347656 80.363281 803.945312 81.304688 803.675781 82.242188 C 797.839844 96.203125 796.699219 104.996094 800.1875 108.351562 C 801.53125 109.628906 804.078125 110.367188 807.902344 110.632812 C 807.636719 112.445312 807.367188 114.460938 807.164062 116.136719 C 798.847656 118.015625 798.109375 119.023438 798.039062 119.5625 C 798.039062 119.628906 798.039062 119.695312 798.039062 119.761719 C 798.175781 120.367188 799.113281 123.519531 800.925781 126.339844 C 803.003906 129.496094 805.554688 131.171875 808.304688 131.171875 C 808.777344 131.171875 809.3125 131.105469 809.851562 131.039062 C 809.984375 130.972656 810.117188 130.902344 810.183594 130.703125 L 811.996094 126.207031 L 812.601562 131.238281 C 812.601562 131.441406 812.800781 131.640625 813.003906 131.640625 C 813.808594 131.777344 814.613281 131.84375 815.417969 131.84375 C 825.617188 131.84375 833.667969 121.707031 834.003906 120.433594 C 834.070312 120.03125 834.273438 119.023438 825.347656 116.070312 C 825.417969 115.0625 825.484375 113.921875 825.617188 112.78125 C 825.75 110.566406 825.953125 108.21875 826.085938 106.003906 C 834.273438 103.921875 840.378906 96.539062 840.378906 87.746094 C 840.511719 77.410156 832.058594 68.953125 821.660156 68.953125 Z M 809.378906 130.03125 C 802.535156 131.171875 799.449219 120.96875 799.046875 119.695312 C 799.71875 119.160156 803.476562 118.015625 806.964844 117.210938 C 807.03125 121.507812 810.453125 123.789062 811.660156 124.460938 Z M 833.132812 120.300781 C 832.328125 121.707031 824.007812 132.042969 813.675781 130.703125 L 812.9375 124.527344 C 814.882812 124.328125 821.792969 123.117188 825.214844 117.078125 C 828.636719 118.21875 832.460938 119.695312 833.132812 120.300781 Z M 829.980469 100.164062 C 829.242188 101.4375 827.765625 102.378906 826.085938 102.714844 C 825.886719 102.78125 825.75 102.914062 825.683594 103.050781 L 825.347656 104.125 C 825.347656 104.191406 825.347656 104.191406 825.347656 104.257812 C 825.148438 106.742188 824.945312 109.894531 824.746094 112.714844 C 824.609375 114.125 824.542969 115.332031 824.476562 116.273438 C 820.855469 122.984375 812.398438 123.519531 812.332031 123.519531 C 812.332031 123.519531 812.265625 123.519531 812.265625 123.519531 C 811.257812 122.984375 808.304688 121.105469 808.105469 117.414062 C 808.238281 115.800781 808.574219 113.386719 809.042969 110.164062 C 809.042969 110.03125 809.042969 109.894531 808.910156 109.761719 C 808.777344 109.628906 808.710938 109.558594 808.574219 109.558594 C 804.75 109.359375 802.199219 108.6875 800.992188 107.546875 C 798.914062 105.601562 797.839844 100.164062 803.410156 85.800781 C 805.21875 86.003906 806.160156 87.210938 806.226562 87.277344 C 806.292969 87.410156 806.496094 87.480469 806.628906 87.480469 C 806.761719 87.480469 806.832031 87.480469 806.898438 87.410156 C 807.097656 87.277344 807.164062 86.941406 807.03125 86.671875 C 806.964844 86.605469 805.890625 85.195312 803.8125 84.863281 C 804.148438 84.054688 804.480469 83.183594 804.816406 82.3125 L 810.050781 76.335938 C 813.203125 80.902344 818.90625 88.6875 824.140625 93.519531 C 824.277344 93.652344 824.476562 93.652344 824.609375 93.652344 C 825.683594 93.316406 829.242188 92.648438 830.382812 96.070312 C 830.785156 97.613281 830.648438 98.957031 829.980469 100.164062 Z M 810.855469 91.371094 C 811.394531 90.902344 811.660156 91.238281 811.796875 91.574219 C 811.929688 91.910156 811.929688 92.3125 811.863281 92.648438 C 811.726562 93.117188 811.460938 93.789062 810.921875 93.652344 C 810.117188 93.453125 810.253906 91.910156 810.855469 91.371094 Z M 803.476562 92.109375 C 802.601562 91.910156 802.804688 90.363281 803.410156 89.828125 C 803.945312 89.359375 804.214844 89.695312 804.347656 90.03125 C 804.480469 90.363281 804.480469 90.769531 804.414062 91.101562 C 804.28125 91.574219 804.011719 92.246094 803.476562 92.109375 Z M 806.964844 100.699219 C 806.09375 100.699219 805.019531 100.5 804.28125 99.695312 C 802.804688 98.152344 806.09375 91.371094 807.097656 89.292969 C 807.234375 89.023438 807.5 88.957031 807.769531 89.089844 C 808.039062 89.222656 808.105469 89.492188 807.972656 89.761719 C 805.957031 93.652344 804.28125 98.285156 804.953125 99.023438 C 806.09375 100.230469 808.238281 99.558594 808.238281 99.558594 C 808.507812 99.492188 808.777344 99.628906 808.84375 99.894531 C 808.910156 100.164062 808.777344 100.433594 808.507812 100.5 C 808.507812 100.5 807.835938 100.699219 806.964844 100.699219 Z M 812.132812 102.378906 C 812.332031 102.582031 812.332031 102.914062 812.132812 103.117188 C 811.996094 103.25 809.984375 105.199219 807.097656 105.199219 C 806.429688 105.199219 805.757812 105.0625 805.019531 104.863281 C 804.75 104.796875 804.617188 104.460938 804.683594 104.191406 C 804.75 103.921875 805.085938 103.789062 805.355469 103.855469 C 805.691406 103.988281 805.957031 104.058594 806.292969 104.058594 C 808.171875 104.324219 809.714844 103.585938 810.65625 102.984375 C 811.191406 102.648438 811.527344 102.3125 811.527344 102.3125 C 811.59375 102.175781 811.929688 102.175781 812.132812 102.378906 Z M 815.886719 88.886719 C 816.023438 89.089844 816.023438 89.425781 815.753906 89.625 C 815.6875 89.695312 815.554688 89.695312 815.484375 89.695312 C 815.351562 89.695312 815.152344 89.625 815.082031 89.492188 C 815.082031 89.492188 814.816406 89.15625 814.414062 88.886719 C 813.808594 88.417969 812.800781 87.949219 811.460938 88.015625 C 811.125 88.015625 810.789062 88.082031 810.453125 88.148438 C 810.183594 88.21875 809.917969 88.082031 809.851562 87.746094 C 809.78125 87.480469 809.917969 87.210938 810.253906 87.144531 C 813.875 86.269531 815.820312 88.753906 815.886719 88.886719 Z M 857.085938 51.707031 L 768.519531 51.707031 C 764.894531 51.707031 761.941406 54.660156 761.941406 58.28125 L 761.941406 146.878906 C 761.941406 150.503906 764.894531 153.457031 768.519531 153.457031 L 857.085938 153.457031 C 860.710938 153.457031 863.660156 150.503906 863.660156 146.878906 L 863.660156 58.28125 C 863.59375 54.660156 860.710938 51.707031 857.085938 51.707031 Z M 768.519531 52.710938 L 857.085938 52.710938 C 860.105469 52.710938 862.65625 55.195312 862.65625 58.28125 L 862.65625 62.980469 L 762.949219 62.980469 L 762.949219 58.28125 C 762.949219 55.195312 765.429688 52.710938 768.519531 52.710938 Z M 857.085938 152.382812 L 768.519531 152.382812 C 765.5 152.382812 762.949219 149.898438 762.949219 146.808594 L 762.949219 63.921875 L 862.589844 63.921875 L 862.589844 146.808594 C 862.589844 149.898438 860.105469 152.382812 857.085938 152.382812 Z M 701.554688 132.582031 C 701.421875 132.851562 701.355469 133.117188 701.285156 133.453125 C 701.285156 133.65625 701.285156 133.789062 701.285156 133.992188 C 697.664062 133.386719 694.308594 131.777344 691.558594 129.292969 C 691.828125 128.957031 692.160156 128.554688 692.429688 128.152344 C 694.980469 130.433594 698.199219 131.976562 701.554688 132.582031 Z M 701.554688 132.582031 " fill-opacity="1" fill-rule="nonzero"/></g><path fill="#418aff" d="M 844.738281 55.933594 C 846.082031 55.933594 847.222656 57.007812 847.222656 58.417969 C 847.222656 59.828125 846.148438 60.902344 844.738281 60.902344 C 843.332031 60.902344 842.257812 59.828125 842.257812 58.417969 C 842.257812 57.007812 843.398438 55.933594 844.738281 55.933594 Z M 699.8125 66.136719 L 694.109375 67.074219 C 676.058594 78.351562 676.929688 103.050781 677.402344 109.023438 C 672.167969 110.902344 668.609375 116.003906 668.945312 121.84375 C 669.347656 128.890625 675.386719 134.328125 682.5 133.925781 C 689.613281 133.519531 694.980469 127.480469 694.578125 120.367188 C 694.242188 114.460938 689.949219 109.761719 684.445312 108.554688 C 680.417969 78.550781 699.8125 66.136719 699.8125 66.136719 Z M 624.328125 70.164062 C 627.210938 70.164062 629.558594 72.511719 629.558594 75.398438 C 629.558594 78.285156 627.210938 80.632812 624.328125 80.632812 C 621.441406 80.632812 619.09375 78.285156 619.09375 75.398438 C 619.027344 72.511719 621.375 70.164062 624.328125 70.164062 Z M 706.988281 136.742188 L 703.835938 136.40625 C 702.292969 136.273438 701.152344 134.863281 701.355469 133.386719 C 701.488281 131.84375 702.898438 130.703125 704.375 130.902344 L 707.527344 131.238281 C 709.070312 131.375 710.210938 132.78125 710.007812 134.257812 C 709.875 135.804688 708.535156 136.878906 706.988281 136.742188 Z M 706.988281 136.742188 " fill-opacity="1" fill-rule="nonzero"/><g fill="#000000" fill-opacity="1"><g transform="translate(202.303135, 192.149987)"><g><path d="M 3.753906 0 L 6.039062 0 L 6.039062 -13.832031 L 17.296875 -13.832031 L 17.296875 -15.707031 L 6.039062 -15.707031 L 6.039062 -27.292969 L 20.359375 -27.292969 L 20.359375 -29.167969 L 3.753906 -29.167969 Z M 3.753906 0 "/></g></g></g><g fill="#000000" fill-opacity="1"><g transform="translate(224.332617, 192.149987)"><g><path d="M 1.347656 0 L 3.507812 0 L 6.691406 -8.933594 L 19.828125 -8.933594 L 23.050781 0 L 25.335938 0 L 14.851562 -29.167969 L 11.832031 -29.167969 Z M 13.257812 -27.292969 L 19.175781 -10.769531 L 7.34375 -10.769531 Z M 13.257812 -27.292969 "/></g></g></g><g fill="#000000" fill-opacity="1"><g transform="translate(251.012763, 192.149987)"><g><path d="M 27.414062 2.449219 L 28.800781 1.101562 L 25.210938 -2.734375 C 28.515625 -5.425781 30.558594 -9.667969 30.558594 -14.484375 L 30.558594 -14.808594 C 30.558594 -23.007812 24.601562 -29.496094 16.359375 -29.496094 C 8.160156 -29.496094 2.164062 -23.007812 2.164062 -14.726562 L 2.164062 -14.402344 C 2.164062 -6.242188 8.117188 0.328125 16.441406 0.328125 C 19.132812 0.328125 21.539062 -0.367188 23.621094 -1.632812 Z M 16.441406 -1.589844 C 9.667969 -1.589844 4.488281 -7.015625 4.488281 -14.441406 L 4.488281 -14.769531 C 4.488281 -22.113281 9.21875 -27.621094 16.359375 -27.621094 C 23.5 -27.621094 28.191406 -21.949219 28.191406 -14.851562 L 28.191406 -14.523438 C 28.191406 -10.199219 26.601562 -6.527344 23.867188 -4.203125 L 19.542969 -8.933594 L 18.15625 -7.589844 L 22.273438 -3.101562 C 20.601562 -2.121094 18.644531 -1.589844 16.441406 -1.589844 Z M 16.441406 -1.589844 "/></g></g></g></svg>