<svg xmlns="http://www.w3.org/2000/svg" xmlns:xlink="http://www.w3.org/1999/xlink" width="1200" zoomAndPan="magnify" viewBox="0 0 900 359.999987" height="480" preserveAspectRatio="xMidYMid meet" version="1.0"><defs><g/><clipPath id="b07302e644"><path d="M 14.25 0 L 885.75 0 C 889.53125 0 893.152344 1.5 895.828125 4.171875 C 898.5 6.847656 900 10.46875 900 14.25 L 900 345.75 C 900 349.53125 898.5 353.152344 895.828125 355.828125 C 893.152344 358.5 889.53125 360 885.75 360 L 14.25 360 C 10.46875 360 6.847656 358.5 4.171875 355.828125 C 1.5 353.152344 0 349.53125 0 345.75 L 0 14.25 C 0 10.46875 1.5 6.847656 4.171875 4.171875 C 6.847656 1.5 10.46875 0 14.25 0 Z M 14.25 0 " clip-rule="nonzero"/></clipPath><clipPath id="26f39032bf"><path d="M 1.800781 1.800781 L 898.199219 1.800781 L 898.199219 358.199219 L 1.800781 358.199219 Z M 1.800781 1.800781 " clip-rule="nonzero"/></clipPath><clipPath id="611102c9e8"><path d="M 16.050781 1.800781 L 883.949219 1.800781 C 887.730469 1.800781 891.355469 3.300781 894.027344 5.972656 C 896.699219 8.644531 898.199219 12.269531 898.199219 16.050781 L 898.199219 343.949219 C 898.199219 347.730469 896.699219 351.355469 894.027344 354.027344 C 891.355469 356.699219 887.730469 358.199219 883.949219 358.199219 L 16.050781 358.199219 C 12.269531 358.199219 8.644531 356.699219 5.972656 354.027344 C 3.300781 351.355469 1.800781 347.730469 1.800781 343.949219 L 1.800781 16.050781 C 1.800781 12.269531 3.300781 8.644531 5.972656 5.972656 C 8.644531 3.300781 12.269531 1.800781 16.050781 1.800781 Z M 16.050781 1.800781 " clip-rule="nonzero"/></clipPath><clipPath id="e1edf6c20a"><path d="M 527 97 L 863.578125 97 L 863.578125 324 L 527 324 Z M 527 97 " clip-rule="nonzero"/></clipPath><clipPath id="1097b28a63"><path d="M 527 96 L 863.578125 96 L 863.578125 324 L 527 324 Z M 527 96 " clip-rule="nonzero"/></clipPath></defs><g clip-path="url(#b07302e644)"><rect x="-90" width="1080" fill="#004aad" y="-35.999999" height="431.999984" fill-opacity="1"/></g><g clip-path="url(#26f39032bf)"><g clip-path="url(#611102c9e8)"><path fill="#ffffff" d="M 1.800781 1.800781 L 898.199219 1.800781 L 898.199219 358.199219 L 1.800781 358.199219 Z M 1.800781 1.800781 " fill-opacity="1" fill-rule="nonzero"/></g></g><path fill="#ffffff" d="M 588.65625 173.191406 C 600.945312 173.191406 610.910156 163.214844 610.910156 150.910156 C 610.910156 138.601562 600.945312 128.625 588.65625 128.625 C 576.363281 128.625 566.472656 138.675781 566.472656 150.910156 C 566.472656 163.140625 576.4375 173.191406 588.65625 173.191406 Z M 588.65625 173.191406 " fill-opacity="1" fill-rule="nonzero"/><path fill="#ffffff" d="M 736.082031 145.59375 C 753.972656 145.59375 768.519531 131.027344 768.519531 113.117188 C 768.519531 95.203125 753.972656 80.636719 736.082031 80.636719 C 718.1875 80.636719 703.644531 95.203125 703.644531 113.117188 C 703.644531 131.027344 718.1875 145.59375 736.082031 145.59375 Z M 736.082031 145.59375 " fill-opacity="1" fill-rule="nonzero"/><path fill="#ffffff" d="M 627.128906 83.40625 L 652.949219 83.40625 L 659.566406 92.214844 C 662.257812 95.855469 667.714844 95.855469 670.40625 92.214844 L 677.460938 82.824219 C 688.078125 80.492188 696.007812 71.027344 696.007812 59.667969 C 696.007812 46.558594 685.386719 36 672.367188 36 L 627.128906 36 C 614.039062 36 603.492188 46.632812 603.492188 59.667969 C 603.417969 72.773438 614.039062 83.40625 627.128906 83.40625 Z M 627.128906 83.40625 " fill-opacity="1" fill-rule="nonzero"/><path fill="#ffffff" d="M 790.09375 175.742188 C 790.265625 176.46875 790.402344 177.199219 790.5 177.933594 C 790.597656 178.671875 790.660156 179.414062 790.6875 180.15625 C 790.714844 180.902344 790.703125 181.644531 790.65625 182.386719 C 790.613281 183.128906 790.527344 183.867188 790.410156 184.601562 C 790.289062 185.335938 790.136719 186.0625 789.945312 186.78125 C 789.753906 187.503906 789.53125 188.210938 789.269531 188.90625 C 789.011719 189.605469 788.71875 190.289062 788.390625 190.957031 C 788.0625 191.625 787.703125 192.273438 787.3125 192.90625 C 786.921875 193.539062 786.503906 194.152344 786.050781 194.746094 C 785.601562 195.335938 785.121094 195.902344 784.617188 196.449219 C 784.109375 196.992188 783.578125 197.511719 783.019531 198.003906 C 782.460938 198.496094 781.882812 198.960938 781.28125 199.394531 C 780.675781 199.828125 780.054688 200.234375 779.410156 200.609375 C 778.769531 200.980469 778.109375 201.324219 777.433594 201.632812 C 776.757812 201.941406 776.066406 202.214844 775.363281 202.457031 C 774.660156 202.699219 773.949219 202.90625 773.226562 203.074219 C 772.5 203.246094 771.773438 203.382812 771.035156 203.480469 C 770.300781 203.582031 769.558594 203.644531 768.816406 203.667969 C 768.074219 203.695312 767.332031 203.6875 766.589844 203.640625 C 765.847656 203.59375 765.109375 203.511719 764.375 203.390625 C 763.644531 203.273438 762.917969 203.117188 762.199219 202.925781 C 761.480469 202.734375 760.773438 202.511719 760.078125 202.25 C 759.378906 201.988281 758.699219 201.695312 758.03125 201.367188 C 757.363281 201.042969 756.714844 200.683594 756.082031 200.292969 C 755.449219 199.898438 754.835938 199.480469 754.246094 199.027344 C 753.65625 198.578125 753.089844 198.097656 752.542969 197.589844 C 752 197.082031 751.484375 196.550781 750.992188 195.992188 C 750.5 195.433594 750.035156 194.851562 749.601562 194.25 C 749.167969 193.644531 748.765625 193.023438 748.390625 192.378906 C 748.015625 191.734375 747.675781 191.074219 747.367188 190.398438 C 747.058594 189.722656 746.785156 189.03125 746.542969 188.328125 C 746.300781 187.625 746.097656 186.910156 745.925781 186.1875 C 745.753906 185.460938 745.621094 184.730469 745.519531 183.992188 C 745.421875 183.253906 745.359375 182.515625 745.332031 181.769531 C 745.304688 181.027344 745.316406 180.285156 745.363281 179.542969 C 745.410156 178.800781 745.492188 178.0625 745.609375 177.328125 C 745.730469 176.59375 745.882812 175.863281 746.074219 175.144531 C 746.265625 174.425781 746.492188 173.71875 746.75 173.019531 C 747.011719 172.324219 747.304688 171.640625 747.628906 170.972656 C 747.957031 170.304688 748.316406 169.652344 748.707031 169.019531 C 749.097656 168.386719 749.519531 167.777344 749.96875 167.183594 C 750.417969 166.59375 750.898438 166.023438 751.40625 165.480469 C 751.910156 164.933594 752.441406 164.417969 753 163.925781 C 753.558594 163.433594 754.136719 162.96875 754.742188 162.535156 C 755.34375 162.097656 755.964844 161.695312 756.609375 161.320312 C 757.25 160.945312 757.910156 160.605469 758.585938 160.296875 C 759.261719 159.988281 759.953125 159.710938 760.65625 159.472656 C 761.359375 159.230469 762.070312 159.023438 762.796875 158.851562 C 763.519531 158.683594 764.25 158.546875 764.984375 158.449219 C 765.722656 158.347656 766.460938 158.285156 767.203125 158.257812 C 767.945312 158.234375 768.6875 158.242188 769.429688 158.289062 C 770.171875 158.335938 770.910156 158.417969 771.644531 158.539062 C 772.378906 158.65625 773.101562 158.8125 773.820312 159.003906 C 774.539062 159.191406 775.246094 159.417969 775.945312 159.679688 C 776.640625 159.9375 777.320312 160.230469 777.988281 160.558594 C 778.65625 160.886719 779.308594 161.246094 779.9375 161.636719 C 780.570312 162.027344 781.183594 162.449219 781.773438 162.902344 C 782.363281 163.351562 782.933594 163.832031 783.476562 164.339844 C 784.019531 164.84375 784.539062 165.378906 785.027344 165.9375 C 785.519531 166.496094 785.984375 167.074219 786.417969 167.679688 C 786.851562 168.28125 787.257812 168.90625 787.628906 169.550781 C 788.003906 170.191406 788.34375 170.851562 788.652344 171.53125 C 788.960938 172.207031 789.238281 172.898438 789.476562 173.601562 C 789.71875 174.304688 789.925781 175.019531 790.09375 175.742188 Z M 790.09375 175.742188 " fill-opacity="1" fill-rule="nonzero"/><g clip-path="url(#e1edf6c20a)"><path fill="#ffffff" d="M 855.652344 307.398438 L 826.632812 307.398438 L 827.359375 307.398438 C 828.085938 306.523438 828.59375 305.429688 828.886719 304.265625 C 830.050781 298.804688 832.011719 289.992188 834.050781 280.601562 C 836.523438 269.386719 839.140625 257.441406 840.8125 249.652344 C 841.324219 247.394531 840.742188 245.0625 839.285156 243.242188 C 837.832031 241.421875 835.648438 240.402344 833.394531 240.402344 L 744.808594 240.402344 C 742.625 235.234375 739.789062 228.753906 736.589844 222.125 C 727.0625 202.171875 719.351562 190.304688 713.679688 186.664062 C 708.441406 183.3125 702.769531 180.691406 696.804688 178.871094 C 696.804688 178.871094 696.734375 178.871094 696.734375 178.871094 C 696.007812 178.652344 695.351562 178.433594 694.625 178.214844 L 683.933594 175.230469 L 683.351562 169.113281 C 683.789062 168.894531 684.152344 168.605469 684.515625 168.3125 C 689.605469 163.578125 691.425781 159.28125 691.277344 151.929688 C 691.132812 142.605469 689.53125 134.453125 686.550781 127.679688 C 686.550781 127.605469 686.476562 127.605469 686.476562 127.535156 C 688.515625 125.859375 690.042969 123.675781 690.625 120.761719 C 690.625 120.761719 688.296875 119.015625 682.625 118.578125 C 684.078125 118.429688 686.113281 117.703125 687.207031 114.71875 C 687.207031 114.71875 654.332031 98.988281 646.984375 114.789062 C 646.914062 114.644531 646.765625 114.570312 646.621094 114.425781 C 646.332031 114.28125 645.96875 114.28125 645.601562 114.351562 C 645.386719 114.136719 645.167969 113.917969 644.949219 113.769531 C 647.421875 112.96875 649.3125 110.710938 649.75 108.164062 C 650.039062 106.417969 649.457031 104.378906 648.003906 103.359375 C 646.550781 102.339844 644.148438 102.628906 643.347656 104.160156 C 644.585938 101.683594 642.695312 98.1875 639.929688 97.824219 C 637.167969 97.460938 634.476562 100.152344 634.695312 102.992188 C 633.09375 100.808594 630.113281 99.570312 627.640625 100.589844 C 625.164062 101.683594 624.148438 105.398438 626.113281 107.144531 C 624.003906 106.125 621.09375 107.070312 620.003906 109.183594 C 618.910156 111.296875 619.929688 114.207031 622.039062 115.300781 C 620.292969 115.519531 618.984375 117.339844 619.347656 119.085938 C 619.710938 120.617188 621.382812 121.636719 622.839844 121.417969 C 622.546875 123.382812 623.785156 125.421875 625.675781 126.078125 C 627.566406 126.734375 629.894531 125.714844 630.765625 123.894531 C 630.765625 126.222656 633.09375 128.1875 635.347656 127.824219 C 637.09375 127.535156 638.476562 125.933594 638.695312 124.257812 C 638.910156 124.476562 639.203125 124.621094 639.566406 124.621094 C 639.859375 124.621094 640.074219 124.546875 640.292969 124.328125 C 634.984375 134.523438 638.113281 144.136719 642.476562 151.199219 C 642.476562 151.199219 642.476562 151.199219 642.476562 151.273438 C 643.058594 152.582031 643.929688 154.039062 645.3125 155.277344 C 647.785156 158.410156 650.113281 160.667969 651.347656 161.757812 L 653.023438 177.050781 C 651.421875 177.414062 643.058594 179.234375 634.257812 183.167969 C 621.3125 188.921875 613.09375 196.492188 610.472656 205.160156 C 610.402344 205.230469 610.328125 205.304688 610.328125 205.449219 L 597.164062 257.734375 C 597.089844 257.734375 597.089844 257.808594 597.019531 257.878906 C 596.945312 257.953125 596.945312 258.027344 596.945312 258.097656 L 596.292969 261.230469 L 595.710938 264.578125 L 559.273438 264.578125 C 558.980469 264.578125 558.691406 264.796875 558.691406 265.160156 L 558.691406 270.695312 C 550.835938 270.84375 544.507812 277.25 544.507812 285.042969 C 544.507812 292.980469 550.980469 299.386719 558.90625 299.386719 C 559.636719 302.808594 561.816406 305.648438 564.726562 307.324219 L 534.90625 307.324219 C 530.542969 307.324219 527.050781 311.039062 527.050781 315.625 C 527.050781 320.214844 530.542969 323.925781 534.90625 323.925781 L 855.652344 323.925781 C 860.015625 323.925781 863.503906 320.214844 863.503906 315.625 C 863.503906 311.109375 860.015625 307.398438 855.652344 307.398438 Z M 638.621094 123.019531 C 638.621094 122.945312 638.621094 122.945312 638.621094 122.875 C 638.695312 122.875 638.695312 122.875 638.765625 122.875 C 638.695312 122.945312 638.621094 122.945312 638.621094 123.019531 Z M 558.691406 294.070312 C 553.890625 293.925781 549.960938 289.992188 549.960938 285.113281 C 549.960938 280.308594 553.816406 276.304688 558.691406 276.15625 Z M 593.601562 307.398438 C 594.691406 306.742188 595.636719 305.941406 596.511719 305.066406 C 597.089844 305.867188 597.746094 306.667969 598.402344 307.398438 Z M 593.601562 307.398438 " fill-opacity="1" fill-rule="nonzero"/></g><path fill="#9c6afd" d="M 745.097656 240.984375 C 741.390625 240.984375 738.191406 240.984375 735.71875 240.984375 C 732.371094 240.984375 729.535156 243.316406 728.808594 246.519531 C 726.1875 258.535156 720.007812 286.789062 716.878906 301.132812 C 716.808594 301.570312 716.734375 302.007812 716.734375 302.445312 L 673.96875 302.445312 C 671.933594 302.445312 670.257812 304.121094 670.257812 306.160156 C 670.257812 306.886719 670.476562 307.542969 670.839844 308.125 L 647.128906 308.125 C 650.550781 307.179688 653.96875 306.230469 657.457031 305.359375 C 662.914062 303.902344 668.441406 302.445312 673.894531 300.988281 C 678.40625 299.824219 682.625 299.679688 686.988281 297.710938 C 686.988281 297.710938 693.316406 295.019531 698.695312 295.238281 C 701.679688 295.308594 705.023438 295.671875 707.0625 296.039062 C 709.316406 296.402344 709.242188 292.6875 709.242188 292.6875 C 710.480469 291.378906 710.914062 289.921875 710.625 288.390625 C 712.007812 286.863281 712.589844 285.1875 711.863281 283.441406 C 711.863281 283.441406 715.351562 284.460938 717.460938 284.96875 C 718.042969 285.1875 718.699219 285.042969 719.207031 284.675781 C 719.714844 284.3125 720.007812 283.730469 720.007812 283.074219 C 719.933594 282.785156 719.933594 282.421875 719.714844 282.128906 C 719.207031 281.402344 717.824219 280.816406 715.644531 279.796875 C 711.789062 278.050781 705.242188 274.992188 696.878906 272.953125 C 691.207031 271.496094 687.570312 274.554688 673.824219 278.195312 L 634.910156 281.035156 L 636.222656 274.484375 L 637.019531 270.625 L 597.527344 258.246094 L 596.875 261.375 L 596.800781 261.886719 C 596.511719 261.8125 596.292969 261.519531 596.363281 261.230469 L 597.019531 258.097656 C 597.019531 257.953125 597.164062 257.808594 597.238281 257.734375 L 610.402344 205.449219 C 610.402344 205.378906 610.472656 205.230469 610.546875 205.160156 C 613.164062 196.566406 621.457031 188.921875 634.328125 183.167969 C 644.148438 178.796875 653.3125 176.976562 653.386719 176.976562 C 653.457031 176.976562 653.53125 176.976562 653.675781 176.976562 L 654.039062 180.109375 C 654.039062 180.109375 661.824219 187.828125 671.203125 186.371094 C 678.257812 185.351562 682.40625 181.855469 684.078125 180.183594 L 683.421875 175.085938 C 683.421875 175.085938 683.496094 175.085938 683.496094 175.085938 L 694.625 178.214844 C 701.386719 180.109375 707.789062 182.949219 713.679688 186.664062 C 719.351562 190.230469 727.0625 202.171875 736.589844 222.125 C 739.863281 229.042969 742.84375 235.816406 745.097656 240.984375 Z M 610.910156 150.910156 C 610.910156 163.214844 600.945312 173.191406 588.65625 173.191406 C 576.363281 173.191406 566.398438 163.214844 566.398438 150.910156 C 566.398438 138.601562 576.363281 128.625 588.65625 128.625 C 600.945312 128.625 610.910156 138.675781 610.910156 150.910156 Z M 601.164062 142.824219 C 600.726562 142.390625 600 142.390625 599.566406 142.824219 L 585.089844 156.808594 L 578.472656 151.78125 C 577.964844 151.417969 577.234375 151.492188 576.871094 152 C 576.507812 152.511719 576.582031 153.238281 577.089844 153.601562 L 584.507812 159.210938 C 584.726562 159.355469 584.945312 159.429688 585.164062 159.429688 C 585.453125 159.429688 585.746094 159.355469 585.964844 159.136719 L 601.164062 144.5 C 601.601562 143.992188 601.601562 143.261719 601.164062 142.824219 Z M 601.164062 142.824219 " fill-opacity="1" fill-rule="nonzero"/><path fill="#ffffff" d="M 838.777344 243.609375 C 837.46875 241.933594 835.429688 240.984375 833.25 240.984375 C 811.210938 240.984375 753.972656 240.984375 735.644531 240.984375 C 732.296875 240.984375 729.460938 243.316406 728.734375 246.519531 C 726.117188 258.535156 719.933594 286.789062 716.808594 301.132812 C 716.734375 301.570312 716.660156 302.007812 716.660156 302.445312 L 673.96875 302.445312 C 671.933594 302.445312 670.257812 304.121094 670.257812 306.160156 C 670.257812 308.199219 671.933594 309.871094 673.96875 309.871094 L 752.882812 309.871094 L 752.882812 309.65625 C 778.121094 309.65625 808.8125 309.65625 821.320312 309.65625 C 824.667969 309.65625 827.503906 307.324219 828.230469 304.121094 C 830.847656 292.105469 837.03125 263.851562 840.160156 249.507812 C 840.667969 247.46875 840.160156 245.28125 838.777344 243.609375 Z M 778.703125 283.441406 C 774.699219 283.441406 771.429688 280.164062 771.429688 276.15625 C 771.429688 272.152344 774.699219 268.875 778.703125 268.875 C 782.703125 268.875 785.972656 272.152344 785.972656 276.15625 C 785.972656 280.164062 782.773438 283.441406 778.703125 283.441406 Z M 686.914062 297.859375 C 686.914062 297.859375 693.242188 295.164062 698.625 295.382812 C 701.605469 295.453125 704.953125 295.820312 706.988281 296.183594 C 709.242188 296.546875 709.171875 292.832031 709.171875 292.832031 C 710.40625 291.523438 710.84375 290.066406 710.550781 288.535156 C 711.933594 287.007812 712.515625 285.332031 711.789062 283.585938 C 711.789062 283.585938 715.28125 284.605469 717.390625 285.113281 C 717.972656 285.332031 718.625 285.1875 719.132812 284.824219 C 719.644531 284.460938 719.933594 283.875 719.933594 283.222656 C 719.863281 282.929688 719.863281 282.566406 719.644531 282.273438 C 719.132812 281.546875 717.753906 280.964844 715.570312 279.945312 C 711.714844 278.195312 705.171875 275.136719 696.804688 273.097656 C 691.132812 271.644531 687.496094 274.703125 673.75 278.34375 L 634.839844 281.183594 L 636.148438 274.628906 L 636.949219 270.769531 L 597.457031 258.390625 L 596.800781 261.519531 L 596.144531 265.308594 L 559.273438 265.308594 L 559.273438 271.425781 C 559.199219 271.425781 559.054688 271.425781 558.980469 271.425781 C 551.34375 271.425781 545.089844 277.613281 545.089844 285.261719 C 545.089844 292.90625 551.269531 299.097656 558.980469 299.097656 C 559.125 299.097656 559.273438 299.097656 559.417969 299.097656 C 560.363281 304.558594 565.164062 308.707031 570.835938 308.707031 L 587.492188 308.707031 C 591.128906 308.707031 594.402344 307.03125 596.511719 304.410156 C 597.527344 305.867188 598.617188 307.179688 599.855469 308.417969 L 646.984375 308.417969 C 650.402344 307.46875 653.820312 306.523438 657.3125 305.648438 C 662.769531 304.191406 668.296875 302.738281 673.75 301.28125 C 678.332031 299.96875 682.550781 299.824219 686.914062 297.859375 Z M 559.273438 294.582031 C 559.199219 294.582031 559.054688 294.582031 558.980469 294.582031 C 553.742188 294.582031 549.453125 290.359375 549.453125 285.113281 C 549.453125 279.871094 553.742188 275.648438 558.980469 275.648438 C 559.054688 275.648438 559.199219 275.648438 559.273438 275.648438 Z M 581.527344 300.480469 C 581.527344 301.425781 580.800781 302.152344 579.855469 302.152344 L 568.871094 302.152344 C 567.925781 302.152344 567.199219 301.425781 567.199219 300.480469 L 567.199219 291.378906 C 567.199219 290.941406 567.417969 290.503906 567.707031 290.140625 L 574.179688 284.167969 L 581.019531 290.140625 C 581.382812 290.429688 581.601562 290.941406 581.601562 291.378906 Z M 736.082031 145.082031 C 753.683594 145.082031 767.9375 130.8125 767.9375 113.1875 C 767.9375 95.566406 753.683594 81.292969 736.082031 81.292969 C 718.480469 81.292969 704.222656 95.566406 704.222656 113.1875 C 704.222656 130.8125 718.480469 145.082031 736.082031 145.082031 Z M 736.007812 96.367188 C 739.863281 96.367188 742.992188 99.5 742.992188 103.359375 C 742.992188 107.21875 739.863281 110.347656 736.007812 110.347656 C 732.152344 110.347656 729.027344 107.21875 729.027344 103.359375 C 729.027344 99.5 732.152344 96.367188 736.007812 96.367188 Z M 736.082031 111.660156 C 744.589844 111.660156 751.5 118.503906 751.5 127.023438 L 720.734375 127.097656 C 720.660156 118.578125 727.570312 111.660156 736.082031 111.660156 Z M 576.871094 151.929688 C 577.234375 151.417969 577.964844 151.34375 578.472656 151.710938 L 585.089844 156.734375 L 599.566406 142.753906 C 600 142.316406 600.726562 142.316406 601.164062 142.753906 C 601.601562 143.191406 601.601562 143.917969 601.164062 144.355469 L 585.964844 159.0625 C 585.746094 159.28125 585.453125 159.355469 585.164062 159.355469 C 584.945312 159.355469 584.65625 159.28125 584.507812 159.136719 L 577.089844 153.53125 C 576.582031 153.167969 576.507812 152.4375 576.871094 151.929688 Z M 642.984375 151.273438 C 642.332031 149.742188 642.183594 146.25 644.292969 144.28125 C 647.277344 141.371094 653.75 144.863281 656.660156 146.683594 C 658.039062 145.011719 659.277344 137.582031 661.242188 132.703125 C 661.242188 132.703125 677.679688 134.304688 686.042969 127.898438 C 688.441406 133.285156 690.625 141.152344 690.769531 151.929688 C 690.84375 159.210938 689.167969 163.289062 684.152344 167.949219 C 683.789062 168.3125 683.351562 168.605469 682.839844 168.894531 L 683.207031 172.246094 L 683.351562 173.484375 L 684.078125 180.472656 C 682.40625 182.148438 678.257812 185.570312 671.203125 186.664062 C 661.824219 188.046875 654.039062 180.402344 654.039062 180.402344 L 651.566406 158.335938 C 651.496094 158.261719 651.347656 158.191406 651.277344 158.117188 C 651.132812 157.972656 650.984375 157.898438 650.914062 157.753906 C 646.621094 156.878906 644.003906 153.75 642.984375 151.273438 Z M 643.566406 59.667969 C 643.566406 56.242188 646.332031 53.476562 649.75 53.476562 C 653.167969 53.476562 655.929688 56.242188 655.929688 59.667969 C 655.929688 63.089844 653.167969 65.855469 649.75 65.855469 C 646.332031 65.855469 643.566406 63.089844 643.566406 59.667969 Z M 663.714844 59.667969 C 663.714844 56.242188 666.476562 53.476562 669.894531 53.476562 C 673.3125 53.476562 676.078125 56.242188 676.078125 59.667969 C 676.078125 63.089844 673.3125 65.855469 669.894531 65.855469 C 666.476562 65.855469 663.714844 63.089844 663.714844 59.667969 Z M 623.785156 59.667969 C 623.785156 56.242188 626.546875 53.476562 629.964844 53.476562 C 633.382812 53.476562 636.148438 56.242188 636.148438 59.667969 C 636.148438 63.089844 633.382812 65.855469 629.964844 65.855469 C 626.546875 65.855469 623.785156 63.089844 623.785156 59.667969 Z M 769.609375 177.269531 C 767.71875 175.375 767.71875 172.316406 769.609375 170.425781 L 770.046875 169.988281 C 771.9375 168.09375 774.992188 168.09375 776.882812 169.988281 C 776.957031 170.058594 776.957031 170.058594 777.027344 170.132812 C 782.484375 175.59375 780.882812 182.804688 775.355469 188.335938 C 769.828125 193.871094 762.628906 195.472656 757.171875 190.011719 C 757.101562 189.941406 757.101562 189.941406 757.027344 189.867188 C 755.136719 187.972656 755.136719 184.914062 757.027344 183.023438 L 757.464844 182.585938 C 759.355469 180.691406 762.410156 180.691406 764.300781 182.585938 C 765.101562 183.386719 765.535156 184.40625 765.683594 185.496094 C 765.753906 186.007812 766.265625 186.300781 766.699219 186.082031 C 767.9375 185.570312 769.171875 184.550781 770.335938 183.386719 C 771.5 182.222656 772.59375 180.910156 773.027344 179.746094 C 773.246094 179.308594 772.882812 178.796875 772.445312 178.726562 C 771.429688 178.578125 770.410156 178.070312 769.609375 177.269531 Z M 769.609375 177.269531 " fill-opacity="1" fill-rule="nonzero"/><path fill="#343434" d="M 736.082031 145.59375 C 753.972656 145.59375 768.519531 131.027344 768.519531 113.117188 C 768.519531 95.203125 753.972656 80.636719 736.082031 80.636719 C 718.1875 80.636719 703.644531 95.203125 703.644531 113.117188 C 703.644531 131.027344 718.1875 145.59375 736.082031 145.59375 Z M 736.082031 81.804688 C 753.390625 81.804688 767.429688 95.855469 767.429688 113.1875 C 767.429688 130.519531 753.390625 144.574219 736.082031 144.574219 C 718.769531 144.574219 704.734375 130.519531 704.734375 113.1875 C 704.734375 95.855469 718.84375 81.804688 736.082031 81.804688 Z M 676.441406 143.261719 C 677.242188 144.0625 677.3125 146.25 676.078125 146.394531 C 675.277344 146.464844 674.988281 145.59375 674.914062 144.863281 C 674.839844 144.355469 674.914062 143.84375 675.132812 143.410156 C 675.351562 142.972656 675.714844 142.605469 676.441406 143.261719 Z M 685.460938 143.554688 C 685.386719 143.042969 685.460938 142.535156 685.679688 142.097656 C 685.894531 141.660156 686.332031 141.296875 686.988281 141.953125 C 687.789062 142.753906 687.859375 144.9375 686.625 145.082031 C 685.824219 145.15625 685.53125 144.210938 685.460938 143.554688 Z M 681.75 140.859375 C 682.625 142.972656 686.84375 153.382812 684.660156 155.421875 C 683.714844 156.296875 682.550781 156.515625 681.460938 156.515625 C 680.003906 156.515625 678.769531 156.078125 678.695312 156.007812 C 678.40625 155.859375 678.257812 155.570312 678.40625 155.277344 C 678.476562 154.988281 678.839844 154.839844 679.132812 154.988281 C 679.132812 154.988281 682.1875 156.152344 683.933594 154.550781 C 685.023438 153.601562 683.207031 147.050781 680.734375 141.222656 C 680.585938 140.933594 680.734375 140.640625 681.023438 140.496094 C 681.3125 140.421875 681.605469 140.570312 681.75 140.859375 Z M 683.933594 161.90625 C 684.003906 162.195312 683.859375 162.488281 683.496094 162.558594 C 682.769531 162.707031 682.042969 162.851562 681.386719 162.851562 C 677.023438 162.851562 674.113281 159.574219 673.96875 159.355469 C 673.75 159.136719 673.824219 158.773438 674.042969 158.554688 C 674.257812 158.335938 674.621094 158.410156 674.839844 158.628906 C 674.839844 158.699219 678.40625 162.707031 683.277344 161.46875 C 683.570312 161.46875 683.859375 161.613281 683.933594 161.90625 Z M 670.621094 140.132812 C 670.550781 140.277344 670.332031 140.351562 670.1875 140.351562 C 670.039062 140.351562 669.894531 140.277344 669.824219 140.203125 C 669.605469 139.984375 669.605469 139.695312 669.75 139.402344 C 669.894531 139.257812 672.730469 136.054688 677.605469 137.582031 C 677.894531 137.65625 678.042969 138.019531 677.96875 138.238281 C 677.894531 138.53125 677.53125 138.675781 677.3125 138.601562 C 673.167969 137.292969 670.769531 139.984375 670.621094 140.132812 Z M 619.273438 119.304688 C 619.636719 120.835938 621.3125 121.855469 622.765625 121.636719 C 622.476562 123.601562 623.710938 125.640625 625.601562 126.296875 C 627.492188 126.949219 629.820312 125.933594 630.695312 124.109375 C 630.695312 126.441406 633.019531 128.40625 635.277344 128.042969 C 637.53125 127.679688 639.203125 125.058594 638.476562 122.875 C 638.621094 122.875 638.765625 122.875 638.910156 122.945312 C 638.984375 123.019531 639.128906 123.089844 639.277344 123.089844 C 639.640625 123.457031 640.003906 123.820312 640.367188 124.183594 C 634.765625 134.523438 637.964844 144.28125 642.402344 151.417969 C 642.402344 151.417969 642.402344 151.417969 642.402344 151.492188 C 642.984375 152.800781 643.859375 154.257812 645.238281 155.496094 C 647.710938 158.628906 650.039062 160.886719 651.277344 161.976562 L 653.3125 180.402344 C 653.3125 180.546875 653.386719 180.617188 653.457031 180.691406 C 653.53125 180.765625 660.148438 187.316406 668.660156 187.316406 C 669.09375 187.316406 669.53125 187.316406 669.96875 187.246094 C 668.222656 190.160156 662.621094 198.96875 658.257812 202.390625 C 656.078125 201.007812 643.058594 192.5625 640.148438 181.566406 C 640.074219 181.273438 639.785156 181.128906 639.492188 181.203125 C 639.203125 181.273438 639.058594 181.566406 639.128906 181.855469 C 640.804688 188.335938 645.894531 193.945312 649.820312 197.441406 C 654.113281 201.226562 657.96875 203.558594 658.039062 203.558594 C 658.113281 203.628906 658.1875 203.628906 658.332031 203.628906 C 658.476562 203.628906 658.550781 203.628906 658.621094 203.558594 C 663.351562 200.0625 669.386719 190.375 671.058594 187.609375 C 673.242188 190.59375 681.824219 201.953125 686.695312 202.171875 C 686.84375 202.171875 686.988281 202.101562 687.058594 202.027344 C 687.132812 201.953125 697.824219 192.488281 697.097656 179.382812 C 697.097656 179.089844 696.804688 178.796875 696.515625 178.871094 C 696.222656 178.871094 696.007812 179.164062 696.007812 179.453125 C 696.660156 191.105469 687.859375 199.84375 686.550781 201.082031 C 682.550781 200.570312 675.132812 191.394531 672.003906 187.027344 C 678.550781 185.863281 682.476562 182.65625 684.296875 180.835938 C 684.441406 180.691406 684.441406 180.546875 684.441406 180.402344 L 683.351562 169.1875 C 683.789062 168.96875 684.152344 168.675781 684.515625 168.386719 C 689.605469 163.652344 691.425781 159.355469 691.277344 152 C 691.132812 142.679688 689.53125 134.523438 686.550781 127.753906 C 686.550781 127.679688 686.476562 127.679688 686.476562 127.605469 C 688.515625 125.933594 690.042969 123.746094 690.625 120.835938 C 690.625 120.835938 688.296875 119.085938 682.625 118.648438 C 684.078125 118.503906 686.113281 117.777344 687.207031 114.789062 C 687.207031 114.789062 653.457031 98.625 646.695312 115.519531 C 646.550781 115.371094 646.476562 115.300781 646.332031 115.15625 C 645.894531 114.789062 645.457031 114.28125 644.949219 113.917969 C 647.421875 113.117188 649.3125 110.859375 649.75 108.308594 C 650.039062 106.5625 649.457031 104.523438 648.003906 103.503906 C 646.550781 102.484375 644.148438 102.773438 643.347656 104.304688 C 644.585938 101.828125 642.695312 98.332031 639.929688 97.96875 C 637.167969 97.605469 634.476562 100.300781 634.695312 103.140625 C 633.09375 100.953125 630.113281 99.714844 627.640625 100.734375 C 625.164062 101.828125 624.148438 105.542969 626.113281 107.363281 C 624.003906 106.34375 621.09375 107.289062 620.003906 109.402344 C 618.910156 111.511719 619.929688 114.425781 622.039062 115.519531 C 620.21875 115.664062 618.910156 117.558594 619.273438 119.304688 Z M 688.003906 135.105469 C 684.585938 135.035156 682.625 137.21875 682.550781 137.292969 C 682.332031 137.511719 682.40625 137.875 682.625 138.09375 C 682.695312 138.164062 682.839844 138.238281 682.988281 138.238281 C 683.132812 138.238281 683.277344 138.164062 683.421875 138.019531 C 683.421875 138.019531 685.242188 135.980469 688.371094 136.199219 C 689.53125 140.933594 690.1875 146.175781 690.261719 151.855469 C 690.332031 158.992188 688.734375 162.925781 683.789062 167.4375 C 683.496094 167.730469 683.058594 168.019531 682.550781 168.238281 C 682.332031 168.3125 682.261719 168.53125 682.261719 168.75 L 683.421875 180.035156 C 681.824219 181.566406 677.75 184.84375 671.058594 185.863281 C 662.695312 187.101562 655.566406 180.835938 654.476562 179.890625 L 652.078125 157.972656 C 652.078125 157.828125 652.003906 157.679688 651.859375 157.609375 C 651.785156 157.535156 651.640625 157.460938 651.566406 157.316406 C 651.496094 157.242188 651.347656 157.097656 651.277344 157.027344 C 651.203125 156.953125 651.058594 156.878906 650.914062 156.808594 C 647.058594 156.152344 644.585938 153.3125 643.566406 150.835938 C 642.984375 149.523438 642.765625 146.320312 644.730469 144.429688 C 647.496094 141.804688 653.820312 145.230469 656.441406 146.902344 C 656.660156 147.050781 656.949219 146.976562 657.167969 146.757812 C 657.96875 145.738281 658.695312 143.191406 659.566406 139.984375 C 660.222656 137.65625 660.875 135.105469 661.675781 132.996094 C 664.296875 133.214844 677.96875 134.015625 685.894531 128.480469 C 686.695312 130.738281 687.351562 132.847656 688.003906 135.105469 Z M 840.742188 249.652344 C 839.066406 257.441406 836.449219 269.457031 833.976562 280.601562 C 831.941406 289.921875 829.976562 298.730469 828.8125 304.265625 C 828.523438 305.429688 828.011719 306.523438 827.285156 307.398438 L 825.832031 307.398438 C 826.777344 306.523438 827.429688 305.359375 827.722656 304.046875 C 828.886719 298.585938 830.847656 289.773438 832.886719 280.382812 C 835.359375 269.167969 837.976562 257.226562 839.648438 249.433594 C 840.085938 247.46875 839.578125 245.5 838.339844 243.972656 C 837.105469 242.441406 835.285156 241.570312 833.25 241.570312 L 735.71875 241.570312 C 732.664062 241.570312 729.972656 243.753906 729.390625 246.664062 C 728.296875 251.617188 726.625 259.261719 724.808594 267.566406 C 722.1875 279.507812 719.28125 292.832031 717.460938 301.28125 C 717.390625 301.644531 717.316406 302.082031 717.316406 302.519531 C 717.316406 302.808594 717.097656 303.027344 716.734375 303.027344 L 673.96875 303.027344 C 672.222656 303.027344 670.769531 304.484375 670.769531 306.230469 C 670.769531 306.667969 670.839844 307.03125 670.988281 307.398438 L 669.824219 307.398438 C 669.75 307.03125 669.675781 306.597656 669.675781 306.230469 C 669.675781 303.902344 671.566406 301.9375 673.96875 301.9375 L 716.226562 301.9375 C 716.226562 301.644531 716.296875 301.351562 716.371094 301.0625 C 717.316406 296.621094 718.625 290.792969 720.007812 284.460938 C 719.863281 284.675781 719.644531 284.96875 719.425781 285.113281 C 718.769531 285.625 717.898438 285.769531 717.171875 285.480469 C 715.789062 285.113281 713.824219 284.53125 712.589844 284.167969 C 712.878906 285.625 712.371094 287.082031 711.132812 288.535156 C 711.351562 290.140625 710.84375 291.667969 709.753906 292.90625 C 709.753906 293.5625 709.605469 295.308594 708.660156 296.183594 C 708.226562 296.546875 707.644531 296.765625 706.988281 296.621094 C 704.953125 296.253906 701.605469 295.890625 698.695312 295.820312 C 693.460938 295.671875 687.277344 298.222656 687.207031 298.292969 C 684.296875 299.605469 681.460938 300.117188 678.625 300.625 C 677.097656 300.917969 675.570312 301.207031 674.042969 301.570312 C 669.167969 302.808594 663.929688 304.191406 657.605469 305.867188 C 655.785156 306.378906 653.96875 306.816406 652.148438 307.324219 L 647.929688 307.324219 C 651.058594 306.449219 654.113281 305.648438 657.242188 304.777344 C 663.566406 303.101562 668.804688 301.71875 673.675781 300.40625 C 675.277344 299.96875 676.804688 299.679688 678.332031 299.460938 C 681.167969 298.949219 683.859375 298.441406 686.625 297.203125 C 686.914062 297.058594 693.167969 294.507812 698.550781 294.652344 C 701.460938 294.726562 704.878906 295.089844 706.988281 295.453125 C 707.28125 295.527344 707.570312 295.453125 707.789062 295.238281 C 708.296875 294.726562 708.515625 293.632812 708.515625 292.980469 C 706.769531 292.25 698.695312 288.972656 695.207031 289.339844 C 694.914062 289.410156 694.625 289.121094 694.625 288.828125 C 694.625 288.535156 694.84375 288.246094 695.132812 288.246094 C 698.914062 287.882812 707.0625 291.230469 708.953125 291.960938 C 709.753906 291.011719 710.117188 289.847656 709.96875 288.683594 C 708.441406 287.882812 700.371094 283.804688 697.242188 283.074219 C 696.953125 283.003906 696.734375 282.710938 696.804688 282.421875 C 696.878906 282.128906 697.167969 281.910156 697.460938 281.984375 C 700.660156 282.710938 708.441406 286.644531 710.261719 287.589844 C 711.425781 286.207031 711.644531 284.894531 711.132812 283.511719 C 711.0625 283.292969 711.0625 283.074219 711.207031 282.929688 C 711.351562 282.785156 711.570312 282.710938 711.789062 282.785156 C 711.789062 282.785156 715.28125 283.804688 717.390625 284.3125 C 717.824219 284.460938 718.261719 284.386719 718.625 284.09375 C 718.988281 283.804688 719.207031 283.441406 719.207031 282.929688 C 719.207031 282.710938 719.132812 282.492188 718.988281 282.347656 C 718.550781 281.765625 717.242188 281.183594 715.425781 280.308594 L 714.1875 279.726562 C 710.1875 277.90625 704.152344 275.210938 696.515625 273.316406 C 692.953125 272.445312 690.261719 273.316406 684.949219 275.066406 C 682.113281 276.011719 678.476562 277.25 673.675781 278.488281 C 673.675781 278.488281 673.605469 278.488281 673.605469 278.488281 L 634.695312 281.328125 C 634.546875 281.328125 634.328125 281.253906 634.257812 281.109375 C 634.113281 280.964844 634.113281 280.816406 634.113281 280.671875 L 636.148438 270.769531 L 597.746094 258.753906 L 597.238281 261.230469 L 596.726562 264.359375 L 599.128906 264.359375 C 599.417969 264.359375 599.710938 264.578125 599.710938 264.945312 L 599.710938 296.621094 C 599.710938 299.386719 598.765625 301.9375 597.238281 303.976562 C 598.039062 305.066406 598.910156 306.160156 599.929688 307.179688 L 598.402344 307.179688 C 597.746094 306.449219 597.089844 305.648438 596.511719 304.847656 C 595.636719 305.796875 594.691406 306.597656 593.601562 307.179688 L 590.980469 307.179688 C 595.417969 305.722656 598.617188 301.570312 598.617188 296.621094 L 598.617188 265.527344 L 574.691406 265.527344 L 574.691406 284.023438 C 574.691406 284.3125 574.472656 284.605469 574.109375 284.605469 C 573.746094 284.605469 573.527344 284.386719 573.527344 284.023438 L 573.527344 265.527344 L 559.78125 265.527344 L 559.78125 271.058594 C 559.78125 271.207031 559.707031 271.351562 559.636719 271.425781 C 559.5625 271.496094 559.34375 271.570312 559.273438 271.570312 L 558.980469 271.570312 C 551.632812 271.570312 545.671875 277.542969 545.671875 284.824219 C 545.671875 292.105469 551.632812 298.078125 558.980469 298.078125 C 559.125 298.078125 559.199219 298.078125 559.34375 298.078125 L 559.417969 298.078125 C 559.707031 298.078125 559.925781 298.292969 559.925781 298.511719 C 560.652344 302.664062 563.636719 305.867188 567.417969 307.105469 L 564.726562 307.105469 C 561.816406 305.429688 559.707031 302.589844 558.90625 299.167969 C 550.980469 299.167969 544.507812 292.761719 544.507812 284.824219 C 544.507812 276.957031 550.835938 270.625 558.691406 270.476562 L 558.691406 264.945312 C 558.691406 264.652344 558.90625 264.359375 559.273438 264.359375 L 595.710938 264.359375 L 596.292969 261.011719 L 596.945312 257.878906 C 596.945312 257.734375 597.089844 257.589844 597.238281 257.515625 C 597.382812 257.441406 597.527344 257.441406 597.671875 257.441406 L 636.585938 269.675781 L 646.839844 226.421875 C 646.914062 226.132812 647.203125 225.984375 647.496094 225.984375 C 647.785156 226.058594 648.003906 226.347656 647.929688 226.640625 L 637.601562 270.40625 L 635.640625 280.089844 L 673.824219 277.25 C 678.550781 276.011719 682.113281 274.773438 684.949219 273.828125 C 690.332031 272.007812 693.242188 271.058594 697.097656 272.007812 C 704.804688 273.898438 710.914062 276.667969 714.988281 278.488281 L 716.226562 279.070312 C 718.335938 280.015625 719.644531 280.601562 720.226562 281.402344 C 720.445312 281.691406 720.515625 281.984375 720.589844 282.273438 C 720.808594 281.402344 720.953125 280.453125 721.171875 279.582031 L 703.789062 226.640625 C 703.714844 226.347656 703.859375 226.058594 704.152344 225.984375 C 704.441406 225.914062 704.734375 226.058594 704.804688 226.347656 L 721.605469 277.542969 C 722.40625 273.972656 723.132812 270.40625 723.933594 266.984375 C 725.753906 258.679688 727.425781 251.035156 728.515625 246.082031 C 729.242188 242.589844 732.371094 240.113281 735.933594 240.113281 L 833.539062 240.113281 C 835.867188 240.113281 838.050781 241.132812 839.433594 242.953125 C 840.667969 245.0625 841.25 247.394531 840.742188 249.652344 Z M 559.199219 275.066406 C 559.125 275.066406 559.054688 275.066406 558.980469 275.066406 C 553.453125 275.066406 548.945312 279.582031 548.945312 285.113281 C 548.945312 290.648438 553.453125 295.164062 558.980469 295.164062 C 559.054688 295.164062 559.125 295.164062 559.273438 295.164062 C 559.5625 295.164062 559.78125 294.945312 559.78125 294.582031 L 559.78125 275.648438 C 559.78125 275.355469 559.488281 275.066406 559.199219 275.066406 Z M 558.691406 294.070312 C 553.890625 293.925781 549.960938 289.992188 549.960938 285.113281 C 549.960938 280.234375 553.816406 276.304688 558.691406 276.15625 Z M 558.691406 294.070312 " fill-opacity="1" fill-rule="nonzero"/><path fill="#ffb15f" d="M 778.703125 268.875 C 782.703125 268.875 785.972656 272.152344 785.972656 276.15625 C 785.972656 280.164062 782.703125 283.441406 778.703125 283.441406 C 774.699219 283.441406 771.429688 280.164062 771.429688 276.15625 C 771.429688 272.152344 774.699219 268.875 778.703125 268.875 Z M 696.007812 59.667969 C 696.007812 70.953125 688.078125 80.417969 677.460938 82.824219 L 670.40625 92.214844 C 667.714844 95.855469 662.257812 95.855469 659.566406 92.214844 L 652.949219 83.40625 L 627.128906 83.40625 C 614.039062 83.40625 603.492188 72.773438 603.492188 59.738281 C 603.492188 46.632812 614.109375 36.074219 627.128906 36.074219 L 672.367188 36.074219 C 685.386719 36 696.007812 46.632812 696.007812 59.667969 Z M 636.148438 59.667969 C 636.148438 56.242188 633.382812 53.476562 629.964844 53.476562 C 626.546875 53.476562 623.785156 56.242188 623.785156 59.667969 C 623.785156 63.089844 626.546875 65.855469 629.964844 65.855469 C 633.382812 65.855469 636.148438 63.089844 636.148438 59.667969 Z M 655.929688 59.667969 C 655.929688 56.242188 653.167969 53.476562 649.75 53.476562 C 646.332031 53.476562 643.566406 56.242188 643.566406 59.667969 C 643.566406 63.089844 646.332031 65.855469 649.75 65.855469 C 653.167969 65.855469 655.929688 63.089844 655.929688 59.667969 Z M 676.078125 59.667969 C 676.078125 56.242188 673.3125 53.476562 669.894531 53.476562 C 666.476562 53.476562 663.714844 56.242188 663.714844 59.667969 C 663.714844 63.089844 666.476562 65.855469 669.894531 65.855469 C 673.3125 65.855469 676.078125 63.089844 676.078125 59.667969 Z M 790.628906 180.984375 C 790.628906 193.507812 780.445312 203.703125 767.9375 203.703125 C 755.425781 203.703125 745.246094 193.507812 745.246094 180.984375 C 745.246094 168.457031 755.425781 158.261719 767.9375 158.261719 C 780.445312 158.261719 790.628906 168.457031 790.628906 180.984375 Z M 776.957031 170.207031 C 776.882812 170.132812 776.882812 170.132812 776.808594 170.058594 C 774.917969 168.167969 771.863281 168.167969 769.972656 170.058594 L 769.539062 170.496094 C 767.644531 172.390625 767.644531 175.449219 769.539062 177.34375 C 770.335938 178.144531 771.355469 178.578125 772.445312 178.726562 C 772.957031 178.796875 773.246094 179.308594 773.027344 179.746094 C 772.519531 180.984375 771.5 182.222656 770.335938 183.386719 C 769.171875 184.550781 767.863281 185.644531 766.699219 186.082031 C 766.265625 186.296875 765.753906 185.933594 765.683594 185.496094 C 765.535156 184.476562 765.101562 183.386719 764.300781 182.585938 C 762.410156 180.691406 759.355469 180.691406 757.464844 182.585938 L 757.027344 183.023438 C 755.136719 184.914062 755.136719 187.972656 757.027344 189.867188 C 757.101562 189.941406 757.101562 189.941406 757.171875 190.011719 C 762.628906 195.472656 769.902344 193.871094 775.355469 188.335938 C 780.808594 182.875 782.484375 175.667969 776.957031 170.207031 Z M 568.871094 302.152344 L 579.925781 302.152344 C 580.871094 302.152344 581.601562 301.425781 581.601562 300.480469 L 581.601562 291.449219 C 581.601562 290.941406 581.382812 290.503906 581.019531 290.210938 L 574.179688 284.242188 L 567.707031 290.210938 C 567.34375 290.503906 567.199219 290.941406 567.199219 291.449219 L 567.199219 300.550781 C 567.199219 301.425781 567.925781 302.152344 568.871094 302.152344 Z M 568.871094 302.152344 " fill-opacity="1" fill-rule="evenodd"/><g clip-path="url(#1097b28a63)"><path fill="#418aff" d="M 751.5 127.023438 L 720.734375 127.097656 C 720.734375 118.578125 727.570312 111.660156 736.082031 111.660156 C 744.589844 111.585938 751.5 118.503906 751.5 127.023438 Z M 736.007812 96.367188 C 732.152344 96.367188 729.027344 99.5 729.027344 103.359375 C 729.027344 107.21875 732.152344 110.347656 736.007812 110.347656 C 739.863281 110.347656 742.992188 107.21875 742.992188 103.359375 C 742.992188 99.425781 739.863281 96.367188 736.007812 96.367188 Z M 640.292969 124.546875 C 640.4375 124.402344 644.222656 121.199219 646.984375 116.027344 C 647.277344 115.445312 647.058594 114.789062 646.546875 114.5 C 645.96875 114.207031 645.3125 114.425781 645.019531 114.9375 C 642.402344 119.667969 638.839844 122.800781 638.839844 122.800781 C 638.332031 123.238281 638.332031 123.964844 638.695312 124.402344 C 638.910156 124.695312 639.277344 124.839844 639.566406 124.839844 C 639.785156 124.839844 640.074219 124.765625 640.292969 124.546875 Z M 527.050781 315.699219 C 527.050781 320.285156 530.542969 324 534.90625 324 L 855.652344 324 C 860.015625 324 863.503906 320.285156 863.503906 315.699219 C 863.503906 311.109375 860.015625 307.398438 855.652344 307.398438 L 534.90625 307.398438 C 530.542969 307.398438 527.050781 311.109375 527.050781 315.699219 Z M 527.050781 315.699219 " fill-opacity="1" fill-rule="nonzero"/></g><g fill="#000000" fill-opacity="1"><g transform="translate(112.710949, 192.149987)"><g><path d="M 16.15625 0.328125 C 23.664062 0.328125 28.679688 -4.160156 28.679688 -12.566406 L 28.679688 -14.238281 L 17.5 -14.238281 L 17.5 -12.320312 L 26.476562 -12.320312 L 26.476562 -12.15625 C 26.394531 -5.753906 22.96875 -1.550781 16.15625 -1.550781 C 8.648438 -1.550781 4.488281 -6.691406 4.488281 -14.441406 L 4.488281 -14.769531 C 4.488281 -22.355469 9.097656 -27.699219 16.113281 -27.699219 C 20.765625 -27.699219 24.4375 -25.660156 25.5 -20.847656 L 27.78125 -20.847656 C 26.679688 -26.925781 21.664062 -29.535156 16.074219 -29.535156 C 8.078125 -29.535156 2.164062 -23.253906 2.164062 -14.726562 L 2.164062 -14.402344 C 2.164062 -5.832031 7.382812 0.328125 16.15625 0.328125 Z M 16.15625 0.328125 "/></g></g></g><g fill="#000000" fill-opacity="1"><g transform="translate(143.552222, 192.149987)"><g><path d="M 11.871094 0.328125 C 16.441406 0.328125 19.828125 -1.875 20.726562 -5.957031 L 18.5625 -5.957031 C 17.828125 -2.976562 15.421875 -1.507812 11.871094 -1.507812 C 6.8125 -1.507812 4.078125 -4.773438 4 -10.484375 L 20.886719 -10.484375 L 20.886719 -11.261719 C 20.886719 -18.316406 16.6875 -21.664062 11.546875 -21.664062 C 5.832031 -21.664062 1.753906 -17.214844 1.753906 -10.769531 L 1.753906 -10.445312 C 1.753906 -4.039062 5.710938 0.328125 11.871094 0.328125 Z M 4.078125 -12.238281 C 4.488281 -16.890625 7.425781 -19.828125 11.546875 -19.828125 C 15.707031 -19.828125 18.441406 -17.421875 18.644531 -12.238281 Z M 4.078125 -12.238281 "/></g></g></g><g fill="#000000" fill-opacity="1"><g transform="translate(166.152829, 192.149987)"><g><path d="M 9.382812 0.285156 C 10.6875 0.285156 11.503906 0.0820312 12.199219 -0.164062 L 12.199219 -2 C 11.464844 -1.753906 10.605469 -1.550781 9.503906 -1.550781 C 7.546875 -1.550781 6.324219 -2.734375 6.324219 -5.304688 L 6.324219 -19.5 L 11.914062 -19.5 L 11.914062 -21.335938 L 6.324219 -21.335938 L 6.324219 -26.191406 L 4.160156 -26.191406 L 4.160156 -21.335938 L 1.019531 -21.335938 L 1.019531 -19.5 L 4.160156 -19.5 L 4.160156 -5.140625 C 4.160156 -1.714844 5.996094 0.285156 9.382812 0.285156 Z M 9.382812 0.285156 "/></g></g></g><g fill="#000000" fill-opacity="1"><g transform="translate(179.941646, 192.149987)"><g><path d="M 9.382812 0.285156 C 10.6875 0.285156 11.503906 0.0820312 12.199219 -0.164062 L 12.199219 -2 C 11.464844 -1.753906 10.605469 -1.550781 9.503906 -1.550781 C 7.546875 -1.550781 6.324219 -2.734375 6.324219 -5.304688 L 6.324219 -19.5 L 11.914062 -19.5 L 11.914062 -21.335938 L 6.324219 -21.335938 L 6.324219 -26.191406 L 4.160156 -26.191406 L 4.160156 -21.335938 L 1.019531 -21.335938 L 1.019531 -19.5 L 4.160156 -19.5 L 4.160156 -5.140625 C 4.160156 -1.714844 5.996094 0.285156 9.382812 0.285156 Z M 9.382812 0.285156 "/></g></g></g><g fill="#000000" fill-opacity="1"><g transform="translate(193.730462, 192.149987)"><g><path d="M 3.425781 0 L 5.589844 0 L 5.589844 -21.335938 L 3.425781 -21.335938 Z M 4.488281 -25.90625 C 5.34375 -25.90625 5.996094 -26.601562 5.996094 -27.457031 C 5.996094 -28.273438 5.34375 -28.964844 4.488281 -28.964844 C 3.632812 -28.964844 2.9375 -28.273438 2.9375 -27.457031 C 2.9375 -26.601562 3.632812 -25.90625 4.488281 -25.90625 Z M 4.488281 -25.90625 "/></g></g></g><g fill="#000000" fill-opacity="1"><g transform="translate(202.746227, 192.149987)"><g><path d="M 11.75 7.667969 C 17.460938 7.667969 21.582031 4.855469 21.621094 -1.429688 L 21.621094 -21.335938 L 19.460938 -21.335938 L 19.460938 -16.726562 C 18.234375 -19.335938 15.871094 -21.664062 11.667969 -21.664062 C 6.039062 -21.664062 1.753906 -17.257812 1.753906 -11.179688 L 1.753906 -10.894531 C 1.753906 -4.691406 5.957031 -0.695312 11.382812 -0.695312 C 15.339844 -0.695312 18.316406 -3.304688 19.460938 -5.875 L 19.460938 -1.507812 C 19.460938 3.753906 16.277344 5.832031 11.707031 5.832031 C 7.261719 5.832031 4.976562 3.957031 4.40625 1.222656 L 2.203125 1.222656 C 2.734375 4.652344 5.589844 7.667969 11.75 7.667969 Z M 11.585938 -2.53125 C 7.34375 -2.53125 4 -5.628906 4 -10.933594 L 4 -11.261719 C 4 -16.5625 7.300781 -19.828125 11.871094 -19.828125 C 16.320312 -19.828125 19.5 -16.726562 19.5 -11.339844 L 19.5 -11.015625 C 19.5 -5.671875 15.910156 -2.53125 11.585938 -2.53125 Z M 11.585938 -2.53125 "/></g></g></g><g fill="#000000" fill-opacity="1"><g transform="translate(227.712973, 192.149987)"><g/></g></g><g fill="#000000" fill-opacity="1"><g transform="translate(237.789413, 192.149987)"><g><path d="M 12.566406 0.328125 C 18.441406 0.328125 22.316406 -3.34375 22.316406 -7.957031 C 22.316406 -13.421875 19.175781 -15.257812 12.648438 -16.238281 C 6.566406 -17.132812 4.976562 -18.847656 4.976562 -22.03125 C 4.976562 -25.539062 7.546875 -27.621094 12.035156 -27.621094 C 16.359375 -27.621094 18.644531 -25.785156 19.335938 -22.152344 L 21.417969 -22.152344 C 20.765625 -26.804688 17.460938 -29.496094 12.035156 -29.496094 C 6.566406 -29.496094 2.855469 -26.394531 2.855469 -21.867188 C 2.855469 -17.257812 5.914062 -15.136719 12.28125 -14.199219 C 18.15625 -13.300781 20.113281 -11.871094 20.113281 -7.792969 C 20.113281 -4.203125 17.132812 -1.550781 12.566406 -1.550781 C 6.488281 -1.550781 4.445312 -4.691406 3.957031 -8.363281 L 1.714844 -8.363281 C 2.324219 -3.589844 5.34375 0.328125 12.566406 0.328125 Z M 12.566406 0.328125 "/></g></g></g><g fill="#000000" fill-opacity="1"><g transform="translate(262.348196, 192.149987)"><g><path d="M 9.382812 0.285156 C 10.6875 0.285156 11.503906 0.0820312 12.199219 -0.164062 L 12.199219 -2 C 11.464844 -1.753906 10.605469 -1.550781 9.503906 -1.550781 C 7.546875 -1.550781 6.324219 -2.734375 6.324219 -5.304688 L 6.324219 -19.5 L 11.914062 -19.5 L 11.914062 -21.335938 L 6.324219 -21.335938 L 6.324219 -26.191406 L 4.160156 -26.191406 L 4.160156 -21.335938 L 1.019531 -21.335938 L 1.019531 -19.5 L 4.160156 -19.5 L 4.160156 -5.140625 C 4.160156 -1.714844 5.996094 0.285156 9.382812 0.285156 Z M 9.382812 0.285156 "/></g></g></g><g fill="#000000" fill-opacity="1"><g transform="translate(276.137012, 192.149987)"><g><path d="M 9.015625 0.328125 C 12.605469 0.328125 14.890625 -1.183594 16.238281 -3.265625 L 16.238281 0 L 18.398438 0 L 18.398438 -14.117188 C 18.398438 -19.542969 15.378906 -21.664062 10.933594 -21.664062 C 6.894531 -21.664062 3.222656 -19.785156 2.734375 -15.300781 L 4.855469 -15.300781 C 5.34375 -18.441406 7.628906 -19.828125 10.851562 -19.828125 C 14.605469 -19.828125 16.238281 -18.113281 16.238281 -14.117188 L 16.238281 -12.199219 L 11.789062 -12.199219 C 6.527344 -12.199219 1.796875 -10.6875 1.796875 -5.753906 C 1.796875 -1.714844 4.8125 0.328125 9.015625 0.328125 Z M 9.179688 -1.429688 C 5.671875 -1.429688 3.957031 -3.019531 3.957031 -5.753906 C 3.957031 -9.585938 7.425781 -10.527344 11.871094 -10.527344 L 16.238281 -10.527344 L 16.238281 -6.894531 C 16.238281 -3.710938 13.097656 -1.429688 9.179688 -1.429688 Z M 9.179688 -1.429688 "/></g></g></g><g fill="#000000" fill-opacity="1"><g transform="translate(297.717744, 192.149987)"><g><path d="M 3.34375 0 L 5.507812 0 L 5.507812 -11.832031 C 5.507812 -17.5 8.609375 -19.417969 12.730469 -19.582031 L 12.730469 -21.621094 C 8.8125 -21.5 6.691406 -19.460938 5.507812 -16.847656 L 5.507812 -21.335938 L 3.34375 -21.335938 Z M 3.34375 0 "/></g></g></g><g fill="#000000" fill-opacity="1"><g transform="translate(311.914524, 192.149987)"><g><path d="M 9.382812 0.285156 C 10.6875 0.285156 11.503906 0.0820312 12.199219 -0.164062 L 12.199219 -2 C 11.464844 -1.753906 10.605469 -1.550781 9.503906 -1.550781 C 7.546875 -1.550781 6.324219 -2.734375 6.324219 -5.304688 L 6.324219 -19.5 L 11.914062 -19.5 L 11.914062 -21.335938 L 6.324219 -21.335938 L 6.324219 -26.191406 L 4.160156 -26.191406 L 4.160156 -21.335938 L 1.019531 -21.335938 L 1.019531 -19.5 L 4.160156 -19.5 L 4.160156 -5.140625 C 4.160156 -1.714844 5.996094 0.285156 9.382812 0.285156 Z M 9.382812 0.285156 "/></g></g></g><g fill="#000000" fill-opacity="1"><g transform="translate(325.703341, 192.149987)"><g><path d="M 11.871094 0.328125 C 16.441406 0.328125 19.828125 -1.875 20.726562 -5.957031 L 18.5625 -5.957031 C 17.828125 -2.976562 15.421875 -1.507812 11.871094 -1.507812 C 6.8125 -1.507812 4.078125 -4.773438 4 -10.484375 L 20.886719 -10.484375 L 20.886719 -11.261719 C 20.886719 -18.316406 16.6875 -21.664062 11.546875 -21.664062 C 5.832031 -21.664062 1.753906 -17.214844 1.753906 -10.769531 L 1.753906 -10.445312 C 1.753906 -4.039062 5.710938 0.328125 11.871094 0.328125 Z M 4.078125 -12.238281 C 4.488281 -16.890625 7.425781 -19.828125 11.546875 -19.828125 C 15.707031 -19.828125 18.441406 -17.421875 18.644531 -12.238281 Z M 4.078125 -12.238281 "/></g></g></g><g fill="#000000" fill-opacity="1"><g transform="translate(348.303961, 192.149987)"><g><path d="M 11.339844 0.328125 C 15.339844 0.328125 18.316406 -2.367188 19.460938 -4.9375 L 19.460938 0 L 21.621094 0 L 21.621094 -31.535156 L 19.460938 -31.535156 L 19.460938 -16.605469 C 18.234375 -19.257812 15.871094 -21.664062 11.667969 -21.664062 C 6.039062 -21.664062 1.753906 -17.257812 1.753906 -10.6875 L 1.753906 -10.363281 C 1.753906 -3.589844 5.914062 0.328125 11.339844 0.328125 Z M 11.546875 -1.507812 C 7.300781 -1.507812 4 -4.609375 4 -10.445312 L 4 -10.769531 C 4 -16.523438 7.300781 -19.828125 11.871094 -19.828125 C 16.320312 -19.828125 19.5 -16.726562 19.5 -10.851562 L 19.5 -10.527344 C 19.5 -4.652344 15.871094 -1.507812 11.546875 -1.507812 Z M 11.546875 -1.507812 "/></g></g></g></svg>