<svg xmlns="http://www.w3.org/2000/svg" xmlns:xlink="http://www.w3.org/1999/xlink" width="1200" zoomAndPan="magnify" viewBox="0 0 900 359.999987" height="480" preserveAspectRatio="xMidYMid meet" version="1.0"><defs><g/><clipPath id="5abf28266e"><path d="M 17.25 0 L 882.75 0 C 887.324219 0 891.710938 1.816406 894.949219 5.050781 C 898.183594 8.289062 900 12.675781 900 17.25 L 900 342.75 C 900 347.324219 898.183594 351.710938 894.949219 354.949219 C 891.710938 358.183594 887.324219 360 882.75 360 L 17.25 360 C 12.675781 360 8.289062 358.183594 5.050781 354.949219 C 1.816406 351.710938 0 347.324219 0 342.75 L 0 17.25 C 0 12.675781 1.816406 8.289062 5.050781 5.050781 C 8.289062 1.816406 12.675781 0 17.25 0 Z M 17.25 0 " clip-rule="nonzero"/></clipPath><clipPath id="9707a65abe"><path d="M 1.800781 1.800781 L 898.199219 1.800781 L 898.199219 358.199219 L 1.800781 358.199219 Z M 1.800781 1.800781 " clip-rule="nonzero"/></clipPath><clipPath id="a5bfc82d0c"><path d="M 19.050781 1.800781 L 880.949219 1.800781 C 885.523438 1.800781 889.914062 3.617188 893.148438 6.851562 C 896.382812 10.085938 898.199219 14.476562 898.199219 19.050781 L 898.199219 340.949219 C 898.199219 345.523438 896.382812 349.914062 893.148438 353.148438 C 889.914062 356.382812 885.523438 358.199219 880.949219 358.199219 L 19.050781 358.199219 C 14.476562 358.199219 10.085938 356.382812 6.851562 353.148438 C 3.617188 349.914062 1.800781 345.523438 1.800781 340.949219 L 1.800781 19.050781 C 1.800781 14.476562 3.617188 10.085938 6.851562 6.851562 C 10.085938 3.617188 14.476562 1.800781 19.050781 1.800781 Z M 19.050781 1.800781 " clip-rule="nonzero"/></clipPath><clipPath id="9e0157439e"><path d="M 589 36 L 868.675781 36 L 868.675781 324 L 589 324 Z M 589 36 " clip-rule="nonzero"/></clipPath><clipPath id="59b7994fc5"><path d="M 722 36 L 868.675781 36 L 868.675781 170 L 722 170 Z M 722 36 " clip-rule="nonzero"/></clipPath></defs><rect x="-90" width="1080" fill="#ffffff" y="-35.999999" height="431.999984" fill-opacity="1"/><rect x="-90" width="1080" fill="#ffffff" y="-35.999999" height="431.999984" fill-opacity="1"/><g clip-path="url(#5abf28266e)"><rect x="-90" width="1080" fill="#004aad" y="-35.999999" height="431.999984" fill-opacity="1"/></g><g clip-path="url(#9707a65abe)"><g clip-path="url(#a5bfc82d0c)"><path fill="#ffffff" d="M 1.800781 1.800781 L 898.199219 1.800781 L 898.199219 358.199219 L 1.800781 358.199219 Z M 1.800781 1.800781 " fill-opacity="1" fill-rule="nonzero"/></g></g><g clip-path="url(#9e0157439e)"><path fill="#ffffff" d="M 868.089844 53.636719 C 868.089844 51.949219 866.726562 50.582031 865.039062 50.648438 L 846.023438 50.714844 L 838.625 43.308594 C 838.5625 43.242188 838.5625 43.242188 838.496094 43.242188 C 838.496094 43.242188 838.496094 43.242188 838.429688 43.242188 C 838.367188 43.242188 838.367188 43.242188 838.300781 43.242188 L 777.488281 43.308594 C 777.421875 43.308594 777.359375 43.242188 777.292969 43.242188 L 772.554688 42.527344 C 772.035156 42.460938 771.644531 42.136719 771.386719 41.683594 L 769.246094 37.332031 C 768.660156 36.160156 767.039062 36.160156 766.519531 37.332031 L 764.378906 41.617188 C 764.183594 42.074219 763.726562 42.398438 763.210938 42.460938 L 758.472656 43.175781 C 757.238281 43.371094 756.71875 44.929688 757.628906 45.777344 L 761.066406 49.152344 C 761.457031 49.480469 761.585938 50 761.523438 50.519531 L 760.679688 55.261719 C 760.484375 56.496094 761.78125 57.46875 762.882812 56.886719 L 765.609375 55.457031 L 765.742188 154.335938 C 765.742188 155.765625 766.257812 157.066406 767.296875 158.039062 C 768.273438 159.015625 769.632812 159.601562 770.996094 159.601562 L 776.773438 159.601562 L 776.773438 166.617188 C 776.773438 168.304688 778.136719 169.671875 779.824219 169.605469 L 808.640625 169.539062 C 808.1875 170.191406 807.730469 170.96875 807.277344 171.75 C 804.488281 176.558594 802.28125 184.417969 803.96875 190.394531 C 804.097656 190.914062 804.292969 191.433594 804.421875 191.890625 C 803.578125 193.1875 802.800781 194.554688 802.019531 195.851562 C 801.5 195.460938 800.980469 195.074219 800.527344 194.746094 C 799.230469 193.773438 797.347656 193.96875 796.375 195.265625 L 789.6875 203.714844 C 789.6875 203.714844 780.925781 216.707031 771.0625 231.261719 C 768.597656 214.628906 764.246094 193.1875 757.886719 189.746094 C 754.058594 187.667969 742.179688 184.546875 728.226562 181.429688 C 728.226562 181.363281 728.226562 181.363281 728.226562 181.300781 C 728.292969 181.300781 728.292969 181.300781 728.292969 181.300781 C 728.550781 181.234375 728.679688 180.972656 728.617188 180.714844 C 728.550781 180.519531 728.421875 180.390625 728.226562 180.390625 C 728.488281 178.699219 729.265625 172.851562 726.214844 173.375 C 726.148438 173.375 726.085938 173.375 726.019531 173.375 C 726.019531 172.140625 726.019531 170.90625 726.085938 169.734375 C 732.640625 170.382812 737.3125 169.800781 739.84375 167.980469 C 746.074219 163.5625 746.917969 150.828125 742.375 130.105469 C 745.6875 127.765625 748.347656 124.515625 749.710938 120.621094 C 751.398438 115.8125 751.007812 109.898438 747.503906 106.195312 C 744 102.429688 737.183594 101.972656 733.9375 105.9375 C 738.871094 99.632812 735.429688 88.851562 727.835938 86.316406 C 720.242188 83.78125 711.15625 89.824219 710.3125 97.816406 C 707.132812 90.863281 699.410156 85.667969 691.945312 87.289062 C 684.484375 88.914062 679.550781 98.789062 684.09375 104.898438 C 678.707031 100.804688 670.074219 101.972656 665.921875 107.300781 C 661.765625 112.691406 662.871094 121.332031 668.191406 125.492188 C 663.261719 125.035156 658.457031 129.585938 658.652344 134.523438 C 658.78125 138.941406 662.804688 142.773438 667.21875 143.03125 C 665.335938 148.296875 667.671875 154.726562 672.539062 157.519531 C 677.539062 160.378906 683.769531 159.925781 687.207031 155.378906 C 686.171875 160.769531 689.871094 166.488281 694.933594 168.371094 C 693.699219 168.566406 692.207031 171.097656 691.363281 174.347656 C 682.210938 172.917969 674.421875 172.007812 670.007812 172.007812 C 659.625 171.359375 637.6875 175.90625 613.542969 216.511719 C 580.054688 273.035156 586.871094 289.601562 604.132812 293.628906 C 605.105469 293.824219 606.015625 293.953125 607.054688 294.019531 L 607.183594 294.019531 C 607.636719 294.019531 608.15625 294.019531 608.613281 294.019531 L 694.152344 294.410156 C 695.710938 296.097656 697.59375 298.761719 699.34375 301.164062 C 701.164062 303.765625 702.785156 305.972656 703.824219 306.949219 C 704.539062 307.597656 705.316406 307.855469 706.03125 307.597656 C 707.070312 307.273438 707.71875 306.039062 708.042969 305.128906 C 708.757812 305.90625 709.988281 307.078125 711.808594 307.597656 C 712.132812 307.664062 712.390625 307.726562 712.648438 307.726562 C 713.167969 307.726562 713.558594 307.53125 713.882812 307.335938 C 714.597656 306.816406 714.921875 305.84375 715.117188 305.128906 C 715.507812 305.453125 716.089844 305.84375 716.933594 306.167969 C 718.101562 306.6875 718.882812 306.296875 719.335938 305.90625 C 720.699219 304.609375 720.632812 301.101562 719.789062 297.203125 L 742.765625 296.941406 C 743.542969 303.375 746.269531 309.222656 750.746094 314.027344 C 756.328125 320.007812 763.921875 323.515625 772.101562 323.839844 C 772.488281 323.839844 772.878906 323.839844 773.269531 323.839844 C 777.359375 323.839844 781.316406 323.058594 785.082031 321.433594 C 788.390625 320.070312 791.375 318.058594 794.101562 315.589844 C 800.136719 310 803.578125 302.398438 803.902344 294.214844 C 804.164062 286.675781 801.695312 279.402344 796.957031 273.617188 C 810.261719 254.324219 823.957031 225.542969 828.628906 214.5 C 829.605469 212.222656 828.304688 209.625 825.96875 209.039062 C 825.449219 208.910156 824.929688 208.78125 824.410156 208.585938 C 825.0625 207.546875 825.582031 206.636719 826.097656 205.664062 C 826.8125 204.429688 827.527344 203.195312 828.566406 201.441406 C 833.824219 197.410156 836.679688 189.226562 838.5625 183.769531 C 838.753906 183.25 838.949219 182.664062 839.078125 182.207031 C 840.3125 178.765625 834.082031 173.113281 829.539062 169.476562 L 865.625 169.34375 C 867.3125 169.34375 868.675781 167.980469 868.609375 166.292969 Z M 681.300781 291.484375 C 681.300781 291.421875 681.238281 291.289062 681.238281 291.226562 C 681.238281 291.289062 681.300781 291.421875 681.300781 291.484375 Z M 797.089844 294.019531 C 796.828125 301.75 792.804688 308.898438 786.3125 313.121094 C 782.097656 315.914062 777.226562 317.277344 772.230469 317.082031 C 765.804688 316.824219 759.898438 314.160156 755.550781 309.417969 C 751.722656 305.324219 749.515625 300.125 749.191406 294.667969 L 766.390625 294.734375 C 767.039062 294.734375 767.621094 294.734375 768.273438 294.734375 L 768.660156 294.734375 C 774.308594 294.472656 780.082031 292.394531 785.210938 287.78125 C 787.613281 285.574219 790.207031 282.648438 792.804688 279.269531 C 795.726562 283.625 797.28125 288.691406 797.089844 294.019531 Z M 797.089844 294.019531 " fill-opacity="1" fill-rule="nonzero"/></g><path fill="#ffffff" d="M 728.03125 113.277344 C 723.617188 123.800781 708.886719 134.390625 702.785156 138.421875 C 702.65625 138.355469 702.527344 138.355469 702.394531 138.289062 C 702.265625 138.226562 702.136719 138.226562 702.007812 138.160156 C 699.28125 137.445312 695.0625 137.316406 692.789062 141.929688 C 689.738281 148.101562 693.308594 152.972656 697.722656 155.050781 C 697.398438 159.210938 697.007812 164.40625 696.621094 169.019531 C 701.683594 170.773438 720.699219 173.503906 725.5 173.375 C 725.5 171.945312 725.566406 170.515625 725.566406 169.148438 C 731.40625 169.734375 736.664062 169.539062 739.519531 167.527344 C 748.476562 161.222656 744.0625 138.160156 740.105469 122.828125 Z M 723.554688 146.929688 C 723.8125 146.929688 723.945312 147.0625 723.945312 147.191406 C 723.945312 147.320312 723.75 147.449219 723.554688 147.449219 C 723.359375 147.449219 723.164062 147.320312 723.164062 147.191406 C 723.101562 147.0625 723.292969 146.929688 723.554688 146.929688 Z M 723.554688 150.179688 C 723.101562 150.179688 722.710938 149.917969 722.710938 149.660156 C 722.710938 149.398438 723.101562 149.140625 723.554688 149.140625 C 724.007812 149.140625 724.398438 149.398438 724.398438 149.660156 C 724.398438 149.917969 724.007812 150.179688 723.554688 150.179688 Z M 728.03125 149.398438 C 727.773438 149.398438 727.644531 149.269531 727.644531 149.140625 C 727.644531 149.011719 727.835938 148.878906 728.03125 148.878906 C 728.226562 148.878906 728.421875 149.011719 728.421875 149.140625 C 728.488281 149.269531 728.292969 149.398438 728.03125 149.398438 Z M 727.1875 147.191406 C 726.472656 147.191406 725.957031 146.800781 725.957031 146.347656 C 725.957031 145.890625 726.539062 145.5 727.1875 145.5 C 727.835938 145.5 728.421875 145.890625 728.421875 146.347656 C 728.488281 146.800781 727.902344 147.191406 727.1875 147.191406 Z M 739.585938 149.398438 C 739.324219 149.398438 739.195312 149.269531 739.195312 149.140625 C 739.195312 149.011719 739.390625 148.878906 739.585938 148.878906 C 739.78125 148.878906 739.972656 149.011719 739.972656 149.140625 C 739.972656 149.269531 739.78125 149.398438 739.585938 149.398438 Z M 742.960938 149.074219 C 742.960938 149.398438 742.570312 149.59375 742.117188 149.59375 C 741.660156 149.59375 741.273438 149.335938 741.273438 149.074219 C 741.273438 148.75 741.660156 148.554688 742.117188 148.554688 C 742.570312 148.554688 742.960938 148.816406 742.960938 149.074219 Z M 742.117188 146.023438 C 742.117188 146.476562 741.53125 146.867188 740.882812 146.867188 C 740.234375 146.867188 739.648438 146.476562 739.648438 146.023438 C 739.648438 145.566406 740.234375 145.175781 740.882812 145.175781 C 741.53125 145.175781 742.117188 145.566406 742.117188 146.023438 Z M 726.605469 293.757812 C 726.539062 294.929688 722.773438 295.382812 717.386719 291.355469 C 717.453125 291.484375 717.519531 291.679688 717.582031 291.808594 C 720.375 299.476562 720.761719 307.335938 717 305.714844 C 714.988281 304.867188 714.664062 303.960938 714.664062 303.960938 C 714.664062 303.960938 714.597656 307.921875 711.9375 307.140625 C 709.277344 306.363281 707.847656 304.089844 707.847656 304.089844 C 707.847656 304.089844 706.679688 308.765625 704.148438 306.492188 C 701.617188 304.21875 695.644531 294.082031 692.53125 292.328125 C 690.714844 291.289062 685.910156 291.746094 681.300781 291.421875 C 677.734375 274.722656 680.199219 265.5625 680.976562 263.289062 C 681.300781 263.484375 681.5625 263.742188 681.886719 263.9375 C 681.886719 263.9375 702.332031 268.097656 707.847656 271.28125 C 713.949219 274.917969 726.734375 292.070312 726.605469 293.757812 Z M 669.230469 256.335938 C 669.230469 256.335938 669.492188 256.46875 670.007812 256.726562 C 669.75 256.664062 669.492188 256.597656 669.230469 256.53125 C 669.230469 256.402344 669.230469 256.335938 669.230469 256.335938 Z M 857.835938 154.144531 C 857.835938 156.804688 855.695312 158.949219 853.035156 158.949219 L 826.941406 159.015625 C 826.292969 161.742188 825.582031 164.40625 824.929688 166.746094 C 831.160156 171.097656 839.730469 178.375 838.496094 182.015625 C 836.613281 187.339844 833.757812 196.761719 828.046875 201.113281 C 826.097656 204.296875 825.253906 205.988281 823.761719 208.457031 C 816.429688 205.921875 807.667969 199.945312 802.539062 196.175781 C 803.320312 194.8125 804.164062 193.382812 805.070312 191.953125 C 804.875 191.433594 804.683594 190.851562 804.550781 190.265625 C 802.929688 184.546875 804.941406 176.945312 807.863281 172.007812 C 810.78125 167.007812 814.027344 164.082031 816.167969 163.109375 C 816.558594 161.875 817.011719 160.507812 817.53125 159.015625 L 771.128906 159.082031 C 768.464844 159.082031 766.324219 156.9375 766.324219 154.273438 L 766.195312 48.441406 C 766.195312 45.777344 768.335938 43.632812 770.996094 43.632812 L 838.367188 43.632812 L 857.707031 62.992188 Z M 857.835938 154.144531 " fill-opacity="1" fill-rule="nonzero"/><path fill="#9c6afd" d="M 795.207031 272.578125 C 789.6875 266.667969 782.289062 263.222656 774.175781 262.964844 C 767.816406 262.703125 761.714844 264.457031 756.394531 267.964844 C 748.671875 273.097656 743.738281 281.414062 742.960938 290.574219 L 724.980469 290.769531 C 725.957031 292.328125 726.539062 293.371094 726.539062 293.757812 C 726.472656 294.929688 722.710938 295.382812 717.324219 291.355469 C 717.386719 291.484375 717.453125 291.679688 717.519531 291.808594 C 718.101562 293.5 718.621094 295.1875 719.011719 296.746094 L 743.023438 296.421875 C 743.738281 302.855469 746.464844 308.832031 750.941406 313.640625 C 756.460938 319.550781 763.859375 322.996094 771.972656 323.253906 C 776.449219 323.449219 780.796875 322.605469 784.757812 320.914062 C 788 319.550781 790.988281 317.601562 793.582031 315.199219 C 799.488281 309.675781 802.929688 302.269531 803.1875 294.214844 C 803.578125 286.222656 800.722656 278.492188 795.207031 272.578125 Z M 797.542969 294.082031 C 797.28125 301.945312 793.128906 309.222656 786.574219 313.574219 C 782.289062 316.433594 777.292969 317.796875 772.164062 317.601562 C 765.609375 317.34375 759.574219 314.613281 755.160156 309.804688 C 750.683594 305 748.410156 298.761719 748.671875 292.265625 C 748.929688 285.703125 751.65625 279.660156 756.460938 275.242188 C 758.601562 273.230469 761.003906 271.671875 763.597656 270.628906 C 766.84375 269.265625 770.347656 268.617188 773.984375 268.746094 C 780.539062 269.007812 786.574219 271.734375 790.988281 276.542969 C 795.464844 281.285156 797.800781 287.523438 797.542969 294.082031 Z M 803.511719 57.664062 L 780.148438 57.664062 C 778.203125 57.664062 776.578125 59.289062 776.578125 61.238281 L 776.578125 81.898438 C 776.578125 83.847656 778.203125 85.472656 780.148438 85.472656 L 803.511719 85.472656 C 805.460938 85.472656 807.082031 83.847656 807.082031 81.898438 L 807.082031 61.238281 C 807.082031 59.289062 805.460938 57.664062 803.511719 57.664062 Z M 791.832031 62.925781 C 794.234375 62.925781 796.113281 64.875 796.113281 67.214844 C 796.113281 69.554688 794.167969 71.503906 791.832031 71.503906 C 789.496094 71.503906 787.546875 69.554688 787.546875 67.214844 C 787.546875 64.875 789.429688 62.925781 791.832031 62.925781 Z M 784.757812 80.210938 C 784.757812 80.210938 784.757812 72.347656 791.765625 72.347656 C 798.777344 72.347656 798.777344 80.210938 798.777344 80.210938 Z M 784.757812 80.210938 " fill-opacity="1" fill-rule="nonzero"/><path fill="#418aff" d="M 725.4375 291.355469 C 725.304688 291.160156 725.242188 291.03125 725.113281 290.835938 C 725.175781 290.964844 725.304688 291.160156 725.4375 291.355469 Z M 726.605469 293.757812 C 726.605469 293.695312 726.605469 293.628906 726.605469 293.5625 C 726.605469 293.628906 726.605469 293.695312 726.605469 293.757812 Z M 725.566406 291.550781 C 725.628906 291.679688 725.695312 291.746094 725.761719 291.808594 C 725.695312 291.808594 725.628906 291.679688 725.566406 291.550781 Z M 726.472656 293.304688 C 726.472656 293.371094 726.539062 293.433594 726.539062 293.5 C 726.539062 293.433594 726.539062 293.371094 726.472656 293.304688 Z M 768.207031 294.796875 L 768.597656 294.796875 C 774.242188 294.539062 780.019531 292.460938 785.144531 287.847656 C 787.675781 285.574219 790.339844 282.519531 793.0625 278.945312 C 792.480469 278.101562 791.765625 277.257812 791.050781 276.476562 C 786.574219 271.671875 780.539062 268.941406 774.046875 268.679688 C 770.414062 268.550781 766.910156 269.199219 763.664062 270.566406 C 761.066406 271.671875 758.667969 273.230469 756.523438 275.179688 C 751.722656 279.660156 748.996094 285.703125 748.734375 292.199219 C 748.734375 293.042969 748.734375 293.824219 748.734375 294.667969 L 766.390625 294.734375 C 766.972656 294.796875 767.621094 294.796875 768.207031 294.796875 Z M 726.34375 292.980469 C 726.410156 293.042969 726.410156 293.109375 726.410156 293.175781 C 726.410156 293.109375 726.410156 293.042969 726.34375 292.980469 Z M 828.5 214.5625 C 823.761719 225.738281 809.9375 254.84375 796.503906 274.140625 C 796.113281 273.617188 795.660156 273.097656 795.207031 272.644531 C 789.6875 266.730469 782.289062 263.289062 774.175781 263.027344 C 767.816406 262.769531 761.714844 264.523438 756.394531 268.03125 C 748.671875 273.164062 743.738281 281.480469 742.960938 290.640625 L 724.980469 290.835938 C 721.414062 285.3125 712.585938 274.203125 707.78125 271.410156 C 702.265625 268.226562 681.820312 264.070312 681.820312 264.070312 C 681.5625 263.875 681.238281 263.613281 680.914062 263.417969 C 680.914062 263.484375 680.847656 263.550781 680.847656 263.679688 C 680.785156 263.875 680.71875 264.199219 680.589844 264.457031 C 680.589844 264.523438 680.589844 264.589844 680.523438 264.589844 C 680.523438 264.652344 680.457031 264.785156 680.457031 264.847656 C 680.457031 264.914062 680.394531 264.976562 680.394531 265.042969 C 680.394531 265.109375 680.328125 265.238281 680.328125 265.304688 C 680.328125 265.367188 680.328125 265.433594 680.265625 265.496094 C 680.265625 265.628906 680.199219 265.691406 680.199219 265.824219 C 680.199219 265.886719 680.199219 265.953125 680.132812 265.953125 C 680.070312 266.210938 680.003906 266.472656 679.941406 266.796875 C 679.941406 266.863281 679.941406 266.863281 679.941406 266.925781 C 679.941406 267.058594 679.875 267.253906 679.875 267.382812 C 679.875 267.445312 679.875 267.511719 679.808594 267.578125 C 679.808594 267.707031 679.746094 267.902344 679.746094 268.097656 C 679.746094 268.160156 679.746094 268.226562 679.746094 268.292969 C 679.746094 268.488281 679.679688 268.679688 679.679688 268.8125 C 679.679688 268.875 679.679688 268.875 679.679688 268.941406 C 679.550781 269.851562 679.484375 270.824219 679.421875 271.929688 C 679.421875 271.996094 679.421875 271.996094 679.421875 272.058594 C 679.421875 272.320312 679.421875 272.578125 679.355469 272.90625 C 679.355469 272.90625 679.355469 272.96875 679.355469 272.96875 C 679.289062 274.464844 679.289062 276.152344 679.355469 278.035156 C 679.550781 281.804688 680.070312 286.289062 681.171875 291.484375 C 685.78125 291.808594 690.582031 291.421875 692.402344 292.394531 C 693.050781 292.785156 693.828125 293.5 694.671875 294.410156 L 608.480469 293.953125 C 607.964844 293.953125 607.507812 293.953125 607.054688 293.953125 L 606.925781 293.953125 C 605.949219 293.890625 604.976562 293.757812 604.003906 293.5625 C 586.804688 289.535156 579.925781 272.96875 613.480469 216.511719 C 637.625 175.84375 659.558594 171.359375 669.945312 172.007812 C 674.359375 172.007812 682.082031 172.917969 691.296875 174.347656 C 692.269531 170.382812 694.21875 167.527344 695.582031 168.5 C 697.917969 170.191406 722.710938 173.894531 726.28125 173.242188 C 729.847656 172.59375 728.226562 180.714844 728.226562 180.714844 C 728.226562 180.714844 728.292969 180.910156 728.355469 181.300781 C 742.3125 184.351562 754.1875 187.535156 758.015625 189.617188 C 764.441406 193.058594 768.789062 214.5 771.191406 231.128906 C 781.058594 216.578125 789.820312 203.582031 789.820312 203.582031 L 796.503906 195.136719 C 797.542969 193.839844 799.359375 193.644531 800.65625 194.617188 C 805.527344 198.386719 817.207031 206.765625 825.773438 208.976562 C 828.175781 209.691406 829.472656 212.289062 828.5 214.5625 Z M 670.007812 256.792969 C 669.492188 256.53125 669.230469 256.402344 669.230469 256.402344 C 669.230469 256.402344 669.230469 256.46875 669.230469 256.597656 C 669.425781 256.664062 669.554688 256.664062 669.75 256.726562 C 669.816406 256.726562 669.945312 256.726562 670.007812 256.792969 Z M 725.890625 292.136719 C 725.957031 292.199219 726.019531 292.328125 726.019531 292.394531 C 726.019531 292.265625 725.957031 292.199219 725.890625 292.136719 Z M 718.167969 293.433594 C 718.296875 293.757812 718.363281 294.148438 718.492188 294.472656 C 718.363281 294.148438 718.230469 293.824219 718.167969 293.433594 Z M 726.28125 292.785156 C 726.214844 292.71875 726.214844 292.65625 726.148438 292.523438 C 726.214844 292.65625 726.214844 292.71875 726.28125 292.785156 Z M 718.039062 293.175781 C 717.90625 292.71875 717.710938 292.265625 717.582031 291.875 C 717.777344 292.265625 717.90625 292.71875 718.039062 293.175781 Z M 848.75 96.386719 C 848.75 95.605469 848.101562 94.957031 847.324219 94.957031 L 778.007812 94.957031 C 777.226562 94.957031 776.578125 95.605469 776.578125 96.386719 C 776.578125 97.164062 777.226562 97.816406 778.007812 97.816406 L 847.324219 97.816406 C 848.101562 97.816406 848.75 97.164062 848.75 96.386719 Z M 798.582031 105.027344 C 798.582031 104.246094 797.933594 103.597656 797.152344 103.597656 L 777.941406 103.597656 C 777.164062 103.597656 776.515625 104.246094 776.515625 105.027344 C 776.515625 105.804688 777.164062 106.457031 777.941406 106.457031 L 797.152344 106.457031 C 797.933594 106.457031 798.582031 105.804688 798.582031 105.027344 Z M 842.128906 105.09375 C 842.128906 104.3125 841.480469 103.664062 840.703125 103.664062 L 803.125 103.664062 C 802.34375 103.664062 801.695312 104.3125 801.695312 105.09375 C 801.695312 105.871094 802.34375 106.519531 803.125 106.519531 L 840.703125 106.519531 C 841.480469 106.519531 842.128906 105.871094 842.128906 105.09375 Z M 798.582031 112.757812 C 798.582031 111.976562 797.933594 111.328125 797.152344 111.328125 L 777.941406 111.328125 C 777.164062 111.328125 776.515625 111.976562 776.515625 112.757812 C 776.515625 113.539062 777.164062 114.1875 777.941406 114.1875 L 797.152344 114.1875 C 797.933594 114.1875 798.582031 113.539062 798.582031 112.757812 Z M 832.394531 112.824219 C 832.394531 112.042969 831.746094 111.394531 830.96875 111.394531 L 803.125 111.394531 C 802.34375 111.394531 801.695312 112.042969 801.695312 112.824219 C 801.695312 113.601562 802.34375 114.253906 803.125 114.253906 L 830.96875 114.253906 C 831.746094 114.253906 832.394531 113.601562 832.394531 112.824219 Z M 798.582031 120.488281 C 798.582031 119.710938 797.933594 119.058594 797.152344 119.058594 L 777.941406 119.058594 C 777.164062 119.058594 776.515625 119.710938 776.515625 120.488281 C 776.515625 121.269531 777.164062 121.917969 777.941406 121.917969 L 797.152344 121.917969 C 797.933594 121.917969 798.582031 121.269531 798.582031 120.488281 Z M 839.273438 120.554688 C 839.273438 119.773438 838.625 119.125 837.847656 119.125 L 803.1875 119.125 C 802.410156 119.125 801.761719 119.773438 801.761719 120.554688 C 801.761719 121.332031 802.410156 121.984375 803.1875 121.984375 L 837.847656 121.984375 C 838.625 121.984375 839.273438 121.332031 839.273438 120.554688 Z M 798.582031 126.792969 C 798.582031 126.011719 797.933594 125.363281 797.152344 125.363281 L 777.941406 125.363281 C 777.164062 125.363281 776.515625 126.011719 776.515625 126.792969 C 776.515625 127.570312 777.164062 128.21875 777.941406 128.21875 L 797.152344 128.21875 C 797.933594 128.21875 798.582031 127.570312 798.582031 126.792969 Z M 848.75 126.855469 C 848.75 126.078125 848.101562 125.425781 847.324219 125.425781 L 803.125 125.425781 C 802.34375 125.425781 801.695312 126.078125 801.695312 126.855469 C 801.695312 127.636719 802.34375 128.285156 803.125 128.285156 L 847.324219 128.285156 C 848.167969 128.285156 848.75 127.636719 848.75 126.855469 Z M 834.34375 66.890625 C 834.34375 66.109375 833.691406 65.460938 832.914062 65.460938 L 813.703125 65.460938 C 812.925781 65.460938 812.273438 66.109375 812.273438 66.890625 C 812.273438 67.671875 812.925781 68.320312 813.703125 68.320312 L 832.914062 68.320312 C 833.757812 68.320312 834.34375 67.671875 834.34375 66.890625 Z M 834.34375 74.621094 C 834.34375 73.84375 833.691406 73.191406 832.914062 73.191406 L 813.703125 73.191406 C 812.925781 73.191406 812.273438 73.84375 812.273438 74.621094 C 812.273438 75.402344 812.925781 76.050781 813.703125 76.050781 L 832.914062 76.050781 C 833.757812 76.050781 834.34375 75.402344 834.34375 74.621094 Z M 834.34375 80.921875 C 834.34375 80.144531 833.691406 79.496094 832.914062 79.496094 L 813.703125 79.496094 C 812.925781 79.496094 812.273438 80.144531 812.273438 80.921875 C 812.273438 81.703125 812.925781 82.351562 813.703125 82.351562 L 832.914062 82.351562 C 833.757812 82.351562 834.34375 81.703125 834.34375 80.921875 Z M 834.34375 80.921875 " fill-opacity="1" fill-rule="nonzero"/><g clip-path="url(#59b7994fc5)"><path fill="#ffb15f" d="M 776.902344 159.082031 L 817.46875 159.015625 C 816.949219 160.507812 816.492188 161.875 816.105469 163.109375 C 814.351562 163.886719 811.820312 166.03125 809.355469 169.539062 L 779.953125 169.605469 C 778.265625 169.605469 776.902344 168.242188 776.902344 166.617188 Z M 868.089844 53.636719 C 868.089844 51.949219 866.726562 50.582031 865.039062 50.648438 L 845.375 50.714844 L 857.707031 62.992188 L 857.835938 154.207031 C 857.835938 156.871094 855.695312 159.015625 853.035156 159.015625 L 826.941406 159.082031 C 826.292969 161.808594 825.582031 164.472656 824.929688 166.8125 C 826.097656 167.589844 827.332031 168.5 828.566406 169.476562 L 865.429688 169.34375 C 867.117188 169.34375 868.480469 167.980469 868.414062 166.292969 Z M 780.601562 143.292969 C 780.734375 143.421875 780.796875 143.617188 780.734375 143.746094 L 780.277344 146.214844 C 780.214844 146.671875 780.667969 146.996094 781.058594 146.800781 L 783.265625 145.632812 C 783.394531 145.566406 783.589844 145.566406 783.78125 145.632812 L 785.988281 146.800781 C 786.378906 146.996094 786.832031 146.671875 786.769531 146.214844 L 786.3125 143.746094 C 786.3125 143.554688 786.3125 143.421875 786.445312 143.292969 L 788.261719 141.539062 C 788.585938 141.214844 788.390625 140.695312 787.9375 140.628906 L 785.46875 140.238281 C 785.277344 140.238281 785.144531 140.109375 785.082031 139.980469 L 783.976562 137.707031 C 783.78125 137.316406 783.199219 137.316406 783.003906 137.707031 L 781.902344 139.980469 C 781.835938 140.109375 781.640625 140.238281 781.511719 140.238281 L 779.046875 140.628906 C 778.589844 140.695312 778.460938 141.214844 778.722656 141.539062 Z M 794.882812 143.292969 C 795.011719 143.421875 795.078125 143.617188 795.011719 143.746094 L 794.558594 146.214844 C 794.492188 146.671875 794.945312 146.996094 795.335938 146.800781 L 797.542969 145.632812 C 797.671875 145.566406 797.867188 145.566406 798.0625 145.632812 L 800.269531 146.800781 C 800.65625 146.996094 801.113281 146.671875 801.046875 146.214844 L 800.59375 143.746094 C 800.59375 143.554688 800.59375 143.421875 800.722656 143.292969 L 802.539062 141.539062 C 802.863281 141.214844 802.667969 140.695312 802.214844 140.628906 L 799.75 140.238281 C 799.554688 140.238281 799.425781 140.109375 799.359375 139.980469 L 798.257812 137.707031 C 798.0625 137.316406 797.476562 137.316406 797.28125 137.707031 L 796.179688 139.980469 C 796.113281 140.109375 795.917969 140.238281 795.789062 140.238281 L 793.324219 140.628906 C 792.871094 140.695312 792.738281 141.214844 793 141.539062 Z M 809.03125 143.292969 C 809.160156 143.421875 809.226562 143.617188 809.160156 143.746094 L 808.707031 146.214844 C 808.640625 146.671875 809.09375 146.996094 809.484375 146.800781 L 811.691406 145.632812 C 811.820312 145.566406 812.015625 145.566406 812.210938 145.632812 L 814.417969 146.800781 C 814.804688 146.996094 815.261719 146.671875 815.195312 146.214844 L 814.742188 143.746094 C 814.742188 143.554688 814.742188 143.421875 814.871094 143.292969 L 816.6875 141.539062 C 817.011719 141.214844 816.820312 140.695312 816.363281 140.628906 L 813.898438 140.238281 C 813.703125 140.238281 813.574219 140.109375 813.507812 139.980469 L 812.40625 137.707031 C 812.210938 137.316406 811.625 137.316406 811.429688 137.707031 L 810.328125 139.980469 C 810.261719 140.109375 810.070312 140.238281 809.9375 140.238281 L 807.472656 140.628906 C 807.019531 140.695312 806.886719 141.214844 807.148438 141.539062 Z M 837.457031 143.292969 C 837.585938 143.421875 837.652344 143.617188 837.585938 143.746094 L 837.132812 146.214844 C 837.066406 146.671875 837.523438 146.996094 837.910156 146.800781 L 840.117188 145.632812 C 840.25 145.566406 840.441406 145.566406 840.636719 145.632812 L 842.84375 146.800781 C 843.234375 146.996094 843.6875 146.671875 843.625 146.214844 L 843.167969 143.746094 C 843.167969 143.554688 843.167969 143.421875 843.296875 143.292969 L 845.117188 141.539062 C 845.441406 141.214844 845.246094 140.695312 844.792969 140.628906 L 842.324219 140.238281 C 842.128906 140.238281 842 140.109375 841.9375 139.980469 L 840.832031 137.707031 C 840.636719 137.316406 840.054688 137.316406 839.859375 137.707031 L 838.753906 139.980469 C 838.691406 140.109375 838.496094 140.238281 838.367188 140.238281 L 835.898438 140.628906 C 835.445312 140.695312 835.316406 141.214844 835.574219 141.539062 Z M 829.734375 146.214844 L 829.539062 145.242188 C 829.472656 145.761719 829.410156 146.28125 829.34375 146.800781 C 829.605469 146.738281 829.800781 146.476562 829.734375 146.214844 Z M 830.1875 142.578125 L 831.226562 141.539062 C 831.550781 141.214844 831.355469 140.695312 830.902344 140.628906 L 830.058594 140.5 C 830.1875 141.085938 830.1875 141.734375 830.1875 142.578125 Z M 826.941406 137.640625 C 826.75 137.316406 826.230469 137.316406 826.035156 137.707031 L 825.0625 139.71875 C 825.710938 138.679688 826.359375 138.03125 826.941406 137.640625 Z M 822.074219 140.628906 C 821.621094 140.695312 821.492188 141.214844 821.75 141.539062 L 823.242188 142.96875 C 823.761719 141.863281 824.28125 140.953125 824.800781 140.175781 C 824.738281 140.238281 824.671875 140.304688 824.542969 140.304688 Z M 774.308594 50.519531 C 774.242188 50 774.371094 49.480469 774.761719 49.152344 L 778.203125 45.777344 C 779.109375 44.867188 778.589844 43.308594 777.359375 43.175781 L 772.621094 42.460938 C 772.101562 42.398438 771.710938 42.074219 771.453125 41.617188 L 769.308594 37.265625 C 768.726562 36.097656 767.101562 36.097656 766.585938 37.265625 L 764.378906 41.617188 C 764.183594 42.074219 763.726562 42.398438 763.210938 42.460938 L 758.472656 43.175781 C 757.238281 43.371094 756.71875 44.929688 757.628906 45.777344 L 761.066406 49.152344 C 761.457031 49.480469 761.585938 50 761.523438 50.519531 L 760.679688 55.261719 C 760.484375 56.496094 761.78125 57.46875 762.882812 56.886719 L 767.167969 54.613281 C 767.621094 54.351562 768.140625 54.351562 768.597656 54.613281 L 772.878906 56.886719 C 773.984375 57.46875 775.347656 56.496094 775.085938 55.261719 Z M 727.1875 145.566406 C 726.472656 145.566406 725.957031 145.957031 725.957031 146.410156 C 725.957031 146.867188 726.539062 147.257812 727.1875 147.257812 C 727.835938 147.257812 728.421875 146.867188 728.421875 146.410156 C 728.488281 145.957031 727.902344 145.566406 727.1875 145.566406 Z M 742.117188 146.023438 C 742.117188 145.566406 741.53125 145.175781 740.882812 145.175781 C 740.234375 145.175781 739.648438 145.566406 739.648438 146.023438 C 739.648438 146.476562 740.234375 146.867188 740.882812 146.867188 C 741.53125 146.867188 742.117188 146.476562 742.117188 146.023438 Z M 723.554688 149.074219 C 723.101562 149.074219 722.710938 149.335938 722.710938 149.59375 C 722.710938 149.855469 723.101562 150.113281 723.554688 150.113281 C 724.007812 150.113281 724.398438 149.855469 724.398438 149.59375 C 724.398438 149.335938 724.007812 149.074219 723.554688 149.074219 Z M 742.117188 148.554688 C 741.660156 148.554688 741.273438 148.816406 741.273438 149.074219 C 741.273438 149.398438 741.660156 149.59375 742.117188 149.59375 C 742.570312 149.59375 742.960938 149.335938 742.960938 149.074219 C 742.960938 148.816406 742.570312 148.554688 742.117188 148.554688 Z M 728.03125 148.816406 C 727.773438 148.816406 727.644531 148.945312 727.644531 149.074219 C 727.644531 149.207031 727.835938 149.335938 728.03125 149.335938 C 728.226562 149.335938 728.421875 149.207031 728.421875 149.074219 C 728.488281 148.945312 728.292969 148.816406 728.03125 148.816406 Z M 739.585938 148.816406 C 739.324219 148.816406 739.195312 148.945312 739.195312 149.074219 C 739.195312 149.207031 739.390625 149.335938 739.585938 149.335938 C 739.78125 149.335938 739.972656 149.207031 739.972656 149.074219 C 739.972656 148.945312 739.78125 148.816406 739.585938 148.816406 Z M 723.554688 147.449219 C 723.8125 147.449219 723.945312 147.320312 723.945312 147.191406 C 723.945312 147.0625 723.75 146.929688 723.554688 146.929688 C 723.359375 146.929688 723.164062 147.0625 723.164062 147.191406 C 723.164062 147.320312 723.292969 147.449219 723.554688 147.449219 Z M 723.554688 147.449219 " fill-opacity="1" fill-rule="nonzero"/></g><path fill="#343434" d="M 658.585938 134.585938 C 658.457031 129.648438 663.195312 125.101562 668.128906 125.558594 C 662.804688 121.332031 661.765625 112.691406 665.855469 107.367188 C 669.945312 102.039062 678.640625 100.867188 684.027344 104.960938 C 679.484375 98.789062 684.417969 88.914062 691.882812 87.355469 C 699.34375 85.730469 707.070312 90.929688 710.25 97.878906 C 711.15625 89.890625 720.179688 83.847656 727.773438 86.382812 C 735.367188 88.914062 738.804688 99.699219 733.875 106 C 737.054688 102.039062 743.933594 102.492188 747.4375 106.261719 C 750.941406 110.03125 751.332031 115.875 749.644531 120.683594 C 748.28125 124.515625 745.621094 127.832031 742.3125 130.167969 C 746.917969 150.894531 746.074219 163.628906 739.78125 168.046875 C 737.25 169.863281 732.574219 170.449219 726.019531 169.800781 C 726.019531 170.96875 726.019531 172.203125 725.957031 173.4375 C 725.695312 173.4375 725.371094 173.503906 724.980469 173.503906 C 724.980469 172.203125 724.980469 170.773438 725.046875 169.28125 C 725.046875 169.148438 725.113281 169.019531 725.175781 168.890625 C 725.304688 168.824219 725.4375 168.761719 725.566406 168.761719 C 732.1875 169.476562 736.792969 168.957031 739.195312 167.265625 C 745.035156 163.171875 745.816406 151.152344 741.53125 131.535156 C 741.53125 131.535156 741.53125 131.535156 741.46875 131.535156 C 738.480469 130.882812 736.273438 132.445312 736.273438 132.445312 C 736.210938 132.507812 736.078125 132.507812 736.015625 132.507812 C 735.886719 132.507812 735.691406 132.445312 735.625 132.3125 C 735.496094 132.117188 735.496094 131.792969 735.753906 131.664062 C 735.886719 131.597656 738.09375 129.972656 741.335938 130.496094 C 740.816406 128.15625 740.234375 125.75 739.585938 123.21875 L 728.097656 114.121094 C 723.359375 124.582031 708.949219 134.914062 702.914062 138.875 C 702.785156 138.941406 702.65625 139.003906 702.527344 138.941406 C 702.394531 138.875 702.332031 138.875 702.199219 138.808594 C 702.070312 138.746094 701.941406 138.746094 701.8125 138.679688 C 698.957031 137.964844 695.191406 137.964844 693.179688 142.1875 C 692.011719 144.59375 691.75 146.929688 692.53125 149.140625 C 693.375 151.480469 695.320312 153.492188 697.917969 154.664062 C 698.113281 154.726562 698.242188 154.921875 698.175781 155.117188 C 697.851562 159.339844 697.464844 164.539062 697.074219 169.214844 C 696.683594 169.085938 696.359375 169.019531 696.101562 168.890625 C 696.101562 168.890625 696.101562 168.824219 696.101562 168.824219 C 690.324219 167.589844 685.910156 161.355469 687.015625 155.441406 C 683.507812 160.054688 677.34375 160.445312 672.347656 157.585938 C 667.476562 154.792969 665.140625 148.359375 667.023438 143.097656 C 662.804688 142.839844 658.714844 139.003906 658.585938 134.585938 Z M 858.289062 154.144531 C 858.289062 155.570312 857.773438 156.871094 856.734375 157.847656 C 855.695312 158.820312 854.398438 159.40625 853.035156 159.40625 L 827.332031 159.46875 C 826.8125 161.613281 826.230469 163.953125 825.515625 166.550781 C 828.628906 168.761719 840.574219 177.53125 838.949219 182.207031 C 838.753906 182.730469 838.625 183.25 838.429688 183.769531 C 836.546875 189.226562 833.691406 197.410156 828.4375 201.4375 C 827.398438 203.195312 826.617188 204.429688 825.96875 205.664062 C 825.449219 206.636719 824.929688 207.546875 824.28125 208.585938 C 823.957031 208.457031 823.632812 208.390625 823.308594 208.261719 C 823.957031 207.15625 824.542969 206.183594 825.125 205.144531 C 825.839844 203.910156 826.554688 202.609375 827.65625 200.789062 C 827.65625 200.726562 827.722656 200.726562 827.785156 200.660156 C 832.847656 196.828125 835.640625 188.707031 837.523438 183.378906 C 837.71875 182.859375 837.847656 182.402344 838.042969 181.949219 L 836.222656 182.339844 C 834.148438 182.730469 832.265625 183.964844 831.03125 185.71875 C 829.085938 188.574219 827.269531 190.136719 825.710938 190.394531 C 825.582031 190.394531 825.386719 190.460938 825.253906 190.460938 C 824.671875 190.460938 824.152344 190.265625 823.632812 189.941406 C 822.398438 189.03125 822.464844 187.148438 823.113281 185.003906 C 822.464844 185.585938 821.6875 186.042969 820.90625 186.042969 C 820.582031 186.042969 820.257812 185.976562 819.933594 185.78125 C 818.765625 185.132812 818.507812 183.441406 819.089844 180.714844 C 818.570312 181.300781 817.988281 181.820312 817.273438 182.078125 C 817.011719 182.144531 816.753906 182.207031 816.558594 182.207031 C 816.167969 182.207031 815.84375 182.078125 815.457031 181.882812 C 813.117188 180.585938 814.546875 176.425781 816.105469 172.007812 C 817.011719 169.28125 817.988281 166.488281 817.792969 164.992188 C 817.726562 164.277344 817.46875 163.824219 817.144531 163.691406 C 816.820312 163.5 816.429688 163.628906 816.363281 163.628906 C 814.480469 164.472656 811.238281 167.203125 808.316406 172.269531 C 805.65625 176.882812 803.449219 184.484375 805.070312 190.199219 C 805.199219 190.785156 805.394531 191.304688 805.589844 191.890625 C 805.65625 192.019531 805.65625 192.214844 805.527344 192.34375 C 804.617188 193.773438 803.773438 195.203125 802.996094 196.566406 C 802.734375 196.371094 802.476562 196.175781 802.214844 195.980469 C 802.929688 194.683594 803.773438 193.320312 804.617188 192.019531 C 804.421875 191.5 804.292969 191.042969 804.164062 190.523438 C 802.476562 184.546875 804.746094 176.621094 807.472656 171.878906 C 810.457031 166.746094 813.703125 163.886719 815.78125 162.914062 C 816.167969 161.808594 816.492188 160.703125 816.820312 159.664062 L 771.128906 159.730469 C 769.699219 159.730469 768.402344 159.210938 767.429688 158.171875 C 766.453125 157.195312 765.871094 155.832031 765.871094 154.46875 L 765.675781 55.390625 L 766.648438 54.871094 L 766.777344 154.273438 C 766.777344 155.441406 767.234375 156.480469 768.011719 157.324219 C 768.789062 158.105469 769.894531 158.558594 771.0625 158.558594 L 817.078125 158.496094 C 821.75 144.59375 825.320312 137.445312 827.722656 137.316406 C 828.371094 137.25 828.890625 137.511719 829.28125 138.03125 C 830.449219 139.460938 830.96875 144.332031 827.527344 158.496094 L 852.96875 158.429688 C 854.136719 158.429688 855.175781 157.976562 856.019531 157.195312 C 856.796875 156.351562 857.253906 155.3125 857.253906 154.144531 L 857.121094 63.382812 L 843.039062 63.382812 C 841.609375 63.382812 840.3125 62.863281 839.339844 61.824219 C 838.367188 60.847656 837.78125 59.484375 837.78125 58.121094 L 837.78125 44.023438 L 778.527344 44.085938 C 778.394531 43.632812 778.007812 43.242188 777.488281 43.113281 L 838.300781 43.046875 C 838.367188 43.046875 838.367188 43.046875 838.429688 43.046875 C 838.429688 43.046875 838.429688 43.046875 838.496094 43.046875 C 838.5625 43.046875 838.625 43.113281 838.625 43.113281 L 857.964844 62.472656 C 858.03125 62.539062 858.03125 62.539062 858.03125 62.601562 C 858.03125 62.601562 858.03125 62.601562 858.03125 62.667969 C 858.03125 62.734375 858.03125 62.734375 858.03125 62.796875 Z M 824.476562 166.617188 C 828.761719 150.960938 830.253906 140.757812 828.566406 138.679688 C 828.371094 138.421875 828.113281 138.289062 827.785156 138.355469 C 826.230469 138.421875 822.53125 144.851562 816.820312 162.523438 C 817.078125 162.523438 817.335938 162.589844 817.597656 162.71875 C 818.179688 163.042969 818.570312 163.757812 818.699219 164.734375 C 818.960938 166.488281 817.988281 169.28125 816.949219 172.203125 C 815.648438 175.84375 814.222656 180 815.84375 180.910156 C 816.167969 181.105469 816.492188 181.105469 816.882812 181.039062 C 818.179688 180.585938 819.414062 178.375 819.804688 177.53125 C 819.867188 177.269531 820 177.011719 820.0625 176.75 C 821.296875 173.179688 822.917969 169.734375 822.917969 169.734375 C 823.050781 169.476562 823.308594 169.410156 823.566406 169.539062 C 823.828125 169.671875 823.894531 169.929688 823.761719 170.191406 C 822.335938 173.179688 821.296875 175.710938 820.648438 177.726562 C 820.648438 177.792969 820.648438 177.855469 820.582031 177.921875 C 820.582031 177.921875 820.519531 177.984375 820.519531 178.117188 C 819.285156 182.273438 819.480469 184.417969 820.257812 184.871094 C 821.554688 185.585938 823.4375 183.054688 824.085938 182.015625 C 825.710938 178.375 828.175781 174.867188 828.628906 174.152344 C 828.761719 173.957031 829.085938 173.894531 829.28125 174.023438 C 829.472656 174.152344 829.539062 174.476562 829.410156 174.671875 C 826.164062 179.351562 821.878906 187.339844 824.085938 189.03125 C 824.476562 189.355469 824.929688 189.421875 825.386719 189.355469 C 826.683594 189.160156 828.304688 187.667969 830.058594 185.132812 C 831.421875 183.183594 833.5 181.820312 835.835938 181.363281 L 837.910156 180.972656 C 837.585938 178.441406 833.5625 173.503906 824.476562 167.203125 C 824.542969 167.007812 824.410156 166.8125 824.476562 166.617188 Z M 856.539062 62.472656 L 847.386719 53.3125 L 838.820312 44.800781 L 838.820312 58.183594 C 838.820312 59.355469 839.273438 60.394531 840.054688 61.238281 C 840.832031 62.019531 841.9375 62.472656 843.105469 62.472656 Z M 694.800781 177.792969 C 694.542969 177.660156 694.28125 177.792969 694.152344 178.050781 C 694.023438 178.3125 694.152344 178.570312 694.414062 178.699219 C 702.332031 181.949219 709.730469 182.859375 715.636719 182.859375 C 723.292969 182.859375 728.292969 181.300781 728.355469 181.234375 C 728.617188 181.167969 728.746094 180.84375 728.679688 180.648438 C 728.617188 180.453125 728.292969 180.261719 728.097656 180.324219 C 727.902344 180.390625 712.78125 185.132812 694.800781 177.792969 Z M 732.25 215.40625 C 731.992188 215.472656 731.796875 215.667969 731.863281 215.992188 C 732.121094 217.617188 738.027344 256.207031 739.519531 261.46875 C 739.585938 261.664062 739.78125 261.792969 739.972656 261.792969 C 740.039062 261.792969 740.039062 261.792969 740.105469 261.792969 C 740.363281 261.730469 740.492188 261.46875 740.429688 261.210938 C 738.9375 256.011719 732.835938 216.253906 732.769531 215.796875 C 732.769531 215.539062 732.511719 215.40625 732.25 215.40625 Z M 728.550781 141.539062 C 729.847656 141.410156 729.847656 139.070312 729.003906 138.226562 C 728.292969 137.511719 727.835938 137.835938 727.578125 138.355469 C 727.316406 138.808594 727.253906 139.394531 727.316406 139.914062 C 727.449219 140.628906 727.707031 141.605469 728.550781 141.539062 Z M 739.972656 140.5 C 741.273438 140.371094 741.273438 138.03125 740.429688 137.1875 C 739.714844 136.472656 739.261719 136.796875 739 137.316406 C 738.742188 137.769531 738.675781 138.355469 738.742188 138.875 C 738.871094 139.523438 739.128906 140.5625 739.972656 140.5 Z M 731.472656 150.960938 C 731.210938 150.828125 730.953125 150.960938 730.824219 151.21875 C 730.691406 151.480469 730.824219 151.738281 731.082031 151.867188 C 731.148438 151.933594 732.574219 152.519531 734.199219 152.519531 C 735.238281 152.519531 736.40625 152.257812 737.378906 151.480469 C 739.78125 149.464844 735.5625 138.09375 734.71875 135.886719 C 734.652344 135.625 734.328125 135.496094 734.066406 135.625 C 733.808594 135.691406 733.679688 136.015625 733.808594 136.277344 C 735.820312 141.605469 738.09375 149.660156 736.730469 150.765625 C 734.78125 152.386719 731.535156 150.960938 731.472656 150.960938 Z M 726.34375 154.664062 C 726.148438 154.46875 725.890625 154.402344 725.628906 154.597656 C 725.4375 154.792969 725.371094 155.050781 725.566406 155.3125 C 725.695312 155.507812 728.8125 159.144531 733.550781 159.144531 C 734.199219 159.144531 734.910156 159.082031 735.691406 158.886719 C 735.949219 158.820312 736.144531 158.558594 736.078125 158.300781 C 736.015625 158.039062 735.753906 157.847656 735.496094 157.910156 C 730.109375 159.144531 726.34375 154.726562 726.34375 154.664062 Z M 730.628906 132.25 C 725.5 130.429688 722.320312 133.742188 722.191406 133.871094 C 721.996094 134.066406 721.996094 134.390625 722.191406 134.585938 C 722.257812 134.652344 722.386719 134.71875 722.515625 134.71875 C 722.644531 134.71875 722.773438 134.652344 722.839844 134.585938 C 722.96875 134.457031 725.695312 131.597656 730.238281 133.222656 C 730.5 133.289062 730.757812 133.15625 730.886719 132.898438 C 731.019531 132.636719 730.886719 132.3125 730.628906 132.25 Z M 795.59375 272.253906 C 801.175781 278.296875 804.097656 286.09375 803.773438 294.277344 C 803.449219 302.464844 800.007812 310.066406 793.972656 315.652344 C 791.3125 318.121094 788.261719 320.070312 784.953125 321.5 C 781.1875 323.058594 777.226562 323.902344 773.140625 323.902344 C 772.75 323.902344 772.359375 323.902344 771.972656 323.902344 C 763.792969 323.578125 756.199219 320.136719 750.617188 314.09375 C 746.203125 309.351562 743.414062 303.4375 742.636719 297.007812 L 719.660156 297.265625 C 720.503906 301.164062 720.570312 304.671875 719.207031 305.972656 C 718.816406 306.363281 718.039062 306.753906 716.804688 306.234375 C 715.960938 305.84375 715.375 305.519531 714.988281 305.195312 C 714.855469 305.972656 714.53125 306.882812 713.753906 307.402344 C 713.492188 307.597656 713.105469 307.792969 712.519531 307.792969 C 712.261719 307.792969 712 307.726562 711.675781 307.664062 C 709.859375 307.078125 708.5625 305.972656 707.914062 305.195312 C 707.589844 306.101562 706.9375 307.335938 705.902344 307.664062 C 705.1875 307.855469 704.472656 307.664062 703.695312 307.011719 C 702.589844 306.039062 701.03125 303.828125 699.214844 301.230469 C 696.75 297.789062 693.957031 293.890625 692.207031 292.914062 C 691.101562 292.265625 688.441406 292.265625 685.714844 292.199219 C 684.289062 292.199219 682.796875 292.136719 681.300781 292.070312 C 681.238281 291.746094 681.171875 291.421875 681.109375 291.09375 C 682.664062 291.226562 684.289062 291.226562 685.714844 291.289062 C 688.703125 291.355469 691.363281 291.355469 692.660156 292.136719 C 694.609375 293.238281 697.332031 297.074219 699.996094 300.777344 C 701.746094 303.179688 703.371094 305.453125 704.34375 306.363281 C 705.058594 307.011719 705.445312 306.882812 705.574219 306.816406 C 706.355469 306.558594 707.003906 305.128906 707.199219 304.347656 C 706.808594 302.789062 705.445312 297.398438 704.148438 294.605469 C 703.433594 293.042969 700.96875 290.316406 697.203125 286.871094 C 697.007812 286.675781 697.007812 286.351562 697.140625 286.15625 C 697.332031 285.964844 697.65625 285.964844 697.851562 286.09375 C 700.578125 288.5625 704.019531 292.003906 705.058594 294.148438 C 706.355469 296.941406 707.71875 302.140625 708.105469 303.960938 C 708.105469 303.960938 708.105469 303.960938 708.171875 303.960938 C 708.171875 303.960938 709.535156 306.039062 712 306.816406 C 712.457031 306.949219 712.84375 306.949219 713.167969 306.6875 C 713.882812 306.167969 714.078125 304.609375 714.078125 304.089844 C 714.078125 304.089844 714.078125 304.023438 714.078125 304.023438 C 713.820312 302.140625 712.910156 297.074219 711.9375 294.277344 C 710.703125 290.964844 703.371094 283.558594 703.238281 283.492188 C 703.042969 283.300781 703.042969 282.972656 703.238281 282.78125 C 703.433594 282.585938 703.757812 282.585938 703.953125 282.78125 C 704.277344 283.105469 711.546875 290.378906 712.84375 293.890625 C 713.949219 296.8125 714.792969 302.140625 715.050781 303.960938 C 715.179688 304.152344 715.699219 304.738281 717.0625 305.324219 C 717.84375 305.648438 718.167969 305.453125 718.363281 305.257812 C 719.789062 303.894531 719.140625 297.980469 717 292.003906 C 716.933594 291.875 716.867188 291.746094 716.867188 291.613281 L 716.867188 291.550781 C 713.6875 284.988281 707.199219 280.375 707.132812 280.3125 C 706.9375 280.179688 706.875 279.855469 707.003906 279.660156 C 707.132812 279.464844 707.457031 279.402344 707.652344 279.53125 C 707.914062 279.726562 714.273438 284.273438 717.648438 291.03125 C 721.671875 294.019531 724.785156 294.410156 725.761719 293.890625 C 725.890625 293.824219 725.957031 293.757812 725.957031 293.695312 C 725.824219 292.136719 713.625 275.308594 707.394531 271.734375 C 702.007812 268.617188 681.757812 264.457031 681.5625 264.457031 C 681.496094 264.457031 681.433594 264.394531 681.367188 264.394531 C 681.109375 264.199219 680.847656 264.003906 680.589844 263.808594 C 680.652344 263.613281 680.71875 263.484375 680.71875 263.355469 C 673.191406 252.960938 626.851562 250.425781 626.394531 250.425781 C 626.136719 250.425781 625.941406 250.164062 625.941406 249.90625 C 625.941406 249.644531 626.199219 249.449219 626.460938 249.449219 C 626.589844 249.449219 638.402344 250.101562 650.992188 251.984375 C 653.265625 252.308594 655.40625 252.699219 657.417969 253.089844 C 659.042969 249.90625 672.152344 223.917969 678.316406 207.089844 C 678.382812 206.832031 678.707031 206.703125 678.964844 206.832031 C 679.226562 206.898438 679.355469 207.222656 679.226562 207.480469 C 673.253906 223.917969 660.535156 249.191406 658.457031 253.285156 C 671.046875 255.753906 678.835938 258.9375 681.5625 262.769531 C 681.691406 262.964844 681.691406 263.160156 681.5625 263.289062 C 681.691406 263.355469 681.757812 263.417969 681.886719 263.550781 C 683.640625 263.9375 702.527344 267.835938 707.914062 270.957031 C 712.519531 273.617188 721.414062 284.46875 725.175781 290.316406 L 742.375 290.121094 C 743.285156 281.023438 748.347656 272.644531 755.941406 267.578125 C 761.328125 264.003906 767.558594 262.25 773.984375 262.507812 C 782.421875 262.769531 790.015625 266.277344 795.59375 272.253906 Z M 794.882812 272.90625 C 789.496094 267.058594 782.160156 263.742188 774.242188 263.417969 C 768.011719 263.222656 761.976562 264.914062 756.785156 268.355469 C 749.320312 273.359375 744.386719 281.609375 743.609375 290.574219 C 743.609375 290.835938 743.347656 291.03125 743.15625 291.03125 L 726.085938 291.226562 C 726.800781 292.460938 727.253906 293.371094 727.253906 293.757812 C 727.253906 294.019531 727.125 294.472656 726.472656 294.796875 C 725.113281 295.449219 722.125 294.992188 718.554688 292.65625 C 718.945312 293.824219 719.335938 295.058594 719.59375 296.292969 L 743.21875 296.03125 C 743.480469 296.03125 743.671875 296.226562 743.671875 296.488281 C 744.386719 302.855469 747.046875 308.703125 751.460938 313.445312 C 756.847656 319.292969 764.183594 322.605469 772.101562 322.929688 C 776.449219 323.058594 780.734375 322.34375 784.691406 320.65625 C 787.871094 319.292969 790.792969 317.40625 793.390625 315.003906 C 799.230469 309.613281 802.605469 302.269531 802.863281 294.34375 C 803.058594 286.289062 800.269531 278.75 794.882812 272.90625 Z M 791.375 276.152344 C 795.921875 281.023438 798.257812 287.390625 797.996094 294.082031 C 797.671875 302.074219 793.519531 309.546875 786.832031 313.964844 C 782.746094 316.691406 778.007812 318.121094 773.074219 318.121094 C 772.75 318.121094 772.425781 318.121094 772.164062 318.121094 C 765.480469 317.863281 759.316406 315.070312 754.773438 310.132812 C 750.230469 305.257812 747.890625 298.890625 748.152344 292.199219 C 748.410156 285.507812 751.203125 279.335938 756.136719 274.789062 C 758.277344 272.773438 760.742188 271.214844 763.46875 270.046875 C 766.84375 268.617188 770.414062 267.964844 774.046875 268.097656 C 780.667969 268.421875 786.832031 271.28125 791.375 276.152344 Z M 790.664062 276.800781 C 786.3125 272.125 780.410156 269.394531 773.984375 269.136719 C 773.660156 269.136719 773.398438 269.136719 773.074219 269.136719 C 769.828125 269.136719 766.777344 269.785156 763.792969 271.019531 C 761.195312 272.125 758.859375 273.617188 756.785156 275.566406 C 752.109375 279.921875 749.386719 285.832031 749.125 292.265625 C 748.867188 298.695312 751.136719 304.804688 755.484375 309.480469 C 759.835938 314.160156 765.742188 316.886719 772.164062 317.148438 C 777.226562 317.34375 782.097656 315.976562 786.25 313.183594 C 792.675781 308.898438 796.699219 301.75 797.023438 294.082031 C 797.28125 287.652344 795.011719 281.480469 790.664062 276.800781 Z M 790.664062 276.800781 " fill-opacity="1" fill-rule="nonzero"/><g fill="#000000" fill-opacity="1"><g transform="translate(113.442199, 192.149987)"><g><path d="M 5.589844 0.285156 C 9.832031 0.285156 13.015625 -2 13.015625 -7.382812 L 13.015625 -29.167969 L 10.730469 -29.167969 L 10.730469 -7.464844 C 10.730469 -3.265625 8.730469 -1.589844 5.46875 -1.589844 C 3.710938 -1.589844 2.53125 -2 1.507812 -2.449219 L 1.507812 -0.53125 C 2.285156 -0.164062 3.550781 0.285156 5.589844 0.285156 Z M 5.589844 0.285156 "/></g></g></g><g fill="#000000" fill-opacity="1"><g transform="translate(129.80113, 192.149987)"><g><path d="M 10.648438 0.328125 C 14.402344 0.328125 17.132812 -1.753906 18.113281 -4.078125 L 18.113281 0 L 20.277344 0 L 20.277344 -21.335938 L 18.113281 -21.335938 L 18.113281 -8.363281 C 18.113281 -3.875 14.605469 -1.550781 11.136719 -1.550781 C 7.425781 -1.550781 5.304688 -3.425781 5.304688 -7.957031 L 5.304688 -21.335938 L 3.140625 -21.335938 L 3.140625 -7.832031 C 3.140625 -1.957031 6.242188 0.328125 10.648438 0.328125 Z M 10.648438 0.328125 "/></g></g></g><g fill="#000000" fill-opacity="1"><g transform="translate(153.421625, 192.149987)"><g><path d="M 11.339844 0.328125 C 15.339844 0.328125 18.316406 -2.367188 19.460938 -4.9375 L 19.460938 0 L 21.621094 0 L 21.621094 -31.535156 L 19.460938 -31.535156 L 19.460938 -16.605469 C 18.234375 -19.257812 15.871094 -21.664062 11.667969 -21.664062 C 6.039062 -21.664062 1.753906 -17.257812 1.753906 -10.6875 L 1.753906 -10.363281 C 1.753906 -3.589844 5.914062 0.328125 11.339844 0.328125 Z M 11.546875 -1.507812 C 7.300781 -1.507812 4 -4.609375 4 -10.445312 L 4 -10.769531 C 4 -16.523438 7.300781 -19.828125 11.871094 -19.828125 C 16.320312 -19.828125 19.5 -16.726562 19.5 -10.851562 L 19.5 -10.527344 C 19.5 -4.652344 15.871094 -1.507812 11.546875 -1.507812 Z M 11.546875 -1.507812 "/></g></g></g><g fill="#000000" fill-opacity="1"><g transform="translate(178.38837, 192.149987)"><g><path d="M 11.75 7.667969 C 17.460938 7.667969 21.582031 4.855469 21.621094 -1.429688 L 21.621094 -21.335938 L 19.460938 -21.335938 L 19.460938 -16.726562 C 18.234375 -19.335938 15.871094 -21.664062 11.667969 -21.664062 C 6.039062 -21.664062 1.753906 -17.257812 1.753906 -11.179688 L 1.753906 -10.894531 C 1.753906 -4.691406 5.957031 -0.695312 11.382812 -0.695312 C 15.339844 -0.695312 18.316406 -3.304688 19.460938 -5.875 L 19.460938 -1.507812 C 19.460938 3.753906 16.277344 5.832031 11.707031 5.832031 C 7.261719 5.832031 4.976562 3.957031 4.40625 1.222656 L 2.203125 1.222656 C 2.734375 4.652344 5.589844 7.667969 11.75 7.667969 Z M 11.585938 -2.53125 C 7.34375 -2.53125 4 -5.628906 4 -10.933594 L 4 -11.261719 C 4 -16.5625 7.300781 -19.828125 11.871094 -19.828125 C 16.320312 -19.828125 19.5 -16.726562 19.5 -11.339844 L 19.5 -11.015625 C 19.5 -5.671875 15.910156 -2.53125 11.585938 -2.53125 Z M 11.585938 -2.53125 "/></g></g></g><g fill="#000000" fill-opacity="1"><g transform="translate(203.355116, 192.149987)"><g><path d="M 11.871094 0.328125 C 16.441406 0.328125 19.828125 -1.875 20.726562 -5.957031 L 18.5625 -5.957031 C 17.828125 -2.976562 15.421875 -1.507812 11.871094 -1.507812 C 6.8125 -1.507812 4.078125 -4.773438 4 -10.484375 L 20.886719 -10.484375 L 20.886719 -11.261719 C 20.886719 -18.316406 16.6875 -21.664062 11.546875 -21.664062 C 5.832031 -21.664062 1.753906 -17.214844 1.753906 -10.769531 L 1.753906 -10.445312 C 1.753906 -4.039062 5.710938 0.328125 11.871094 0.328125 Z M 4.078125 -12.238281 C 4.488281 -16.890625 7.425781 -19.828125 11.546875 -19.828125 C 15.707031 -19.828125 18.441406 -17.421875 18.644531 -12.238281 Z M 4.078125 -12.238281 "/></g></g></g><g fill="#000000" fill-opacity="1"><g transform="translate(225.955723, 192.149987)"><g/></g></g><g fill="#000000" fill-opacity="1"><g transform="translate(236.032163, 192.149987)"><g><path d="M 3.753906 0 L 6.039062 0 L 6.039062 -13.667969 L 23.214844 -13.667969 L 23.214844 0 L 25.5 0 L 25.5 -29.167969 L 23.214844 -29.167969 L 23.214844 -15.585938 L 6.039062 -15.585938 L 6.039062 -29.167969 L 3.753906 -29.167969 Z M 3.753906 0 "/></g></g></g><g fill="#000000" fill-opacity="1"><g transform="translate(265.28241, 192.149987)"><g><path d="M 12.074219 -1.507812 C 7.425781 -1.507812 4 -5.019531 4 -10.484375 L 4 -10.8125 C 4 -16.359375 7.507812 -19.828125 12.074219 -19.828125 C 16.605469 -19.828125 20.113281 -16.441406 20.113281 -10.8125 L 20.113281 -10.484375 C 20.113281 -4.976562 16.644531 -1.507812 12.074219 -1.507812 Z M 12.035156 0.328125 C 17.789062 0.328125 22.355469 -4.078125 22.355469 -10.527344 L 22.355469 -10.851562 C 22.355469 -17.339844 17.828125 -21.664062 12.074219 -21.664062 C 6.363281 -21.664062 1.753906 -17.214844 1.753906 -10.8125 L 1.753906 -10.484375 C 1.753906 -4.203125 6.242188 0.328125 12.035156 0.328125 Z M 12.035156 0.328125 "/></g></g></g><g fill="#000000" fill-opacity="1"><g transform="translate(289.392441, 192.149987)"><g><path d="M 7.832031 0 L 10.28125 0 L 15.953125 -17.867188 L 21.253906 0 L 23.742188 0 L 30.476562 -21.335938 L 28.273438 -21.335938 L 22.519531 -2.652344 L 16.890625 -21.335938 L 15.054688 -21.335938 L 9.21875 -2.652344 L 3.507812 -21.335938 L 1.183594 -21.335938 Z M 7.832031 0 "/></g></g></g><g fill="#000000" fill-opacity="1"><g transform="translate(321.049614, 192.149987)"><g><path d="M 2.53125 -10.28125 L 11.054688 -10.28125 L 11.054688 -12.320312 L 2.53125 -12.320312 Z M 2.53125 -10.28125 "/></g></g></g><g fill="#000000" fill-opacity="1"><g transform="translate(334.634456, 192.149987)"><g><path d="M 9.382812 0.285156 C 10.6875 0.285156 11.503906 0.0820312 12.199219 -0.164062 L 12.199219 -2 C 11.464844 -1.753906 10.605469 -1.550781 9.503906 -1.550781 C 7.546875 -1.550781 6.324219 -2.734375 6.324219 -5.304688 L 6.324219 -19.5 L 11.914062 -19.5 L 11.914062 -21.335938 L 6.324219 -21.335938 L 6.324219 -26.191406 L 4.160156 -26.191406 L 4.160156 -21.335938 L 1.019531 -21.335938 L 1.019531 -19.5 L 4.160156 -19.5 L 4.160156 -5.140625 C 4.160156 -1.714844 5.996094 0.285156 9.382812 0.285156 Z M 9.382812 0.285156 "/></g></g></g><g fill="#000000" fill-opacity="1"><g transform="translate(348.423272, 192.149987)"><g><path d="M 12.074219 -1.507812 C 7.425781 -1.507812 4 -5.019531 4 -10.484375 L 4 -10.8125 C 4 -16.359375 7.507812 -19.828125 12.074219 -19.828125 C 16.605469 -19.828125 20.113281 -16.441406 20.113281 -10.8125 L 20.113281 -10.484375 C 20.113281 -4.976562 16.644531 -1.507812 12.074219 -1.507812 Z M 12.035156 0.328125 C 17.789062 0.328125 22.355469 -4.078125 22.355469 -10.527344 L 22.355469 -10.851562 C 22.355469 -17.339844 17.828125 -21.664062 12.074219 -21.664062 C 6.363281 -21.664062 1.753906 -17.214844 1.753906 -10.8125 L 1.753906 -10.484375 C 1.753906 -4.203125 6.242188 0.328125 12.035156 0.328125 Z M 12.035156 0.328125 "/></g></g></g></svg>