<svg xmlns="http://www.w3.org/2000/svg" xmlns:xlink="http://www.w3.org/1999/xlink" width="1200" zoomAndPan="magnify" viewBox="0 0 900 359.999987" height="480" preserveAspectRatio="xMidYMid meet" version="1.0"><defs><g/><clipPath id="26e17b9939"><path d="M 14.25 0 L 885.75 0 C 889.53125 0 893.152344 1.5 895.828125 4.171875 C 898.5 6.847656 900 10.46875 900 14.25 L 900 345.75 C 900 349.53125 898.5 353.152344 895.828125 355.828125 C 893.152344 358.5 889.53125 360 885.75 360 L 14.25 360 C 10.46875 360 6.847656 358.5 4.171875 355.828125 C 1.5 353.152344 0 349.53125 0 345.75 L 0 14.25 C 0 10.46875 1.5 6.847656 4.171875 4.171875 C 6.847656 1.5 10.46875 0 14.25 0 Z M 14.25 0 " clip-rule="nonzero"/></clipPath><clipPath id="08bde4c360"><path d="M 1.800781 1.800781 L 898.199219 1.800781 L 898.199219 358.199219 L 1.800781 358.199219 Z M 1.800781 1.800781 " clip-rule="nonzero"/></clipPath><clipPath id="8e6a945a69"><path d="M 16.050781 1.800781 L 883.949219 1.800781 C 887.730469 1.800781 891.355469 3.300781 894.027344 5.972656 C 896.699219 8.644531 898.199219 12.269531 898.199219 16.050781 L 898.199219 343.949219 C 898.199219 347.730469 896.699219 351.355469 894.027344 354.027344 C 891.355469 356.699219 887.730469 358.199219 883.949219 358.199219 L 16.050781 358.199219 C 12.269531 358.199219 8.644531 356.699219 5.972656 354.027344 C 3.300781 351.355469 1.800781 347.730469 1.800781 343.949219 L 1.800781 16.050781 C 1.800781 12.269531 3.300781 8.644531 5.972656 5.972656 C 8.644531 3.300781 12.269531 1.800781 16.050781 1.800781 Z M 16.050781 1.800781 " clip-rule="nonzero"/></clipPath><clipPath id="49a897d23d"><path d="M 586.976562 29.441406 L 863 29.441406 L 863 330.941406 L 586.976562 330.941406 Z M 586.976562 29.441406 " clip-rule="nonzero"/></clipPath><clipPath id="03adfc3be4"><path d="M 620 29.441406 L 862 29.441406 L 862 291 L 620 291 Z M 620 29.441406 " clip-rule="nonzero"/></clipPath><clipPath id="f6c4edeec5"><path d="M 746 190 L 855 190 L 855 330.941406 L 746 330.941406 Z M 746 190 " clip-rule="nonzero"/></clipPath></defs><g clip-path="url(#26e17b9939)"><rect x="-90" width="1080" fill="#004aad" y="-35.999999" height="431.999984" fill-opacity="1"/></g><g clip-path="url(#08bde4c360)"><g clip-path="url(#8e6a945a69)"><path fill="#ffffff" d="M 1.800781 1.800781 L 898.199219 1.800781 L 898.199219 358.199219 L 1.800781 358.199219 Z M 1.800781 1.800781 " fill-opacity="1" fill-rule="nonzero"/></g></g><path fill="#ffffff" d="M 676.777344 71.15625 L 657.214844 71.15625 C 654.902344 71.15625 652.953125 73.035156 652.953125 75.417969 L 652.953125 109.511719 C 652.953125 111.535156 654.613281 113.125 656.5625 113.125 L 677.355469 113.125 C 679.375 113.125 680.964844 111.460938 680.964844 109.511719 L 680.964844 75.417969 C 681.035156 73.105469 679.160156 71.15625 676.777344 71.15625 Z M 676.777344 71.15625 " fill-opacity="1" fill-rule="nonzero"/><path fill="#ffffff" d="M 592.675781 113.125 L 613.46875 113.125 C 615.488281 113.125 617.078125 111.460938 617.078125 109.511719 L 617.078125 50.496094 C 617.078125 48.183594 615.199219 46.234375 612.816406 46.234375 L 593.328125 46.234375 C 591.015625 46.234375 589.066406 48.113281 589.066406 50.496094 L 589.066406 109.511719 C 589.066406 111.460938 590.65625 113.125 592.675781 113.125 Z M 592.675781 113.125 " fill-opacity="1" fill-rule="nonzero"/><g clip-path="url(#49a897d23d)"><path fill="#ffffff" d="M 853.996094 155.308594 C 843.3125 136.09375 838.546875 125.835938 836.382812 111.535156 C 836.308594 111.246094 836.308594 110.957031 836.238281 110.59375 C 836.167969 110.160156 836.09375 109.726562 836.023438 109.367188 C 836.023438 109.296875 835.949219 109.222656 835.949219 109.152344 C 835.878906 108.863281 835.804688 108.5 835.734375 108.210938 C 835.660156 107.921875 835.589844 107.707031 835.515625 107.417969 C 835.445312 107.128906 835.371094 106.839844 835.226562 106.550781 C 835.15625 106.261719 835.082031 106.042969 835.011719 105.753906 C 834.9375 105.464844 834.792969 105.175781 834.722656 104.960938 C 834.648438 104.671875 834.503906 104.457031 834.433594 104.167969 C 834.363281 103.878906 834.21875 103.660156 834.074219 103.371094 C 834 103.15625 833.855469 102.867188 833.785156 102.648438 C 833.640625 102.359375 833.566406 102.144531 833.421875 101.925781 C 833.277344 101.710938 833.207031 101.421875 833.0625 101.203125 C 832.917969 100.988281 832.773438 100.699219 832.699219 100.484375 C 832.558594 100.265625 832.414062 100.050781 832.339844 99.832031 C 832.195312 99.617188 832.050781 99.398438 831.90625 99.183594 C 831.761719 98.964844 831.617188 98.75 831.472656 98.53125 C 831.402344 98.386719 831.328125 98.316406 831.257812 98.171875 L 831.257812 45.800781 C 831.257812 43.707031 829.523438 41.972656 827.429688 41.972656 L 722.398438 41.972656 C 720.304688 41.972656 718.574219 43.707031 718.574219 45.800781 L 718.574219 113.050781 C 718.574219 115.144531 720.304688 116.878906 722.398438 116.878906 L 783.542969 116.878906 C 778.703125 129.304688 774.011719 143.96875 770.402344 156.175781 C 766.792969 156.96875 763.472656 158.125 760.875 159.714844 C 757.554688 160.796875 754.523438 162.820312 752.140625 165.566406 L 726.511719 195.324219 C 726.441406 195.46875 726.367188 195.613281 726.367188 195.757812 C 726.367188 195.902344 726.441406 196.046875 726.585938 196.121094 L 729.761719 198.214844 L 729.328125 197.855469 L 723.410156 205.4375 L 688.398438 168.308594 C 686.449219 165.492188 684.429688 159.714844 683.417969 156.464844 C 682.695312 150.683594 681.828125 147.289062 680.746094 145.917969 C 676.488281 140.71875 673.167969 137.320312 671.074219 137.25 L 670.640625 131.976562 C 678.726562 131.183594 686.234375 126.921875 691.933594 119.769531 C 698.214844 111.96875 701.679688 101.566406 701.679688 90.585938 C 701.679688 79.605469 698.214844 69.203125 691.933594 61.402344 C 685.582031 53.457031 677.066406 49.050781 667.96875 49.050781 C 667.96875 49.050781 667.898438 49.050781 667.898438 49.050781 C 666.667969 49.050781 665.441406 49.050781 664.144531 49.050781 C 664.144531 49.050781 664.070312 49.050781 664.070312 49.050781 C 658.585938 49.050781 653.242188 50.640625 648.480469 53.675781 L 648.480469 33.808594 C 648.480469 31.5 646.601562 29.546875 644.21875 29.546875 L 624.730469 29.546875 C 622.417969 29.546875 620.46875 31.425781 620.46875 33.808594 L 620.46875 109.511719 C 620.46875 111.535156 622.128906 113.125 624.078125 113.125 L 635.628906 113.125 C 636.855469 115.507812 638.371094 117.820312 640.03125 119.914062 C 645.808594 127.136719 653.386719 131.398438 661.542969 132.121094 L 661.761719 145.269531 C 660.316406 145.125 658.730469 145.125 657.359375 145.125 C 656.996094 145.125 656.636719 145.125 656.347656 145.125 C 655.265625 145.125 651.871094 145.050781 651.4375 147.363281 C 651.078125 149.242188 651.511719 150.683594 652.59375 151.625 C 651.003906 152.5625 650.066406 153.863281 649.996094 155.308594 C 649.921875 156.390625 650.425781 157.476562 651.367188 158.34375 C 650.5 158.921875 649.921875 159.859375 649.921875 160.871094 C 649.851562 162.097656 650.570312 163.253906 651.800781 163.976562 C 651.367188 164.625 651.292969 165.347656 651.582031 166.144531 C 652.015625 167.445312 653.386719 168.238281 654.902344 168.308594 C 655.191406 168.308594 655.410156 168.308594 655.699219 168.308594 C 657.429688 170.695312 659.8125 173.292969 662.195312 175.894531 L 662.195312 175.101562 L 662.773438 215.550781 L 665.804688 215.480469 L 671.796875 215.40625 L 671.363281 185.574219 L 706.515625 238.234375 C 698.289062 248.996094 695.542969 273.410156 683.128906 273.410156 C 667.101562 273.410156 667.101562 225.160156 651.148438 225.160156 C 635.339844 225.160156 636.566406 253.691406 621.191406 254.414062 L 621.191406 203.273438 L 626.390625 203.273438 C 626.605469 203.273438 626.75 203.199219 626.824219 202.984375 C 626.894531 202.839844 626.894531 202.621094 626.824219 202.476562 L 621.046875 192.074219 C 620.832031 191.714844 620.324219 191.714844 620.109375 192.074219 L 614.332031 202.476562 C 614.261719 202.621094 614.261719 202.839844 614.332031 202.984375 C 614.40625 203.128906 614.621094 203.273438 614.765625 203.273438 L 619.964844 203.273438 L 619.964844 254.558594 L 619.964844 254.339844 C 615.128906 253.90625 611.664062 247.550781 608.703125 239.027344 L 608.703125 222.269531 C 608.703125 221.980469 608.488281 221.691406 608.125 221.691406 C 607.765625 221.691406 607.546875 221.90625 607.546875 222.269531 L 607.546875 235.777344 C 601.558594 216.996094 597.371094 190.773438 587.121094 190.558594 C 587.046875 190.558594 586.976562 190.628906 586.976562 190.773438 L 586.976562 290.820312 C 586.976562 290.890625 587.046875 291.035156 587.121094 291.035156 L 776.613281 291.035156 L 772.136719 295.226562 C 771.199219 295.585938 770.257812 295.875 769.320312 296.238281 C 760.511719 299.34375 755.097656 301.367188 754.160156 303.242188 C 753.871094 303.75 753.726562 304.542969 754.160156 305.195312 C 754.59375 305.84375 755.386719 306.132812 756.617188 306.0625 C 757.914062 305.988281 759.574219 305.773438 761.234375 305.554688 C 763.472656 305.265625 766.792969 304.832031 767.371094 305.265625 C 767.371094 305.339844 767.226562 305.554688 766.9375 305.84375 C 764.410156 308.445312 758.636719 311.550781 754.089844 314.078125 C 749.828125 316.390625 747.375 317.761719 746.871094 318.628906 C 746.4375 319.425781 746.507812 320.074219 746.652344 320.4375 C 746.796875 320.796875 747.085938 321.15625 747.519531 321.445312 C 746.582031 322.167969 746.148438 323.035156 746.363281 323.902344 C 746.652344 325.203125 748.242188 325.996094 750.625 326.140625 C 750.625 326.574219 750.769531 327.007812 751.058594 327.371094 C 752.285156 328.886719 755.894531 329.25 758.925781 328.886719 C 759.070312 329.609375 759.574219 330.476562 761.234375 330.765625 C 761.453125 330.835938 761.667969 330.835938 761.957031 330.835938 C 766.359375 330.835938 775.601562 324.84375 776.972656 323.613281 C 777.261719 323.398438 783.902344 318.414062 790.976562 312.707031 L 839.488281 277.890625 C 840.859375 277.167969 842.085938 276.226562 843.167969 275.21875 C 843.242188 275.21875 843.242188 275.144531 843.242188 275.144531 C 846.054688 272.472656 847.933594 269.003906 848.65625 265.175781 L 854.070312 231.730469 L 853.492188 231.660156 L 856.089844 231.875 C 856.089844 231.875 856.089844 231.875 856.160156 231.875 C 856.449219 231.875 856.667969 231.660156 856.667969 231.371094 L 860.925781 194.964844 C 861.070312 194.097656 861.070312 193.230469 861.070312 192.4375 C 864.175781 181.960938 861 168.019531 853.996094 155.308594 Z M 665.585938 128.148438 C 656.78125 127.28125 649.054688 121.574219 644.074219 113.125 L 644.871094 113.125 C 646.890625 113.125 648.480469 111.460938 648.480469 109.511719 L 648.480469 62.199219 C 652.160156 58.226562 656.5625 55.335938 661.398438 53.964844 C 664.359375 53.097656 667.535156 53.097656 670.566406 53.964844 C 683.851562 57.71875 693.882812 72.746094 693.882812 90.660156 C 693.882812 109.871094 682.40625 125.765625 667.609375 128.003906 C 666.957031 128.074219 666.238281 128.148438 665.585938 128.148438 Z M 737.050781 266.550781 L 735.175781 275.722656 C 732.648438 268.425781 730.554688 259.613281 728.171875 251.886719 C 733.011719 251.308594 737.558594 248.851562 740.804688 244.660156 L 741.816406 243.289062 Z M 747.449219 209.84375 Z M 783.972656 115.867188 C 783.972656 115.796875 783.972656 115.796875 784.046875 115.796875 C 783.972656 115.796875 783.972656 115.867188 783.972656 115.867188 Z M 783.972656 115.867188 " fill-opacity="1" fill-rule="nonzero"/></g><path fill="#ffffff" d="M 848.148438 264.816406 C 847.5 268.714844 845.550781 272.039062 842.878906 274.496094 C 841.796875 275.507812 840.570312 276.371094 839.269531 277.09375 L 790.617188 311.984375 C 783.324219 317.90625 776.613281 322.890625 776.613281 322.890625 C 776.613281 322.890625 765.640625 330.765625 761.308594 329.898438 C 759.792969 329.609375 759.359375 328.816406 759.429688 327.875 C 755.242188 328.527344 750.335938 327.660156 751.347656 325.273438 C 746.726562 325.203125 745.570312 322.746094 748.675781 321.011719 C 747.375 320.652344 746.726562 319.714844 747.375 318.558594 C 748.457031 316.679688 762.824219 310.539062 767.371094 305.84375 C 770.402344 302.738281 761.378906 304.90625 756.6875 305.121094 C 754.378906 305.195312 754.378906 303.820312 754.8125 303.097656 C 755.820312 301.078125 764.628906 298.1875 772.640625 295.371094 L 814.367188 256.292969 L 819.273438 228.84375 L 853.636719 231.441406 Z M 722.398438 116.375 L 783.757812 116.375 C 789.027344 103.011719 794.441406 92.390625 799.0625 90.296875 C 801.445312 89.214844 803.96875 88.5625 806.570312 88.203125 C 812.34375 87.40625 817.542969 88.203125 821.871094 90.226562 C 822.304688 90.441406 822.738281 90.660156 823.171875 90.875 C 823.316406 90.949219 823.460938 91.019531 823.535156 91.09375 C 823.820312 91.238281 824.109375 91.453125 824.398438 91.597656 C 824.542969 91.667969 824.6875 91.8125 824.832031 91.886719 C 825.121094 92.03125 825.339844 92.246094 825.554688 92.390625 C 825.699219 92.535156 825.84375 92.609375 826.058594 92.753906 C 826.277344 92.898438 826.492188 93.113281 826.710938 93.332031 C 826.855469 93.476562 827 93.621094 827.214844 93.765625 C 827.429688 93.980469 827.648438 94.125 827.863281 94.34375 C 828.007812 94.488281 828.152344 94.632812 828.296875 94.777344 C 828.515625 94.992188 828.660156 95.136719 828.875 95.355469 C 829.019531 95.5 829.164062 95.714844 829.308594 95.859375 C 829.453125 96.074219 829.667969 96.292969 829.8125 96.507812 C 829.957031 96.652344 830.101562 96.871094 830.246094 97.015625 C 830.320312 97.085938 830.320312 97.160156 830.390625 97.160156 L 830.390625 45.800781 C 830.390625 43.996094 828.949219 42.476562 827.070312 42.476562 L 722.398438 42.476562 C 720.59375 42.476562 719.078125 43.921875 719.078125 45.800781 L 719.078125 113.050781 C 719.148438 114.929688 720.59375 116.375 722.398438 116.375 Z M 824.976562 117.023438 C 813.933594 115.722656 803.464844 100.265625 800.648438 95.789062 C 795.089844 102.648438 783.902344 127.066406 786.285156 133.925781 C 787.945312 138.621094 792.347656 140.5 797.546875 140.789062 C 796.175781 147.941406 794.371094 157.476562 794.226562 160.003906 C 792.996094 179.867188 820.933594 163.183594 820.933594 163.183594 C 823.820312 161.808594 820.863281 158.125 819.996094 156.101562 C 817.109375 148.734375 817.398438 143.316406 819.636719 136.023438 C 819.707031 135.734375 819.851562 135.371094 819.925781 135.082031 C 819.925781 135.082031 819.925781 135.011719 819.925781 135.011719 C 819.996094 134.648438 820.140625 134.359375 820.210938 134 C 820.933594 131.976562 821.585938 130.242188 822.160156 128.941406 C 822.234375 129.015625 822.304688 129.015625 822.304688 129.085938 C 826.277344 132.121094 836.09375 128.363281 833.421875 120.347656 C 831.617188 114.640625 824.976562 117.023438 824.976562 117.023438 Z M 664.722656 152.128906 C 666.597656 151.695312 667.679688 150.757812 667.175781 148.734375 C 667.101562 148.519531 667.03125 148.375 666.957031 148.230469 C 666.957031 148.15625 666.886719 148.15625 666.886719 148.085938 C 666.8125 147.941406 666.742188 147.867188 666.667969 147.722656 C 666.667969 147.652344 666.597656 147.652344 666.597656 147.578125 C 666.527344 147.433594 666.382812 147.363281 666.238281 147.21875 C 664.144531 145.484375 659.449219 145.628906 656.417969 145.554688 C 655.191406 145.554688 652.375 145.554688 652.015625 147.363281 C 651.582031 149.53125 652.230469 150.902344 653.820312 151.625 C 653.605469 151.625 653.53125 151.625 653.53125 151.625 C 649.707031 153.503906 649.851562 156.679688 652.449219 158.199219 C 649.851562 159.136719 649.707031 162.242188 652.664062 163.613281 C 651.003906 164.988281 652.449219 167.515625 654.902344 167.515625 C 655.265625 167.515625 655.625 167.515625 655.984375 167.515625 C 657.789062 170.042969 660.171875 172.644531 662.195312 174.8125 L 662.121094 167.371094 C 662.628906 167.300781 663.058594 167.15625 663.421875 166.9375 C 663.492188 166.867188 663.566406 166.867188 663.636719 166.792969 C 663.710938 166.792969 663.710938 166.722656 663.78125 166.722656 C 663.855469 166.648438 663.855469 166.648438 663.925781 166.578125 C 664 166.503906 664 166.503906 664.070312 166.433594 C 664.144531 166.359375 664.144531 166.359375 664.214844 166.289062 C 664.289062 166.214844 664.289062 166.144531 664.359375 166.070312 C 664.359375 166 664.433594 166 664.433594 165.925781 C 664.503906 165.78125 664.503906 165.636719 664.578125 165.492188 C 664.648438 164.84375 664.144531 164.335938 663.347656 163.902344 C 666.09375 163.542969 667.96875 162.605469 667.03125 160.292969 C 666.742188 159.570312 665.875 159.0625 664.648438 158.703125 C 668.042969 158.199219 670.710938 157.1875 670.207031 154.875 C 669.703125 153.429688 667.464844 152.5625 664.722656 152.128906 Z M 744.703125 208.039062 L 729.832031 198.144531 L 723.554688 206.234375 L 688.039062 168.597656 C 686.304688 166 684.355469 160.941406 682.910156 156.535156 C 682.480469 152.996094 681.683594 147.867188 680.3125 146.207031 C 676.703125 141.871094 671.652344 136.023438 670.136719 138.261719 C 669.558594 139.128906 669.628906 141.222656 670.136719 143.894531 C 669.992188 143.894531 669.917969 143.894531 669.847656 143.894531 C 670.0625 145.050781 670.351562 146.351562 670.710938 147.652344 L 670.855469 148.808594 L 671.363281 184.273438 L 710.125 242.351562 C 711.355469 244.445312 713.085938 246.324219 715.179688 247.839844 C 723.191406 253.617188 734.308594 252.03125 740.375 244.15625 L 742.035156 241.917969 L 748.457031 210.351562 Z M 744.703125 208.039062 " fill-opacity="1" fill-rule="nonzero"/><g clip-path="url(#03adfc3be4)"><path fill="#ffb15f" d="M 861 194.75 L 856.738281 231.152344 C 856.738281 231.441406 856.449219 231.660156 856.234375 231.660156 C 856.234375 231.660156 856.234375 231.660156 856.160156 231.660156 L 819.203125 228.914062 L 814.292969 256.363281 L 777.550781 290.820312 L 732.070312 290.820312 L 748.457031 210.640625 L 726.65625 196.191406 C 726.511719 196.121094 726.441406 195.976562 726.441406 195.832031 C 726.441406 195.6875 726.441406 195.542969 726.585938 195.398438 L 752.210938 165.636719 C 754.59375 162.894531 757.554688 160.871094 760.945312 159.785156 C 771.628906 153.285156 794.585938 154.511719 794.585938 154.511719 C 794.585938 154.511719 794.730469 154.730469 794.945312 155.019531 C 794.585938 157.332031 794.296875 159.207031 794.226562 160.148438 C 792.996094 180.011719 820.933594 163.328125 820.933594 163.328125 C 821.65625 162.964844 822.015625 162.460938 822.089844 161.882812 C 826.347656 168.09375 834.503906 173.148438 849.160156 174.957031 C 857.027344 177.84375 862.152344 186.078125 861 194.75 Z M 787.152344 75.34375 C 786.210938 74.40625 784.625 74.40625 783.613281 75.34375 L 782.675781 76.285156 C 781.738281 77.222656 781.738281 78.8125 782.675781 79.824219 L 789.675781 86.832031 C 790.617188 87.769531 792.203125 87.769531 793.214844 86.832031 L 807.652344 72.746094 C 808.589844 71.804688 808.589844 70.214844 807.652344 69.203125 L 806.714844 68.265625 C 805.773438 67.328125 804.1875 67.328125 803.175781 68.265625 L 791.410156 79.605469 Z M 790.253906 101.710938 C 790.6875 100.84375 791.121094 99.976562 791.625 99.183594 C 781.230469 97.449219 773.21875 88.417969 773.21875 77.511719 C 773.21875 65.375 783.035156 55.550781 795.164062 55.550781 C 807.292969 55.550781 817.109375 65.375 817.109375 77.511719 C 817.109375 81.339844 816.097656 84.953125 814.367188 88.128906 C 815.304688 88.273438 816.242188 88.417969 817.179688 88.636719 C 818.839844 85.3125 819.851562 81.558594 819.851562 77.585938 C 819.851562 64.003906 808.808594 52.953125 795.234375 52.953125 C 781.664062 52.953125 770.476562 63.933594 770.476562 77.511719 C 770.476562 89.429688 778.992188 99.472656 790.253906 101.710938 Z M 648.550781 109.511719 L 648.550781 62.199219 C 642.199219 69.058594 638.15625 79.316406 638.15625 90.660156 C 638.15625 99.039062 640.394531 106.839844 644.074219 113.125 L 644.871094 113.125 C 646.890625 113.125 648.550781 111.460938 648.550781 109.511719 Z M 630.359375 90.660156 C 630.359375 79.605469 633.824219 69.277344 640.105469 61.476562 C 642.632812 58.371094 645.445312 55.769531 648.550781 53.820312 L 648.550781 33.808594 C 648.550781 31.5 646.675781 29.546875 644.292969 29.546875 L 624.730469 29.546875 C 622.417969 29.546875 620.46875 31.425781 620.46875 33.808594 L 620.46875 109.511719 C 620.46875 111.535156 622.128906 113.125 624.078125 113.125 L 635.628906 113.125 C 632.238281 106.476562 630.359375 98.75 630.359375 90.660156 Z M 630.359375 90.660156 " fill-opacity="1" fill-rule="nonzero"/></g><path fill="#9c6afd" d="M 652.953125 109.511719 L 652.953125 75.417969 C 652.953125 73.105469 654.832031 71.15625 657.214844 71.15625 L 676.777344 71.15625 C 679.085938 71.15625 681.035156 73.035156 681.035156 75.417969 L 681.035156 109.441406 C 681.035156 111.460938 679.375 113.050781 677.425781 113.050781 L 656.636719 113.050781 C 654.613281 113.125 652.953125 111.460938 652.953125 109.511719 Z M 728.171875 251.886719 C 730.554688 259.613281 732.648438 268.425781 735.175781 275.722656 L 732.070312 290.746094 L 587.261719 290.746094 C 587.191406 290.746094 587.121094 290.675781 587.121094 290.53125 L 587.121094 190.484375 C 587.121094 190.414062 587.191406 190.269531 587.261719 190.269531 C 597.441406 190.558594 601.699219 216.78125 607.691406 235.488281 L 607.691406 276.734375 C 607.691406 277.023438 607.910156 277.3125 608.269531 277.3125 C 608.632812 277.3125 608.847656 277.09375 608.847656 276.734375 L 608.847656 238.738281 C 611.808594 247.261719 615.34375 253.617188 620.109375 254.050781 L 620.109375 275.867188 C 620.109375 276.15625 620.324219 276.445312 620.6875 276.445312 C 621.046875 276.445312 621.265625 276.226562 621.265625 275.867188 L 621.265625 254.195312 C 636.640625 253.472656 635.414062 224.941406 651.222656 224.941406 C 667.246094 224.941406 667.246094 273.195312 683.199219 273.195312 C 695.6875 273.195312 698.433594 248.78125 706.589844 238.015625 L 709.765625 242.710938 C 711.066406 244.949219 712.871094 246.828125 714.964844 248.347656 C 718.285156 250.730469 722.183594 251.957031 726.007812 251.957031 C 726.65625 252.03125 727.378906 251.957031 728.171875 251.886719 Z M 633.96875 257.230469 C 633.96875 256.941406 633.753906 256.652344 633.390625 256.652344 C 633.03125 256.652344 632.8125 256.871094 632.8125 257.230469 L 632.8125 275.867188 C 632.8125 276.15625 633.03125 276.445312 633.390625 276.445312 C 633.753906 276.445312 633.96875 276.226562 633.96875 275.867188 Z M 735.03125 68.050781 L 728.316406 68.050781 L 728.316406 72.671875 L 735.03125 72.671875 Z M 759.214844 98.386719 L 747.015625 98.386719 L 747.015625 103.011719 L 759.214844 103.011719 Z M 759.214844 98.386719 " fill-opacity="1" fill-rule="nonzero"/><path fill="#418aff" d="M 759.214844 60.96875 L 728.316406 60.96875 L 728.316406 56.347656 L 759.214844 56.347656 Z M 749.972656 68.050781 L 737.773438 68.050781 L 737.773438 72.671875 L 749.972656 72.671875 Z M 592.675781 113.125 L 613.46875 113.125 C 615.488281 113.125 617.078125 111.460938 617.078125 109.511719 L 617.078125 50.496094 C 617.078125 48.183594 615.199219 46.234375 612.816406 46.234375 L 593.328125 46.234375 C 591.015625 46.234375 589.066406 48.113281 589.066406 50.496094 L 589.066406 109.511719 C 589.066406 111.460938 590.65625 113.125 592.675781 113.125 Z M 701.679688 90.660156 C 701.679688 101.636719 698.214844 112.039062 691.933594 119.839844 C 686.160156 126.992188 678.726562 131.253906 670.640625 132.046875 L 671.074219 137.320312 C 670.710938 137.320312 670.0625 137.683594 669.773438 138.1875 C 668.980469 139.5625 669.558594 143.460938 670.855469 148.300781 L 671.796875 215.261719 L 665.804688 215.335938 L 662.773438 215.40625 L 662.121094 167.515625 C 663.421875 167.300781 664.359375 166.722656 664.503906 165.566406 C 664.578125 164.914062 664.070312 164.410156 663.277344 163.976562 C 666.019531 163.613281 667.898438 162.675781 666.957031 160.363281 C 666.667969 159.640625 665.804688 159.136719 664.578125 158.777344 C 667.96875 158.269531 670.640625 157.257812 670.136719 154.945312 C 669.773438 153.429688 667.535156 152.636719 664.792969 152.128906 C 666.667969 151.695312 667.753906 150.757812 667.246094 148.734375 C 666.742188 146.785156 664.433594 146.132812 661.90625 145.84375 L 661.6875 132.121094 C 653.53125 131.398438 645.953125 127.136719 640.175781 119.914062 C 633.898438 112.113281 630.433594 101.710938 630.433594 90.730469 C 630.433594 79.679688 633.898438 69.347656 640.175781 61.546875 C 646.53125 53.601562 655.046875 49.195312 664.144531 49.195312 C 664.144531 49.195312 664.214844 49.195312 664.214844 49.195312 C 665.441406 49.195312 666.667969 49.195312 667.96875 49.195312 C 667.96875 49.195312 668.042969 49.195312 668.042969 49.195312 C 677.136719 49.195312 685.65625 53.601562 692.007812 61.546875 C 698.214844 69.277344 701.679688 79.679688 701.679688 90.660156 Z M 693.882812 90.660156 C 693.882812 72.746094 683.921875 57.71875 670.566406 53.964844 C 667.609375 53.097656 664.433594 53.097656 661.398438 53.964844 C 648.117188 57.71875 638.082031 72.746094 638.082031 90.660156 C 638.082031 110.378906 650.210938 126.558594 665.515625 128.074219 C 666.164062 128.074219 666.886719 128.003906 667.535156 127.929688 C 682.40625 125.765625 693.882812 109.871094 693.882812 90.660156 Z M 693.882812 90.660156 " fill-opacity="1" fill-rule="nonzero"/><path fill="#343434" d="M 853.996094 155.308594 C 843.3125 136.09375 838.546875 125.835938 836.382812 111.535156 C 836.308594 111.246094 836.308594 110.957031 836.238281 110.59375 C 836.167969 110.160156 836.09375 109.726562 836.023438 109.367188 C 836.023438 109.296875 835.949219 109.222656 835.949219 109.152344 C 835.878906 108.863281 835.804688 108.5 835.734375 108.210938 C 835.660156 107.921875 835.589844 107.707031 835.515625 107.417969 C 835.445312 107.128906 835.371094 106.839844 835.226562 106.550781 C 835.15625 106.261719 835.082031 106.042969 835.011719 105.753906 C 834.9375 105.464844 834.792969 105.175781 834.722656 104.960938 C 834.648438 104.671875 834.503906 104.457031 834.433594 104.167969 C 834.363281 103.878906 834.21875 103.660156 834.074219 103.371094 C 834 103.15625 833.855469 102.867188 833.785156 102.648438 C 833.640625 102.359375 833.566406 102.144531 833.421875 101.925781 C 833.277344 101.710938 833.207031 101.421875 833.0625 101.203125 C 832.917969 100.988281 832.773438 100.699219 832.699219 100.484375 C 832.558594 100.265625 832.414062 100.050781 832.339844 99.832031 C 832.195312 99.617188 832.050781 99.398438 831.90625 99.183594 C 831.761719 98.964844 831.617188 98.75 831.472656 98.53125 C 831.402344 98.386719 831.328125 98.316406 831.257812 98.171875 L 831.257812 45.800781 C 831.257812 43.707031 829.523438 41.972656 827.429688 41.972656 L 722.398438 41.972656 C 720.304688 41.972656 718.574219 43.707031 718.574219 45.800781 L 718.574219 113.050781 C 718.574219 115.144531 720.304688 116.878906 722.398438 116.878906 L 783.542969 116.878906 C 778.703125 129.304688 774.011719 143.96875 770.402344 156.175781 C 780.871094 153.863281 793.214844 154.296875 794.441406 154.371094 C 794.007812 156.96875 793.71875 158.992188 793.648438 160.003906 C 793.359375 164.480469 794.515625 167.515625 797.113281 169.105469 C 798.484375 169.972656 800.214844 170.261719 802.09375 170.261719 C 810.035156 170.261719 820.644531 163.976562 821.152344 163.6875 C 821.800781 163.328125 822.234375 162.894531 822.523438 162.316406 C 822.667969 162.53125 822.8125 162.675781 822.957031 162.894531 C 822.957031 162.894531 823.027344 162.964844 823.027344 162.964844 C 823.894531 164.121094 824.90625 165.203125 826.132812 166.214844 C 826.492188 166.578125 826.925781 166.867188 827.359375 167.15625 C 827.359375 167.15625 827.429688 167.226562 827.429688 167.226562 C 827.863281 167.515625 828.296875 167.878906 828.730469 168.164062 C 830.609375 169.394531 832.773438 170.550781 835.300781 171.5625 C 839.125 173.078125 843.671875 174.160156 849.160156 174.882812 C 856.304688 177.628906 861.144531 184.5625 861.144531 192.292969 C 864.175781 181.960938 861 168.019531 853.996094 155.308594 Z M 722.398438 115.867188 C 720.882812 115.867188 719.65625 114.640625 719.65625 113.125 L 719.65625 45.800781 C 719.65625 44.285156 720.882812 43.054688 722.398438 43.054688 L 827.285156 43.054688 C 828.804688 43.054688 830.03125 44.285156 830.03125 45.800781 L 830.03125 96.582031 C 830.175781 96.726562 830.320312 96.941406 830.390625 97.085938 C 830.246094 96.871094 830.101562 96.726562 829.957031 96.582031 C 829.8125 96.363281 829.597656 96.148438 829.453125 95.933594 C 829.308594 95.789062 829.164062 95.570312 829.019531 95.425781 C 828.804688 95.210938 828.660156 94.992188 828.441406 94.847656 C 828.296875 94.703125 828.152344 94.558594 828.007812 94.414062 C 827.792969 94.199219 827.574219 94.054688 827.359375 93.835938 C 827.214844 93.691406 827.070312 93.546875 826.855469 93.402344 C 826.636719 93.1875 826.421875 93.042969 826.203125 92.824219 C 826.058594 92.679688 825.914062 92.609375 825.699219 92.464844 C 825.480469 92.246094 825.195312 92.101562 824.976562 91.957031 C 824.832031 91.886719 824.6875 91.742188 824.542969 91.667969 C 824.253906 91.453125 823.964844 91.308594 823.675781 91.164062 C 823.535156 91.09375 823.390625 91.019531 823.316406 90.949219 C 822.882812 90.730469 822.449219 90.515625 822.015625 90.296875 C 817.613281 88.203125 812.488281 87.480469 806.714844 88.273438 C 804.113281 88.636719 801.589844 89.285156 799.207031 90.371094 C 794.660156 92.390625 789.246094 102.867188 784.046875 115.941406 C 784.046875 115.941406 784.046875 115.867188 784.046875 115.867188 C 783.972656 115.867188 722.398438 115.867188 722.398438 115.867188 Z M 822.378906 129.085938 C 822.304688 129.015625 822.234375 129.015625 822.234375 128.941406 C 822.160156 129.085938 822.089844 129.230469 822.089844 129.304688 C 821.945312 129.160156 821.800781 128.941406 821.730469 128.796875 C 821.007812 130.53125 820.355469 132.191406 819.78125 133.855469 C 819.636719 134.144531 819.5625 134.503906 819.417969 134.867188 L 819.417969 134.9375 C 819.347656 135.226562 819.203125 135.589844 819.128906 135.878906 C 817.109375 142.667969 816.457031 148.445312 819.492188 156.320312 C 819.707031 156.824219 819.996094 157.332031 820.285156 157.910156 C 821.007812 159.207031 821.871094 160.871094 821.585938 161.882812 C 821.441406 162.242188 821.222656 162.53125 820.71875 162.75 C 820.574219 162.820312 804.546875 172.285156 797.761719 168.164062 C 795.523438 166.792969 794.585938 164.121094 794.800781 160.074219 C 794.945312 157.621094 796.679688 148.300781 798.125 140.933594 C 798.125 140.789062 798.125 140.644531 798.050781 140.5 C 797.980469 140.355469 797.835938 140.285156 797.617188 140.285156 C 791.84375 139.996094 788.234375 137.753906 786.789062 133.78125 C 785.347656 129.519531 789.460938 117.820312 794.007812 108.285156 C 795.886719 108.933594 796.605469 110.378906 796.679688 110.449219 C 796.75 110.667969 796.96875 110.738281 797.183594 110.738281 C 797.257812 110.738281 797.328125 110.738281 797.402344 110.667969 C 797.691406 110.523438 797.761719 110.234375 797.617188 109.945312 C 797.546875 109.871094 796.679688 108.066406 794.441406 107.273438 C 796.605469 102.9375 798.773438 99.109375 800.578125 96.726562 C 804.042969 102.070312 814.148438 116.230469 824.90625 117.53125 C 824.976562 117.53125 825.050781 117.53125 825.121094 117.53125 C 825.121094 117.53125 828.226562 116.445312 830.535156 117.601562 C 831.691406 118.179688 832.484375 119.117188 832.917969 120.492188 C 833.929688 123.453125 833.0625 126.199219 830.679688 127.929688 C 830.535156 128.21875 830.320312 128.582031 830.101562 128.941406 C 827.574219 130.460938 824.253906 130.53125 822.378906 129.085938 Z M 822.378906 129.085938 " fill-opacity="1" fill-rule="nonzero"/><path fill="#343434" d="M 666.527344 151.914062 C 666.886719 151.695312 667.175781 151.335938 667.390625 150.972656 C 667.824219 150.324219 667.898438 149.457031 667.609375 148.519531 C 666.742188 145.125 661.328125 145.050781 657.359375 145.050781 C 656.996094 145.050781 656.636719 145.050781 656.347656 145.050781 C 655.265625 145.050781 651.871094 144.980469 651.4375 147.289062 C 651.078125 149.167969 651.511719 150.613281 652.59375 151.550781 C 651.003906 152.492188 650.066406 153.792969 649.996094 155.234375 C 649.921875 156.320312 650.425781 157.402344 651.367188 158.269531 C 650.5 158.847656 649.921875 159.785156 649.921875 160.796875 C 649.851562 162.027344 650.570312 163.183594 651.800781 163.902344 C 651.367188 164.554688 651.292969 165.277344 651.582031 166.070312 C 652.015625 167.371094 653.386719 168.164062 654.902344 168.238281 C 655.191406 168.238281 655.410156 168.238281 655.699219 168.238281 C 657.429688 170.621094 659.8125 173.222656 662.195312 175.824219 L 662.195312 174.234375 C 660.535156 172.5 658.65625 170.40625 657.070312 168.308594 C 657.140625 168.308594 657.214844 168.308594 657.285156 168.308594 C 658.007812 168.308594 658.800781 168.382812 659.449219 168.382812 C 662.339844 168.382812 664.648438 168.019531 664.9375 165.710938 C 665.007812 165.347656 664.9375 164.84375 664.503906 164.410156 C 665.949219 164.046875 666.8125 163.542969 667.320312 162.75 C 667.753906 162.097656 667.753906 161.230469 667.390625 160.292969 C 667.246094 159.859375 666.886719 159.425781 666.382812 159.0625 C 668.332031 158.632812 669.558594 157.980469 670.207031 157.042969 C 670.640625 156.390625 670.785156 155.742188 670.566406 154.945312 C 670.277344 153.503906 668.980469 152.5625 666.527344 151.914062 Z M 652.519531 147.507812 C 652.808594 146.132812 655.480469 146.132812 656.347656 146.132812 C 656.707031 146.132812 656.996094 146.132812 657.359375 146.132812 C 660.75 146.132812 665.875 146.207031 666.597656 148.808594 C 666.742188 149.53125 666.742188 150.035156 666.453125 150.46875 C 666.164062 150.902344 665.585938 151.261719 664.722656 151.480469 L 653.964844 151.046875 C 652.664062 150.46875 652.160156 149.3125 652.519531 147.507812 Z M 663.925781 165.421875 C 663.710938 167.15625 661.253906 167.226562 657.359375 167.082031 C 656.5625 167.082031 655.769531 167.011719 654.902344 167.011719 C 653.675781 167.011719 652.808594 166.289062 652.59375 165.566406 C 652.449219 165.277344 652.375 164.699219 652.882812 164.191406 L 663.058594 164.480469 C 664 164.914062 663.925781 165.277344 663.925781 165.421875 Z M 666.453125 160.507812 C 666.667969 161.160156 666.667969 161.664062 666.453125 162.097656 C 666.09375 162.75 665.007812 163.183594 663.203125 163.46875 L 652.808594 163.109375 C 651.65625 162.53125 651.003906 161.664062 651.003906 160.726562 C 651.003906 159.929688 651.582031 159.207031 652.519531 158.847656 L 664.359375 159.28125 C 665.515625 159.570312 666.238281 160.003906 666.453125 160.507812 Z M 669.339844 156.246094 C 668.761719 157.113281 667.101562 157.765625 664.503906 158.125 L 652.664062 157.691406 C 651.65625 157.042969 651.148438 156.175781 651.148438 155.164062 C 651.222656 154.007812 652.160156 152.925781 653.675781 152.128906 L 653.820312 152.128906 L 664.433594 152.5625 C 664.503906 152.5625 664.503906 152.636719 664.578125 152.636719 C 667.535156 153.140625 669.269531 153.9375 669.484375 155.019531 C 669.628906 155.523438 669.558594 155.886719 669.339844 156.246094 Z M 669.339844 156.246094 " fill-opacity="1" fill-rule="nonzero"/><path fill="#343434" d="M 747.738281 209.988281 C 747.953125 209.988281 748.167969 209.84375 748.242188 209.554688 L 756.253906 175.101562 C 756.328125 174.8125 756.109375 174.523438 755.820312 174.449219 C 755.53125 174.378906 755.242188 174.59375 755.171875 174.882812 L 747.160156 209.339844 C 747.085938 209.628906 747.304688 209.917969 747.59375 209.988281 C 747.664062 209.988281 747.738281 209.988281 747.738281 209.988281 Z M 747.738281 209.988281 " fill-opacity="1" fill-rule="nonzero"/><path fill="#343434" d="M 621.046875 191.859375 C 620.832031 191.496094 620.324219 191.496094 620.109375 191.859375 L 614.332031 202.261719 C 614.261719 202.40625 614.261719 202.621094 614.332031 202.765625 C 614.40625 202.910156 614.621094 203.054688 614.765625 203.054688 L 619.964844 203.054688 L 619.964844 275.867188 C 619.964844 276.15625 620.179688 276.445312 620.542969 276.445312 C 620.902344 276.445312 621.121094 276.226562 621.121094 275.867188 L 621.121094 203.054688 L 626.316406 203.054688 C 626.535156 203.054688 626.679688 202.984375 626.75 202.765625 C 626.824219 202.621094 626.824219 202.40625 626.75 202.261719 Z M 621.046875 191.859375 " fill-opacity="1" fill-rule="nonzero"/><path fill="#343434" d="M 608.199219 221.476562 C 607.910156 221.476562 607.621094 221.691406 607.621094 222.050781 L 607.621094 276.804688 C 607.621094 277.09375 607.835938 277.382812 608.199219 277.382812 C 608.558594 277.382812 608.777344 277.167969 608.777344 276.804688 L 608.777344 222.050781 C 608.777344 221.765625 608.488281 221.476562 608.199219 221.476562 Z M 608.199219 221.476562 " fill-opacity="1" fill-rule="nonzero"/><path fill="#343434" d="M 633.464844 256.652344 C 633.175781 256.652344 632.886719 256.871094 632.886719 257.230469 L 632.886719 275.867188 C 632.886719 276.15625 633.101562 276.445312 633.464844 276.445312 C 633.824219 276.445312 634.042969 276.226562 634.042969 275.867188 L 634.042969 257.160156 C 633.96875 256.871094 633.753906 256.652344 633.464844 256.652344 Z M 633.464844 256.652344 " fill-opacity="1" fill-rule="nonzero"/><path fill="#343434" d="M 669.773438 143.679688 C 669.847656 143.96875 670.785156 150.179688 672.300781 152.851562 C 672.878906 153.9375 672.515625 155.597656 672.15625 157.476562 C 671.652344 159.785156 671.144531 162.460938 672.300781 164.769531 C 672.371094 164.914062 672.515625 165.058594 672.734375 165.058594 C 672.804688 165.058594 672.878906 165.058594 672.949219 164.988281 C 673.167969 164.84375 673.238281 164.554688 673.167969 164.335938 C 672.15625 162.386719 672.660156 160.003906 673.09375 157.691406 C 673.527344 155.667969 673.886719 153.792969 673.09375 152.417969 C 671.652344 149.890625 670.640625 143.679688 670.640625 143.605469 C 670.640625 143.535156 670.566406 143.460938 670.566406 143.390625 C 669.992188 140.066406 670.421875 139.054688 670.640625 138.765625 C 670.785156 138.621094 670.855469 138.550781 671.074219 138.476562 C 671.074219 138.476562 671.074219 138.476562 671.144531 138.476562 C 673.167969 138.476562 678.074219 144.472656 679.953125 146.710938 C 680.890625 147.867188 681.757812 151.261719 682.40625 156.753906 C 682.40625 156.753906 682.40625 156.824219 682.40625 156.824219 C 683.488281 160.074219 685.582031 166.070312 687.605469 169.03125 C 687.605469 169.03125 687.605469 169.105469 687.675781 169.105469 L 723.191406 206.738281 C 723.265625 206.882812 723.410156 206.882812 723.625 206.882812 C 723.769531 206.882812 723.914062 206.8125 724.058594 206.667969 L 730.410156 198.503906 L 729.328125 197.855469 L 723.410156 205.4375 L 688.398438 168.308594 C 686.519531 165.492188 684.429688 159.714844 683.417969 156.464844 C 682.695312 150.683594 681.828125 147.289062 680.746094 145.917969 C 676.488281 140.71875 673.167969 137.25 671.074219 137.25 C 671.074219 137.25 671.074219 137.25 671 137.25 C 670.640625 137.25 669.992188 137.609375 669.703125 138.117188 C 669.195312 139.054688 669.269531 141.003906 669.773438 143.679688 C 669.773438 143.605469 669.773438 143.605469 669.773438 143.679688 Z M 669.773438 143.679688 " fill-opacity="1" fill-rule="nonzero"/><path fill="#343434" d="M 801.082031 115.941406 C 800.289062 116.375 799.785156 118.109375 800.722656 118.46875 C 801.300781 118.683594 801.734375 118.035156 801.949219 117.53125 C 802.09375 117.167969 802.164062 116.734375 802.09375 116.300781 C 802.019531 115.941406 801.804688 115.578125 801.082031 115.941406 Z M 801.082031 115.941406 " fill-opacity="1" fill-rule="nonzero"/><path fill="#343434" d="M 792.710938 115.21875 C 793.285156 115.433594 793.71875 114.785156 793.9375 114.277344 C 794.082031 113.917969 794.152344 113.484375 794.082031 113.050781 C 794.007812 112.617188 793.71875 112.257812 793.070312 112.691406 C 792.277344 113.125 791.769531 114.855469 792.710938 115.21875 Z M 792.710938 115.21875 " fill-opacity="1" fill-rule="nonzero"/><path fill="#343434" d="M 796.679688 125.546875 C 796.96875 125.546875 797.183594 125.257812 797.183594 124.96875 C 797.183594 124.679688 796.894531 124.464844 796.605469 124.464844 C 796.605469 124.464844 794.007812 124.753906 792.996094 123.164062 C 792.421875 122.226562 795.234375 117.457031 798.269531 113.558594 C 798.484375 113.339844 798.410156 112.980469 798.195312 112.761719 C 797.980469 112.546875 797.617188 112.617188 797.402344 112.835938 C 795.8125 114.855469 790.761719 121.71875 792.058594 123.742188 C 793.070312 125.332031 795.089844 125.546875 796.101562 125.546875 C 796.390625 125.546875 796.605469 125.546875 796.679688 125.546875 Z M 796.679688 125.546875 " fill-opacity="1" fill-rule="nonzero"/><path fill="#343434" d="M 800.503906 128.21875 C 800.503906 128.21875 797.257812 131.039062 793.503906 129.59375 C 793.214844 129.449219 792.925781 129.59375 792.78125 129.882812 C 792.636719 130.171875 792.78125 130.460938 793.070312 130.605469 C 794.007812 130.964844 794.875 131.109375 795.742188 131.109375 C 798.84375 131.109375 801.082031 129.160156 801.226562 129.015625 C 801.445312 128.796875 801.445312 128.4375 801.300781 128.21875 C 801.082031 128.074219 800.722656 128.003906 800.503906 128.21875 Z M 800.503906 128.21875 " fill-opacity="1" fill-rule="nonzero"/><path fill="#343434" d="M 801.226562 111.171875 C 800.9375 111.171875 800.722656 111.460938 800.722656 111.75 C 800.722656 112.039062 801.011719 112.257812 801.300781 112.257812 C 804.765625 112.039062 806.136719 114.640625 806.207031 114.785156 C 806.28125 115 806.496094 115.074219 806.714844 115.074219 C 806.785156 115.074219 806.859375 115.074219 806.929688 115 C 807.21875 114.855469 807.292969 114.566406 807.148438 114.277344 C 807.074219 114.132812 805.414062 110.882812 801.226562 111.171875 Z M 801.226562 111.171875 " fill-opacity="1" fill-rule="nonzero"/><path fill="#343434" d="M 715.46875 247.550781 C 713.449219 246.105469 711.859375 244.300781 710.558594 242.207031 L 671.363281 183.40625 L 671.363281 185.429688 L 709.621094 242.785156 C 710.921875 245.023438 712.726562 246.902344 714.820312 248.417969 C 718.140625 250.800781 722.039062 252.03125 725.863281 252.03125 C 731.496094 252.03125 737.050781 249.5 740.734375 244.660156 L 741.746094 243.289062 L 742.25 240.761719 L 739.867188 243.941406 C 734.019531 251.667969 723.265625 253.1875 715.46875 247.550781 Z M 715.46875 247.550781 " fill-opacity="1" fill-rule="nonzero"/><g clip-path="url(#f6c4edeec5)"><path fill="#343434" d="M 847.644531 264.671875 C 846.996094 268.28125 845.261719 271.53125 842.519531 274.0625 C 841.4375 275.074219 840.28125 275.867188 838.910156 276.589844 L 790.253906 311.40625 C 783.6875 316.75 777.476562 321.375 776.25 322.3125 C 773.21875 324.480469 764.699219 329.898438 761.378906 329.25 C 760.371094 329.03125 760.007812 328.671875 759.9375 328.238281 C 761.667969 327.875 767.730469 326.285156 771.125 323.324219 C 771.339844 323.109375 771.339844 322.820312 771.199219 322.53125 C 770.980469 322.3125 770.691406 322.3125 770.402344 322.457031 C 766.722656 325.636719 759.503906 327.152344 759.214844 327.226562 C 756.039062 327.730469 752.644531 327.296875 751.777344 326.214844 C 751.632812 325.996094 751.5625 325.851562 751.632812 325.636719 C 753.726562 325.203125 764.628906 322.820312 769.898438 318.195312 C 770.113281 317.980469 770.113281 317.691406 769.96875 317.402344 C 769.753906 317.183594 769.464844 317.183594 769.175781 317.328125 C 763.90625 321.953125 752.066406 324.410156 751.128906 324.554688 C 748.746094 324.480469 747.519531 323.832031 747.304688 323.109375 C 747.160156 322.601562 747.738281 321.878906 748.675781 321.375 C 749.613281 321.15625 759.863281 318.558594 767.300781 313.210938 C 767.515625 313.066406 767.589844 312.707031 767.445312 312.488281 C 767.300781 312.273438 766.9375 312.199219 766.722656 312.34375 C 759.648438 317.402344 749.902344 319.929688 748.601562 320.292969 C 748.097656 320.148438 747.738281 319.859375 747.59375 319.570312 C 747.519531 319.351562 747.519531 318.992188 747.738281 318.703125 C 748.097656 318.050781 751.347656 316.246094 754.523438 314.511719 C 759.214844 311.984375 764.988281 308.804688 767.660156 306.0625 C 767.949219 305.773438 768.742188 304.976562 768.308594 304.253906 C 767.730469 303.171875 765.421875 303.386719 761.019531 303.964844 C 759.429688 304.183594 757.769531 304.398438 756.542969 304.398438 C 755.75 304.398438 755.242188 304.328125 755.097656 304.039062 C 754.957031 303.820312 755.027344 303.460938 755.171875 303.171875 C 755.964844 301.582031 763.328125 298.980469 769.753906 296.742188 C 770.765625 296.382812 771.703125 296.019531 772.714844 295.730469 C 772.785156 295.730469 772.859375 295.660156 772.929688 295.585938 L 814.367188 256.726562 L 826.058594 262.070312 C 826.132812 262.070312 826.203125 262.144531 826.277344 262.144531 C 826.492188 262.144531 826.710938 262 826.78125 261.855469 C 826.925781 261.566406 826.78125 261.277344 826.492188 261.132812 L 814.796875 255.859375 L 819.636719 228.914062 C 819.707031 228.84375 819.707031 228.769531 819.707031 228.699219 L 826.421875 190.773438 C 826.492188 190.488281 826.277344 190.199219 825.988281 190.125 C 825.699219 190.054688 825.410156 190.269531 825.339844 190.558594 L 818.625 228.480469 C 818.625 228.554688 818.625 228.554688 818.625 228.625 L 818.550781 228.625 L 813.714844 255.859375 L 772.207031 294.71875 C 771.269531 295.082031 770.332031 295.371094 769.394531 295.730469 C 760.585938 298.835938 755.171875 300.859375 754.234375 302.738281 C 753.945312 303.242188 753.800781 304.039062 754.234375 304.6875 C 754.667969 305.339844 755.460938 305.628906 756.6875 305.554688 C 757.988281 305.484375 759.648438 305.265625 761.308594 305.050781 C 763.546875 304.761719 766.867188 304.328125 767.445312 304.761719 C 767.445312 304.832031 767.300781 305.050781 767.011719 305.339844 C 764.484375 307.9375 758.707031 311.046875 754.160156 313.574219 C 749.902344 315.886719 747.449219 317.257812 746.941406 318.125 C 746.507812 318.917969 746.582031 319.570312 746.726562 319.929688 C 746.871094 320.292969 747.160156 320.652344 747.59375 320.941406 C 746.652344 321.664062 746.21875 322.53125 746.4375 323.398438 C 746.726562 324.699219 748.3125 325.492188 750.695312 325.636719 C 750.695312 326.070312 750.839844 326.503906 751.128906 326.863281 C 752.355469 328.382812 755.964844 328.742188 758.996094 328.382812 C 759.140625 329.105469 759.648438 329.96875 761.308594 330.257812 C 761.523438 330.332031 761.742188 330.332031 762.03125 330.332031 C 766.433594 330.332031 775.671875 324.335938 777.042969 323.109375 C 777.332031 322.890625 783.972656 317.90625 791.050781 312.199219 L 839.558594 277.382812 C 840.929688 276.660156 842.15625 275.722656 843.242188 274.710938 C 843.3125 274.710938 843.3125 274.640625 843.3125 274.640625 C 846.128906 271.964844 848.003906 268.5 848.726562 264.671875 L 854.140625 231.226562 L 853.058594 231.152344 Z M 847.644531 264.671875 " fill-opacity="1" fill-rule="nonzero"/></g><path fill="#9c6afd" d="M 829.234375 130.097656 C 833.207031 134.070312 829.957031 137.320312 825.988281 133.347656 C 822.015625 137.320312 818.769531 134.070312 822.738281 130.097656 C 818.769531 126.125 822.015625 122.875 825.988281 126.847656 C 829.957031 122.949219 833.207031 126.125 829.234375 130.097656 Z M 829.234375 130.097656 " fill-opacity="1" fill-rule="nonzero"/><g fill="#000000" fill-opacity="1"><g transform="translate(85.443763, 192.150045)"><g><path d="M 3.753906 0 L 6.039062 0 L 6.039062 -13.300781 L 11.707031 -13.300781 L 20.847656 0 L 23.375 0 L 14.117188 -13.464844 C 18.480469 -14.074219 21.664062 -16.320312 21.664062 -21.171875 L 21.664062 -21.335938 C 21.664062 -26.96875 17.421875 -29.167969 11.75 -29.167969 L 3.753906 -29.167969 Z M 6.039062 -15.136719 L 6.039062 -27.292969 L 11.871094 -27.292969 C 16.402344 -27.292969 19.378906 -25.824219 19.378906 -21.335938 L 19.378906 -21.171875 C 19.378906 -16.929688 16.5625 -15.136719 11.871094 -15.136719 Z M 6.039062 -15.136719 "/></g></g></g><g fill="#000000" fill-opacity="1"><g transform="translate(110.165733, 192.150045)"><g><path d="M 11.871094 0.328125 C 16.441406 0.328125 19.828125 -1.875 20.726562 -5.957031 L 18.5625 -5.957031 C 17.828125 -2.976562 15.421875 -1.507812 11.871094 -1.507812 C 6.8125 -1.507812 4.078125 -4.773438 4 -10.484375 L 20.886719 -10.484375 L 20.886719 -11.261719 C 20.886719 -18.316406 16.6875 -21.664062 11.546875 -21.664062 C 5.832031 -21.664062 1.753906 -17.214844 1.753906 -10.769531 L 1.753906 -10.445312 C 1.753906 -4.039062 5.710938 0.328125 11.871094 0.328125 Z M 4.078125 -12.238281 C 4.488281 -16.890625 7.425781 -19.828125 11.546875 -19.828125 C 15.707031 -19.828125 18.441406 -17.421875 18.644531 -12.238281 Z M 4.078125 -12.238281 "/></g></g></g><g fill="#000000" fill-opacity="1"><g transform="translate(132.76634, 192.150045)"><g><path d="M 9.21875 0 L 12.035156 0 L 20.070312 -21.335938 L 17.867188 -21.335938 L 10.648438 -2.164062 L 3.386719 -21.335938 L 1.019531 -21.335938 Z M 9.21875 0 "/></g></g></g><g fill="#000000" fill-opacity="1"><g transform="translate(153.898322, 192.150045)"><g><path d="M 3.425781 0 L 5.589844 0 L 5.589844 -21.335938 L 3.425781 -21.335938 Z M 4.488281 -25.90625 C 5.34375 -25.90625 5.996094 -26.601562 5.996094 -27.457031 C 5.996094 -28.273438 5.34375 -28.964844 4.488281 -28.964844 C 3.632812 -28.964844 2.9375 -28.273438 2.9375 -27.457031 C 2.9375 -26.601562 3.632812 -25.90625 4.488281 -25.90625 Z M 4.488281 -25.90625 "/></g></g></g><g fill="#000000" fill-opacity="1"><g transform="translate(162.914087, 192.150045)"><g><path d="M 11.871094 0.328125 C 16.441406 0.328125 19.828125 -1.875 20.726562 -5.957031 L 18.5625 -5.957031 C 17.828125 -2.976562 15.421875 -1.507812 11.871094 -1.507812 C 6.8125 -1.507812 4.078125 -4.773438 4 -10.484375 L 20.886719 -10.484375 L 20.886719 -11.261719 C 20.886719 -18.316406 16.6875 -21.664062 11.546875 -21.664062 C 5.832031 -21.664062 1.753906 -17.214844 1.753906 -10.769531 L 1.753906 -10.445312 C 1.753906 -4.039062 5.710938 0.328125 11.871094 0.328125 Z M 4.078125 -12.238281 C 4.488281 -16.890625 7.425781 -19.828125 11.546875 -19.828125 C 15.707031 -19.828125 18.441406 -17.421875 18.644531 -12.238281 Z M 4.078125 -12.238281 "/></g></g></g><g fill="#000000" fill-opacity="1"><g transform="translate(185.514694, 192.150045)"><g><path d="M 7.832031 0 L 10.28125 0 L 15.953125 -17.867188 L 21.253906 0 L 23.742188 0 L 30.476562 -21.335938 L 28.273438 -21.335938 L 22.519531 -2.652344 L 16.890625 -21.335938 L 15.054688 -21.335938 L 9.21875 -2.652344 L 3.507812 -21.335938 L 1.183594 -21.335938 Z M 7.832031 0 "/></g></g></g><g fill="#000000" fill-opacity="1"><g transform="translate(217.171866, 192.150045)"><g><path d="M 11.871094 0.328125 C 16.441406 0.328125 19.828125 -1.875 20.726562 -5.957031 L 18.5625 -5.957031 C 17.828125 -2.976562 15.421875 -1.507812 11.871094 -1.507812 C 6.8125 -1.507812 4.078125 -4.773438 4 -10.484375 L 20.886719 -10.484375 L 20.886719 -11.261719 C 20.886719 -18.316406 16.6875 -21.664062 11.546875 -21.664062 C 5.832031 -21.664062 1.753906 -17.214844 1.753906 -10.769531 L 1.753906 -10.445312 C 1.753906 -4.039062 5.710938 0.328125 11.871094 0.328125 Z M 4.078125 -12.238281 C 4.488281 -16.890625 7.425781 -19.828125 11.546875 -19.828125 C 15.707031 -19.828125 18.441406 -17.421875 18.644531 -12.238281 Z M 4.078125 -12.238281 "/></g></g></g><g fill="#000000" fill-opacity="1"><g transform="translate(239.772473, 192.150045)"><g><path d="M 3.34375 0 L 5.507812 0 L 5.507812 -11.832031 C 5.507812 -17.5 8.609375 -19.417969 12.730469 -19.582031 L 12.730469 -21.621094 C 8.8125 -21.5 6.691406 -19.460938 5.507812 -16.847656 L 5.507812 -21.335938 L 3.34375 -21.335938 Z M 3.34375 0 "/></g></g></g><g fill="#000000" fill-opacity="1"><g transform="translate(253.969253, 192.150045)"><g/></g></g><g fill="#000000" fill-opacity="1"><g transform="translate(264.045693, 192.150045)"><g><path d="M 3.753906 0 L 6.039062 0 L 6.039062 -13.667969 L 23.214844 -13.667969 L 23.214844 0 L 25.5 0 L 25.5 -29.167969 L 23.214844 -29.167969 L 23.214844 -15.585938 L 6.039062 -15.585938 L 6.039062 -29.167969 L 3.753906 -29.167969 Z M 3.753906 0 "/></g></g></g><g fill="#000000" fill-opacity="1"><g transform="translate(293.29594, 192.150045)"><g><path d="M 12.074219 -1.507812 C 7.425781 -1.507812 4 -5.019531 4 -10.484375 L 4 -10.8125 C 4 -16.359375 7.507812 -19.828125 12.074219 -19.828125 C 16.605469 -19.828125 20.113281 -16.441406 20.113281 -10.8125 L 20.113281 -10.484375 C 20.113281 -4.976562 16.644531 -1.507812 12.074219 -1.507812 Z M 12.035156 0.328125 C 17.789062 0.328125 22.355469 -4.078125 22.355469 -10.527344 L 22.355469 -10.851562 C 22.355469 -17.339844 17.828125 -21.664062 12.074219 -21.664062 C 6.363281 -21.664062 1.753906 -17.214844 1.753906 -10.8125 L 1.753906 -10.484375 C 1.753906 -4.203125 6.242188 0.328125 12.035156 0.328125 Z M 12.035156 0.328125 "/></g></g></g><g fill="#000000" fill-opacity="1"><g transform="translate(317.405958, 192.150045)"><g><path d="M 7.832031 0 L 10.28125 0 L 15.953125 -17.867188 L 21.253906 0 L 23.742188 0 L 30.476562 -21.335938 L 28.273438 -21.335938 L 22.519531 -2.652344 L 16.890625 -21.335938 L 15.054688 -21.335938 L 9.21875 -2.652344 L 3.507812 -21.335938 L 1.183594 -21.335938 Z M 7.832031 0 "/></g></g></g><g fill="#000000" fill-opacity="1"><g transform="translate(349.063117, 192.150045)"><g><path d="M 2.53125 -10.28125 L 11.054688 -10.28125 L 11.054688 -12.320312 L 2.53125 -12.320312 Z M 2.53125 -10.28125 "/></g></g></g><g fill="#000000" fill-opacity="1"><g transform="translate(362.647959, 192.150045)"><g><path d="M 9.382812 0.285156 C 10.6875 0.285156 11.503906 0.0820312 12.199219 -0.164062 L 12.199219 -2 C 11.464844 -1.753906 10.605469 -1.550781 9.503906 -1.550781 C 7.546875 -1.550781 6.324219 -2.734375 6.324219 -5.304688 L 6.324219 -19.5 L 11.914062 -19.5 L 11.914062 -21.335938 L 6.324219 -21.335938 L 6.324219 -26.191406 L 4.160156 -26.191406 L 4.160156 -21.335938 L 1.019531 -21.335938 L 1.019531 -19.5 L 4.160156 -19.5 L 4.160156 -5.140625 C 4.160156 -1.714844 5.996094 0.285156 9.382812 0.285156 Z M 9.382812 0.285156 "/></g></g></g><g fill="#000000" fill-opacity="1"><g transform="translate(376.436761, 192.150045)"><g><path d="M 12.074219 -1.507812 C 7.425781 -1.507812 4 -5.019531 4 -10.484375 L 4 -10.8125 C 4 -16.359375 7.507812 -19.828125 12.074219 -19.828125 C 16.605469 -19.828125 20.113281 -16.441406 20.113281 -10.8125 L 20.113281 -10.484375 C 20.113281 -4.976562 16.644531 -1.507812 12.074219 -1.507812 Z M 12.035156 0.328125 C 17.789062 0.328125 22.355469 -4.078125 22.355469 -10.527344 L 22.355469 -10.851562 C 22.355469 -17.339844 17.828125 -21.664062 12.074219 -21.664062 C 6.363281 -21.664062 1.753906 -17.214844 1.753906 -10.8125 L 1.753906 -10.484375 C 1.753906 -4.203125 6.242188 0.328125 12.035156 0.328125 Z M 12.035156 0.328125 "/></g></g></g></svg>