<svg xmlns="http://www.w3.org/2000/svg" xmlns:xlink="http://www.w3.org/1999/xlink" width="1200" zoomAndPan="magnify" viewBox="0 0 900 359.999987" height="480" preserveAspectRatio="xMidYMid meet" version="1.0"><defs><g/><clipPath id="c0c41b5a25"><path d="M 17.25 0 L 882.75 0 C 887.324219 0 891.710938 1.816406 894.949219 5.050781 C 898.183594 8.289062 900 12.675781 900 17.25 L 900 342.75 C 900 347.324219 898.183594 351.710938 894.949219 354.949219 C 891.710938 358.183594 887.324219 360 882.75 360 L 17.25 360 C 12.675781 360 8.289062 358.183594 5.050781 354.949219 C 1.816406 351.710938 0 347.324219 0 342.75 L 0 17.25 C 0 12.675781 1.816406 8.289062 5.050781 5.050781 C 8.289062 1.816406 12.675781 0 17.25 0 Z M 17.25 0 " clip-rule="nonzero"/></clipPath><clipPath id="8052555713"><path d="M 1.800781 1.800781 L 898.199219 1.800781 L 898.199219 358.199219 L 1.800781 358.199219 Z M 1.800781 1.800781 " clip-rule="nonzero"/></clipPath><clipPath id="cd0fa53492"><path d="M 19.050781 1.800781 L 880.949219 1.800781 C 885.523438 1.800781 889.914062 3.617188 893.148438 6.851562 C 896.382812 10.085938 898.199219 14.476562 898.199219 19.050781 L 898.199219 340.949219 C 898.199219 345.523438 896.382812 349.914062 893.148438 353.148438 C 889.914062 356.382812 885.523438 358.199219 880.949219 358.199219 L 19.050781 358.199219 C 14.476562 358.199219 10.085938 356.382812 6.851562 353.148438 C 3.617188 349.914062 1.800781 345.523438 1.800781 340.949219 L 1.800781 19.050781 C 1.800781 14.476562 3.617188 10.085938 6.851562 6.851562 C 10.085938 3.617188 14.476562 1.800781 19.050781 1.800781 Z M 19.050781 1.800781 " clip-rule="nonzero"/></clipPath><clipPath id="bb1b1f9dd0"><path d="M 518.148438 36 L 863.898438 36 L 863.898438 324 L 518.148438 324 Z M 518.148438 36 " clip-rule="nonzero"/></clipPath><clipPath id="0a5a82632e"><path d="M 518.148438 36 L 853 36 L 853 324 L 518.148438 324 Z M 518.148438 36 " clip-rule="nonzero"/></clipPath><clipPath id="2749719b98"><path d="M 619 138 L 863.898438 138 L 863.898438 299 L 619 299 Z M 619 138 " clip-rule="nonzero"/></clipPath><clipPath id="70558ae5e0"><path d="M 518.148438 36 L 853 36 L 853 324 L 518.148438 324 Z M 518.148438 36 " clip-rule="nonzero"/></clipPath><clipPath id="86f3af78d5"><path d="M 518.148438 178.5 L 611.148438 178.5 L 611.148438 324 L 518.148438 324 Z M 518.148438 178.5 " clip-rule="nonzero"/></clipPath><clipPath id="d547eac01e"><path d="M 549 178.5 L 611.148438 178.5 L 611.148438 253 L 549 253 Z M 549 178.5 " clip-rule="nonzero"/></clipPath><clipPath id="42e0a7423d"><path d="M 538 178.5 L 611.148438 178.5 L 611.148438 253 L 538 253 Z M 538 178.5 " clip-rule="nonzero"/></clipPath><clipPath id="89d2b05e93"><path d="M 518.148438 178.5 L 611.148438 178.5 L 611.148438 324 L 518.148438 324 Z M 518.148438 178.5 " clip-rule="nonzero"/></clipPath></defs><g clip-path="url(#c0c41b5a25)"><rect x="-90" width="1080" fill="#004aad" y="-35.999999" height="431.999984" fill-opacity="1"/></g><g clip-path="url(#8052555713)"><g clip-path="url(#cd0fa53492)"><path fill="#ffffff" d="M 1.800781 1.800781 L 898.199219 1.800781 L 898.199219 358.199219 L 1.800781 358.199219 Z M 1.800781 1.800781 " fill-opacity="1" fill-rule="nonzero"/></g></g><g clip-path="url(#bb1b1f9dd0)"><path fill="#ffffff" d="M 861.054688 213.253906 C 859.566406 204.234375 856.195312 188.15625 852.351562 175.136719 C 852.351562 175.214844 852.429688 175.292969 852.429688 175.449219 C 856.195312 165.410156 853.136719 151.136719 845.921875 138.117188 C 835.574219 119.449219 830.945312 109.488281 828.828125 95.609375 C 828.75 95.292969 828.75 94.980469 828.671875 94.746094 C 828.59375 94.351562 828.515625 93.960938 828.4375 93.488281 C 828.4375 93.410156 828.4375 93.332031 828.359375 93.253906 C 828.28125 92.941406 828.203125 92.628906 828.125 92.3125 C 828.046875 92.078125 827.964844 91.765625 827.886719 91.53125 C 827.808594 91.214844 827.730469 90.980469 827.652344 90.667969 C 827.574219 90.429688 827.496094 90.195312 827.417969 89.882812 C 827.339844 89.648438 827.261719 89.332031 827.105469 89.097656 C 827.027344 88.863281 826.949219 88.628906 826.789062 88.390625 C 826.710938 88.15625 826.554688 87.84375 826.476562 87.609375 C 826.398438 87.371094 826.242188 87.136719 826.164062 86.902344 C 826.085938 86.667969 825.929688 86.429688 825.851562 86.195312 C 825.769531 85.960938 825.613281 85.726562 825.535156 85.488281 C 825.378906 85.253906 825.300781 85.019531 825.144531 84.785156 C 824.988281 84.550781 824.910156 84.3125 824.75 84.15625 C 824.59375 83.921875 824.515625 83.6875 824.359375 83.53125 C 824.203125 83.292969 824.125 83.136719 823.96875 82.902344 C 823.8125 82.667969 823.652344 82.511719 823.496094 82.273438 C 823.417969 82.117188 823.339844 82.039062 823.261719 81.882812 C 823.183594 81.804688 823.105469 81.726562 823.027344 81.648438 C 822.871094 81.488281 822.714844 81.332031 822.636719 81.097656 C 822.476562 80.863281 822.320312 80.707031 822.085938 80.46875 C 821.929688 80.3125 821.773438 80.15625 821.617188 80 C 821.457031 79.84375 821.222656 79.609375 821.066406 79.449219 C 820.910156 79.292969 820.753906 79.136719 820.597656 78.980469 C 820.359375 78.824219 820.203125 78.589844 819.96875 78.429688 C 819.8125 78.273438 819.65625 78.195312 819.5 78.039062 C 819.261719 77.882812 819.027344 77.648438 818.871094 77.488281 C 818.714844 77.332031 818.558594 77.253906 818.402344 77.097656 C 818.164062 76.941406 817.929688 76.785156 817.695312 76.550781 C 817.539062 76.46875 817.382812 76.3125 817.222656 76.234375 C 816.910156 76.078125 816.675781 75.921875 816.363281 75.6875 C 816.207031 75.609375 816.125 75.53125 815.96875 75.449219 C 815.578125 75.214844 815.109375 74.980469 814.714844 74.824219 C 810.480469 72.785156 805.464844 72.078125 799.816406 72.863281 C 797.308594 73.175781 794.800781 73.882812 792.523438 74.902344 C 782.566406 79.371094 768.53125 125.019531 761.789062 148.863281 C 761.789062 148.863281 761.867188 148.785156 761.867188 148.785156 C 756.613281 152.390625 750.890625 157.097656 745.871094 162.117188 C 738.421875 169.570312 709.960938 198.039062 709.960938 198.039062 C 709.960938 198.039062 705.488281 194.351562 699.609375 189.570312 L 699.609375 52.785156 L 704.472656 52.785156 C 704.785156 52.785156 705.097656 52.550781 705.097656 52.15625 L 705.097656 36.628906 C 705.097656 36.3125 704.863281 36 704.472656 36 L 518.875 36 C 518.480469 36 518.246094 36.234375 518.246094 36.628906 L 518.246094 52.234375 C 518.246094 52.550781 518.480469 52.863281 518.875 52.863281 L 522.167969 52.863281 L 522.167969 270.429688 C 522.167969 274.351562 525.304688 277.488281 529.222656 277.488281 L 611.242188 277.488281 C 611.164062 277.570312 611.164062 277.648438 611.164062 277.804688 L 611.164062 291.6875 C 607.710938 292 605.046875 294.902344 605.046875 298.351562 C 605.046875 302.039062 608.027344 305.097656 611.789062 305.097656 C 615.476562 305.097656 618.535156 302.117188 618.535156 298.351562 C 618.535156 294.824219 615.867188 292 612.417969 291.6875 L 612.417969 277.804688 C 612.417969 277.726562 612.339844 277.570312 612.339844 277.488281 L 692.789062 277.488281 C 696.707031 277.488281 699.84375 274.351562 699.84375 270.429688 L 699.84375 226.902344 C 699.765625 226.824219 699.6875 226.746094 699.609375 226.746094 C 699.53125 226.746094 699.53125 226.667969 699.453125 226.589844 C 699.53125 226.667969 699.609375 226.667969 699.609375 226.746094 C 702.511719 229.097656 709.175781 232.46875 719.839844 228.628906 C 730.425781 224.785156 739.832031 216.550781 744.695312 211.765625 C 749.554688 206.980469 759.199219 195.449219 759.199219 195.449219 C 759.199219 195.449219 759.828125 201.648438 766.964844 206.902344 C 766.964844 206.902344 768.453125 212.863281 768.6875 219.609375 C 768.84375 224.234375 768.375 229.804688 769.707031 233.882812 C 761.867188 248.941406 756.613281 261.253906 754.183594 270.351562 C 751.515625 280.550781 750.027344 292.390625 749.476562 307.6875 C 749.476562 308.46875 749.476562 309.410156 749.476562 310.511719 C 749.476562 310.746094 749.636719 310.980469 749.949219 311.058594 C 758.652344 313.253906 774.414062 314.902344 792.917969 314.902344 C 807.109375 314.902344 822.949219 313.882812 838.472656 311.371094 C 838.238281 312.628906 838.082031 313.726562 837.925781 314.429688 L 837.847656 315.214844 C 837.375 318.039062 837.0625 320.15625 838.238281 321.019531 C 838.160156 321.253906 838.160156 321.488281 838.082031 321.804688 C 838.003906 322.902344 838.472656 323.765625 839.414062 323.921875 C 839.570312 324 839.726562 324 839.964844 324 C 841.0625 324 842.238281 323.214844 843.019531 322.511719 C 843.179688 322.351562 843.335938 322.273438 843.414062 322.195312 C 843.570312 322.117188 843.960938 321.960938 844.511719 321.648438 C 845.296875 321.175781 846.472656 320.15625 848.039062 318.351562 C 851.097656 314.746094 852.902344 309.332031 853.136719 305.804688 C 853.371094 302.273438 853.136719 298.511719 853.136719 298.429688 C 853.136719 298.273438 852.980469 298.039062 852.824219 297.960938 C 853.605469 296.390625 855.488281 291.449219 857.449219 285.488281 C 857.527344 285.253906 857.605469 284.941406 857.683594 284.707031 C 860.035156 277.488281 862.46875 269.097656 862.9375 263.609375 C 863.800781 252.390625 863.25 227.058594 861.054688 213.253906 Z M 699.140625 226.273438 Z M 826.710938 236.628906 Z M 837.453125 253.726562 C 834.160156 247.53125 829.378906 238.980469 827.105469 234.902344 L 832.4375 204.46875 C 832.4375 204.46875 835.101562 227.84375 836.199219 236.707031 C 836.589844 239.6875 836.984375 246.273438 837.453125 253.726562 Z M 837.453125 253.726562 " fill-opacity="1" fill-rule="nonzero"/></g><g clip-path="url(#0a5a82632e)"><path fill="#ffffff" d="M 780.136719 118.273438 C 777.863281 111.609375 788.683594 87.921875 794.09375 81.253906 C 796.835938 85.570312 806.953125 100.550781 817.773438 101.882812 C 817.773438 101.882812 824.203125 99.609375 826.085938 105.097656 C 828.515625 112.390625 820.203125 116.078125 816.046875 114.039062 C 815.96875 114.039062 815.96875 113.960938 815.890625 113.960938 C 815.890625 113.960938 815.8125 113.882812 815.8125 113.882812 C 815.65625 113.804688 815.5 113.648438 815.34375 113.570312 C 815.265625 113.488281 815.265625 113.488281 815.1875 113.410156 C 815.105469 113.648438 815.027344 113.804688 814.949219 114.039062 C 814.949219 114.117188 814.871094 114.195312 814.871094 114.195312 C 814.792969 114.351562 814.714844 114.511719 814.636719 114.746094 C 814.636719 114.824219 814.558594 114.902344 814.558594 114.980469 C 814.480469 115.136719 814.402344 115.371094 814.324219 115.53125 C 814.324219 115.609375 814.246094 115.6875 814.246094 115.765625 C 814.167969 115.921875 814.089844 116.15625 814.007812 116.390625 C 814.007812 116.46875 813.929688 116.550781 813.929688 116.628906 C 813.851562 116.863281 813.773438 117.097656 813.695312 117.253906 C 813.695312 117.332031 813.617188 117.410156 813.617188 117.488281 C 813.539062 117.726562 813.460938 118.039062 813.304688 118.273438 C 813.304688 118.351562 813.304688 118.351562 813.226562 118.429688 C 812.992188 119.058594 812.832031 119.6875 812.597656 120.390625 C 810.480469 127.449219 809.070312 137.175781 814.089844 145.019531 C 813.929688 146.039062 813.851562 146.667969 813.929688 146.824219 C 813.929688 146.824219 786.800781 162.980469 787.976562 143.6875 C 788.132812 141.253906 789.859375 131.921875 791.191406 125.019531 C 786.015625 124.628906 781.703125 122.824219 780.136719 118.273438 Z M 852.273438 298.351562 C 852.039062 298.589844 851.175781 298.351562 850.15625 297.882812 C 850 297.804688 849.765625 297.648438 849.53125 297.570312 C 848.351562 296.941406 847.019531 296.078125 845.921875 295.136719 C 843.414062 293.175781 838.707031 289.648438 838.789062 287.921875 C 838.867188 287.214844 838.628906 280.234375 838.238281 271.609375 C 838.238281 271.214844 838.238281 270.902344 838.160156 270.511719 C 838.003906 267.214844 837.847656 263.6875 837.691406 260.234375 C 837.609375 258.589844 837.53125 256.863281 837.453125 255.214844 C 834.316406 249.253906 829.457031 240.46875 826.867188 235.921875 L 826.789062 236.550781 C 826.398438 237.253906 825.929688 237.882812 825.300781 238.429688 C 820.359375 242.980469 807.894531 244.078125 797.464844 243.765625 C 797.230469 243.765625 797.074219 243.765625 796.917969 243.765625 L 796.679688 243.765625 C 784.996094 243.371094 777.863281 241.726562 772.6875 238.429688 C 771.511719 237.648438 770.648438 236.628906 770.023438 235.371094 C 769.941406 235.136719 769.785156 234.902344 769.707031 234.667969 C 763.984375 245.570312 757.476562 259.449219 754.496094 270.589844 C 751.359375 282.511719 750.261719 295.53125 749.792969 307.765625 C 749.792969 308.550781 749.792969 309.488281 749.792969 310.511719 C 766.023438 314.589844 803.503906 316.550781 838.945312 310.746094 C 838.628906 312.3125 838.394531 313.726562 838.238281 314.589844 C 837.769531 317.570312 837.296875 320 838.394531 320.707031 C 838.472656 320.785156 838.550781 320.785156 838.628906 320.863281 C 838.628906 320.863281 838.394531 321.410156 838.394531 321.960938 C 838.316406 322.589844 838.472656 323.292969 839.257812 323.449219 C 840.277344 323.6875 841.609375 322.746094 842.316406 322.117188 C 842.628906 321.882812 842.785156 321.726562 842.785156 321.726562 C 842.785156 321.726562 843.179688 321.648438 843.882812 321.175781 C 844.589844 320.707031 845.765625 319.765625 847.332031 318.039062 C 850.234375 314.667969 852.117188 309.332031 852.351562 305.804688 C 852.507812 302.039062 852.273438 298.351562 852.273438 298.351562 Z M 611.710938 292.15625 C 608.339844 292.15625 605.59375 294.902344 605.59375 298.273438 C 605.59375 301.648438 608.339844 304.390625 611.710938 304.390625 C 615.082031 304.390625 617.828125 301.648438 617.828125 298.273438 C 617.828125 294.902344 615.082031 292.15625 611.710938 292.15625 Z M 518.875 52.234375 L 522.792969 52.234375 L 522.792969 270.351562 C 522.792969 273.960938 525.695312 276.863281 529.300781 276.863281 L 692.710938 276.863281 C 696.316406 276.863281 699.21875 273.960938 699.21875 270.351562 L 699.21875 52.234375 L 704.707031 52.234375 L 704.707031 36.628906 L 518.875 36.628906 Z M 518.875 52.234375 " fill-opacity="1" fill-rule="nonzero"/></g><g clip-path="url(#2749719b98)"><path fill="#ffb15f" d="M 635 252.15625 L 619.316406 252.15625 L 619.316406 222.746094 L 635 222.746094 Z M 861.054688 213.253906 C 858.78125 199.371094 852.039062 168.941406 846 158.117188 C 839.886719 147.292969 826.320312 143.371094 821.457031 142.039062 C 819.5 141.488281 816.597656 140.863281 812.597656 140.234375 C 812.285156 141.570312 807.1875 150.667969 798.5625 151.53125 C 789.9375 152.390625 788.054688 138.589844 788.054688 138.589844 C 781.703125 139.609375 774.019531 142.039062 769.238281 144.550781 C 762.574219 148.078125 753.632812 154.824219 746.105469 162.273438 C 738.65625 169.726562 710.195312 198.195312 710.195312 198.195312 C 710.195312 198.195312 693.492188 184.46875 681.652344 175.058594 C 681.417969 174.902344 681.183594 174.667969 681.027344 174.511719 C 675.144531 169.804688 670.597656 166.273438 670.207031 166.273438 C 669.734375 166.195312 668.246094 166.980469 666.363281 168.390625 C 663.617188 170.351562 660.089844 173.488281 657.425781 177.332031 C 657.425781 177.332031 657.425781 177.332031 657.347656 177.410156 C 656.71875 178.351562 656.089844 179.371094 655.542969 180.390625 C 655.542969 180.390625 659.386719 185.253906 663.855469 190.667969 C 664.011719 190.902344 664.167969 191.058594 664.402344 191.292969 C 668.558594 196.3125 673.027344 201.726562 675.378906 204.234375 C 680.398438 209.570312 696.707031 224.3125 699.609375 226.667969 C 702.511719 229.019531 709.175781 232.390625 719.839844 228.550781 C 730.425781 224.707031 739.832031 216.46875 744.695312 211.6875 C 749.554688 206.902344 759.199219 195.371094 759.199219 195.371094 C 759.199219 195.371094 759.828125 201.570312 766.964844 206.824219 C 766.964844 206.824219 768.453125 212.785156 768.6875 219.53125 C 768.925781 224.707031 768.21875 231.136719 770.257812 235.292969 C 770.882812 236.550781 771.746094 237.648438 772.921875 238.351562 C 778.097656 241.726562 785.15625 243.292969 796.917969 243.6875 L 797.152344 243.6875 C 797.386719 243.6875 797.542969 243.6875 797.699219 243.6875 C 808.128906 244 820.597656 242.902344 825.535156 238.351562 C 826.164062 237.804688 826.710938 237.175781 827.027344 236.46875 L 832.671875 204.550781 C 832.671875 204.550781 835.335938 227.921875 836.433594 236.785156 C 836.90625 240.628906 837.453125 250.273438 838.003906 260.234375 C 838.160156 263.765625 838.316406 267.214844 838.472656 270.511719 C 838.472656 270.902344 838.550781 271.214844 838.550781 271.609375 C 838.945312 280.234375 839.179688 287.292969 839.101562 287.921875 C 838.945312 289.648438 843.726562 293.175781 846.234375 295.136719 C 847.414062 296.078125 848.746094 296.941406 849.84375 297.570312 C 851.175781 298.273438 852.273438 298.667969 852.585938 298.351562 C 852.902344 298.117188 855.175781 292.46875 857.527344 285.410156 C 857.605469 285.175781 857.683594 284.863281 857.761719 284.628906 C 860.113281 277.410156 862.546875 269.019531 863.015625 263.53125 C 863.800781 252.390625 863.25 227.058594 861.054688 213.253906 Z M 861.054688 213.253906 " fill-opacity="1" fill-rule="nonzero"/></g><path fill="#418aff" d="M 607.792969 217.960938 C 607.792969 235.84375 593.050781 250.351562 574.625 251.058594 L 578.386719 212.550781 L 571.09375 215.6875 L 549.925781 193.488281 C 556.039062 188.078125 564.273438 184.707031 573.210938 184.707031 C 592.265625 184.785156 607.792969 199.6875 607.792969 217.960938 Z M 658.523438 205.175781 L 642.839844 205.175781 L 642.839844 252.15625 L 658.523438 252.15625 Z M 642.917969 148.15625 C 642.996094 148.078125 642.996094 148.078125 643.074219 148 C 641.820312 146.824219 640.410156 145.253906 639.859375 143.921875 L 608.027344 120.628906 C 607.871094 120.46875 607.632812 120.550781 607.554688 120.707031 L 606.222656 122.511719 C 606.144531 122.667969 606.144531 122.902344 606.300781 122.980469 L 642.371094 149.332031 C 642.527344 148.863281 642.683594 148.46875 642.917969 148.15625 Z M 642.917969 148.15625 " fill-opacity="1" fill-rule="nonzero"/><path fill="#343434" d="M 540.671875 228.941406 C 539.417969 225.488281 538.710938 221.804688 538.710938 217.960938 C 538.710938 208.3125 543.023438 199.609375 549.925781 193.570312 L 571.09375 215.765625 Z M 769.082031 144.46875 C 773.863281 141.960938 781.546875 139.53125 787.898438 138.511719 C 787.898438 138.511719 787.976562 139.214844 788.210938 140.3125 C 788.839844 136.3125 790.015625 130.039062 791.035156 124.941406 C 785.9375 124.628906 781.703125 122.902344 780.058594 118.273438 C 777.785156 111.609375 788.605469 87.921875 794.015625 81.253906 C 796.757812 85.570312 806.875 100.550781 817.695312 101.882812 C 817.695312 101.882812 824.125 99.609375 826.007812 105.097656 C 828.4375 112.390625 820.125 116.078125 815.96875 114.039062 C 815.890625 114.039062 815.890625 113.960938 815.8125 113.960938 C 815.8125 113.960938 815.734375 113.882812 815.734375 113.882812 C 815.578125 113.804688 815.421875 113.648438 815.265625 113.570312 C 815.1875 113.488281 815.1875 113.488281 815.105469 113.410156 C 815.027344 113.648438 814.949219 113.804688 814.871094 114.039062 C 814.871094 114.117188 814.792969 114.195312 814.792969 114.195312 C 814.714844 114.351562 814.636719 114.511719 814.558594 114.746094 C 814.558594 114.824219 814.480469 114.902344 814.480469 114.980469 C 814.402344 115.136719 814.324219 115.371094 814.246094 115.53125 C 814.246094 115.609375 814.167969 115.6875 814.167969 115.765625 C 814.089844 115.921875 814.007812 116.15625 813.929688 116.390625 C 813.929688 116.46875 813.851562 116.550781 813.851562 116.628906 C 813.773438 116.863281 813.695312 117.097656 813.617188 117.253906 C 813.617188 117.332031 813.539062 117.410156 813.539062 117.488281 C 813.460938 117.726562 813.382812 118.039062 813.226562 118.273438 C 813.226562 118.351562 813.226562 118.351562 813.148438 118.429688 C 812.910156 119.058594 812.753906 119.6875 812.519531 120.390625 C 810.714844 126.351562 809.460938 134.195312 812.128906 141.175781 C 812.363281 140.785156 812.441406 140.390625 812.519531 140.234375 C 816.441406 140.863281 819.339844 141.488281 821.378906 142.039062 C 826.242188 143.449219 839.804688 147.292969 845.921875 158.117188 C 848.117188 161.960938 850.3125 168.234375 852.429688 175.371094 C 856.195312 165.332031 853.136719 151.058594 845.921875 138.039062 C 835.574219 119.371094 830.945312 109.410156 828.828125 95.53125 C 828.75 95.214844 828.75 94.902344 828.671875 94.667969 C 828.59375 94.273438 828.515625 93.882812 828.4375 93.410156 C 828.4375 93.332031 828.4375 93.253906 828.359375 93.175781 C 828.28125 92.863281 828.203125 92.550781 828.125 92.234375 C 828.046875 92 827.964844 91.6875 827.886719 91.449219 C 827.808594 91.136719 827.730469 90.902344 827.652344 90.589844 C 827.574219 90.351562 827.496094 90.039062 827.417969 89.804688 C 827.339844 89.570312 827.261719 89.253906 827.105469 89.019531 C 827.027344 88.785156 826.949219 88.550781 826.789062 88.3125 C 826.710938 88.078125 826.554688 87.765625 826.476562 87.53125 C 826.398438 87.292969 826.242188 87.058594 826.164062 86.824219 C 826.085938 86.589844 825.929688 86.351562 825.851562 86.117188 C 825.769531 85.882812 825.613281 85.648438 825.535156 85.410156 C 825.378906 85.175781 825.300781 84.941406 825.144531 84.707031 C 824.988281 84.46875 824.910156 84.234375 824.75 84.078125 C 824.59375 83.84375 824.4375 83.609375 824.359375 83.449219 C 824.203125 83.214844 824.125 83.058594 823.96875 82.824219 C 823.8125 82.589844 823.652344 82.429688 823.496094 82.195312 C 823.417969 82.039062 823.339844 81.960938 823.261719 81.804688 C 823.183594 81.726562 823.105469 81.648438 823.027344 81.570312 C 822.871094 81.410156 822.714844 81.253906 822.636719 81.019531 C 822.476562 80.785156 822.320312 80.628906 822.085938 80.390625 C 821.929688 80.234375 821.773438 80.078125 821.617188 79.921875 C 821.457031 79.765625 821.222656 79.53125 821.066406 79.371094 C 820.910156 79.214844 820.753906 79.058594 820.597656 78.902344 C 820.359375 78.746094 820.203125 78.511719 819.96875 78.351562 C 819.8125 78.195312 819.65625 78.117188 819.5 77.960938 C 819.261719 77.804688 819.027344 77.570312 818.871094 77.410156 C 818.714844 77.253906 818.558594 77.175781 818.402344 77.019531 C 818.164062 76.863281 817.929688 76.707031 817.695312 76.46875 C 817.539062 76.390625 817.382812 76.234375 817.222656 76.15625 C 816.910156 76 816.675781 75.84375 816.363281 75.609375 C 816.207031 75.53125 816.125 75.449219 815.96875 75.371094 C 815.578125 75.136719 815.109375 74.902344 814.714844 74.746094 C 810.480469 72.707031 805.464844 72 799.816406 72.785156 C 797.308594 73.097656 794.800781 73.804688 792.523438 74.824219 C 782.566406 79.292969 768.53125 124.941406 761.789062 148.785156 C 764.453125 147.136719 766.886719 145.648438 769.082031 144.46875 Z M 675.300781 204.15625 C 673.34375 202.039062 669.890625 197.960938 666.363281 193.726562 L 666.363281 252.15625 L 682.046875 252.15625 L 682.046875 210.824219 C 679.222656 208.15625 676.792969 205.726562 675.300781 204.15625 Z M 554.472656 144.628906 C 555.960938 137.804688 558.234375 130.039062 564.902344 126.589844 C 567.644531 125.097656 571.09375 124.550781 574.074219 125.804688 C 577.054688 127.058594 579.09375 129.882812 582.152344 130.980469 C 585.523438 132.234375 588.421875 130.195312 590.460938 127.609375 C 592.578125 124.941406 593.992188 121.804688 594.933594 118.589844 C 596.890625 112.078125 596.96875 105.097656 599.085938 98.667969 C 600.8125 93.253906 604.261719 87.136719 609.90625 85.175781 C 615.789062 83.136719 621.277344 86.429688 624.570312 91.292969 C 626.296875 93.804688 627.550781 96.707031 628.414062 99.609375 C 629.433594 102.980469 629.667969 106.429688 630.53125 109.882812 C 631.390625 113.332031 632.960938 116.628906 635.863281 118.824219 C 638.449219 120.707031 641.742188 121.332031 644.644531 119.921875 C 647.230469 118.667969 648.957031 116.078125 650.132812 113.570312 C 651.621094 110.273438 652.328125 106.824219 653.269531 103.371094 C 654.367188 99.136719 655.464844 94.902344 656.640625 90.667969 C 657.582031 87.136719 658.835938 83.214844 662.050781 81.097656 C 663.539062 80.15625 665.1875 79.609375 666.992188 79.921875 C 668.246094 80.15625 668.714844 78.273438 667.539062 78.039062 C 664.011719 77.410156 660.640625 79.136719 658.445312 81.882812 C 656.011719 84.941406 655.074219 88.863281 654.132812 92.550781 C 652.957031 96.941406 651.859375 101.253906 650.679688 105.648438 C 649.820312 108.863281 649.035156 112.15625 647.230469 114.980469 C 645.664062 117.488281 643.074219 119.371094 639.9375 118.667969 C 636.332031 117.882812 634.058594 114.511719 632.960938 111.214844 C 631.785156 107.6875 631.628906 104 630.6875 100.46875 C 629.902344 97.410156 628.726562 94.429688 627.160156 91.765625 C 624.179688 86.746094 619.316406 82.429688 613.121094 82.746094 C 606.929688 83.058594 602.300781 87.765625 599.480469 92.941406 C 596.265625 98.980469 595.636719 105.570312 594.460938 112.15625 C 593.835938 115.609375 593.050781 119.136719 591.558594 122.351562 C 590.855469 123.921875 589.914062 125.410156 588.816406 126.746094 C 587.71875 128.078125 586.386719 129.488281 584.503906 129.648438 C 582.855469 129.726562 581.445312 128.785156 580.191406 127.84375 C 578.859375 126.902344 577.679688 125.804688 576.269531 124.941406 C 573.449219 123.214844 570.074219 122.980469 567.019531 123.84375 C 559.882812 125.804688 555.960938 132.390625 553.921875 139.058594 C 553.375 140.785156 552.984375 142.589844 552.589844 144.390625 C 552.277344 145.332031 554.238281 145.882812 554.472656 144.628906 Z M 554.472656 144.628906 " fill-opacity="1" fill-rule="nonzero"/><g clip-path="url(#70558ae5e0)"><path fill="#343434" d="M 578.074219 212 L 536.359375 230.117188 C 536.203125 230.195312 536.125 230.273438 536.046875 230.429688 C 535.96875 230.589844 535.96875 230.746094 536.046875 230.902344 C 542.867188 245.488281 557.375 255.371094 573.917969 256.863281 C 573.917969 256.863281 573.917969 256.863281 573.996094 256.863281 C 574.308594 256.863281 574.546875 256.628906 574.546875 256.3125 L 578.78125 212.550781 C 578.78125 212.3125 578.699219 212.15625 578.542969 212 C 578.542969 212 578.308594 211.921875 578.074219 212 Z M 573.527344 255.6875 C 557.84375 254.117188 544.121094 244.707031 537.457031 230.980469 L 577.679688 213.488281 Z M 826.867188 236.46875 L 827.105469 234.980469 C 829.378906 239.058594 834.082031 247.609375 837.453125 253.804688 C 837.53125 254.746094 837.53125 255.6875 837.609375 256.628906 C 834.632812 250.902344 829.535156 241.726562 826.789062 236.707031 C 826.789062 236.550781 826.789062 236.46875 826.867188 236.46875 Z M 779.585938 118.429688 C 777.078125 111.292969 788.605469 87.058594 793.703125 80.863281 C 793.859375 80.707031 794.015625 80.628906 794.171875 80.628906 C 794.328125 80.628906 794.5625 80.707031 794.640625 80.863281 C 797.464844 85.332031 807.34375 99.84375 817.695312 101.175781 C 818.402344 100.941406 821.300781 100.15625 823.734375 101.332031 C 825.066406 102.039062 826.085938 103.136719 826.632812 104.785156 C 828.046875 109.019531 826.007812 111.609375 824.671875 112.785156 C 822.164062 114.980469 818.402344 115.6875 815.8125 114.429688 C 815.734375 114.429688 815.734375 114.351562 815.734375 114.351562 L 815.578125 114.273438 C 815.5 114.273438 815.5 114.195312 815.421875 114.195312 L 814.792969 115.84375 C 814.714844 116 814.636719 116.234375 814.558594 116.46875 L 814.167969 117.570312 C 814.089844 117.804688 814.007812 118.117188 813.929688 118.351562 L 813.851562 118.511719 C 813.617188 119.136719 813.460938 119.765625 813.226562 120.46875 C 810.875 128.234375 810.714844 134.824219 812.597656 140.390625 C 812.519531 140.707031 812.285156 141.175781 811.894531 141.804688 C 809.539062 135.84375 809.539062 128.46875 812.128906 120.15625 C 812.363281 119.449219 812.519531 118.824219 812.753906 118.195312 L 812.753906 118.117188 C 812.832031 117.804688 812.992188 117.570312 813.070312 117.253906 L 813.460938 116.15625 C 813.539062 115.921875 813.617188 115.765625 813.695312 115.53125 L 814.636719 113.175781 C 814.714844 113.019531 814.871094 112.863281 815.027344 112.863281 C 815.1875 112.785156 815.421875 112.863281 815.578125 113.019531 C 815.578125 113.019531 815.65625 113.097656 815.65625 113.097656 C 815.65625 113.097656 815.734375 113.175781 815.734375 113.175781 C 815.890625 113.253906 816.046875 113.332031 816.207031 113.488281 L 816.285156 113.570312 C 816.285156 113.570312 816.363281 113.570312 816.363281 113.570312 C 816.363281 113.570312 816.363281 113.570312 816.441406 113.570312 C 818.558594 114.589844 821.929688 113.960938 824.046875 112.078125 C 826.007812 110.351562 826.554688 108 825.691406 105.332031 C 825.222656 104 824.515625 103.058594 823.417969 102.511719 C 821.144531 101.410156 818.164062 102.429688 818.164062 102.429688 C 818.085938 102.429688 818.007812 102.511719 817.929688 102.429688 C 807.5 101.175781 797.699219 87.53125 794.328125 82.273438 C 792.605469 84.628906 790.410156 88.46875 788.292969 92.785156 C 791.113281 93.410156 792.210938 95.6875 792.289062 95.765625 C 792.445312 96.078125 792.289062 96.390625 792.054688 96.550781 C 791.976562 96.628906 791.898438 96.628906 791.820312 96.628906 C 791.585938 96.628906 791.425781 96.46875 791.269531 96.3125 C 791.191406 96.234375 790.25 94.351562 787.820312 93.882812 C 783.429688 103.058594 779.667969 114.039062 781 118.039062 C 782.332031 121.882812 785.859375 124 791.425781 124.3125 C 791.585938 124.3125 791.742188 124.390625 791.898438 124.550781 C 791.976562 124.707031 792.054688 124.863281 791.976562 125.019531 C 790.800781 130.902344 789.46875 138.039062 788.996094 141.726562 C 788.527344 140.15625 788.371094 138.980469 788.292969 138.589844 C 788.917969 134.824219 789.859375 129.882812 790.722656 125.410156 C 784.683594 125.019531 781 122.589844 779.585938 118.429688 Z M 852.902344 298.273438 C 852.902344 298.039062 852.746094 297.882812 852.507812 297.804688 C 852.351562 297.726562 852.117188 297.726562 851.960938 297.882812 C 851.726562 297.882812 851.097656 297.726562 849.84375 297.019531 C 848.667969 296.390625 847.332031 295.53125 846.316406 294.667969 L 845.453125 293.960938 C 843.492188 292.390625 839.335938 289.175781 839.414062 287.921875 C 839.414062 287.6875 839.257812 287.371094 839.023438 287.292969 C 838.789062 287.214844 838.472656 287.292969 838.316406 287.53125 C 835.730469 291.84375 834.476562 295.609375 834.238281 299.53125 C 834.003906 304.628906 834.554688 305.332031 835.101562 305.570312 C 835.335938 305.648438 835.730469 305.804688 836.199219 305.332031 C 836.511719 305.097656 836.984375 304.46875 837.6875 303.53125 C 838.238281 302.746094 839.257812 301.488281 839.804688 300.941406 C 839.804688 302.511719 839.023438 307.058594 838.472656 310.039062 C 802.875 315.84375 766.101562 313.648438 750.417969 309.882812 C 750.417969 309.019531 750.417969 308.234375 750.417969 307.609375 C 750.96875 292.46875 752.378906 280.707031 755.046875 270.589844 C 757.398438 261.726562 762.414062 249.804688 769.941406 235.214844 C 769.707031 234.746094 769.550781 234.273438 769.394531 233.804688 C 761.554688 248.863281 756.300781 261.175781 753.867188 270.273438 C 751.203125 280.46875 749.714844 292.3125 749.164062 307.609375 C 749.164062 308.390625 749.164062 309.332031 749.164062 310.429688 C 749.164062 310.667969 749.320312 310.902344 749.636719 310.980469 C 758.339844 313.175781 774.097656 314.824219 792.605469 314.824219 C 806.796875 314.824219 822.632812 313.804688 838.160156 311.292969 C 837.925781 312.550781 837.769531 313.648438 837.609375 314.351562 L 837.53125 315.136719 C 837.0625 317.960938 836.75 320.078125 837.925781 320.941406 C 837.847656 321.175781 837.847656 321.410156 837.769531 321.726562 C 837.6875 322.824219 838.160156 323.6875 839.101562 323.84375 C 839.257812 323.921875 839.414062 323.921875 839.648438 323.921875 C 840.746094 323.921875 841.921875 323.136719 842.707031 322.429688 C 842.863281 322.273438 843.019531 322.195312 843.101562 322.117188 C 843.257812 322.039062 843.648438 321.882812 844.199219 321.570312 C 844.980469 321.097656 846.15625 320.078125 847.726562 318.273438 C 850.785156 314.667969 852.585938 309.253906 852.824219 305.726562 C 853.136719 302.117188 852.902344 298.351562 852.902344 298.273438 Z M 851.726562 305.570312 C 851.488281 308.863281 849.765625 314.117188 846.863281 317.410156 C 845.6875 318.824219 844.746094 319.609375 844.039062 320.15625 C 845.136719 317.410156 847.414062 311.84375 847.960938 308.863281 C 848.039062 308.550781 847.804688 308.234375 847.492188 308.15625 C 847.175781 308.078125 846.863281 308.3125 846.785156 308.628906 C 846.078125 312.234375 842.707031 320.234375 842.316406 321.253906 C 842.238281 321.332031 842.160156 321.410156 842.003906 321.570312 C 840.984375 322.429688 840.121094 322.902344 839.492188 322.746094 C 839.335938 322.746094 839.023438 322.667969 839.101562 321.804688 C 839.101562 321.332031 839.257812 320.941406 839.335938 320.863281 C 839.648438 320.15625 843.882812 311.371094 844.589844 305.019531 C 844.589844 304.707031 844.433594 304.390625 844.039062 304.390625 C 843.726562 304.390625 843.414062 304.550781 843.414062 304.941406 C 842.785156 310.117188 839.648438 317.332031 838.550781 319.6875 C 838.238281 318.902344 838.550781 317.175781 838.789062 315.292969 L 838.867188 314.511719 C 839.023438 313.648438 839.257812 312.390625 839.492188 310.902344 C 840.746094 304.078125 841.21875 300.863281 840.824219 300 C 840.667969 299.6875 840.433594 299.53125 840.199219 299.53125 C 840.199219 299.53125 840.121094 299.53125 840.121094 299.53125 C 839.335938 299.53125 838.472656 300.550781 836.75 302.824219 C 836.277344 303.371094 835.886719 304 835.574219 304.3125 C 835.414062 303.921875 835.257812 302.746094 835.414062 299.53125 C 835.574219 296.15625 836.671875 292.863281 838.707031 289.175781 C 839.648438 290.746094 842.003906 292.707031 844.746094 294.824219 L 845.609375 295.449219 C 846.785156 296.390625 848.039062 297.253906 849.292969 297.960938 C 850.46875 298.589844 851.253906 298.902344 851.726562 298.902344 C 851.804688 300.234375 851.882812 302.980469 851.726562 305.570312 Z M 776.136719 142.117188 C 776.058594 141.804688 776.292969 141.488281 776.609375 141.410156 C 776.921875 141.332031 777.234375 141.570312 777.3125 141.882812 C 777.3125 141.960938 779.824219 153.175781 784.996094 162.667969 C 786.488281 161.804688 790.878906 159.371094 796.367188 157.097656 C 796.757812 155.292969 797.230469 153.570312 797.777344 152 C 797.855469 151.6875 798.171875 151.53125 798.484375 151.609375 C 798.796875 151.6875 798.953125 152.078125 798.875 152.3125 C 798.40625 153.804688 797.933594 155.371094 797.542969 157.097656 C 803.1875 159.449219 807.972656 162.667969 809.539062 163.84375 C 814.792969 154.273438 818.636719 141.882812 818.714844 141.804688 C 818.792969 141.488281 819.105469 141.332031 819.417969 141.410156 C 819.734375 141.488281 819.890625 141.804688 819.8125 142.117188 C 819.734375 142.273438 815.65625 155.214844 810.246094 164.941406 C 810.167969 165.097656 810.011719 165.175781 809.855469 165.253906 C 809.777344 165.253906 809.777344 165.253906 809.695312 165.253906 C 809.539062 165.253906 809.460938 165.175781 809.304688 165.097656 C 809.226562 165.019531 803.816406 160.941406 797.230469 158.195312 C 794.71875 169.960938 793.859375 187.136719 794.71875 208.390625 C 795.503906 227.53125 797.464844 243.371094 797.464844 243.53125 C 797.542969 243.84375 797.308594 244.15625 796.917969 244.15625 C 796.917969 244.15625 796.835938 244.15625 796.835938 244.15625 C 796.523438 244.15625 796.289062 243.921875 796.289062 243.609375 C 796.289062 243.449219 794.328125 227.53125 793.542969 208.390625 C 792.917969 193.097656 792.917969 173.019531 795.976562 158.351562 C 789.625 161.019531 784.996094 163.765625 784.996094 163.84375 C 784.917969 163.921875 784.761719 163.921875 784.683594 163.921875 C 784.605469 163.921875 784.605469 163.921875 784.527344 163.921875 C 784.371094 163.84375 784.214844 163.765625 784.136719 163.609375 C 778.726562 153.960938 776.136719 142.195312 776.136719 142.117188 Z M 674.988281 164.550781 C 675.066406 164.628906 675.222656 164.707031 675.378906 164.707031 C 675.539062 164.707031 675.695312 164.628906 675.773438 164.550781 L 681.808594 158.511719 C 682.046875 158.273438 682.046875 157.882812 681.808594 157.648438 L 675.773438 151.609375 C 675.539062 151.371094 675.144531 151.371094 674.910156 151.609375 C 674.675781 151.84375 674.675781 152.234375 674.910156 152.46875 L 679.929688 157.488281 L 665.65625 157.488281 C 665.34375 156.390625 664.875 155.371094 664.324219 154.589844 C 661.660156 151.292969 654.445312 145.332031 649.269531 143.609375 C 648.328125 143.292969 647.464844 142.980469 646.761719 142.746094 C 643.074219 141.410156 640.644531 140.550781 639.9375 142.429688 C 639.3125 143.921875 641.507812 146.351562 643.152344 147.921875 C 643.074219 148 643.074219 148 642.996094 148.078125 C 642.371094 148.785156 642.292969 150.117188 642.683594 152.078125 C 643.074219 153.726562 643.703125 155.449219 644.566406 157.253906 C 644.566406 157.253906 644.566406 157.332031 644.644531 157.332031 C 644.644531 157.410156 644.722656 157.410156 644.722656 157.488281 L 543.730469 157.488281 L 543.730469 66.746094 L 548.75 71.765625 C 548.828125 71.84375 548.984375 71.921875 549.140625 71.921875 C 549.296875 71.921875 549.453125 71.84375 549.53125 71.765625 C 549.769531 71.53125 549.769531 71.136719 549.53125 70.902344 L 543.496094 64.863281 C 543.417969 64.785156 543.257812 64.707031 543.101562 64.707031 C 542.945312 64.707031 542.789062 64.785156 542.710938 64.863281 L 536.671875 70.902344 C 536.4375 71.136719 536.4375 71.53125 536.671875 71.765625 C 536.910156 72 537.300781 72 537.535156 71.765625 L 542.554688 66.746094 L 542.554688 158.117188 C 542.554688 158.429688 542.789062 158.746094 543.179688 158.746094 L 645.269531 158.746094 C 645.507812 159.136719 645.664062 159.371094 645.742188 159.449219 C 645.742188 159.53125 645.820312 159.765625 645.898438 160.078125 C 646.289062 161.726562 647.308594 165.882812 648.722656 169.570312 C 650.601562 174.351562 656.71875 177.726562 656.953125 177.882812 C 657.03125 177.960938 657.109375 177.960938 657.269531 177.960938 C 657.425781 177.960938 657.582031 177.882812 657.660156 177.804688 L 666.597656 168.863281 C 666.675781 168.785156 666.753906 168.628906 666.753906 168.46875 C 666.753906 168.15625 666.914062 162.980469 665.972656 158.824219 L 679.929688 158.824219 L 674.910156 163.84375 C 674.753906 163.921875 674.753906 164.3125 674.988281 164.550781 Z M 665.65625 168.078125 L 657.191406 176.628906 C 655.855469 175.84375 651.308594 172.941406 649.820312 169.175781 C 648.800781 166.589844 648.015625 163.765625 647.464844 161.804688 L 650.917969 166.273438 C 650.996094 166.429688 651.230469 166.511719 651.386719 166.511719 C 651.542969 166.511719 651.621094 166.429688 651.777344 166.351562 C 652.015625 166.117188 652.09375 165.804688 651.859375 165.488281 L 646.761719 158.902344 C 646.683594 158.824219 646.210938 158.117188 645.664062 156.863281 C 645.664062 156.863281 645.664062 156.785156 645.585938 156.785156 C 644.800781 155.058594 644.171875 153.488281 643.859375 151.921875 C 643.390625 149.804688 643.703125 149.175781 643.859375 148.941406 C 643.9375 148.863281 644.015625 148.785156 644.09375 148.785156 C 645.113281 149.410156 651.621094 153.726562 653.113281 159.609375 C 653.191406 159.84375 653.425781 160.078125 653.660156 160.078125 C 653.738281 160.078125 653.738281 160.078125 653.816406 160.078125 C 654.132812 160 654.289062 159.6875 654.210938 159.371094 C 652.5625 152.785156 645.191406 148.15625 644.566406 147.765625 C 644.566406 147.765625 644.488281 147.6875 644.410156 147.6875 C 642.214844 145.726562 640.644531 143.6875 640.957031 142.980469 C 641.273438 142.117188 643.390625 142.902344 646.289062 143.921875 C 647.074219 144.234375 647.9375 144.46875 648.878906 144.785156 C 653.816406 146.429688 660.875 152.234375 663.382812 155.371094 C 665.734375 158.195312 665.65625 166.589844 665.65625 168.078125 Z M 704.628906 36 L 518.875 36 C 518.480469 36 518.246094 36.234375 518.246094 36.628906 L 518.246094 52.234375 C 518.246094 52.550781 518.480469 52.863281 518.875 52.863281 L 522.167969 52.863281 L 522.167969 270.429688 C 522.167969 274.351562 525.304688 277.488281 529.222656 277.488281 L 611.242188 277.488281 C 611.164062 277.570312 611.164062 277.648438 611.164062 277.804688 L 611.164062 291.6875 C 607.710938 292 605.046875 294.902344 605.046875 298.351562 C 605.046875 302.039062 608.027344 305.097656 611.789062 305.097656 C 615.554688 305.097656 618.535156 302.117188 618.535156 298.351562 C 618.535156 294.824219 615.867188 292 612.417969 291.6875 L 612.417969 277.804688 C 612.417969 277.726562 612.339844 277.570312 612.339844 277.488281 L 692.789062 277.488281 C 696.707031 277.488281 699.84375 274.351562 699.84375 270.429688 L 699.84375 226.902344 C 699.765625 226.824219 699.6875 226.746094 699.609375 226.746094 C 699.375 226.589844 699.058594 226.273438 698.667969 225.960938 L 698.667969 270.511719 C 698.667969 273.726562 696.003906 276.390625 692.789062 276.390625 L 529.222656 276.390625 C 526.007812 276.390625 523.34375 273.726562 523.34375 270.511719 L 523.34375 52.785156 L 698.511719 52.785156 L 698.511719 188.707031 C 698.902344 189.019531 699.296875 189.332031 699.6875 189.648438 L 699.6875 52.785156 L 704.550781 52.785156 C 704.863281 52.785156 705.175781 52.550781 705.175781 52.15625 L 705.175781 36.628906 C 705.175781 36.234375 704.941406 36 704.628906 36 Z M 617.277344 298.273438 C 617.277344 301.332031 614.769531 303.84375 611.710938 303.84375 C 608.652344 303.84375 606.144531 301.332031 606.144531 298.273438 C 606.144531 295.214844 608.652344 292.707031 611.710938 292.707031 C 614.769531 292.707031 617.277344 295.214844 617.277344 298.273438 Z M 704 51.609375 L 519.421875 51.609375 L 519.421875 37.175781 L 704 37.175781 Z M 795.113281 104.3125 C 794.171875 103.921875 794.722656 102.195312 795.503906 101.804688 C 796.210938 101.410156 796.445312 101.804688 796.523438 102.195312 C 796.601562 102.589844 796.523438 103.058594 796.367188 103.371094 C 796.132812 103.921875 795.660156 104.550781 795.113281 104.3125 Z M 787.035156 101.019531 C 786.09375 100.628906 786.644531 98.902344 787.429688 98.511719 C 788.132812 98.117188 788.371094 98.511719 788.449219 98.902344 C 788.527344 99.292969 788.449219 99.765625 788.292969 100.078125 C 788.054688 100.628906 787.585938 101.253906 787.035156 101.019531 Z M 791.664062 98.667969 C 791.898438 98.429688 792.210938 98.351562 792.523438 98.589844 C 792.761719 98.824219 792.839844 99.136719 792.605469 99.449219 C 789.546875 103.371094 786.722656 108.234375 787.273438 109.097656 C 788.292969 110.667969 790.800781 110.351562 790.878906 110.351562 C 791.191406 110.351562 791.507812 110.511719 791.507812 110.902344 C 791.507812 111.214844 791.347656 111.53125 790.957031 111.53125 C 790.957031 111.53125 790.722656 111.53125 790.328125 111.53125 C 789.308594 111.53125 787.273438 111.292969 786.253906 109.726562 C 785.9375 109.175781 785.3125 106.824219 791.664062 98.667969 Z M 787.113281 115.84375 C 787.195312 115.53125 787.585938 115.371094 787.898438 115.53125 C 791.664062 117.019531 794.878906 114.195312 794.878906 114.117188 C 795.113281 113.882812 795.503906 113.960938 795.738281 114.195312 C 795.976562 114.429688 795.898438 114.824219 795.660156 115.058594 C 795.503906 115.136719 793.230469 117.175781 790.09375 117.175781 C 789.230469 117.175781 788.371094 117.019531 787.429688 116.628906 C 787.113281 116.46875 786.957031 116.15625 787.113281 115.84375 Z M 795.660156 98.039062 C 795.347656 98.039062 795.035156 97.804688 795.035156 97.488281 C 795.035156 97.175781 795.269531 96.863281 795.582031 96.863281 C 799.816406 96.628906 801.542969 99.84375 801.542969 100 C 801.699219 100.3125 801.542969 100.628906 801.308594 100.785156 C 801.230469 100.863281 801.152344 100.863281 801.070312 100.863281 C 800.835938 100.863281 800.679688 100.707031 800.523438 100.550781 C 800.523438 100.46875 799.191406 97.882812 795.660156 98.039062 Z M 795.660156 98.039062 " fill-opacity="1" fill-rule="nonzero"/></g><g fill="#000000" fill-opacity="1"><g transform="translate(94.514075, 192.149987)"><g><path d="M 12.566406 0.328125 C 18.441406 0.328125 22.316406 -3.34375 22.316406 -7.957031 C 22.316406 -13.421875 19.175781 -15.257812 12.648438 -16.238281 C 6.566406 -17.132812 4.976562 -18.847656 4.976562 -22.03125 C 4.976562 -25.539062 7.546875 -27.621094 12.035156 -27.621094 C 16.359375 -27.621094 18.644531 -25.785156 19.335938 -22.152344 L 21.417969 -22.152344 C 20.765625 -26.804688 17.460938 -29.496094 12.035156 -29.496094 C 6.566406 -29.496094 2.855469 -26.394531 2.855469 -21.867188 C 2.855469 -17.257812 5.914062 -15.136719 12.28125 -14.199219 C 18.15625 -13.300781 20.113281 -11.871094 20.113281 -7.792969 C 20.113281 -4.203125 17.132812 -1.550781 12.566406 -1.550781 C 6.488281 -1.550781 4.445312 -4.691406 3.957031 -8.363281 L 1.714844 -8.363281 C 2.324219 -3.589844 5.34375 0.328125 12.566406 0.328125 Z M 12.566406 0.328125 "/></g></g></g><g fill="#000000" fill-opacity="1"><g transform="translate(119.072858, 192.149987)"><g><path d="M 3.34375 7.425781 L 5.507812 7.425781 L 5.507812 -4.855469 C 6.648438 -2.242188 9.382812 0.328125 13.625 0.328125 C 19.132812 0.328125 23.214844 -3.875 23.214844 -10.566406 L 23.214844 -10.894531 C 23.214844 -17.542969 19.011719 -21.664062 13.625 -21.664062 C 9.871094 -21.664062 6.730469 -19.132812 5.507812 -16.359375 L 5.507812 -21.335938 L 3.34375 -21.335938 Z M 13.464844 -1.507812 C 9.015625 -1.507812 5.46875 -4.652344 5.46875 -10.484375 L 5.46875 -10.8125 C 5.46875 -16.6875 9.261719 -19.828125 13.421875 -19.828125 C 17.5 -19.828125 20.96875 -16.6875 20.96875 -10.8125 L 20.96875 -10.484375 C 20.96875 -4.773438 17.949219 -1.507812 13.464844 -1.507812 Z M 13.464844 -1.507812 "/></g></g></g><g fill="#000000" fill-opacity="1"><g transform="translate(144.039603, 192.149987)"><g><path d="M 11.871094 0.328125 C 16.441406 0.328125 19.828125 -1.875 20.726562 -5.957031 L 18.5625 -5.957031 C 17.828125 -2.976562 15.421875 -1.507812 11.871094 -1.507812 C 6.8125 -1.507812 4.078125 -4.773438 4 -10.484375 L 20.886719 -10.484375 L 20.886719 -11.261719 C 20.886719 -18.316406 16.6875 -21.664062 11.546875 -21.664062 C 5.832031 -21.664062 1.753906 -17.214844 1.753906 -10.769531 L 1.753906 -10.445312 C 1.753906 -4.039062 5.710938 0.328125 11.871094 0.328125 Z M 4.078125 -12.238281 C 4.488281 -16.890625 7.425781 -19.828125 11.546875 -19.828125 C 15.707031 -19.828125 18.441406 -17.421875 18.644531 -12.238281 Z M 4.078125 -12.238281 "/></g></g></g><g fill="#000000" fill-opacity="1"><g transform="translate(166.64021, 192.149987)"><g><path d="M 9.015625 0.328125 C 12.605469 0.328125 14.890625 -1.183594 16.238281 -3.265625 L 16.238281 0 L 18.398438 0 L 18.398438 -14.117188 C 18.398438 -19.542969 15.378906 -21.664062 10.933594 -21.664062 C 6.894531 -21.664062 3.222656 -19.785156 2.734375 -15.300781 L 4.855469 -15.300781 C 5.34375 -18.441406 7.628906 -19.828125 10.851562 -19.828125 C 14.605469 -19.828125 16.238281 -18.113281 16.238281 -14.117188 L 16.238281 -12.199219 L 11.789062 -12.199219 C 6.527344 -12.199219 1.796875 -10.6875 1.796875 -5.753906 C 1.796875 -1.714844 4.8125 0.328125 9.015625 0.328125 Z M 9.179688 -1.429688 C 5.671875 -1.429688 3.957031 -3.019531 3.957031 -5.753906 C 3.957031 -9.585938 7.425781 -10.527344 11.871094 -10.527344 L 16.238281 -10.527344 L 16.238281 -6.894531 C 16.238281 -3.710938 13.097656 -1.429688 9.179688 -1.429688 Z M 9.179688 -1.429688 "/></g></g></g><g fill="#000000" fill-opacity="1"><g transform="translate(188.220942, 192.149987)"><g><path d="M 3.34375 0 L 5.507812 0 L 5.507812 -11.300781 L 16.480469 0 L 19.175781 0 L 8.078125 -11.382812 L 18.480469 -21.335938 L 15.910156 -21.335938 L 5.507812 -11.300781 L 5.507812 -31.535156 L 3.34375 -31.535156 Z M 3.34375 0 "/></g></g></g><g fill="#000000" fill-opacity="1"><g transform="translate(208.088261, 192.149987)"><g><path d="M 11.871094 0.328125 C 16.441406 0.328125 19.828125 -1.875 20.726562 -5.957031 L 18.5625 -5.957031 C 17.828125 -2.976562 15.421875 -1.507812 11.871094 -1.507812 C 6.8125 -1.507812 4.078125 -4.773438 4 -10.484375 L 20.886719 -10.484375 L 20.886719 -11.261719 C 20.886719 -18.316406 16.6875 -21.664062 11.546875 -21.664062 C 5.832031 -21.664062 1.753906 -17.214844 1.753906 -10.769531 L 1.753906 -10.445312 C 1.753906 -4.039062 5.710938 0.328125 11.871094 0.328125 Z M 4.078125 -12.238281 C 4.488281 -16.890625 7.425781 -19.828125 11.546875 -19.828125 C 15.707031 -19.828125 18.441406 -17.421875 18.644531 -12.238281 Z M 4.078125 -12.238281 "/></g></g></g><g fill="#000000" fill-opacity="1"><g transform="translate(230.688868, 192.149987)"><g><path d="M 3.34375 0 L 5.507812 0 L 5.507812 -11.832031 C 5.507812 -17.5 8.609375 -19.417969 12.730469 -19.582031 L 12.730469 -21.621094 C 8.8125 -21.5 6.691406 -19.460938 5.507812 -16.847656 L 5.507812 -21.335938 L 3.34375 -21.335938 Z M 3.34375 0 "/></g></g></g><g fill="#000000" fill-opacity="1"><g transform="translate(244.885648, 192.149987)"><g/></g></g><g fill="#000000" fill-opacity="1"><g transform="translate(254.962088, 192.149987)"><g><path d="M 3.753906 0 L 6.039062 0 L 6.039062 -13.667969 L 23.214844 -13.667969 L 23.214844 0 L 25.5 0 L 25.5 -29.167969 L 23.214844 -29.167969 L 23.214844 -15.585938 L 6.039062 -15.585938 L 6.039062 -29.167969 L 3.753906 -29.167969 Z M 3.753906 0 "/></g></g></g><g fill="#000000" fill-opacity="1"><g transform="translate(284.212334, 192.149987)"><g><path d="M 12.074219 -1.507812 C 7.425781 -1.507812 4 -5.019531 4 -10.484375 L 4 -10.8125 C 4 -16.359375 7.507812 -19.828125 12.074219 -19.828125 C 16.605469 -19.828125 20.113281 -16.441406 20.113281 -10.8125 L 20.113281 -10.484375 C 20.113281 -4.976562 16.644531 -1.507812 12.074219 -1.507812 Z M 12.035156 0.328125 C 17.789062 0.328125 22.355469 -4.078125 22.355469 -10.527344 L 22.355469 -10.851562 C 22.355469 -17.339844 17.828125 -21.664062 12.074219 -21.664062 C 6.363281 -21.664062 1.753906 -17.214844 1.753906 -10.8125 L 1.753906 -10.484375 C 1.753906 -4.203125 6.242188 0.328125 12.035156 0.328125 Z M 12.035156 0.328125 "/></g></g></g><g fill="#000000" fill-opacity="1"><g transform="translate(308.322366, 192.149987)"><g><path d="M 7.832031 0 L 10.28125 0 L 15.953125 -17.867188 L 21.253906 0 L 23.742188 0 L 30.476562 -21.335938 L 28.273438 -21.335938 L 22.519531 -2.652344 L 16.890625 -21.335938 L 15.054688 -21.335938 L 9.21875 -2.652344 L 3.507812 -21.335938 L 1.183594 -21.335938 Z M 7.832031 0 "/></g></g></g><g fill="#000000" fill-opacity="1"><g transform="translate(339.979539, 192.149987)"><g><path d="M 2.53125 -10.28125 L 11.054688 -10.28125 L 11.054688 -12.320312 L 2.53125 -12.320312 Z M 2.53125 -10.28125 "/></g></g></g><g fill="#000000" fill-opacity="1"><g transform="translate(353.56438, 192.149987)"><g><path d="M 9.382812 0.285156 C 10.6875 0.285156 11.503906 0.0820312 12.199219 -0.164062 L 12.199219 -2 C 11.464844 -1.753906 10.605469 -1.550781 9.503906 -1.550781 C 7.546875 -1.550781 6.324219 -2.734375 6.324219 -5.304688 L 6.324219 -19.5 L 11.914062 -19.5 L 11.914062 -21.335938 L 6.324219 -21.335938 L 6.324219 -26.191406 L 4.160156 -26.191406 L 4.160156 -21.335938 L 1.019531 -21.335938 L 1.019531 -19.5 L 4.160156 -19.5 L 4.160156 -5.140625 C 4.160156 -1.714844 5.996094 0.285156 9.382812 0.285156 Z M 9.382812 0.285156 "/></g></g></g><g fill="#000000" fill-opacity="1"><g transform="translate(367.353211, 192.149987)"><g><path d="M 12.074219 -1.507812 C 7.425781 -1.507812 4 -5.019531 4 -10.484375 L 4 -10.8125 C 4 -16.359375 7.507812 -19.828125 12.074219 -19.828125 C 16.605469 -19.828125 20.113281 -16.441406 20.113281 -10.8125 L 20.113281 -10.484375 C 20.113281 -4.976562 16.644531 -1.507812 12.074219 -1.507812 Z M 12.035156 0.328125 C 17.789062 0.328125 22.355469 -4.078125 22.355469 -10.527344 L 22.355469 -10.851562 C 22.355469 -17.339844 17.828125 -21.664062 12.074219 -21.664062 C 6.363281 -21.664062 1.753906 -17.214844 1.753906 -10.8125 L 1.753906 -10.484375 C 1.753906 -4.203125 6.242188 0.328125 12.035156 0.328125 Z M 12.035156 0.328125 "/></g></g></g><g clip-path="url(#86f3af78d5)"><path fill="#ffffff" d="M 861.054688 213.253906 C 859.566406 204.234375 856.195312 188.15625 852.351562 175.136719 C 852.351562 175.214844 852.429688 175.292969 852.429688 175.449219 C 856.195312 165.410156 853.136719 151.136719 845.921875 138.117188 C 835.574219 119.449219 830.945312 109.488281 828.828125 95.609375 C 828.75 95.292969 828.75 94.980469 828.671875 94.746094 C 828.59375 94.351562 828.515625 93.960938 828.4375 93.488281 C 828.4375 93.410156 828.4375 93.332031 828.359375 93.253906 C 828.28125 92.941406 828.203125 92.628906 828.125 92.3125 C 828.046875 92.078125 827.964844 91.765625 827.886719 91.53125 C 827.808594 91.214844 827.730469 90.980469 827.652344 90.667969 C 827.574219 90.429688 827.496094 90.195312 827.417969 89.882812 C 827.339844 89.648438 827.261719 89.332031 827.105469 89.097656 C 827.027344 88.863281 826.949219 88.628906 826.789062 88.390625 C 826.710938 88.15625 826.554688 87.84375 826.476562 87.609375 C 826.398438 87.371094 826.242188 87.136719 826.164062 86.902344 C 826.085938 86.667969 825.929688 86.429688 825.851562 86.195312 C 825.769531 85.960938 825.613281 85.726562 825.535156 85.488281 C 825.378906 85.253906 825.300781 85.019531 825.144531 84.785156 C 824.988281 84.550781 824.910156 84.3125 824.75 84.15625 C 824.59375 83.921875 824.515625 83.6875 824.359375 83.53125 C 824.203125 83.292969 824.125 83.136719 823.96875 82.902344 C 823.8125 82.667969 823.652344 82.511719 823.496094 82.273438 C 823.417969 82.117188 823.339844 82.039062 823.261719 81.882812 C 823.183594 81.804688 823.105469 81.726562 823.027344 81.648438 C 822.871094 81.488281 822.714844 81.332031 822.636719 81.097656 C 822.476562 80.863281 822.320312 80.707031 822.085938 80.46875 C 821.929688 80.3125 821.773438 80.15625 821.617188 80 C 821.457031 79.84375 821.222656 79.609375 821.066406 79.449219 C 820.910156 79.292969 820.753906 79.136719 820.597656 78.980469 C 820.359375 78.824219 820.203125 78.589844 819.96875 78.429688 C 819.8125 78.273438 819.65625 78.195312 819.5 78.039062 C 819.261719 77.882812 819.027344 77.648438 818.871094 77.488281 C 818.714844 77.332031 818.558594 77.253906 818.402344 77.097656 C 818.164062 76.941406 817.929688 76.785156 817.695312 76.550781 C 817.539062 76.46875 817.382812 76.3125 817.222656 76.234375 C 816.910156 76.078125 816.675781 75.921875 816.363281 75.6875 C 816.207031 75.609375 816.125 75.53125 815.96875 75.449219 C 815.578125 75.214844 815.109375 74.980469 814.714844 74.824219 C 810.480469 72.785156 805.464844 72.078125 799.816406 72.863281 C 797.308594 73.175781 794.800781 73.882812 792.523438 74.902344 C 782.566406 79.371094 768.53125 125.019531 761.789062 148.863281 C 761.789062 148.863281 761.867188 148.785156 761.867188 148.785156 C 756.613281 152.390625 750.890625 157.097656 745.871094 162.117188 C 738.421875 169.570312 709.960938 198.039062 709.960938 198.039062 C 709.960938 198.039062 705.488281 194.351562 699.609375 189.570312 L 699.609375 52.785156 L 704.472656 52.785156 C 704.785156 52.785156 705.097656 52.550781 705.097656 52.15625 L 705.097656 36.628906 C 705.097656 36.3125 704.863281 36 704.472656 36 L 518.875 36 C 518.480469 36 518.246094 36.234375 518.246094 36.628906 L 518.246094 52.234375 C 518.246094 52.550781 518.480469 52.863281 518.875 52.863281 L 522.167969 52.863281 L 522.167969 270.429688 C 522.167969 274.351562 525.304688 277.488281 529.222656 277.488281 L 611.242188 277.488281 C 611.164062 277.570312 611.164062 277.648438 611.164062 277.804688 L 611.164062 291.6875 C 607.710938 292 605.046875 294.902344 605.046875 298.351562 C 605.046875 302.039062 608.027344 305.097656 611.789062 305.097656 C 615.476562 305.097656 618.535156 302.117188 618.535156 298.351562 C 618.535156 294.824219 615.867188 292 612.417969 291.6875 L 612.417969 277.804688 C 612.417969 277.726562 612.339844 277.570312 612.339844 277.488281 L 692.789062 277.488281 C 696.707031 277.488281 699.84375 274.351562 699.84375 270.429688 L 699.84375 226.902344 C 699.765625 226.824219 699.6875 226.746094 699.609375 226.746094 C 699.53125 226.746094 699.53125 226.667969 699.453125 226.589844 C 699.53125 226.667969 699.609375 226.667969 699.609375 226.746094 C 702.511719 229.097656 709.175781 232.46875 719.839844 228.628906 C 730.425781 224.785156 739.832031 216.550781 744.695312 211.765625 C 749.554688 206.980469 759.199219 195.449219 759.199219 195.449219 C 759.199219 195.449219 759.828125 201.648438 766.964844 206.902344 C 766.964844 206.902344 768.453125 212.863281 768.6875 219.609375 C 768.84375 224.234375 768.375 229.804688 769.707031 233.882812 C 761.867188 248.941406 756.613281 261.253906 754.183594 270.351562 C 751.515625 280.550781 750.027344 292.390625 749.476562 307.6875 C 749.476562 308.46875 749.476562 309.410156 749.476562 310.511719 C 749.476562 310.746094 749.636719 310.980469 749.949219 311.058594 C 758.652344 313.253906 774.414062 314.902344 792.917969 314.902344 C 807.109375 314.902344 822.949219 313.882812 838.472656 311.371094 C 838.238281 312.628906 838.082031 313.726562 837.925781 314.429688 L 837.847656 315.214844 C 837.375 318.039062 837.0625 320.15625 838.238281 321.019531 C 838.160156 321.253906 838.160156 321.488281 838.082031 321.804688 C 838.003906 322.902344 838.472656 323.765625 839.414062 323.921875 C 839.570312 324 839.726562 324 839.964844 324 C 841.0625 324 842.238281 323.214844 843.019531 322.511719 C 843.179688 322.351562 843.335938 322.273438 843.414062 322.195312 C 843.570312 322.117188 843.960938 321.960938 844.511719 321.648438 C 845.296875 321.175781 846.472656 320.15625 848.039062 318.351562 C 851.097656 314.746094 852.902344 309.332031 853.136719 305.804688 C 853.371094 302.273438 853.136719 298.511719 853.136719 298.429688 C 853.136719 298.273438 852.980469 298.039062 852.824219 297.960938 C 853.605469 296.390625 855.488281 291.449219 857.449219 285.488281 C 857.527344 285.253906 857.605469 284.941406 857.683594 284.707031 C 860.035156 277.488281 862.46875 269.097656 862.9375 263.609375 C 863.800781 252.390625 863.25 227.058594 861.054688 213.253906 Z M 699.140625 226.273438 Z M 826.710938 236.628906 Z M 837.453125 253.726562 C 834.160156 247.53125 829.378906 238.980469 827.105469 234.902344 L 832.4375 204.46875 C 832.4375 204.46875 835.101562 227.84375 836.199219 236.707031 C 836.589844 239.6875 836.984375 246.273438 837.453125 253.726562 Z M 837.453125 253.726562 " fill-opacity="1" fill-rule="nonzero"/><path fill="#ffffff" d="M 780.136719 118.273438 C 777.863281 111.609375 788.683594 87.921875 794.09375 81.253906 C 796.835938 85.570312 806.953125 100.550781 817.773438 101.882812 C 817.773438 101.882812 824.203125 99.609375 826.085938 105.097656 C 828.515625 112.390625 820.203125 116.078125 816.046875 114.039062 C 815.96875 114.039062 815.96875 113.960938 815.890625 113.960938 C 815.890625 113.960938 815.8125 113.882812 815.8125 113.882812 C 815.65625 113.804688 815.5 113.648438 815.34375 113.570312 C 815.265625 113.488281 815.265625 113.488281 815.1875 113.410156 C 815.105469 113.648438 815.027344 113.804688 814.949219 114.039062 C 814.949219 114.117188 814.871094 114.195312 814.871094 114.195312 C 814.792969 114.351562 814.714844 114.511719 814.636719 114.746094 C 814.636719 114.824219 814.558594 114.902344 814.558594 114.980469 C 814.480469 115.136719 814.402344 115.371094 814.324219 115.53125 C 814.324219 115.609375 814.246094 115.6875 814.246094 115.765625 C 814.167969 115.921875 814.089844 116.15625 814.007812 116.390625 C 814.007812 116.46875 813.929688 116.550781 813.929688 116.628906 C 813.851562 116.863281 813.773438 117.097656 813.695312 117.253906 C 813.695312 117.332031 813.617188 117.410156 813.617188 117.488281 C 813.539062 117.726562 813.460938 118.039062 813.304688 118.273438 C 813.304688 118.351562 813.304688 118.351562 813.226562 118.429688 C 812.992188 119.058594 812.832031 119.6875 812.597656 120.390625 C 810.480469 127.449219 809.070312 137.175781 814.089844 145.019531 C 813.929688 146.039062 813.851562 146.667969 813.929688 146.824219 C 813.929688 146.824219 786.800781 162.980469 787.976562 143.6875 C 788.132812 141.253906 789.859375 131.921875 791.191406 125.019531 C 786.015625 124.628906 781.703125 122.824219 780.136719 118.273438 Z M 852.273438 298.351562 C 852.039062 298.589844 851.175781 298.351562 850.15625 297.882812 C 850 297.804688 849.765625 297.648438 849.53125 297.570312 C 848.351562 296.941406 847.019531 296.078125 845.921875 295.136719 C 843.414062 293.175781 838.707031 289.648438 838.789062 287.921875 C 838.867188 287.214844 838.628906 280.234375 838.238281 271.609375 C 838.238281 271.214844 838.238281 270.902344 838.160156 270.511719 C 838.003906 267.214844 837.847656 263.6875 837.691406 260.234375 C 837.609375 258.589844 837.53125 256.863281 837.453125 255.214844 C 834.316406 249.253906 829.457031 240.46875 826.867188 235.921875 L 826.789062 236.550781 C 826.398438 237.253906 825.929688 237.882812 825.300781 238.429688 C 820.359375 242.980469 807.894531 244.078125 797.464844 243.765625 C 797.230469 243.765625 797.074219 243.765625 796.917969 243.765625 L 796.679688 243.765625 C 784.996094 243.371094 777.863281 241.726562 772.6875 238.429688 C 771.511719 237.648438 770.648438 236.628906 770.023438 235.371094 C 769.941406 235.136719 769.785156 234.902344 769.707031 234.667969 C 763.984375 245.570312 757.476562 259.449219 754.496094 270.589844 C 751.359375 282.511719 750.261719 295.53125 749.792969 307.765625 C 749.792969 308.550781 749.792969 309.488281 749.792969 310.511719 C 766.023438 314.589844 803.503906 316.550781 838.945312 310.746094 C 838.628906 312.3125 838.394531 313.726562 838.238281 314.589844 C 837.769531 317.570312 837.296875 320 838.394531 320.707031 C 838.472656 320.785156 838.550781 320.785156 838.628906 320.863281 C 838.628906 320.863281 838.394531 321.410156 838.394531 321.960938 C 838.316406 322.589844 838.472656 323.292969 839.257812 323.449219 C 840.277344 323.6875 841.609375 322.746094 842.316406 322.117188 C 842.628906 321.882812 842.785156 321.726562 842.785156 321.726562 C 842.785156 321.726562 843.179688 321.648438 843.882812 321.175781 C 844.589844 320.707031 845.765625 319.765625 847.332031 318.039062 C 850.234375 314.667969 852.117188 309.332031 852.351562 305.804688 C 852.507812 302.039062 852.273438 298.351562 852.273438 298.351562 Z M 611.710938 292.15625 C 608.339844 292.15625 605.59375 294.902344 605.59375 298.273438 C 605.59375 301.648438 608.339844 304.390625 611.710938 304.390625 C 615.082031 304.390625 617.828125 301.648438 617.828125 298.273438 C 617.828125 294.902344 615.082031 292.15625 611.710938 292.15625 Z M 518.875 52.234375 L 522.792969 52.234375 L 522.792969 270.351562 C 522.792969 273.960938 525.695312 276.863281 529.300781 276.863281 L 692.710938 276.863281 C 696.316406 276.863281 699.21875 273.960938 699.21875 270.351562 L 699.21875 52.234375 L 704.707031 52.234375 L 704.707031 36.628906 L 518.875 36.628906 Z M 518.875 52.234375 " fill-opacity="1" fill-rule="nonzero"/></g><g clip-path="url(#d547eac01e)"><path fill="#9c6afd" d="M 607.792969 217.960938 C 607.792969 235.84375 593.050781 250.351562 574.625 251.058594 L 578.386719 212.550781 L 571.09375 215.6875 L 549.925781 193.488281 C 556.039062 188.078125 564.273438 184.707031 573.210938 184.707031 C 592.265625 184.785156 607.792969 199.6875 607.792969 217.960938 Z M 658.523438 205.175781 L 642.839844 205.175781 L 642.839844 252.15625 L 658.523438 252.15625 Z M 642.917969 148.15625 C 642.996094 148.078125 642.996094 148.078125 643.074219 148 C 641.820312 146.824219 640.410156 145.253906 639.859375 143.921875 L 608.027344 120.628906 C 607.871094 120.46875 607.632812 120.550781 607.554688 120.707031 L 606.222656 122.511719 C 606.144531 122.667969 606.144531 122.902344 606.300781 122.980469 L 642.371094 149.332031 C 642.527344 148.863281 642.683594 148.46875 642.917969 148.15625 Z M 642.917969 148.15625 " fill-opacity="1" fill-rule="nonzero"/></g><g clip-path="url(#42e0a7423d)"><path fill="#343434" d="M 540.671875 228.941406 C 539.417969 225.488281 538.710938 221.804688 538.710938 217.960938 C 538.710938 208.3125 543.023438 199.609375 549.925781 193.570312 L 571.09375 215.765625 Z M 769.082031 144.46875 C 773.863281 141.960938 781.546875 139.53125 787.898438 138.511719 C 787.898438 138.511719 787.976562 139.214844 788.210938 140.3125 C 788.839844 136.3125 790.015625 130.039062 791.035156 124.941406 C 785.9375 124.628906 781.703125 122.902344 780.058594 118.273438 C 777.785156 111.609375 788.605469 87.921875 794.015625 81.253906 C 796.757812 85.570312 806.875 100.550781 817.695312 101.882812 C 817.695312 101.882812 824.125 99.609375 826.007812 105.097656 C 828.4375 112.390625 820.125 116.078125 815.96875 114.039062 C 815.890625 114.039062 815.890625 113.960938 815.8125 113.960938 C 815.8125 113.960938 815.734375 113.882812 815.734375 113.882812 C 815.578125 113.804688 815.421875 113.648438 815.265625 113.570312 C 815.1875 113.488281 815.1875 113.488281 815.105469 113.410156 C 815.027344 113.648438 814.949219 113.804688 814.871094 114.039062 C 814.871094 114.117188 814.792969 114.195312 814.792969 114.195312 C 814.714844 114.351562 814.636719 114.511719 814.558594 114.746094 C 814.558594 114.824219 814.480469 114.902344 814.480469 114.980469 C 814.402344 115.136719 814.324219 115.371094 814.246094 115.53125 C 814.246094 115.609375 814.167969 115.6875 814.167969 115.765625 C 814.089844 115.921875 814.007812 116.15625 813.929688 116.390625 C 813.929688 116.46875 813.851562 116.550781 813.851562 116.628906 C 813.773438 116.863281 813.695312 117.097656 813.617188 117.253906 C 813.617188 117.332031 813.539062 117.410156 813.539062 117.488281 C 813.460938 117.726562 813.382812 118.039062 813.226562 118.273438 C 813.226562 118.351562 813.226562 118.351562 813.148438 118.429688 C 812.910156 119.058594 812.753906 119.6875 812.519531 120.390625 C 810.714844 126.351562 809.460938 134.195312 812.128906 141.175781 C 812.363281 140.785156 812.441406 140.390625 812.519531 140.234375 C 816.441406 140.863281 819.339844 141.488281 821.378906 142.039062 C 826.242188 143.449219 839.804688 147.292969 845.921875 158.117188 C 848.117188 161.960938 850.3125 168.234375 852.429688 175.371094 C 856.195312 165.332031 853.136719 151.058594 845.921875 138.039062 C 835.574219 119.371094 830.945312 109.410156 828.828125 95.53125 C 828.75 95.214844 828.75 94.902344 828.671875 94.667969 C 828.59375 94.273438 828.515625 93.882812 828.4375 93.410156 C 828.4375 93.332031 828.4375 93.253906 828.359375 93.175781 C 828.28125 92.863281 828.203125 92.550781 828.125 92.234375 C 828.046875 92 827.964844 91.6875 827.886719 91.449219 C 827.808594 91.136719 827.730469 90.902344 827.652344 90.589844 C 827.574219 90.351562 827.496094 90.039062 827.417969 89.804688 C 827.339844 89.570312 827.261719 89.253906 827.105469 89.019531 C 827.027344 88.785156 826.949219 88.550781 826.789062 88.3125 C 826.710938 88.078125 826.554688 87.765625 826.476562 87.53125 C 826.398438 87.292969 826.242188 87.058594 826.164062 86.824219 C 826.085938 86.589844 825.929688 86.351562 825.851562 86.117188 C 825.769531 85.882812 825.613281 85.648438 825.535156 85.410156 C 825.378906 85.175781 825.300781 84.941406 825.144531 84.707031 C 824.988281 84.46875 824.910156 84.234375 824.75 84.078125 C 824.59375 83.84375 824.4375 83.609375 824.359375 83.449219 C 824.203125 83.214844 824.125 83.058594 823.96875 82.824219 C 823.8125 82.589844 823.652344 82.429688 823.496094 82.195312 C 823.417969 82.039062 823.339844 81.960938 823.261719 81.804688 C 823.183594 81.726562 823.105469 81.648438 823.027344 81.570312 C 822.871094 81.410156 822.714844 81.253906 822.636719 81.019531 C 822.476562 80.785156 822.320312 80.628906 822.085938 80.390625 C 821.929688 80.234375 821.773438 80.078125 821.617188 79.921875 C 821.457031 79.765625 821.222656 79.53125 821.066406 79.371094 C 820.910156 79.214844 820.753906 79.058594 820.597656 78.902344 C 820.359375 78.746094 820.203125 78.511719 819.96875 78.351562 C 819.8125 78.195312 819.65625 78.117188 819.5 77.960938 C 819.261719 77.804688 819.027344 77.570312 818.871094 77.410156 C 818.714844 77.253906 818.558594 77.175781 818.402344 77.019531 C 818.164062 76.863281 817.929688 76.707031 817.695312 76.46875 C 817.539062 76.390625 817.382812 76.234375 817.222656 76.15625 C 816.910156 76 816.675781 75.84375 816.363281 75.609375 C 816.207031 75.53125 816.125 75.449219 815.96875 75.371094 C 815.578125 75.136719 815.109375 74.902344 814.714844 74.746094 C 810.480469 72.707031 805.464844 72 799.816406 72.785156 C 797.308594 73.097656 794.800781 73.804688 792.523438 74.824219 C 782.566406 79.292969 768.53125 124.941406 761.789062 148.785156 C 764.453125 147.136719 766.886719 145.648438 769.082031 144.46875 Z M 675.300781 204.15625 C 673.34375 202.039062 669.890625 197.960938 666.363281 193.726562 L 666.363281 252.15625 L 682.046875 252.15625 L 682.046875 210.824219 C 679.222656 208.15625 676.792969 205.726562 675.300781 204.15625 Z M 554.472656 144.628906 C 555.960938 137.804688 558.234375 130.039062 564.902344 126.589844 C 567.644531 125.097656 571.09375 124.550781 574.074219 125.804688 C 577.054688 127.058594 579.09375 129.882812 582.152344 130.980469 C 585.523438 132.234375 588.421875 130.195312 590.460938 127.609375 C 592.578125 124.941406 593.992188 121.804688 594.933594 118.589844 C 596.890625 112.078125 596.96875 105.097656 599.085938 98.667969 C 600.8125 93.253906 604.261719 87.136719 609.90625 85.175781 C 615.789062 83.136719 621.277344 86.429688 624.570312 91.292969 C 626.296875 93.804688 627.550781 96.707031 628.414062 99.609375 C 629.433594 102.980469 629.667969 106.429688 630.53125 109.882812 C 631.390625 113.332031 632.960938 116.628906 635.863281 118.824219 C 638.449219 120.707031 641.742188 121.332031 644.644531 119.921875 C 647.230469 118.667969 648.957031 116.078125 650.132812 113.570312 C 651.621094 110.273438 652.328125 106.824219 653.269531 103.371094 C 654.367188 99.136719 655.464844 94.902344 656.640625 90.667969 C 657.582031 87.136719 658.835938 83.214844 662.050781 81.097656 C 663.539062 80.15625 665.1875 79.609375 666.992188 79.921875 C 668.246094 80.15625 668.714844 78.273438 667.539062 78.039062 C 664.011719 77.410156 660.640625 79.136719 658.445312 81.882812 C 656.011719 84.941406 655.074219 88.863281 654.132812 92.550781 C 652.957031 96.941406 651.859375 101.253906 650.679688 105.648438 C 649.820312 108.863281 649.035156 112.15625 647.230469 114.980469 C 645.664062 117.488281 643.074219 119.371094 639.9375 118.667969 C 636.332031 117.882812 634.058594 114.511719 632.960938 111.214844 C 631.785156 107.6875 631.628906 104 630.6875 100.46875 C 629.902344 97.410156 628.726562 94.429688 627.160156 91.765625 C 624.179688 86.746094 619.316406 82.429688 613.121094 82.746094 C 606.929688 83.058594 602.300781 87.765625 599.480469 92.941406 C 596.265625 98.980469 595.636719 105.570312 594.460938 112.15625 C 593.835938 115.609375 593.050781 119.136719 591.558594 122.351562 C 590.855469 123.921875 589.914062 125.410156 588.816406 126.746094 C 587.71875 128.078125 586.386719 129.488281 584.503906 129.648438 C 582.855469 129.726562 581.445312 128.785156 580.191406 127.84375 C 578.859375 126.902344 577.679688 125.804688 576.269531 124.941406 C 573.449219 123.214844 570.074219 122.980469 567.019531 123.84375 C 559.882812 125.804688 555.960938 132.390625 553.921875 139.058594 C 553.375 140.785156 552.984375 142.589844 552.589844 144.390625 C 552.277344 145.332031 554.238281 145.882812 554.472656 144.628906 Z M 554.472656 144.628906 " fill-opacity="1" fill-rule="nonzero"/></g><g clip-path="url(#89d2b05e93)"><path fill="#343434" d="M 578.074219 212 L 536.359375 230.117188 C 536.203125 230.195312 536.125 230.273438 536.046875 230.429688 C 535.96875 230.589844 535.96875 230.746094 536.046875 230.902344 C 542.867188 245.488281 557.375 255.371094 573.917969 256.863281 C 573.917969 256.863281 573.917969 256.863281 573.996094 256.863281 C 574.308594 256.863281 574.546875 256.628906 574.546875 256.3125 L 578.78125 212.550781 C 578.78125 212.3125 578.699219 212.15625 578.542969 212 C 578.542969 212 578.308594 211.921875 578.074219 212 Z M 573.527344 255.6875 C 557.84375 254.117188 544.121094 244.707031 537.457031 230.980469 L 577.679688 213.488281 Z M 826.867188 236.46875 L 827.105469 234.980469 C 829.378906 239.058594 834.082031 247.609375 837.453125 253.804688 C 837.53125 254.746094 837.53125 255.6875 837.609375 256.628906 C 834.632812 250.902344 829.535156 241.726562 826.789062 236.707031 C 826.789062 236.550781 826.789062 236.46875 826.867188 236.46875 Z M 779.585938 118.429688 C 777.078125 111.292969 788.605469 87.058594 793.703125 80.863281 C 793.859375 80.707031 794.015625 80.628906 794.171875 80.628906 C 794.328125 80.628906 794.5625 80.707031 794.640625 80.863281 C 797.464844 85.332031 807.34375 99.84375 817.695312 101.175781 C 818.402344 100.941406 821.300781 100.15625 823.734375 101.332031 C 825.066406 102.039062 826.085938 103.136719 826.632812 104.785156 C 828.046875 109.019531 826.007812 111.609375 824.671875 112.785156 C 822.164062 114.980469 818.402344 115.6875 815.8125 114.429688 C 815.734375 114.429688 815.734375 114.351562 815.734375 114.351562 L 815.578125 114.273438 C 815.5 114.273438 815.5 114.195312 815.421875 114.195312 L 814.792969 115.84375 C 814.714844 116 814.636719 116.234375 814.558594 116.46875 L 814.167969 117.570312 C 814.089844 117.804688 814.007812 118.117188 813.929688 118.351562 L 813.851562 118.511719 C 813.617188 119.136719 813.460938 119.765625 813.226562 120.46875 C 810.875 128.234375 810.714844 134.824219 812.597656 140.390625 C 812.519531 140.707031 812.285156 141.175781 811.894531 141.804688 C 809.539062 135.84375 809.539062 128.46875 812.128906 120.15625 C 812.363281 119.449219 812.519531 118.824219 812.753906 118.195312 L 812.753906 118.117188 C 812.832031 117.804688 812.992188 117.570312 813.070312 117.253906 L 813.460938 116.15625 C 813.539062 115.921875 813.617188 115.765625 813.695312 115.53125 L 814.636719 113.175781 C 814.714844 113.019531 814.871094 112.863281 815.027344 112.863281 C 815.1875 112.785156 815.421875 112.863281 815.578125 113.019531 C 815.578125 113.019531 815.65625 113.097656 815.65625 113.097656 C 815.65625 113.097656 815.734375 113.175781 815.734375 113.175781 C 815.890625 113.253906 816.046875 113.332031 816.207031 113.488281 L 816.285156 113.570312 C 816.285156 113.570312 816.363281 113.570312 816.363281 113.570312 C 816.363281 113.570312 816.363281 113.570312 816.441406 113.570312 C 818.558594 114.589844 821.929688 113.960938 824.046875 112.078125 C 826.007812 110.351562 826.554688 108 825.691406 105.332031 C 825.222656 104 824.515625 103.058594 823.417969 102.511719 C 821.144531 101.410156 818.164062 102.429688 818.164062 102.429688 C 818.085938 102.429688 818.007812 102.511719 817.929688 102.429688 C 807.5 101.175781 797.699219 87.53125 794.328125 82.273438 C 792.605469 84.628906 790.410156 88.46875 788.292969 92.785156 C 791.113281 93.410156 792.210938 95.6875 792.289062 95.765625 C 792.445312 96.078125 792.289062 96.390625 792.054688 96.550781 C 791.976562 96.628906 791.898438 96.628906 791.820312 96.628906 C 791.585938 96.628906 791.425781 96.46875 791.269531 96.3125 C 791.191406 96.234375 790.25 94.351562 787.820312 93.882812 C 783.429688 103.058594 779.667969 114.039062 781 118.039062 C 782.332031 121.882812 785.859375 124 791.425781 124.3125 C 791.585938 124.3125 791.742188 124.390625 791.898438 124.550781 C 791.976562 124.707031 792.054688 124.863281 791.976562 125.019531 C 790.800781 130.902344 789.46875 138.039062 788.996094 141.726562 C 788.527344 140.15625 788.371094 138.980469 788.292969 138.589844 C 788.917969 134.824219 789.859375 129.882812 790.722656 125.410156 C 784.683594 125.019531 781 122.589844 779.585938 118.429688 Z M 852.902344 298.273438 C 852.902344 298.039062 852.746094 297.882812 852.507812 297.804688 C 852.351562 297.726562 852.117188 297.726562 851.960938 297.882812 C 851.726562 297.882812 851.097656 297.726562 849.84375 297.019531 C 848.667969 296.390625 847.332031 295.53125 846.316406 294.667969 L 845.453125 293.960938 C 843.492188 292.390625 839.335938 289.175781 839.414062 287.921875 C 839.414062 287.6875 839.257812 287.371094 839.023438 287.292969 C 838.789062 287.214844 838.472656 287.292969 838.316406 287.53125 C 835.730469 291.84375 834.476562 295.609375 834.238281 299.53125 C 834.003906 304.628906 834.554688 305.332031 835.101562 305.570312 C 835.335938 305.648438 835.730469 305.804688 836.199219 305.332031 C 836.511719 305.097656 836.984375 304.46875 837.6875 303.53125 C 838.238281 302.746094 839.257812 301.488281 839.804688 300.941406 C 839.804688 302.511719 839.023438 307.058594 838.472656 310.039062 C 802.875 315.84375 766.101562 313.648438 750.417969 309.882812 C 750.417969 309.019531 750.417969 308.234375 750.417969 307.609375 C 750.96875 292.46875 752.378906 280.707031 755.046875 270.589844 C 757.398438 261.726562 762.414062 249.804688 769.941406 235.214844 C 769.707031 234.746094 769.550781 234.273438 769.394531 233.804688 C 761.554688 248.863281 756.300781 261.175781 753.867188 270.273438 C 751.203125 280.46875 749.714844 292.3125 749.164062 307.609375 C 749.164062 308.390625 749.164062 309.332031 749.164062 310.429688 C 749.164062 310.667969 749.320312 310.902344 749.636719 310.980469 C 758.339844 313.175781 774.097656 314.824219 792.605469 314.824219 C 806.796875 314.824219 822.632812 313.804688 838.160156 311.292969 C 837.925781 312.550781 837.769531 313.648438 837.609375 314.351562 L 837.53125 315.136719 C 837.0625 317.960938 836.75 320.078125 837.925781 320.941406 C 837.847656 321.175781 837.847656 321.410156 837.769531 321.726562 C 837.6875 322.824219 838.160156 323.6875 839.101562 323.84375 C 839.257812 323.921875 839.414062 323.921875 839.648438 323.921875 C 840.746094 323.921875 841.921875 323.136719 842.707031 322.429688 C 842.863281 322.273438 843.019531 322.195312 843.101562 322.117188 C 843.257812 322.039062 843.648438 321.882812 844.199219 321.570312 C 844.980469 321.097656 846.15625 320.078125 847.726562 318.273438 C 850.785156 314.667969 852.585938 309.253906 852.824219 305.726562 C 853.136719 302.117188 852.902344 298.351562 852.902344 298.273438 Z M 851.726562 305.570312 C 851.488281 308.863281 849.765625 314.117188 846.863281 317.410156 C 845.6875 318.824219 844.746094 319.609375 844.039062 320.15625 C 845.136719 317.410156 847.414062 311.84375 847.960938 308.863281 C 848.039062 308.550781 847.804688 308.234375 847.492188 308.15625 C 847.175781 308.078125 846.863281 308.3125 846.785156 308.628906 C 846.078125 312.234375 842.707031 320.234375 842.316406 321.253906 C 842.238281 321.332031 842.160156 321.410156 842.003906 321.570312 C 840.984375 322.429688 840.121094 322.902344 839.492188 322.746094 C 839.335938 322.746094 839.023438 322.667969 839.101562 321.804688 C 839.101562 321.332031 839.257812 320.941406 839.335938 320.863281 C 839.648438 320.15625 843.882812 311.371094 844.589844 305.019531 C 844.589844 304.707031 844.433594 304.390625 844.039062 304.390625 C 843.726562 304.390625 843.414062 304.550781 843.414062 304.941406 C 842.785156 310.117188 839.648438 317.332031 838.550781 319.6875 C 838.238281 318.902344 838.550781 317.175781 838.789062 315.292969 L 838.867188 314.511719 C 839.023438 313.648438 839.257812 312.390625 839.492188 310.902344 C 840.746094 304.078125 841.21875 300.863281 840.824219 300 C 840.667969 299.6875 840.433594 299.53125 840.199219 299.53125 C 840.199219 299.53125 840.121094 299.53125 840.121094 299.53125 C 839.335938 299.53125 838.472656 300.550781 836.75 302.824219 C 836.277344 303.371094 835.886719 304 835.574219 304.3125 C 835.414062 303.921875 835.257812 302.746094 835.414062 299.53125 C 835.574219 296.15625 836.671875 292.863281 838.707031 289.175781 C 839.648438 290.746094 842.003906 292.707031 844.746094 294.824219 L 845.609375 295.449219 C 846.785156 296.390625 848.039062 297.253906 849.292969 297.960938 C 850.46875 298.589844 851.253906 298.902344 851.726562 298.902344 C 851.804688 300.234375 851.882812 302.980469 851.726562 305.570312 Z M 776.136719 142.117188 C 776.058594 141.804688 776.292969 141.488281 776.609375 141.410156 C 776.921875 141.332031 777.234375 141.570312 777.3125 141.882812 C 777.3125 141.960938 779.824219 153.175781 784.996094 162.667969 C 786.488281 161.804688 790.878906 159.371094 796.367188 157.097656 C 796.757812 155.292969 797.230469 153.570312 797.777344 152 C 797.855469 151.6875 798.171875 151.53125 798.484375 151.609375 C 798.796875 151.6875 798.953125 152.078125 798.875 152.3125 C 798.40625 153.804688 797.933594 155.371094 797.542969 157.097656 C 803.1875 159.449219 807.972656 162.667969 809.539062 163.84375 C 814.792969 154.273438 818.636719 141.882812 818.714844 141.804688 C 818.792969 141.488281 819.105469 141.332031 819.417969 141.410156 C 819.734375 141.488281 819.890625 141.804688 819.8125 142.117188 C 819.734375 142.273438 815.65625 155.214844 810.246094 164.941406 C 810.167969 165.097656 810.011719 165.175781 809.855469 165.253906 C 809.777344 165.253906 809.777344 165.253906 809.695312 165.253906 C 809.539062 165.253906 809.460938 165.175781 809.304688 165.097656 C 809.226562 165.019531 803.816406 160.941406 797.230469 158.195312 C 794.71875 169.960938 793.859375 187.136719 794.71875 208.390625 C 795.503906 227.53125 797.464844 243.371094 797.464844 243.53125 C 797.542969 243.84375 797.308594 244.15625 796.917969 244.15625 C 796.917969 244.15625 796.835938 244.15625 796.835938 244.15625 C 796.523438 244.15625 796.289062 243.921875 796.289062 243.609375 C 796.289062 243.449219 794.328125 227.53125 793.542969 208.390625 C 792.917969 193.097656 792.917969 173.019531 795.976562 158.351562 C 789.625 161.019531 784.996094 163.765625 784.996094 163.84375 C 784.917969 163.921875 784.761719 163.921875 784.683594 163.921875 C 784.605469 163.921875 784.605469 163.921875 784.527344 163.921875 C 784.371094 163.84375 784.214844 163.765625 784.136719 163.609375 C 778.726562 153.960938 776.136719 142.195312 776.136719 142.117188 Z M 674.988281 164.550781 C 675.066406 164.628906 675.222656 164.707031 675.378906 164.707031 C 675.539062 164.707031 675.695312 164.628906 675.773438 164.550781 L 681.808594 158.511719 C 682.046875 158.273438 682.046875 157.882812 681.808594 157.648438 L 675.773438 151.609375 C 675.539062 151.371094 675.144531 151.371094 674.910156 151.609375 C 674.675781 151.84375 674.675781 152.234375 674.910156 152.46875 L 679.929688 157.488281 L 665.65625 157.488281 C 665.34375 156.390625 664.875 155.371094 664.324219 154.589844 C 661.660156 151.292969 654.445312 145.332031 649.269531 143.609375 C 648.328125 143.292969 647.464844 142.980469 646.761719 142.746094 C 643.074219 141.410156 640.644531 140.550781 639.9375 142.429688 C 639.3125 143.921875 641.507812 146.351562 643.152344 147.921875 C 643.074219 148 643.074219 148 642.996094 148.078125 C 642.371094 148.785156 642.292969 150.117188 642.683594 152.078125 C 643.074219 153.726562 643.703125 155.449219 644.566406 157.253906 C 644.566406 157.253906 644.566406 157.332031 644.644531 157.332031 C 644.644531 157.410156 644.722656 157.410156 644.722656 157.488281 L 543.730469 157.488281 L 543.730469 66.746094 L 548.75 71.765625 C 548.828125 71.84375 548.984375 71.921875 549.140625 71.921875 C 549.296875 71.921875 549.453125 71.84375 549.53125 71.765625 C 549.769531 71.53125 549.769531 71.136719 549.53125 70.902344 L 543.496094 64.863281 C 543.417969 64.785156 543.257812 64.707031 543.101562 64.707031 C 542.945312 64.707031 542.789062 64.785156 542.710938 64.863281 L 536.671875 70.902344 C 536.4375 71.136719 536.4375 71.53125 536.671875 71.765625 C 536.910156 72 537.300781 72 537.535156 71.765625 L 542.554688 66.746094 L 542.554688 158.117188 C 542.554688 158.429688 542.789062 158.746094 543.179688 158.746094 L 645.269531 158.746094 C 645.507812 159.136719 645.664062 159.371094 645.742188 159.449219 C 645.742188 159.53125 645.820312 159.765625 645.898438 160.078125 C 646.289062 161.726562 647.308594 165.882812 648.722656 169.570312 C 650.601562 174.351562 656.71875 177.726562 656.953125 177.882812 C 657.03125 177.960938 657.109375 177.960938 657.269531 177.960938 C 657.425781 177.960938 657.582031 177.882812 657.660156 177.804688 L 666.597656 168.863281 C 666.675781 168.785156 666.753906 168.628906 666.753906 168.46875 C 666.753906 168.15625 666.914062 162.980469 665.972656 158.824219 L 679.929688 158.824219 L 674.910156 163.84375 C 674.753906 163.921875 674.753906 164.3125 674.988281 164.550781 Z M 665.65625 168.078125 L 657.191406 176.628906 C 655.855469 175.84375 651.308594 172.941406 649.820312 169.175781 C 648.800781 166.589844 648.015625 163.765625 647.464844 161.804688 L 650.917969 166.273438 C 650.996094 166.429688 651.230469 166.511719 651.386719 166.511719 C 651.542969 166.511719 651.621094 166.429688 651.777344 166.351562 C 652.015625 166.117188 652.09375 165.804688 651.859375 165.488281 L 646.761719 158.902344 C 646.683594 158.824219 646.210938 158.117188 645.664062 156.863281 C 645.664062 156.863281 645.664062 156.785156 645.585938 156.785156 C 644.800781 155.058594 644.171875 153.488281 643.859375 151.921875 C 643.390625 149.804688 643.703125 149.175781 643.859375 148.941406 C 643.9375 148.863281 644.015625 148.785156 644.09375 148.785156 C 645.113281 149.410156 651.621094 153.726562 653.113281 159.609375 C 653.191406 159.84375 653.425781 160.078125 653.660156 160.078125 C 653.738281 160.078125 653.738281 160.078125 653.816406 160.078125 C 654.132812 160 654.289062 159.6875 654.210938 159.371094 C 652.5625 152.785156 645.191406 148.15625 644.566406 147.765625 C 644.566406 147.765625 644.488281 147.6875 644.410156 147.6875 C 642.214844 145.726562 640.644531 143.6875 640.957031 142.980469 C 641.273438 142.117188 643.390625 142.902344 646.289062 143.921875 C 647.074219 144.234375 647.9375 144.46875 648.878906 144.785156 C 653.816406 146.429688 660.875 152.234375 663.382812 155.371094 C 665.734375 158.195312 665.65625 166.589844 665.65625 168.078125 Z M 704.628906 36 L 518.875 36 C 518.480469 36 518.246094 36.234375 518.246094 36.628906 L 518.246094 52.234375 C 518.246094 52.550781 518.480469 52.863281 518.875 52.863281 L 522.167969 52.863281 L 522.167969 270.429688 C 522.167969 274.351562 525.304688 277.488281 529.222656 277.488281 L 611.242188 277.488281 C 611.164062 277.570312 611.164062 277.648438 611.164062 277.804688 L 611.164062 291.6875 C 607.710938 292 605.046875 294.902344 605.046875 298.351562 C 605.046875 302.039062 608.027344 305.097656 611.789062 305.097656 C 615.554688 305.097656 618.535156 302.117188 618.535156 298.351562 C 618.535156 294.824219 615.867188 292 612.417969 291.6875 L 612.417969 277.804688 C 612.417969 277.726562 612.339844 277.570312 612.339844 277.488281 L 692.789062 277.488281 C 696.707031 277.488281 699.84375 274.351562 699.84375 270.429688 L 699.84375 226.902344 C 699.765625 226.824219 699.6875 226.746094 699.609375 226.746094 C 699.375 226.589844 699.058594 226.273438 698.667969 225.960938 L 698.667969 270.511719 C 698.667969 273.726562 696.003906 276.390625 692.789062 276.390625 L 529.222656 276.390625 C 526.007812 276.390625 523.34375 273.726562 523.34375 270.511719 L 523.34375 52.785156 L 698.511719 52.785156 L 698.511719 188.707031 C 698.902344 189.019531 699.296875 189.332031 699.6875 189.648438 L 699.6875 52.785156 L 704.550781 52.785156 C 704.863281 52.785156 705.175781 52.550781 705.175781 52.15625 L 705.175781 36.628906 C 705.175781 36.234375 704.941406 36 704.628906 36 Z M 617.277344 298.273438 C 617.277344 301.332031 614.769531 303.84375 611.710938 303.84375 C 608.652344 303.84375 606.144531 301.332031 606.144531 298.273438 C 606.144531 295.214844 608.652344 292.707031 611.710938 292.707031 C 614.769531 292.707031 617.277344 295.214844 617.277344 298.273438 Z M 704 51.609375 L 519.421875 51.609375 L 519.421875 37.175781 L 704 37.175781 Z M 795.113281 104.3125 C 794.171875 103.921875 794.722656 102.195312 795.503906 101.804688 C 796.210938 101.410156 796.445312 101.804688 796.523438 102.195312 C 796.601562 102.589844 796.523438 103.058594 796.367188 103.371094 C 796.132812 103.921875 795.660156 104.550781 795.113281 104.3125 Z M 787.035156 101.019531 C 786.09375 100.628906 786.644531 98.902344 787.429688 98.511719 C 788.132812 98.117188 788.371094 98.511719 788.449219 98.902344 C 788.527344 99.292969 788.449219 99.765625 788.292969 100.078125 C 788.054688 100.628906 787.585938 101.253906 787.035156 101.019531 Z M 791.664062 98.667969 C 791.898438 98.429688 792.210938 98.351562 792.523438 98.589844 C 792.761719 98.824219 792.839844 99.136719 792.605469 99.449219 C 789.546875 103.371094 786.722656 108.234375 787.273438 109.097656 C 788.292969 110.667969 790.800781 110.351562 790.878906 110.351562 C 791.191406 110.351562 791.507812 110.511719 791.507812 110.902344 C 791.507812 111.214844 791.347656 111.53125 790.957031 111.53125 C 790.957031 111.53125 790.722656 111.53125 790.328125 111.53125 C 789.308594 111.53125 787.273438 111.292969 786.253906 109.726562 C 785.9375 109.175781 785.3125 106.824219 791.664062 98.667969 Z M 787.113281 115.84375 C 787.195312 115.53125 787.585938 115.371094 787.898438 115.53125 C 791.664062 117.019531 794.878906 114.195312 794.878906 114.117188 C 795.113281 113.882812 795.503906 113.960938 795.738281 114.195312 C 795.976562 114.429688 795.898438 114.824219 795.660156 115.058594 C 795.503906 115.136719 793.230469 117.175781 790.09375 117.175781 C 789.230469 117.175781 788.371094 117.019531 787.429688 116.628906 C 787.113281 116.46875 786.957031 116.15625 787.113281 115.84375 Z M 795.660156 98.039062 C 795.347656 98.039062 795.035156 97.804688 795.035156 97.488281 C 795.035156 97.175781 795.269531 96.863281 795.582031 96.863281 C 799.816406 96.628906 801.542969 99.84375 801.542969 100 C 801.699219 100.3125 801.542969 100.628906 801.308594 100.785156 C 801.230469 100.863281 801.152344 100.863281 801.070312 100.863281 C 800.835938 100.863281 800.679688 100.707031 800.523438 100.550781 C 800.523438 100.46875 799.191406 97.882812 795.660156 98.039062 Z M 795.660156 98.039062 " fill-opacity="1" fill-rule="nonzero"/></g></svg>